<?xml version="1.0" encoding="UTF-8"?>
<!DOCTYPE svg PUBLIC "-//W3C//DTD SVG 1.1//EN" "http://www.w3.org/Graphics/SVG/1.1/DTD/svg11.dtd">
<svg xmlns="http://www.w3.org/2000/svg" version="1.1" width="1484px" height="116px" style="shape-rendering:geometricPrecision; text-rendering:geometricPrecision; image-rendering:optimizeQuality; fill-rule:evenodd; clip-rule:evenodd" xmlns:xlink="http://www.w3.org/1999/xlink">
<g><path style="opacity:0.853" fill="#002e6c" d="M 872.5,1.5 C 873.833,1.5 875.167,1.5 876.5,1.5C 876.5,39.1667 876.5,76.8333 876.5,114.5C 875.167,114.5 873.833,114.5 872.5,114.5C 872.5,76.8333 872.5,39.1667 872.5,1.5 Z"/></g>
<g><path style="opacity:0.913" fill="#002e6b" d="M 283.5,10.5 C 293.929,9.46392 303.929,10.9639 313.5,15C 315.81,15.4966 318.143,15.6633 320.5,15.5C 321.02,23.8459 321.687,32.1792 322.5,40.5C 321.167,40.5 319.833,40.5 318.5,40.5C 315.208,25.5559 306.042,16.8892 291,14.5C 279.189,16.317 270.856,22.6503 266,33.5C 259.226,51.3199 260.226,68.6532 269,85.5C 283.411,101.542 298.744,102.542 315,88.5C 317.102,85.2954 318.935,81.9621 320.5,78.5C 321.689,77.5713 323.022,77.238 324.5,77.5C 321.768,92.7324 312.768,101.899 297.5,105C 269.979,107.464 253.145,95.297 247,68.5C 243.691,39.0502 255.858,19.7169 283.5,10.5 Z"/></g>
<g><path style="opacity:0.906" fill="#002e6b" d="M 497.5,10.5 C 499.792,10.2436 501.959,10.5769 504,11.5C 513.47,38.2431 523.136,64.9098 533,91.5C 535.262,96.095 538.929,98.7616 544,99.5C 544.49,100.793 544.657,102.127 544.5,103.5C 531.833,103.5 519.167,103.5 506.5,103.5C 506.5,102.167 506.5,100.833 506.5,99.5C 510.962,99.7655 514.795,98.4321 518,95.5C 516.639,86.9095 514.139,78.5761 510.5,70.5C 500.272,69.1818 490.106,69.1818 480,70.5C 477.299,77.6025 474.799,84.7691 472.5,92C 474.399,96.9588 478.066,99.4588 483.5,99.5C 483.5,100.833 483.5,102.167 483.5,103.5C 473.167,103.5 462.833,103.5 452.5,103.5C 452.238,102.022 452.571,100.689 453.5,99.5C 461.906,96.2566 467.406,90.2566 470,81.5C 479.271,57.8489 488.438,34.1822 497.5,10.5 Z M 495.5,29.5 C 500.314,40.494 504.648,51.8273 508.5,63.5C 499.833,64.8333 491.167,64.8333 482.5,63.5C 487.233,52.2993 491.566,40.9659 495.5,29.5 Z"/></g>
<g><path style="opacity:0.992" fill="#002e6b" d="M 17.5,11.5 C 29.5,11.5 41.5,11.5 53.5,11.5C 53.5,20.5 53.5,29.5 53.5,38.5C 41.5,38.5 29.5,38.5 17.5,38.5C 17.5,29.5 17.5,20.5 17.5,11.5 Z"/></g>
<g><path style="opacity:0.898" fill="#002e6b" d="M 1262.5,10.5 C 1270.99,11.7982 1273.49,16.4648 1270,24.5C 1266.55,27.7694 1262.71,28.2694 1258.5,26C 1253.72,19.1463 1255.05,13.9796 1262.5,10.5 Z"/></g>
<g><path style="opacity:0.9" fill="#012e6b" d="M 1341.5,10.5 C 1349.99,11.7982 1352.49,16.4648 1349,24.5C 1345.55,27.7694 1341.71,28.2694 1337.5,26C 1332.72,19.1463 1334.05,13.9796 1341.5,10.5 Z"/></g>
<g><path style="opacity:0.966" fill="#002e6b" d="M 88.5,11.5 C 100.833,11.5 113.167,11.5 125.5,11.5C 125.5,20.5 125.5,29.5 125.5,38.5C 113.167,38.5 100.833,38.5 88.5,38.5C 88.5,29.5 88.5,20.5 88.5,11.5 Z"/></g>
<g><path style="opacity:0.966" fill="#002e6b" d="M 160.5,11.5 C 172.833,11.5 185.167,11.5 197.5,11.5C 197.5,20.5 197.5,29.5 197.5,38.5C 185.167,38.5 172.833,38.5 160.5,38.5C 160.5,29.5 160.5,20.5 160.5,11.5 Z"/></g>
<g><path style="opacity:0.931" fill="#002e6c" d="M 331.5,12.5 C 345.833,12.5 360.167,12.5 374.5,12.5C 374.5,13.8333 374.5,15.1667 374.5,16.5C 370.727,16.2633 367.06,16.7633 363.5,18C 361.667,18.5 360.5,19.6667 360,21.5C 359.333,45.8333 359.333,70.1667 360,94.5C 361.008,96.259 362.508,97.4257 364.5,98C 367.793,98.8256 371.126,99.3256 374.5,99.5C 374.5,100.833 374.5,102.167 374.5,103.5C 360.167,103.5 345.833,103.5 331.5,103.5C 331.5,102.167 331.5,100.833 331.5,99.5C 334.874,99.3256 338.207,98.8256 341.5,98C 343.667,97.1667 345.167,95.6667 346,93.5C 346.167,81.6667 346.333,69.8333 346.5,58C 346.639,45.1002 346.139,32.2668 345,19.5C 340.864,17.0011 336.364,16.0011 331.5,16.5C 331.5,15.1667 331.5,13.8333 331.5,12.5 Z"/></g>
<g><path style="opacity:0.917" fill="#002e6b" d="M 384.5,12.5 C 410.167,12.5 435.833,12.5 461.5,12.5C 461.578,19.515 461.911,26.515 462.5,33.5C 461.127,33.6567 459.793,33.49 458.5,33C 453.467,19.4799 443.8,14.3133 429.5,17.5C 429.333,43.1688 429.5,68.8355 430,94.5C 434.114,98.004 438.947,99.6707 444.5,99.5C 444.5,100.833 444.5,102.167 444.5,103.5C 429.833,103.5 415.167,103.5 400.5,103.5C 400.5,102.167 400.5,100.833 400.5,99.5C 404.188,99.2189 407.855,98.7189 411.5,98C 413.667,97.1667 415.167,95.6667 416,93.5C 416.5,68.1689 416.667,42.8355 416.5,17.5C 401.855,13.8172 392.188,18.9839 387.5,33C 386.207,33.49 384.873,33.6567 383.5,33.5C 383.773,26.4964 384.106,19.4964 384.5,12.5 Z"/></g>
<g><path style="opacity:0.929" fill="#002e6b" d="M 546.5,12.5 C 562.17,12.3334 577.837,12.5001 593.5,13C 618.636,16.6349 631.636,31.1349 632.5,56.5C 631.236,83.594 617.236,99.094 590.5,103C 575.837,103.5 561.17,103.667 546.5,103.5C 546.238,102.022 546.571,100.689 547.5,99.5C 550.564,98.8788 553.564,98.0454 556.5,97C 557.893,95.8289 558.727,94.3289 559,92.5C 559.667,69.5 559.667,46.5 559,23.5C 558.654,21.1523 557.487,19.3189 555.5,18C 552.568,17.0467 549.568,16.5467 546.5,16.5C 546.5,15.1667 546.5,13.8333 546.5,12.5 Z M 572.5,17.5 C 603.025,13.8607 617.692,27.3607 616.5,58C 617.94,88.8137 603.273,101.98 572.5,97.5C 572.5,70.8333 572.5,44.1667 572.5,17.5 Z"/></g>
<g><path style="opacity:0.905" fill="#002e6c" d="M 637.5,12.5 C 661.833,12.5 686.167,12.5 710.5,12.5C 710.5,19.5 710.5,26.5 710.5,33.5C 709.167,33.5 707.833,33.5 706.5,33.5C 705.389,27.4352 702.389,22.6018 697.5,19C 686.578,17.5688 675.578,17.0688 664.5,17.5C 664.5,29.5 664.5,41.5 664.5,53.5C 678.13,56.7805 686.63,51.7805 690,38.5C 691.011,37.6634 692.178,37.33 693.5,37.5C 693.5,50.1667 693.5,62.8333 693.5,75.5C 692.325,75.719 691.325,75.3857 690.5,74.5C 687.368,60.5861 678.702,55.2528 664.5,58.5C 664.5,71.5 664.5,84.5 664.5,97.5C 676.576,97.9375 688.576,97.4375 700.5,96C 706.174,92.8297 709.507,87.9964 710.5,81.5C 712.167,81.5 713.833,81.5 715.5,81.5C 714.608,88.7906 714.274,96.1239 714.5,103.5C 688.833,103.5 663.167,103.5 637.5,103.5C 637.5,102.167 637.5,100.833 637.5,99.5C 640.522,99.196 643.522,98.696 646.5,98C 648.492,97.4257 649.992,96.259 651,94.5C 651.667,70.1667 651.667,45.8333 651,21.5C 650.5,19.6667 649.333,18.5 647.5,18C 644.274,16.8011 640.941,16.3011 637.5,16.5C 637.5,15.1667 637.5,13.8333 637.5,12.5 Z"/></g>
<g><path style="opacity:0.882" fill="#002e6b" d="M 727.5,12.5 C 741.167,12.5 754.833,12.5 768.5,12.5C 768.5,13.8333 768.5,15.1667 768.5,16.5C 763.568,15.7839 759.402,17.1173 756,20.5C 755.5,46.1645 755.333,71.8312 755.5,97.5C 764.994,98.1048 774.328,97.2714 783.5,95C 790.109,89.6305 794.609,82.7972 797,74.5C 798.356,73.6198 799.856,73.2865 801.5,73.5C 800.668,83.4762 800.334,93.4762 800.5,103.5C 776.167,103.5 751.833,103.5 727.5,103.5C 727.5,102.167 727.5,100.833 727.5,99.5C 732.464,99.4866 736.964,98.1533 741,95.5C 741.667,70.5 741.667,45.5 741,20.5C 737.16,17.2447 732.66,15.9114 727.5,16.5C 727.5,15.1667 727.5,13.8333 727.5,12.5 Z"/></g>
<g><path style="opacity:0.929" fill="#002e6b" d="M 992.5,12.5 C 993.833,12.5 995.167,12.5 996.5,12.5C 996.5,21.5 996.5,30.5 996.5,39.5C 994.5,39.5 992.5,39.5 990.5,39.5C 986.437,22.9797 976.437,17.1464 960.5,22C 953.481,28.8103 952.814,36.1436 958.5,44C 967.89,48.5771 977.557,52.5771 987.5,56C 998.95,62.7499 1002.78,72.5833 999,85.5C 994.172,99.0873 984.506,105.754 970,105.5C 963.408,105.236 957.074,103.903 951,101.5C 948.303,104.87 944.803,106.204 940.5,105.5C 940.5,95.8333 940.5,86.1667 940.5,76.5C 942.199,76.3398 943.866,76.5065 945.5,77C 949.173,86.0238 955.173,93.0238 963.5,98C 971.941,100.976 979.441,99.4763 986,93.5C 992.13,82.2223 989.296,74.0556 977.5,69C 968.339,65.7243 959.339,62.0577 950.5,58C 943.185,51.3823 940.685,43.2156 943,33.5C 947.777,19.9313 957.444,13.2647 972,13.5C 977.532,13.6069 982.866,14.6069 988,16.5C 989.397,14.9297 990.897,13.5964 992.5,12.5 Z"/></g>
<g><path style="opacity:0.952" fill="#002f6b" d="M 1299.5,20.5 C 1300.5,20.5 1301.5,20.5 1302.5,20.5C 1302.5,27.8333 1302.5,35.1667 1302.5,42.5C 1308.5,42.5 1314.5,42.5 1320.5,42.5C 1320.5,44.5 1320.5,46.5 1320.5,48.5C 1314.5,48.5 1308.5,48.5 1302.5,48.5C 1302.33,62.8372 1302.5,77.1705 1303,91.5C 1305.47,95.8781 1308.97,97.0448 1313.5,95C 1315.51,91.9312 1318.18,90.2646 1321.5,90C 1322.02,90.5613 1322.36,91.228 1322.5,92C 1316.64,103.718 1307.64,107.052 1295.5,102C 1293.11,100.048 1291.61,97.5478 1291,94.5C 1290.5,79.1703 1290.33,63.837 1290.5,48.5C 1286.83,48.5 1283.17,48.5 1279.5,48.5C 1279.29,46.8561 1279.62,45.3561 1280.5,44C 1283.8,43.5426 1286.96,42.7093 1290,41.5C 1290.17,35.8042 1290.67,30.1376 1291.5,24.5C 1294.36,23.3391 1297.03,22.0057 1299.5,20.5 Z"/></g>
<g><path style="opacity:0.898" fill="#002e6b" d="M 1031.5,40.5 C 1051.27,41.2702 1060.6,51.6035 1059.5,71.5C 1046.17,71.5 1032.83,71.5 1019.5,71.5C 1018.88,85.2978 1025.21,93.6311 1038.5,96.5C 1040.87,96.1583 1043.2,95.6583 1045.5,95C 1049.93,92.4045 1053.93,89.2378 1057.5,85.5C 1058.83,86.1667 1059.83,87.1667 1060.5,88.5C 1050.87,104.005 1037.53,108.172 1020.5,101C 1010.9,94.2574 1006.24,84.9241 1006.5,73C 1006.62,55.5054 1014.95,44.6721 1031.5,40.5 Z M 1032.5,45.5 C 1043.51,47.4648 1048.17,54.1314 1046.5,65.5C 1037.51,65.9662 1028.51,66.2996 1019.5,66.5C 1019.59,56.6164 1023.92,49.6164 1032.5,45.5 Z"/></g>
<g><path style="opacity:0.907" fill="#002e6b" d="M 1092.5,40.5 C 1101.23,39.9081 1108.73,42.5747 1115,48.5C 1118.48,53.206 1118.32,57.706 1114.5,62C 1107.99,65.2191 1103.99,63.3857 1102.5,56.5C 1103.14,53.6137 1103.97,50.947 1105,48.5C 1094.11,43.3991 1086.11,46.3991 1081,57.5C 1078.26,68.2485 1079.26,78.5818 1084,88.5C 1095.18,98.2523 1105.85,97.5856 1116,86.5C 1118.88,88.463 1119.21,90.7964 1117,93.5C 1107.46,104.092 1095.96,106.926 1082.5,102C 1071.61,95.7282 1066.28,86.2282 1066.5,73.5C 1066.88,55.6563 1075.54,44.6563 1092.5,40.5 Z"/></g>
<g><path style="opacity:0.902" fill="#002e6b" d="M 1384.5,40.5 C 1404.26,41.2611 1413.59,51.5945 1412.5,71.5C 1399.17,71.5 1385.83,71.5 1372.5,71.5C 1371.86,85.5977 1378.36,93.9311 1392,96.5C 1394.25,96.3687 1396.42,95.8687 1398.5,95C 1402.93,92.4045 1406.93,89.2378 1410.5,85.5C 1411.83,86.1667 1412.83,87.1667 1413.5,88.5C 1404.7,103.379 1392.04,107.879 1375.5,102C 1368.88,98.71 1364.38,93.5433 1362,86.5C 1357.28,71.083 1360.44,57.583 1371.5,46C 1375.72,43.5488 1380.05,41.7155 1384.5,40.5 Z M 1385.5,45.5 C 1396.07,47.26 1400.9,53.5933 1400,64.5C 1390.94,66.1037 1381.77,66.6037 1372.5,66C 1373.38,61.0129 1374.88,56.1795 1377,51.5C 1379.32,48.6047 1382.16,46.6047 1385.5,45.5 Z"/></g>
<g><path style="opacity:0.906" fill="#002e6b" d="M 1440.5,40.5 C 1445.68,40.6028 1450.68,41.6028 1455.5,43.5C 1457.26,41.2623 1459.59,40.2623 1462.5,40.5C 1462.5,46.8333 1462.5,53.1667 1462.5,59.5C 1460.4,59.7989 1458.4,59.4656 1456.5,58.5C 1453.7,51.8615 1448.86,47.5281 1442,45.5C 1431.79,48.3795 1429.96,53.8795 1436.5,62C 1442.09,64.1971 1447.76,66.1971 1453.5,68C 1463.55,72.2695 1467.05,79.7695 1464,90.5C 1460.78,99.5256 1454.28,104.192 1444.5,104.5C 1439.22,104.178 1434.22,102.844 1429.5,100.5C 1427.48,103.206 1424.81,104.539 1421.5,104.5C 1421.5,97.5 1421.5,90.5 1421.5,83.5C 1423.2,83.3398 1424.87,83.5065 1426.5,84C 1429.6,88.1847 1432.93,92.1847 1436.5,96C 1443.61,101.17 1449.78,100.336 1455,93.5C 1456.1,89.4948 1455.26,85.9948 1452.5,83C 1444.5,79.6667 1436.5,76.3333 1428.5,73C 1422.88,68.0712 1421.05,61.9045 1423,54.5C 1426.08,46.2424 1431.91,41.5758 1440.5,40.5 Z"/></g>
<g><path style="opacity:0.911" fill="#002e6c" d="M 1126.5,41.5 C 1132.17,41.5 1137.83,41.5 1143.5,41.5C 1143.33,55.8372 1143.5,70.1705 1144,84.5C 1144.85,91.5945 1148.85,95.2612 1156,95.5C 1160.48,95.1056 1164.64,93.7722 1168.5,91.5C 1169.67,77.5119 1169.83,63.5119 1169,49.5C 1166.44,47.8207 1163.6,47.154 1160.5,47.5C 1160.5,45.8333 1160.5,44.1667 1160.5,42.5C 1167.46,41.6591 1174.46,41.3257 1181.5,41.5C 1181.33,59.5031 1181.5,77.5031 1182,95.5C 1184.72,97.7945 1187.89,98.7945 1191.5,98.5C 1191.5,100.167 1191.5,101.833 1191.5,103.5C 1184.17,103.5 1176.83,103.5 1169.5,103.5C 1169.66,101.143 1169.5,98.8098 1169,96.5C 1160.52,103.329 1151.02,105.495 1140.5,103C 1135.28,100.067 1132.45,95.5674 1132,89.5C 1131.67,76.1667 1131.33,62.8333 1131,49.5C 1128.44,47.8207 1125.6,47.154 1122.5,47.5C 1122.5,45.8333 1122.5,44.1667 1122.5,42.5C 1124.1,42.7678 1125.43,42.4345 1126.5,41.5 Z"/></g>
<g><path style="opacity:0.906" fill="#002f6b" d="M 1201.5,41.5 C 1206.83,41.5 1212.17,41.5 1217.5,41.5C 1217.34,44.1873 1217.5,46.854 1218,49.5C 1223.99,41.9129 1231.49,39.7462 1240.5,43C 1245.83,48 1245.83,53 1240.5,58C 1233.04,60.0434 1229.04,57.21 1228.5,49.5C 1224.09,50.4568 1220.59,52.7901 1218,56.5C 1217.33,69.5 1217.33,82.5 1218,95.5C 1221.16,97.438 1224.66,98.438 1228.5,98.5C 1228.5,100.167 1228.5,101.833 1228.5,103.5C 1217.5,103.5 1206.5,103.5 1195.5,103.5C 1195.5,101.833 1195.5,100.167 1195.5,98.5C 1199.03,98.4947 1202.2,97.4947 1205,95.5C 1205.67,80.5 1205.67,65.5 1205,50.5C 1202.36,47.9712 1199.19,46.9712 1195.5,47.5C 1195.5,45.8333 1195.5,44.1667 1195.5,42.5C 1197.74,42.7947 1199.74,42.4614 1201.5,41.5 Z"/></g>
<g><path style="opacity:0.934" fill="#002f6c" d="M 1254.5,41.5 C 1259.5,41.5 1264.5,41.5 1269.5,41.5C 1269.33,59.5031 1269.5,77.5031 1270,95.5C 1272.8,97.4947 1275.97,98.4947 1279.5,98.5C 1279.5,100.167 1279.5,101.833 1279.5,103.5C 1269.17,103.5 1258.83,103.5 1248.5,103.5C 1248.5,101.833 1248.5,100.167 1248.5,98.5C 1251.48,98.3797 1254.31,97.713 1257,96.5C 1257.67,80.8333 1257.67,65.1667 1257,49.5C 1254.44,47.8207 1251.6,47.154 1248.5,47.5C 1248.5,45.8333 1248.5,44.1667 1248.5,42.5C 1250.74,42.7947 1252.74,42.4614 1254.5,41.5 Z"/></g>
<g><path style="opacity:0.899" fill="#002e6b" d="M 1333.5,41.5 C 1338.5,41.5 1343.5,41.5 1348.5,41.5C 1348.33,59.5031 1348.5,77.5031 1349,95.5C 1351.8,97.4947 1354.97,98.4947 1358.5,98.5C 1358.5,100.167 1358.5,101.833 1358.5,103.5C 1348.17,103.5 1337.83,103.5 1327.5,103.5C 1327.5,101.833 1327.5,100.167 1327.5,98.5C 1330.48,98.3797 1333.31,97.713 1336,96.5C 1336.67,81.1667 1336.67,65.8333 1336,50.5C 1333.85,47.8757 1331.01,46.8757 1327.5,47.5C 1327.5,45.8333 1327.5,44.1667 1327.5,42.5C 1329.74,42.7947 1331.74,42.4614 1333.5,41.5 Z"/></g>
<g><path style="opacity:0.988" fill="#002e6b" d="M 17.5,44.5 C 46.5,44.5 75.5,44.5 104.5,44.5C 104.5,53.5 104.5,62.5 104.5,71.5C 75.5,71.5 46.5,71.5 17.5,71.5C 17.5,62.5 17.5,53.5 17.5,44.5 Z"/></g>
<g><path style="opacity:0.978" fill="#002e6b" d="M 109.5,44.5 C 138.833,44.5 168.167,44.5 197.5,44.5C 197.5,53.5 197.5,62.5 197.5,71.5C 168.167,71.5 138.833,71.5 109.5,71.5C 109.5,62.5 109.5,53.5 109.5,44.5 Z"/></g>
<g><path style="opacity:0.961" fill="#002e6b" d="M 17.5,76.5 C 77.5,76.5 137.5,76.5 197.5,76.5C 197.5,85.5 197.5,94.5 197.5,103.5C 137.5,103.5 77.5,103.5 17.5,103.5C 17.5,94.5 17.5,85.5 17.5,76.5 Z"/></g>
</svg>
