<svg width="250" height="116" viewBox="0 0 250 116" fill="none" xmlns="http://www.w3.org/2000/svg">
<g clip-path="url(#clip0_11_543)">
<path d="M14.2261 98.824L20.1062 84.5979H26.3657V85.5463L15.7436 110.015H13.088L2.27618 85.5463V84.5979H8.53567L14.2261 98.824Z" fill="black"/>
<path d="M48.3687 104.135V109.826H35.6601V104.135H38.8847V90.0986H35.8498V84.4082H48.1791V90.0986H45.1442V104.135H48.3687Z" fill="black"/>
<path d="M69.9924 98.824L75.8725 84.5979H82.132V85.5463L71.5099 110.015H68.8543L58.0425 85.5463V84.5979H64.302L69.9924 98.824Z" fill="black"/>
<path d="M104.514 84.2185C109.825 84.2185 115.326 87.0637 116.275 93.8923C113.998 93.8923 112.102 93.8923 110.015 93.8923C109.067 91.4264 107.17 90.0986 104.514 90.0986C100.721 90.0986 98.2549 92.9438 98.2549 97.1168C98.2549 100.91 100.721 104.135 104.514 104.135C107.17 104.135 109.446 102.807 110.205 100.152C112.291 100.152 114.378 100.152 116.464 100.152C115.706 107.17 110.015 110.015 104.514 110.015C98.0653 110.015 91.6161 105.652 91.6161 97.1168C91.6161 88.5812 98.2549 84.2185 104.514 84.2185Z" fill="black"/>
<path d="M127.086 97.3065C127.086 79.8558 152.883 79.8558 152.883 97.3065C153.073 114.757 127.086 114.757 127.086 97.3065ZM146.434 97.3065C146.434 88.2018 133.725 88.2018 133.725 97.3065C133.725 106.411 146.434 106.411 146.434 97.3065Z" fill="black"/>
<path d="M178.68 101.29V84.5979C180.766 84.5979 182.853 84.5979 184.75 84.5979V101.48C184.75 106.98 180.008 110.205 174.697 110.205C169.575 110.205 164.643 106.98 164.643 101.48V84.5979C166.73 84.5979 168.816 84.5979 170.713 84.5979V101.29C170.713 103.376 172.61 104.325 174.507 104.325C176.783 104.325 178.68 103.376 178.68 101.29Z" fill="black"/>
<path d="M219.651 108.877V109.826H212.443L208.08 102.428H204.666V109.826C202.58 109.826 200.304 109.826 198.217 109.826C198.217 101.48 198.217 92.9439 198.217 84.5979C201.821 84.5979 205.615 84.5979 209.219 84.5979C219.082 84.5979 220.979 96.5478 214.53 100.91L219.651 108.877ZM209.408 90.2883C207.891 90.2883 206.373 90.2883 204.856 90.2883C204.856 92.3748 204.856 94.651 204.856 96.5478H209.408C212.822 96.5478 213.012 90.2883 209.408 90.2883Z" fill="black"/>
<path d="M228.187 90.2883C228.187 88.3915 228.187 86.4947 228.187 84.5979H246.965C246.965 86.4947 246.965 88.3915 246.965 90.2883H240.895V109.826C238.809 109.826 236.722 109.826 234.446 109.826V90.2883H228.187Z" fill="black"/>
<path d="M213.771 1.13806C211.684 6.63882 191.768 18.3991 172.42 25.0379C153.073 31.6768 143.209 33.3839 141.502 36.2291C139.985 39.0743 131.07 48.5584 120.827 61.0774C119.499 62.5948 113.05 65.0607 108.498 62.7845C106.411 61.6464 102.238 61.267 102.238 61.267L100.91 61.6464C100.91 61.6464 99.393 62.7845 100.531 64.4916C98.824 64.871 95.5994 58.8012 99.393 56.3353C101.48 55.0076 102.238 51.5933 108.118 50.2655C116.844 45.1441 115.895 44.3854 108.877 44.006C106.411 43.8164 85.9257 44.006 73.0273 43.6267C52.1624 42.868 49.3172 38.695 47.61 32.8148C43.2474 42.1092 67.1472 54.2488 71.6996 55.3869C76.2519 56.525 89.1502 57.2837 89.1502 57.2837C89.1502 57.2837 101.29 70.5614 102.807 70.9408C104.135 71.3202 134.294 71.3202 136.571 70.9408C138.847 70.5614 144.537 59.5599 149.09 59.5599C153.642 59.5599 157.815 57.8528 160.66 56.525C162.557 55.5766 161.988 52.5417 164.833 52.9211C167.678 53.3004 172.8 52.9211 174.507 51.5933C176.024 50.2655 175.076 40.9711 175.076 40.9711C175.076 40.9711 161.608 47.2306 159.712 45.7132C158.574 44.9544 166.92 38.695 181.335 36.4188C188.733 35.2807 197.458 30.349 199.924 27.6934C204.287 22.3824 219.651 1.13806 213.771 1.13806Z" fill="black"/>
</g>
<defs>
<clipPath id="clip0_11_543">
<rect width="250" height="115.706" fill="white"/>
</clipPath>
</defs>
</svg>
