<svg width="1742" height="900" viewBox="0 0 1742 900" fill="none" xmlns="http://www.w3.org/2000/svg">
<g opacity="0.1">
<path d="M285.031 337.941C283.996 341.405 284.154 345.218 284.012 348.808C283.864 352.519 283.854 356.22 283.851 359.933C283.845 367.35 283.825 374.766 283.914 382.183L284.445 426.682C284.623 441.515 284.467 456.346 284.655 471.182L284.931 493.434C285.024 500.836 284.471 508.591 285.674 515.905C286.614 521.623 296.57 521.767 297.368 515.905C298.37 508.549 297.651 500.851 297.543 493.434L297.217 471.184C297 456.345 296.441 441.52 296.215 426.684L295.536 382.185C295.422 374.766 295.201 367.351 294.994 359.935C294.89 356.221 294.778 352.518 294.53 348.81C294.29 345.235 294.371 341.367 293.246 337.943C291.945 333.98 286.263 333.812 285.029 337.943L285.031 337.941Z" fill="#171717"/>
</g>
<g opacity="0.1">
<path d="M268.389 546.759C273.073 548.468 277.556 542.224 279.878 539.011C282.965 534.739 284.972 529.782 285.728 524.566C286.089 521.828 283.307 519.322 280.84 519.029C277.933 518.68 275.63 520.358 274.654 523.067C273.026 527.593 271.775 531.822 269.206 535.977C267.427 538.856 262.975 544.784 268.389 546.759Z" fill="#171717"/>
</g>
<g opacity="0.1">
<path d="M256.268 547.467C238.578 543.66 219.339 545.675 201.869 549.802C183.712 554.082 166.557 561.84 151.351 572.647C120.615 594.541 98.97 626.785 91.1436 663.786C88.9208 674.199 87.7608 684.812 87.6818 695.46C87.6531 700.762 87.9195 706.06 88.4796 711.332C89.0788 716.958 89.5284 722.788 91.9526 727.936C94.1852 732.672 101.909 731.351 103.043 726.487C103.29 725.425 103.468 724.368 103.648 723.293C104.487 718.295 99.3133 715.267 95.3767 718.478C94.532 719.167 93.6986 719.843 92.9014 720.582L103.26 724.874C103.413 720.518 102.166 716.203 101.672 711.877C101.174 707.52 100.879 703.145 100.786 698.753C100.574 690.189 101.157 681.623 102.528 673.168C105.362 655.981 111.187 639.425 119.741 624.251C128.032 609.372 139.113 596.232 152.377 585.548C165.891 574.788 181.439 566.927 197.655 561.145C206.874 557.883 216.429 555.66 226.141 554.519C235.93 553.358 245.631 553.401 255.467 553.396C258.786 553.396 259.668 548.204 256.268 547.473V547.467Z" fill="#171717"/>
</g>
<path fill-rule="evenodd" clip-rule="evenodd" d="M301.71 240.684L301.601 240.709C298.167 242.662 294.631 244.64 290.725 245.221C286.818 245.802 282.408 244.691 280.101 241.483C277.626 238.032 278.213 233.242 279.751 229.278C282.386 222.476 288.641 216.202 295.904 216.844C293.615 210.716 293.317 203.747 295.702 197.651C298.088 191.556 303.279 186.481 309.617 184.848C315.955 183.215 323.262 185.361 327.261 190.538C328.962 185.042 331.15 179.561 334.871 175.176C338.591 170.791 344.097 167.6 349.846 167.834C355.595 168.068 361.269 172.363 361.951 178.079C362.734 170.856 370.646 165.637 377.818 166.79C384.99 167.943 390.63 174.442 391.884 181.597C392.667 186.026 391.742 191.084 388.257 193.921C394.772 197.591 399.536 204.409 400.26 211.851C400.985 219.293 397.433 227.113 391.093 231.08C384.754 235.046 375.874 234.683 370.15 229.876C369.067 233.147 367.067 236.039 364.387 238.205C361.709 240.372 358.464 241.724 355.038 242.099C351.613 242.474 348.152 241.857 345.068 240.321C341.983 238.786 339.405 236.396 337.64 233.437C336.575 235.409 335.077 237.115 333.258 238.426C331.439 239.737 329.346 240.618 327.137 241.004C324.929 241.389 322.662 241.269 320.506 240.653C318.351 240.036 316.363 238.939 314.693 237.444C314.882 241.2 314.133 244.944 312.512 248.337C310.892 251.731 308.45 254.667 305.409 256.88C302.368 259.093 298.824 260.513 295.096 261.01C291.369 261.509 287.575 261.071 284.061 259.734L283.884 259.676C284.211 258.783 284.537 257.888 284.864 256.994L284.865 256.992C285.292 255.822 285.718 254.652 286.148 253.488C288.057 254.387 290.183 254.725 292.278 254.463C294.372 254.201 296.349 253.351 297.98 252.01C299.61 250.669 300.826 248.893 301.486 246.888C302.147 244.883 302.226 242.732 301.712 240.685L301.71 240.684ZM375.123 171.998C375.256 171.313 375.919 170.867 376.604 170.999C378.347 171.338 380.001 172.04 381.456 173.059C382.911 174.079 384.135 175.393 385.049 176.917C385.962 178.441 386.545 180.14 386.759 181.904C386.972 183.667 386.813 185.456 386.29 187.154C386.084 187.821 385.377 188.195 384.711 187.99C384.045 187.784 383.671 187.077 383.876 186.411C384.295 185.052 384.423 183.62 384.252 182.208C384.08 180.795 383.614 179.435 382.882 178.216C382.151 176.996 381.172 175.944 380.007 175.128C378.842 174.312 377.518 173.749 376.122 173.479C375.437 173.345 374.99 172.683 375.123 171.998ZM353.857 172.129C352.464 171.081 350.76 170.529 349.016 170.561C348.319 170.574 347.764 171.149 347.776 171.846C347.789 172.543 348.364 173.098 349.061 173.086C350.242 173.065 351.396 173.438 352.341 174.148C353.285 174.858 353.965 175.862 354.273 177.002C354.454 177.675 355.148 178.073 355.821 177.892C356.495 177.71 356.893 177.016 356.711 176.343C356.256 174.66 355.251 173.177 353.857 172.129Z" fill="url(#paint0_linear_293_597)"/>
<path fill-rule="evenodd" clip-rule="evenodd" d="M398.836 600.566C397.928 605.782 397.8 611.104 398.457 616.358L398.485 616.77C399.705 616.694 400.934 616.635 402.164 616.602C405.863 616.448 409.569 616.374 413.281 616.383C413.903 611.597 414.041 606.76 413.694 601.946C413.517 599.446 413.155 596.819 411.589 594.866C410.958 594.078 410.16 593.441 409.253 592.999C408.345 592.558 407.35 592.325 406.341 592.316C405.332 592.307 404.334 592.523 403.418 592.948C402.503 593.374 401.694 593.997 401.05 594.774C399.711 596.382 399.19 598.503 398.836 600.566ZM410.223 596.185C409.917 595.558 409.161 595.297 408.534 595.602C407.908 595.907 407.646 596.663 407.951 597.29C409.545 600.567 410.11 604.251 409.57 607.855C409.468 608.545 409.943 609.188 410.632 609.291C411.323 609.394 411.965 608.919 412.069 608.228C412.683 604.12 412.04 599.921 410.223 596.185Z" fill="url(#paint1_linear_293_597)"/>
<path fill-rule="evenodd" clip-rule="evenodd" d="M344.653 725.125C339.481 673.294 337.616 621.185 339.069 569.116L339.005 569.057C337.717 570.302 335.537 570.589 333.643 570.69L318.221 571.523C316.9 571.59 315.418 571.607 314.299 571.01C310.592 622.614 308.248 674.272 307.27 725.983L307.278 726.682L344.67 726.034L344.653 725.125ZM332.946 578.338C332.951 577.64 332.39 577.071 331.693 577.066C330.995 577.061 330.426 577.622 330.421 578.319L329.528 706.072C329.523 706.769 330.084 707.339 330.781 707.343C331.479 707.348 332.048 706.787 332.053 706.09L332.946 578.338Z" fill="url(#paint2_linear_293_597)"/>
<path d="M448.072 269.742L422.178 317.977L422.061 318.314L370.443 324.56L370.426 324.408L386.276 274.894L448.072 269.742Z" fill="#171717"/>
<path d="M426.161 360.251C428.854 364.259 431.515 368.333 433.324 372.811C435.294 377.651 436.228 383.072 434.983 388.157C434.283 391.011 432.449 394.031 429.529 394.38C427.916 394.483 426.327 393.945 425.11 392.882C423.914 391.82 422.864 390.605 421.987 389.268C418.645 384.613 415.301 379.963 411.953 375.319L411.229 375.21C414.058 356.152 418.064 337.204 422.055 318.356L422.232 318.39C421.701 325.233 423.427 332.127 426.465 338.281C429.504 344.435 433.831 349.888 438.612 354.805C439.862 355.986 440.98 357.299 441.946 358.721C442.908 360.163 443.283 361.919 442.995 363.629C442.448 366.154 439.888 367.905 437.312 368.057C434.737 368.208 432.237 366.979 430.301 365.279C428.712 363.786 427.321 362.097 426.161 360.251Z" fill="#171717"/>
<path d="M339.869 543.442L342.106 543.063L342.246 543.889C341.058 546.515 343.015 550.068 341.152 552.264C340.914 552.544 340.63 552.781 340.313 552.964C339.152 553.516 337.877 553.785 336.592 553.747C329.353 554.033 322.116 554.322 314.882 554.614C314.422 554.645 313.959 554.625 313.502 554.554C313.229 554.508 312.967 554.414 312.727 554.275C311.987 553.689 311.499 552.843 311.364 551.909C310.8 549.774 310.382 547.603 310.112 545.411L310.137 544.603C311.451 544.637 312.773 544.679 314.086 544.721C313.039 539.699 312.26 534.625 311.754 529.519L311.888 529.501L340.696 526.673L341.664 526.774L339.869 543.442Z" fill="url(#paint3_linear_293_597)"/>
<path d="M340.441 553.162C340.357 557.202 340.27 561.24 340.181 565.275C340.227 566.245 340.06 567.213 339.691 568.112C339.511 568.46 339.279 568.779 339.001 569.055C337.713 570.3 335.533 570.587 333.639 570.688L318.217 571.521C316.896 571.591 315.414 571.605 314.295 571.008C313.949 570.828 313.643 570.582 313.393 570.283C312.518 569.257 312.501 567.784 312.544 566.438C312.653 562.666 312.919 558.906 313.343 555.157L313.503 554.551C313.96 554.622 314.423 554.641 314.884 554.61C322.115 554.315 329.351 554.026 336.594 553.743C337.878 553.781 339.153 553.513 340.314 552.96L340.441 553.162Z" fill="url(#paint4_linear_293_597)"/>
<path d="M283.46 411.896L282.719 411.904C282.433 416.273 277.702 419.774 273.442 418.773C269.183 417.772 266.506 412.544 268.182 408.503C265.076 413.739 261.733 419.211 256.439 422.199C254.797 423.125 252.853 423.79 251.055 423.243C248.108 422.35 246.972 418.768 246.837 415.683C246.606 409.972 248.204 404.336 251.4 399.597C247.587 403.691 242.502 406.375 236.971 407.215C234.497 407.586 231.458 407.307 230.245 405.11C229.143 403.116 230.153 400.641 231.348 398.696C233.773 394.773 236.904 391.348 239.682 387.668C250.241 373.576 255.455 356.194 254.396 338.617L283.337 335.116C283.116 360.706 283.157 386.3 283.46 411.896Z" fill="#171717"/>
<path d="M341.14 420.473C345.281 423.84 351.999 421.004 354.499 416.278C356.999 411.552 356.519 405.89 355.972 400.578C353.926 380.627 351.88 360.674 349.835 340.719L392.194 338.976" stroke="#171717" stroke-width="3.612" stroke-linecap="round" stroke-linejoin="round"/>
<path d="M364.734 360.79C365.517 358.863 366.85 357.208 368.565 356.034C370.282 354.858 372.306 354.214 374.386 354.182C376.467 354.15 378.51 354.73 380.262 355.852C382.014 356.973 383.397 358.586 384.239 360.488" stroke="#171717" stroke-width="3.612" stroke-linecap="round" stroke-linejoin="round"/>
<path d="M328.488 361.599C327.156 360.29 325.548 359.295 323.782 358.689C322.017 358.083 320.137 357.88 318.282 358.096C316.428 358.312 314.645 358.94 313.064 359.935C311.485 360.93 310.148 362.266 309.152 363.846" stroke="#171717" stroke-width="3.612" stroke-linecap="round" stroke-linejoin="round"/>
<path d="M336.788 448.168C330.865 448.441 325.062 446.445 320.56 442.589C316.057 438.732 313.193 433.304 312.553 427.41" stroke="#171717" stroke-width="3.612" stroke-linecap="round" stroke-linejoin="round"/>
<path d="M286.121 517.313C284.749 482.185 283.863 447.045 283.464 411.896C283.16 386.304 283.118 360.711 283.337 335.116V334.712" stroke="#171717" stroke-width="3.612" stroke-linecap="round" stroke-linejoin="round"/>
<path d="M257.491 544.351C257.115 544.427 256.731 544.463 256.346 544.461C55.3942 544.461 88.7798 730.453 88.7798 730.453L307.274 726.682L344.667 726.034L571.27 722.128C571.27 722.128 615.834 532.827 403.704 536.396C403.704 536.396 403.634 536.245 403.51 535.958C402.037 532.608 392.222 511.142 382.911 510.595C380.437 510.452 372.625 510.94 362.229 511.773C356.479 512.236 349.939 512.801 343.078 513.415C332.53 514.358 321.217 515.418 310.854 516.422C301.46 517.322 292.84 518.17 286.266 518.829C278.504 519.598 273.58 520.1 273.58 520.1C273.58 520.1 266.987 542.625 257.491 544.351Z" stroke="#171717" stroke-width="4" stroke-linecap="round" stroke-linejoin="round"/>
<path d="M422.178 317.977L448.072 269.742L386.276 274.894L370.426 324.408" stroke="#171717" stroke-width="3.612" stroke-linecap="round" stroke-linejoin="round"/>
<path d="M298.335 332.734L248.417 278.858L204.45 295.887L253.965 338.669L254.394 338.617L283.335 335.116L298.403 333.289L370.443 324.56L422.062 318.314C422.062 318.33 422.053 318.339 422.053 318.356C418.063 337.204 414.056 356.152 411.228 375.21C408.686 392.307 407.086 409.48 407.288 426.762C407.364 433.319 407.515 440.482 403.5 445.668C398.348 452.301 388.71 452.899 381.227 456.72C372.27 461.3 366.537 470.686 364.037 480.424C361.537 490.162 361.823 500.391 362.126 510.45" stroke="#171717" stroke-width="3.612" stroke-linecap="round" stroke-linejoin="round"/>
<path d="M254.384 338.458C254.384 338.508 254.393 338.567 254.393 338.617C255.451 356.194 250.237 373.576 239.678 387.668C236.9 391.348 233.769 394.773 231.344 398.696C230.149 400.641 229.139 403.116 230.242 405.11C231.454 407.307 234.493 407.586 236.967 407.215C242.498 406.375 247.583 403.69 251.396 399.597C248.2 404.336 246.602 409.972 246.833 415.683C246.968 418.765 248.105 422.35 251.051 423.243C252.852 423.79 254.797 423.125 256.435 422.199C261.729 419.211 265.072 413.738 268.178 408.503C266.5 412.544 269.18 417.78 273.439 418.773C277.698 419.767 282.429 416.273 282.715 411.904" stroke="#171717" stroke-width="3.612" stroke-linecap="round" stroke-linejoin="round"/>
<path d="M425.487 359.25C425.663 359.519 425.849 359.788 426.026 360.058C426.068 360.117 426.11 360.184 426.161 360.251C428.854 364.259 431.514 368.333 433.324 372.811C435.294 377.651 436.228 383.072 434.983 388.157C434.283 391.011 432.449 394.031 429.529 394.38C427.916 394.484 426.328 393.945 425.11 392.882C423.914 391.82 422.864 390.606 421.987 389.268C418.645 384.613 415.301 379.964 411.953 375.319" stroke="#171717" stroke-width="3.612" stroke-linecap="round" stroke-linejoin="round"/>
<path d="M422.23 318.39C421.699 325.233 423.425 332.127 426.464 338.281C429.503 344.435 433.829 349.888 438.611 354.805C439.86 355.986 440.978 357.299 441.944 358.721C442.906 360.164 443.281 361.919 442.993 363.629C442.446 366.154 439.887 367.905 437.311 368.057C434.735 368.208 432.235 366.979 430.299 365.279C428.71 363.787 427.318 362.098 426.157 360.253" stroke="#171717" stroke-width="3.612" stroke-linecap="round" stroke-linejoin="round"/>
<path d="M311.038 518.323C311.131 522.06 311.37 525.792 311.753 529.519C312.26 534.624 313.039 539.699 314.085 544.721V544.738" stroke="#171717" stroke-width="3.612" stroke-linecap="round" stroke-linejoin="round"/>
<path d="M257.53 544.578C275.057 544.065 292.591 544.073 310.133 544.603C311.446 544.637 312.769 544.679 314.082 544.721C314.152 544.721 314.208 544.73 314.275 544.73" stroke="#171717" stroke-width="3.612" stroke-linecap="round" stroke-linejoin="round"/>
<path d="M343.084 513.533C342.613 517.944 342.138 522.358 341.661 526.774L339.868 543.442C339.86 543.582 339.843 543.728 339.826 543.872" stroke="#171717" stroke-width="3.612" stroke-linecap="round" stroke-linejoin="round"/>
<path d="M339.179 543.56C339.406 543.517 339.642 543.484 339.869 543.442L342.106 543.063C362.101 539.703 382.263 537.441 402.505 536.287" stroke="#171717" stroke-width="3.612" stroke-linecap="round" stroke-linejoin="round"/>
<path d="M311.887 529.501L340.695 526.673" stroke="#171717" stroke-width="3.612" stroke-linecap="round" stroke-linejoin="round"/>
<path d="M310.112 545.411C310.383 547.603 310.802 549.774 311.367 551.91C311.502 552.844 311.99 553.691 312.73 554.275C312.969 554.415 313.232 554.509 313.505 554.555C313.962 554.626 314.424 554.646 314.885 554.615C322.117 554.319 329.353 554.031 336.595 553.747C337.88 553.785 339.155 553.517 340.316 552.964C340.633 552.781 340.917 552.545 341.155 552.265C343.015 550.068 341.063 546.515 342.249 543.889" stroke="#171717" stroke-width="3.612" stroke-linecap="round" stroke-linejoin="round"/>
<path d="M313.344 555.159C312.925 558.906 312.658 562.665 312.545 566.44C312.502 567.786 312.519 569.26 313.394 570.285C313.644 570.584 313.95 570.83 314.296 571.01C315.414 571.607 316.897 571.59 318.218 571.523L333.64 570.69C335.534 570.589 337.714 570.302 339.002 569.057C339.28 568.781 339.512 568.462 339.692 568.114C340.061 567.215 340.228 566.247 340.182 565.277C340.265 561.236 340.352 557.198 340.442 553.164" stroke="#171717" stroke-width="3.612" stroke-linecap="round" stroke-linejoin="round"/>
<path d="M314.307 570.926C314.309 570.955 314.306 570.983 314.299 571.01C310.594 622.604 308.251 674.261 307.27 725.984" stroke="#171717" stroke-width="3.612" stroke-linecap="round" stroke-linejoin="round"/>
<path d="M339.069 569.116C337.616 621.185 339.482 673.294 344.654 725.125" stroke="#171717" stroke-width="3.612" stroke-linecap="round" stroke-linejoin="round"/>
<path d="M444.41 619.186V660.19C444.408 662.041 443.672 663.816 442.362 665.125C441.051 666.434 439.275 667.169 437.423 667.168H386.621C385.705 667.168 384.797 666.987 383.95 666.637C383.104 666.286 382.335 665.772 381.686 665.125C381.038 664.477 380.524 663.707 380.173 662.86C379.823 662.013 379.643 661.106 379.643 660.19V619.186" stroke="#171717" stroke-width="3.612" stroke-linecap="round" stroke-linejoin="round"/>
<path d="M379.349 618.513L379.558 618.488C385.846 617.688 392.154 617.118 398.482 616.779V616.771C399.702 616.695 400.929 616.635 402.161 616.602C405.865 616.442 409.571 616.369 413.278 616.384C423.602 616.402 433.915 617.032 444.163 618.271" stroke="#171717" stroke-width="3.612" stroke-linecap="round" stroke-linejoin="round"/>
<path d="M413.247 616.669C413.263 616.576 413.272 616.475 413.28 616.383C413.902 611.597 414.04 606.76 413.693 601.946C413.516 599.446 413.154 596.819 411.588 594.866C410.957 594.078 410.159 593.441 409.252 592.999C408.344 592.558 407.349 592.325 406.34 592.316C405.331 592.307 404.333 592.523 403.418 592.948C402.502 593.374 401.693 593.997 401.049 594.774C399.71 596.382 399.189 598.503 398.835 600.566C397.927 605.782 397.799 611.104 398.456 616.358C398.726 616.281 398.995 616.218 399.264 616.139" stroke="#171717" stroke-width="3.612" stroke-linecap="round" stroke-linejoin="round"/>
<path d="M403.415 596.727C402.885 603.343 402.466 609.968 402.162 616.602C401.707 626.417 401.505 636.24 401.555 646.072" stroke="#171717" stroke-width="3.612" stroke-linecap="round" stroke-linejoin="round"/>
<path d="M284.058 259.734C287.574 261.07 291.366 261.508 295.095 261.01C298.822 260.512 302.366 259.092 305.407 256.88C308.448 254.666 310.889 251.73 312.51 248.337C314.131 244.943 314.88 241.2 314.69 237.443C316.361 238.939 318.349 240.036 320.504 240.652C322.66 241.269 324.927 241.389 327.136 241.003C329.344 240.618 331.436 239.736 333.256 238.426C335.075 237.115 336.573 235.409 337.638 233.436C339.403 236.395 341.981 238.785 345.066 240.321C348.151 241.857 351.611 242.474 355.037 242.099C358.461 241.723 361.707 240.372 364.386 238.205C367.065 236.038 369.065 233.147 370.147 229.876C375.872 234.682 384.753 235.036 391.091 231.079C397.429 227.122 400.982 219.294 400.259 211.851C399.535 204.407 394.77 197.591 388.254 193.92C391.739 191.084 392.666 186.025 391.883 181.597C390.628 174.442 384.988 167.943 377.816 166.789C370.644 165.636 362.731 170.855 361.948 178.078C361.267 172.362 355.593 168.061 349.843 167.833C344.094 167.606 338.586 170.788 334.868 175.175C331.151 179.562 328.959 185.041 327.259 190.538C323.26 185.363 315.953 183.223 309.615 184.847C303.276 186.472 298.077 191.556 295.7 197.651C293.323 203.745 293.612 210.716 295.902 216.844C288.637 216.204 282.383 222.475 279.75 229.277C278.218 233.242 277.628 238.031 280.099 241.483C282.407 244.69 286.817 245.801 290.722 245.221C294.628 244.64 298.164 242.662 301.599 240.709" stroke="#171717" stroke-width="3.612" stroke-linecap="round" stroke-linejoin="round"/>
<path d="M283.821 259.843C283.838 259.784 283.863 259.734 283.88 259.675C284.637 257.612 285.387 255.541 286.144 253.488C288.054 254.386 290.18 254.724 292.274 254.463C294.369 254.201 296.346 253.351 297.976 252.009C299.607 250.668 300.823 248.892 301.484 246.888C302.144 244.883 302.222 242.731 301.709 240.684C301.633 240.372 301.541 240.061 301.44 239.758" stroke="#171717" stroke-width="3.612" stroke-linecap="round" stroke-linejoin="round"/>
<path d="M87.2402 616.269C91.6894 600.102 102.297 586.321 116.788 577.882" stroke="#171717" stroke-width="3.612" stroke-linecap="round" stroke-linejoin="round"/>
<path d="M581.926 608.642C580.649 595.001 575.55 581.997 567.215 571.125" stroke="#171717" stroke-width="3.612" stroke-linecap="round" stroke-linejoin="round"/>
<path d="M405.452 466.403C414.51 464.934 421.798 456.186 421.604 447.013" stroke="#171717" stroke-width="3.612" stroke-linecap="round" stroke-linejoin="round"/>
<path d="M478.135 299.385C483.442 305.409 488.871 311.636 491.544 319.208C494.216 326.78 493.507 336.118 487.698 341.657C481.889 347.196 470.554 346.374 467.298 339.034C466.346 336.888 466.242 334.124 467.851 332.413C471.042 329.021 476.627 332.706 479.179 336.603C482.931 342.425 485.368 348.997 486.32 355.857C487.273 362.718 486.718 369.705 484.693 376.329C483.107 381.396 480.434 386.433 475.889 389.178C471.345 391.923 464.628 391.522 461.542 387.202C460.086 385.164 460.004 381.67 462.327 380.734C464.447 379.88 466.625 381.831 467.858 383.756C473.811 393.048 472.557 406.333 464.971 414.346" stroke="#171717" stroke-width="3.612" stroke-linecap="round" stroke-linejoin="round"/>
<path d="M450.17 291.992L457.931 277.752" stroke="#171717" stroke-width="3.612" stroke-linecap="round" stroke-linejoin="round"/>
<path d="M420.548 243.338C422.919 240.934 427.185 242.421 429.409 244.961C431.633 247.502 432.835 250.856 435.282 253.183C440.407 258.057 448.55 256.672 455.577 257.474C460.413 258.073 465.034 259.832 469.043 262.603C473.052 265.374 476.332 269.073 478.603 273.385L478.575 270.534" stroke="#171717" stroke-width="3.612" stroke-linecap="round" stroke-linejoin="round"/>
<path d="M444.222 229.653L463.24 211.239" stroke="#171717" stroke-width="3.612" stroke-linecap="round" stroke-linejoin="round"/>
<path d="M444.704 212.899L448.27 209.928" stroke="#171717" stroke-width="3.612" stroke-linecap="round" stroke-linejoin="round"/>
<path d="M458.371 232.508L463.126 227.753" stroke="#171717" stroke-width="3.612" stroke-linecap="round" stroke-linejoin="round"/>
<path d="M418.301 190.46L466.141 163.062" stroke="#171717" stroke-width="3.612" stroke-linecap="round" stroke-linejoin="round"/>
<path d="M416.333 166.519C415.075 160.464 414.593 154.273 414.901 148.096" stroke="#171717" stroke-width="3.612" stroke-linecap="round" stroke-linejoin="round"/>
<path d="M406.665 158.788L423.303 154.034" stroke="#171717" stroke-width="3.612" stroke-linecap="round" stroke-linejoin="round"/>
<path d="M225.519 206.798L241.654 214.403L236.725 191.437L262.66 175.116" stroke="#171717" stroke-width="3.612" stroke-linecap="round" stroke-linejoin="round"/>
<path d="M254.825 202.386C254.306 200.078 253.812 197.54 254.916 195.449C256.019 193.358 259.472 192.529 260.678 194.563C261.074 195.406 261.23 196.34 261.129 197.266C261.025 202.823 260.921 208.379 260.817 213.935C264.561 209.905 269.073 206.664 274.088 204.401" stroke="#171717" stroke-width="3.612" stroke-linecap="round" stroke-linejoin="round"/>
<path d="M306.336 167.082C297.206 155.209 289.235 142.487 282.536 129.091" stroke="#171717" stroke-width="3.612" stroke-linecap="round" stroke-linejoin="round"/>
<path d="M250.505 236.731C234.433 233.581 218.055 232.271 201.687 232.826" stroke="#171717" stroke-width="3.612" stroke-linecap="round" stroke-linejoin="round"/>
<path d="M305.189 283.829L290.904 275.551" stroke="#171717" stroke-width="3.612" stroke-linecap="round" stroke-linejoin="round"/>
<path d="M293.676 286.522L302.766 270.58" stroke="#171717" stroke-width="3.612" stroke-linecap="round" stroke-linejoin="round"/>
<path d="M345.202 257.947C343.664 270.36 343.057 282.871 343.384 295.375L344.875 292.523" stroke="#171717" stroke-width="3.612" stroke-linecap="round" stroke-linejoin="round"/>
<path d="M207.63 333.456C205.302 332.987 203.128 331.942 201.307 330.417C199.487 328.892 198.076 326.936 197.205 324.727" stroke="#171717" stroke-width="3.612" stroke-linecap="round" stroke-linejoin="round"/>
<path d="M178.046 287.641C171.013 285.963 163.862 284.269 156.641 284.645C149.42 285.02 141.987 287.76 137.558 293.477C133.4 298.844 132.424 306.042 132.723 312.825C133.188 321.931 135.635 330.825 139.894 338.887C144.153 346.949 150.121 353.983 157.381 359.499C161.22 362.373 165.708 364.883 170.5 364.664C175.292 364.445 180.149 360.513 179.805 355.729C179.46 350.971 173.837 347.744 169.241 349.023C164.645 350.301 161.572 355.036 161.223 359.795C160.875 364.554 162.824 369.23 165.554 373.141C169.281 378.478 174.404 382.645 179.03 387.225C183.655 391.805 187.962 397.122 189.326 403.487C190.689 409.851 188.277 417.41 182.394 420.198C176.51 422.986 167.99 418.412 168.549 411.927" stroke="#171717" stroke-width="3.612" stroke-linecap="round" stroke-linejoin="round"/>
<path d="M350.165 150.831C348.637 143.776 346.43 136.886 343.573 130.257L353.727 135.658L356.874 125.689L362.293 146.106" stroke="#171717" stroke-width="3.612" stroke-linecap="round" stroke-linejoin="round"/>
<path d="M372.915 127.104C372.029 125.831 370.142 125.565 368.724 126.188C367.333 126.906 366.236 128.087 365.623 129.526C364.534 131.615 364.221 134.022 364.742 136.319C365.016 137.456 365.581 138.502 366.379 139.357C367.177 140.213 368.182 140.847 369.298 141.201C370.425 141.512 371.625 141.433 372.702 140.979C373.78 140.524 374.672 139.719 375.236 138.694" stroke="#171717" stroke-width="3.612" stroke-linecap="round" stroke-linejoin="round"/>
<path d="M375.717 118.403C375.686 117.955 375.754 117.506 375.917 117.088C376.08 116.67 376.333 116.293 376.659 115.985C376.986 115.677 377.376 115.445 377.803 115.305C378.23 115.166 378.681 115.124 379.127 115.181C379.405 117.794 378.881 120.43 377.622 122.736L383.105 120.797" stroke="#171717" stroke-width="3.612" stroke-linecap="round" stroke-linejoin="round"/>
<path d="M369.475 229.532C368.824 223.68 363.256 218.783 364.102 212.956C364.495 210.247 366.286 207.899 368.469 206.244C370.724 204.685 373.17 203.425 375.749 202.496C377.42 201.81 379.197 201.111 380.982 201.394C384.282 201.917 386.108 205.411 387.419 208.484C388.568 211.173 389.657 214.49 387.884 216.818C386.283 218.923 383.211 219.029 380.567 218.943L381.768 218.327" stroke="#171717" stroke-width="3.612" stroke-linecap="round" stroke-linejoin="round"/>
<path d="M351.35 185.932C349.446 183.822 346.144 183.318 343.492 184.338C342.184 184.901 341 185.718 340.01 186.74C339.018 187.763 338.239 188.971 337.717 190.296C336.687 192.953 336.19 195.788 336.257 198.637" stroke="#171717" stroke-width="3.612" stroke-linecap="round" stroke-linejoin="round"/>
<path d="M327.161 189.755L323.994 202.039C323.648 202.954 323.62 203.958 323.911 204.892C324.495 206.198 326.131 206.586 327.547 206.795C331.634 207.397 335.738 207.852 339.86 208.162C341.678 208.302 343.672 208.357 345.124 207.253C346.542 206.178 347.038 204.302 347.445 202.568" stroke="#171717" stroke-width="3.612" stroke-linecap="round" stroke-linejoin="round"/>
<path d="M337.23 233.354L331.926 226.712C331.447 226.228 331.141 225.599 331.054 224.924C331.042 223.812 332.156 223.069 333.136 222.546L348.089 214.518L351.261 223.62C351.463 224.101 351.573 224.615 351.585 225.136C351.515 225.682 351.289 226.197 350.931 226.616C350.574 227.035 350.103 227.342 349.575 227.498C348.513 227.791 347.404 227.872 346.312 227.734" stroke="#171717" stroke-width="3.612" stroke-linecap="round" stroke-linejoin="round"/>
<path d="M314.167 237.041C312.029 235.519 310.079 233.749 308.358 231.768C307.413 230.823 306.748 229.635 306.437 228.335C306.124 226.399 307.287 224.464 308.864 223.301C310.441 222.138 312.377 221.586 314.266 221.059C315.604 222.372 316.288 224.197 316.923 225.962C317.559 227.728 318.211 229.557 319.51 230.906C320.809 232.254 322.963 232.982 324.615 232.088" stroke="#171717" stroke-width="3.612" stroke-linecap="round" stroke-linejoin="round"/>
<path d="M296.081 216.858C296.888 217.593 297.882 218.09 298.955 218.294C300.027 218.498 301.135 218.4 302.155 218.012C303.175 217.623 304.068 216.96 304.732 216.095C305.398 215.23 305.811 214.197 305.924 213.111C306.32 209.322 303.071 205.575 304.305 201.971C304.935 200.141 306.606 198.86 308.361 198.042C310.343 197.119 313.073 196.824 314.391 198.569C315.689 200.288 314.746 202.715 313.882 204.687C313.122 206.426 312.443 208.382 313.034 210.186C314.303 214.055 320.003 214.219 322.536 217.408" stroke="#171717" stroke-width="3.612" stroke-linecap="round" stroke-linejoin="round"/>
<path d="M295.978 217.029C294.632 217.356 293.849 218.873 293.912 220.256C294.079 221.637 294.6 222.953 295.425 224.074C296.249 225.19 296.877 226.438 297.282 227.765C297.595 229.607 297.235 231.501 296.268 233.101C295.499 234.522 294.24 235.925 292.627 235.927C290.998 235.927 289.684 234.426 289.33 232.836C288.977 231.246 289.354 229.597 289.73 228.012" stroke="#171717" stroke-width="3.612" stroke-linecap="round" stroke-linejoin="round"/>
<path d="M349.036 197.077C352.222 196.596 355.442 197.381 358.629 197.859C361.816 198.337 365.272 198.463 368.049 196.828C371.733 194.661 373.142 190.124 374.251 185.995C374.642 184.782 374.851 183.516 374.867 182.241C374.871 181.602 374.733 180.971 374.464 180.392C374.194 179.813 373.8 179.301 373.309 178.893C371.385 177.475 368.446 178.733 367.259 180.809C366.073 182.884 366.14 185.418 366.244 187.806" stroke="#171717" stroke-width="3.612" stroke-linecap="round" stroke-linejoin="round"/>
<path d="M539.657 699.622L548.902 689.444" stroke="#171717" stroke-width="3.612" stroke-linecap="round" stroke-linejoin="round"/>
<path d="M511.197 676.839L502.037 667.864L502.74 666.278" stroke="#171717" stroke-width="3.612" stroke-linecap="round" stroke-linejoin="round"/>
<path d="M465.996 630.301L475.446 617.581" stroke="#171717" stroke-width="3.612" stroke-linecap="round" stroke-linejoin="round"/>
<path d="M453.417 693.873L445.267 687.63L445.762 686.533" stroke="#171717" stroke-width="3.612" stroke-linecap="round" stroke-linejoin="round"/>
<path d="M420.708 645.261L426.651 636.152" stroke="#171717" stroke-width="3.612" stroke-linecap="round" stroke-linejoin="round"/>
<path d="M430.509 584.04L422.258 577.227" stroke="#171717" stroke-width="3.612" stroke-linecap="round" stroke-linejoin="round"/>
<path d="M375.127 703.463L383.858 693.574" stroke="#171717" stroke-width="3.612" stroke-linecap="round" stroke-linejoin="round"/>
<path d="M359.858 605.463L366.026 597.315" stroke="#171717" stroke-width="3.612" stroke-linecap="round" stroke-linejoin="round"/>
<path d="M280.022 700.995C283.637 698.742 286.737 695.753 289.119 692.222" stroke="#171717" stroke-width="3.612" stroke-linecap="round" stroke-linejoin="round"/>
<path d="M279.131 648.86L269.425 641.309" stroke="#171717" stroke-width="3.612" stroke-linecap="round" stroke-linejoin="round"/>
<path d="M277.318 586.891C280.459 583.213 283.007 579.068 284.87 574.604L284.861 575.66" stroke="#171717" stroke-width="3.612" stroke-linecap="round" stroke-linejoin="round"/>
<path d="M234.074 601.489L223.382 593.462" stroke="#171717" stroke-width="3.612" stroke-linecap="round" stroke-linejoin="round"/>
<path d="M215.308 657.041L221.014 649.064" stroke="#171717" stroke-width="3.612" stroke-linecap="round" stroke-linejoin="round"/>
<path d="M187.414 693.609C183.969 691.601 181.103 688.734 179.094 685.289" stroke="#171717" stroke-width="3.612" stroke-linecap="round" stroke-linejoin="round"/>
<path d="M132.001 671.499L142.14 659.053" stroke="#171717" stroke-width="3.612" stroke-linecap="round" stroke-linejoin="round"/>
<path d="M177.907 625.87L166.198 616.914" stroke="#171717" stroke-width="3.612" stroke-linecap="round" stroke-linejoin="round"/>
<path d="M170.746 585.42L180.248 578.876" stroke="#171717" stroke-width="3.612" stroke-linecap="round" stroke-linejoin="round"/>
<path d="M157.11 397.696L149.088 390.564" stroke="#171717" stroke-width="3.612" stroke-linecap="round" stroke-linejoin="round"/>
<path d="M147.437 402.25L158.094 387.961" stroke="#171717" stroke-width="3.612" stroke-linecap="round" stroke-linejoin="round"/>
<path d="M497.589 370.957L506.502 364.718" stroke="#171717" stroke-width="3.612" stroke-linecap="round" stroke-linejoin="round"/>
<path d="M503.829 372.739L500.263 364.718" stroke="#171717" stroke-width="3.612" stroke-linecap="round" stroke-linejoin="round"/>
<path d="M472.633 428.891L482.437 426.218" stroke="#171717" stroke-width="3.612" stroke-linecap="round" stroke-linejoin="round"/>
<path d="M477.304 434.203L475.391 422.638" stroke="#171717" stroke-width="3.612" stroke-linecap="round" stroke-linejoin="round"/>
<path d="M131.263 283.609L125.915 277.369" stroke="#171717" stroke-width="3.612" stroke-linecap="round" stroke-linejoin="round"/>
<path d="M125.295 283.296C126.83 280.807 128.992 278.767 131.565 277.38" stroke="#171717" stroke-width="3.612" stroke-linecap="round" stroke-linejoin="round"/>
<path d="M502.973 592.542C498.564 589.595 494.981 585.571 492.563 580.851" stroke="#171717" stroke-width="3.612" stroke-linecap="round" stroke-linejoin="round"/>
<mask id="mask0_293_597" style="mask-type:luminance" maskUnits="userSpaceOnUse" x="878" y="118" width="829" height="665">
<path d="M1706.25 118.125H878.438V782.812H1706.25V118.125Z" fill="white"/>
</mask>
<g mask="url(#mask0_293_597)">
<path fill-rule="evenodd" clip-rule="evenodd" d="M1479.29 409.165C1457.46 418.874 1440.74 443.081 1433.07 467.051C1428.49 481.363 1428.51 499.414 1428.54 517.673C1428.56 528.661 1428.57 539.724 1427.58 550.095C1426.47 561.842 1424.08 572.697 1418.93 581.556L1421.55 584.155H1421.56C1435.24 584.632 1452 584.481 1468.76 584.33C1485.51 584.179 1502.26 584.028 1515.94 584.503C1518.81 584.597 1521.83 584.664 1524.34 583.264C1524.35 583.254 1524.37 583.248 1524.38 583.241C1524.39 583.235 1524.4 583.228 1524.41 583.221C1529.37 580.392 1529.83 573.532 1529.66 567.813C1529.43 559.143 1529.19 548.994 1528.95 538.839C1528.71 528.632 1528.48 518.419 1528.24 509.698L1528.31 509.664C1535.99 524.894 1543 540.48 1546.67 557.085C1551.38 578.363 1550.03 601.882 1538.25 620.22C1537.09 622.032 1535.84 623.783 1534.51 625.47C1530.83 630.213 1526.63 634.56 1522.42 638.911C1518.1 643.389 1513.77 647.871 1509.98 652.794C1506.75 656.975 1504.12 661.59 1502.17 666.504C1501.01 669.425 1500.18 672.468 1499.7 675.575C1498.66 681.479 1499.55 687.562 1502.25 692.919C1502.96 694.286 1503.81 695.587 1504.76 696.801C1512.3 706.398 1526.25 709.975 1538.81 709.694C1577.08 708.832 1611.49 680.424 1625.7 644.894C1639.92 609.365 1636.04 568.425 1621.67 532.946C1611.21 507.099 1595.6 483.792 1577.83 462.184C1571.21 454.132 1564.3 446.318 1557.24 438.699C1543.54 423.902 1527.66 408.919 1508.02 405.479C1506.99 405.293 1505.95 405.148 1504.9 405.029C1496.15 404.086 1487.3 405.514 1479.29 409.165ZM1551.68 452.421C1551.09 452.042 1550.3 452.215 1549.92 452.809C1549.54 453.401 1549.72 454.189 1550.31 454.568C1601.42 487.241 1630.15 551.743 1620.25 611.595C1620.14 612.289 1620.61 612.945 1621.3 613.059C1622 613.175 1622.65 612.705 1622.77 612.01C1632.84 551.153 1603.65 485.643 1551.68 452.421Z" fill="url(#paint5_linear_293_597)"/>
<path fill-rule="evenodd" clip-rule="evenodd" d="M1420.41 387.317C1419.08 392.9 1417.75 398.483 1416.57 404.086C1416.22 405.785 1415.89 407.517 1415.62 409.303C1412.6 427.877 1413.13 450.741 1415.37 473.803C1418.04 501.264 1423.14 529.001 1427.6 550.095C1428.58 539.736 1428.56 528.684 1428.55 517.708C1428.52 499.437 1428.49 481.372 1433.07 467.051C1440.74 443.081 1457.46 418.874 1479.29 409.165C1486.89 396.286 1480.65 382.773 1476.92 375.884C1475.29 372.876 1473.41 370.012 1471.52 367.148C1469.09 363.456 1466.67 359.766 1464.79 355.77C1456.58 338.257 1460.08 317.752 1463.74 298.751L1463.64 298.282C1469.46 297.166 1474.76 294.199 1478.75 289.822C1486.9 306.726 1503.12 319.297 1521.27 323.806C1513.44 348.85 1508.98 379.096 1508.06 405.275L1508.02 405.478C1527.66 408.918 1543.54 423.901 1557.24 438.697C1564.3 446.317 1571.22 454.131 1577.83 462.183L1578.44 461.682C1580.73 444.354 1574.8 424.162 1569.12 404.83C1566 394.19 1562.95 383.811 1561.39 374.315C1559.56 363.159 1559.8 351.766 1560.04 340.393C1560.33 326.482 1560.62 312.601 1557.12 299.221C1549.74 271.124 1523.95 248.317 1494.97 246.288C1465.99 244.258 1436.45 264.454 1429.53 292.672C1426.9 303.368 1427.33 314.413 1427.76 325.481C1427.99 331.227 1428.21 336.981 1428.01 342.693C1427.47 357.808 1423.94 372.562 1420.41 387.317ZM1503.59 253.867C1502.92 253.64 1502.2 253.995 1501.97 254.661C1501.74 255.326 1502.1 256.051 1502.76 256.278C1527.79 264.824 1546.94 288.621 1549.92 314.898C1550 315.596 1550.63 316.099 1551.33 316.019C1552.03 315.94 1552.53 315.308 1552.45 314.61C1549.36 287.354 1529.55 262.731 1503.59 253.867Z" fill="#171717"/>
<path fill-rule="evenodd" clip-rule="evenodd" d="M1364.52 466.822C1369.48 479.958 1373.23 493.515 1375.74 507.328C1381.46 537.994 1382.1 574.272 1382.66 605.612L1382.68 606.902L1376.96 613.933H1355.18V581.556H1325.8V613.934H1204.38V636.112H1298.82V664.006H1298.52L1062.09 661.381V661.109C1063.62 649.728 1065.37 638.386 1067.36 627.082L1067.38 626.981C1051.91 623.94 1037.16 618.308 1025.96 607.505C1012.15 594.178 1005.83 574.863 1002.72 555.922C996.816 519.907 1001.32 481.176 1021.02 450.453C1036.44 426.382 1060.35 408.493 1086.58 397.12C1112.81 385.747 1140.49 380.532 1168.99 378.196L1169.56 378.213C1169.46 381.177 1169.42 384.139 1169.46 387.097L1169.47 387.352C1198.57 385.373 1227.7 383.917 1256.86 382.987L1256.83 382.315C1256.99 380.534 1257.09 378.74 1257.15 376.947L1257.36 376.956C1267.77 377.528 1278.02 379.743 1287.73 383.518C1307.44 391.086 1325.1 404.506 1338.53 420.941C1349.72 434.647 1358.2 450.267 1364.52 466.822ZM1200.73 512.529C1200.81 512.488 1200.89 512.447 1200.97 512.406C1201.21 512.278 1201.46 512.151 1201.71 512.026L1201.89 512.323C1191.31 518.769 1182.39 527.601 1175.84 538.11L1175.36 538.306C1178.24 542.417 1179.18 547.962 1179.73 553.102C1180.46 559.922 1180.89 566.766 1181.02 573.633L1182.34 573.607C1192.86 585.699 1207.72 593.147 1223.71 594.326C1229.04 594.691 1235.78 593.289 1237.02 588.1C1238.17 583.267 1233.49 579.266 1228.54 577.806L1228.68 577.364L1289.43 581.611V520.851L1250.73 518.141V518.116C1256.03 518.388 1262.17 515.559 1262.52 510.327C1262.73 507.057 1260.48 504.007 1257.63 502.411C1255.6 501.347 1253.39 500.689 1251.12 500.474L1251.19 499.99C1250.85 496.702 1248.47 493.866 1245.55 492.311C1242.55 490.882 1239.24 490.209 1235.92 490.349C1228.51 490.486 1221.27 492.644 1215 496.591C1208.72 500.539 1203.64 506.125 1200.3 512.748C1200.44 512.676 1200.59 512.602 1200.73 512.529ZM1085.75 468.193C1086.39 468.501 1086.65 469.262 1086.34 469.896C1081.22 480.472 1077.54 491.695 1075.43 503.258C1074.74 507.03 1074.33 510.695 1075.65 513.832C1076.73 516.402 1078.81 518.284 1081.44 519.71C1084.09 521.14 1087.22 522.067 1090.27 522.756C1108.83 526.94 1128.01 527.615 1146.82 524.745C1147.52 524.639 1148.17 525.117 1148.27 525.813C1148.38 526.508 1147.9 527.158 1147.2 527.264C1128.08 530.182 1108.58 529.495 1089.71 525.242H1089.71C1086.58 524.533 1083.18 523.546 1080.23 521.95C1077.27 520.351 1074.68 518.095 1073.3 514.821C1071.66 510.911 1072.24 506.549 1072.92 502.801C1075.08 491.011 1078.82 479.568 1084.05 468.784C1084.36 468.151 1085.12 467.887 1085.75 468.193ZM1317.77 407.185C1317.24 406.719 1316.44 406.769 1315.97 407.297C1315.51 407.825 1315.56 408.629 1316.08 409.095C1343.29 433.127 1361.01 466.099 1366.03 502.053C1366.13 502.75 1366.77 503.236 1367.47 503.139C1368.16 503.042 1368.65 502.398 1368.55 501.701C1363.45 465.144 1345.44 431.619 1317.77 407.185Z" fill="#171717"/>
<path d="M1604 710.51L1634.62 744.638H1584.41L1604 710.51Z" fill="#171717"/>
<path d="M1538.05 744.637H1445.71V757.225H1538.05V744.637Z" fill="url(#paint6_linear_293_597)"/>
<path d="M1524.68 583.654C1530.54 596.753 1533.77 610.875 1534.19 625.219L1534.53 625.474C1527.04 635.097 1517.45 643.09 1510 652.798C1506.76 656.978 1504.13 661.594 1502.18 666.507L1501.53 666.253L1398.09 665.067V664.847C1399.44 654.875 1400.8 646.084 1402.14 636.112H1451.7V613.934L1421.58 584.156C1448.93 585.108 1488.59 583.553 1515.95 584.504C1518.82 584.598 1521.85 584.665 1524.35 583.265C1524.38 583.247 1524.4 583.238 1524.43 583.222L1524.68 583.654Z" fill="#171717"/>
<path d="M1398.95 695.475V763.222H1340.19V695.475H1365.98H1398.95Z" fill="#171717"/>
<path d="M1365.97 664.703V695.475H1340.19H1328.04H1298.82V664.006V636.112H1365.97V664.703Z" fill="url(#paint7_linear_293_597)"/>
<path d="M1362.08 384.287C1377.03 399.814 1393.27 408.987 1414.82 409.165L1415.61 409.301C1412.6 427.877 1413.13 450.739 1415.37 473.801L1414.99 473.836C1399.59 474.744 1378.97 472.336 1364.52 466.82C1358.2 450.265 1349.72 434.645 1338.52 420.944C1325.09 404.509 1307.44 391.088 1287.73 383.521L1287.89 383.105C1283.85 363.533 1281.78 343.607 1281.7 323.622C1281.7 320.607 1281.84 317.286 1283.88 315.069C1286.21 312.521 1290.1 312.367 1293.53 312.394L1297.21 312.419C1307.25 312.487 1317.29 312.555 1327.32 312.622C1327.71 312.622 1328.09 312.631 1328.47 312.631C1331.38 312.648 1334.59 312.767 1336.77 314.704C1339.65 317.252 1339.49 321.694 1339.39 325.542C1339.12 336.345 1340.99 347.094 1344.88 357.174C1348.78 367.254 1354.62 376.467 1362.08 384.287Z" fill="url(#paint8_linear_293_597)"/>
<path d="M1289.43 520.851V581.607L1228.67 577.36V516.604L1250.72 518.141L1289.43 520.851Z" fill="url(#paint9_linear_293_597)"/>
<path d="M1256.95 367.988C1257.17 370.969 1257.24 373.96 1257.14 376.948C1257.09 378.741 1256.99 380.533 1256.83 382.316L1256.85 382.988C1227.69 383.925 1198.57 385.38 1169.47 387.353L1169.45 387.098C1169.42 384.143 1169.45 381.181 1169.55 378.214C1169.65 375.419 1169.8 372.631 1170.02 369.848C1170.02 367.877 1170.53 365.939 1171.48 364.216C1173.07 361.855 1176.13 360.954 1178.97 360.818C1181.82 360.683 1184.68 361.124 1187.49 360.691L1187.9 360.139C1191.96 363.009 1196.34 365.398 1200.95 367.257C1210.73 371.283 1221.53 373.423 1231.98 371.708C1239.23 370.558 1245.99 367.357 1251.48 362.483L1251.97 363.027C1253.1 362.09 1254.93 362.662 1255.8 363.825C1256.58 365.072 1256.98 366.518 1256.95 367.988Z" fill="url(#paint10_linear_293_597)"/>
<path d="M1220.38 311.827C1225.77 313.253 1231.33 314.069 1236.75 315.411C1241.61 316.485 1246.24 318.384 1250.46 321.025C1252.23 322.192 1253.85 323.583 1255.27 325.162C1262.31 333.061 1262.8 345.599 1257.62 354.831C1256 357.694 1253.92 360.277 1251.48 362.483C1245.99 367.357 1239.23 370.558 1231.98 371.707C1221.53 373.423 1210.74 371.283 1200.95 367.257C1196.34 365.398 1191.96 363.009 1187.9 360.139C1182.85 356.632 1178.63 352.06 1175.53 346.745C1170.1 337.07 1169.86 323.998 1176.96 315.478C1179.56 312.431 1182.85 310.057 1186.57 308.557C1190.13 307.089 1193.93 306.275 1197.79 306.153C1205.62 305.889 1213.34 308.14 1220.53 311.241L1220.38 311.827ZM1217.32 331.125C1218 329.794 1218.34 328.319 1218.33 326.825C1218.31 325.331 1217.94 323.863 1217.23 322.546C1214.53 317.288 1207.74 315.412 1202.21 315.242C1199.01 315.058 1195.87 316.106 1193.42 318.172C1192.23 319.216 1191.34 320.569 1190.87 322.082C1190.39 323.595 1190.34 325.21 1190.72 326.751C1191.88 330.641 1195.94 332.844 1199.76 334.208C1202.77 335.442 1206.01 336.005 1209.26 335.857C1212.49 335.567 1215.75 333.952 1217.32 331.125Z" fill="#171717"/>
<path d="M1242.27 750.931H1208.29V781.211H1242.27V750.931Z" fill="#171717"/>
<path d="M1214.12 525.556C1218.75 519.186 1226.12 514.306 1234 514.633C1239.47 514.854 1244.58 517.504 1250.03 518.064C1250.26 518.091 1250.49 518.107 1250.72 518.116V518.141L1228.67 516.604V577.36L1228.54 577.802C1227.88 577.612 1227.21 577.463 1226.53 577.36C1220.96 576.536 1214.87 577.377 1210.04 574.48C1205.78 571.924 1203.51 566.879 1203.1 561.927C1202.7 556.975 1203.88 552.049 1205.15 547.25C1207.16 539.639 1209.49 531.926 1214.12 525.556Z" fill="#171717"/>
<path d="M1193.51 223.533C1201.15 223.601 1208.75 224.807 1216.39 224.985C1224.04 225.163 1231.96 224.204 1238.54 220.322C1244.06 216.887 1248.48 211.944 1251.27 206.078C1251.75 204.893 1252.47 203.82 1253.39 202.927C1253.86 202.494 1254.47 202.238 1255.11 202.199C1255.74 202.161 1256.38 202.343 1256.9 202.715C1257.78 203.522 1257.75 204.897 1257.63 206.09C1256.87 212.889 1254.73 219.463 1251.35 225.413C1258.28 219.299 1266.83 215.322 1275.97 213.963C1276.17 218.694 1274 223.281 1270.96 226.908C1267.92 230.535 1264.05 233.347 1260.22 236.123C1267.76 234.173 1275.42 232.733 1283.15 231.811C1285.89 231.479 1289.39 231.65 1290.42 234.206C1291.44 236.738 1289.05 239.294 1286.8 240.831C1277.15 247.393 1265.6 250.37 1253.88 251.278C1250.56 251.542 1247.23 251.627 1243.93 251.585C1228.97 251.389 1214.16 248.688 1199.23 247.6C1195.06 247.295 1190.41 247.278 1187.31 250.073C1183.72 253.3 1183.72 258.821 1184 263.637C1184.73 276.539 1185.47 289.446 1186.22 302.356L1186.1 302.364C1182.21 306.151 1177.47 308.958 1172.27 310.553C1171.65 309.084 1171.49 307.463 1171.81 305.903C1172.14 304.342 1172.92 302.915 1174.07 301.812C1171.54 304.013 1168.61 305.719 1165.44 306.84C1164.37 307.223 1163.07 307.496 1162.2 306.756C1161.01 305.762 1161.61 303.859 1162.27 302.449C1167.96 290.155 1170.28 276.567 1168.99 263.08C1168.44 257.543 1167.3 252.047 1167.26 246.487C1167.23 240.926 1168.46 235.097 1172.09 230.875C1177.17 224.951 1185.71 223.457 1193.51 223.533Z" fill="#171717"/>
<path d="M1166.32 695.475H1097.97V751.832H1166.32V695.475Z" fill="#171717"/>
<path d="M1038.61 695.475L1060.2 727.573L1007.43 729.349L1038.61 695.475Z" fill="url(#paint11_linear_293_597)"/>
<path d="M1216.7 306.203C1218.27 305.685 1219.97 306.042 1221.61 306.17C1223.26 306.297 1225.13 306.093 1226.18 304.81C1226.89 303.704 1227.2 302.384 1227.06 301.073C1226.92 291.152 1223.6 281.444 1223.4 271.566C1223.38 270.606 1223.39 269.629 1223.44 268.659C1223.36 267.412 1223.78 266.185 1224.6 265.245C1225.49 264.613 1226.56 264.302 1227.65 264.362C1232.55 264.134 1237.46 264.531 1242.27 265.542" stroke="#171717" stroke-width="2.718" stroke-linecap="round" stroke-linejoin="round"/>
<path d="M1211.34 277.333C1210.79 276.527 1210.05 275.86 1209.19 275.386C1208.33 274.911 1207.37 274.642 1206.39 274.597C1205.41 274.554 1204.44 274.737 1203.54 275.134C1202.64 275.53 1201.85 276.128 1201.22 276.882" stroke="#171717" stroke-width="2.718" stroke-linecap="round" stroke-linejoin="round"/>
<path d="M1232.52 276.815C1233.07 276.212 1233.75 275.737 1234.5 275.423C1235.25 275.109 1236.07 274.964 1236.88 274.997C1237.7 275.03 1238.5 275.242 1239.22 275.616C1239.95 275.99 1240.58 276.518 1241.08 277.163" stroke="#171717" stroke-width="2.718" stroke-linecap="round" stroke-linejoin="round"/>
<path d="M1220.53 311.241C1213.34 308.14 1205.62 305.889 1197.79 306.153C1193.93 306.275 1190.13 307.089 1186.57 308.557C1182.85 310.057 1179.56 312.431 1176.96 315.478C1169.86 323.998 1170.1 337.07 1175.53 346.745C1178.63 352.06 1182.85 356.632 1187.91 360.139C1191.97 363.009 1196.34 365.398 1200.95 367.257C1210.74 371.283 1221.53 373.423 1231.99 371.707C1239.23 370.558 1246 367.357 1251.49 362.483C1253.93 360.277 1256 357.694 1257.63 354.831C1262.81 345.598 1262.31 333.061 1255.27 325.162C1253.85 323.583 1252.24 322.192 1250.47 321.025C1246.25 318.384 1241.61 316.485 1236.76 315.411C1231.34 314.069 1225.77 313.254 1220.39 311.827C1218.94 311.452 1217.51 311.028 1216.09 310.536" stroke="#171717" stroke-width="2.718" stroke-linecap="round" stroke-linejoin="round"/>
<path d="M1202.21 315.241C1199.01 315.057 1195.87 316.106 1193.42 318.172C1192.23 319.215 1191.34 320.568 1190.87 322.081C1190.39 323.594 1190.34 325.209 1190.72 326.75C1191.88 330.64 1195.94 332.843 1199.76 334.208C1202.77 335.441 1206.01 336.004 1209.26 335.856C1212.49 335.567 1215.74 333.953 1217.32 331.124C1217.99 329.794 1218.34 328.318 1218.33 326.824C1218.31 325.33 1217.94 323.862 1217.23 322.545C1214.53 317.288 1207.74 315.411 1202.21 315.241Z" stroke="#171717" stroke-width="2.718" stroke-linecap="round" stroke-linejoin="round"/>
<path d="M1250.6 320.821C1253.74 297.78 1254.84 274.508 1253.88 251.273C1253.88 251.189 1253.88 251.095 1253.88 251.01" stroke="#171717" stroke-width="2.718" stroke-linecap="round" stroke-linejoin="round"/>
<path d="M1186.59 308.947C1186.59 308.819 1186.58 308.683 1186.57 308.557C1186.45 306.484 1186.33 304.419 1186.22 302.347C1185.47 289.445 1184.73 276.538 1184 263.629C1183.72 258.813 1183.72 253.292 1187.31 250.064C1190.41 247.269 1195.06 247.286 1199.23 247.592C1214.16 248.679 1228.97 251.38 1243.93 251.576C1247.23 251.618 1250.56 251.533 1253.88 251.27C1265.6 250.361 1277.15 247.38 1286.8 240.822C1289.05 239.286 1291.44 236.729 1290.42 234.198C1289.39 231.641 1285.89 231.471 1283.15 231.802C1275.42 232.725 1267.76 234.166 1260.22 236.115C1264.05 233.338 1267.93 230.527 1270.96 226.899C1274 223.272 1276.17 218.686 1275.97 213.954C1266.83 215.314 1258.28 219.291 1251.35 225.404C1254.73 219.455 1256.86 212.881 1257.63 206.081C1257.76 204.892 1257.78 203.516 1256.9 202.706C1256.38 202.334 1255.74 202.152 1255.11 202.191C1254.47 202.23 1253.86 202.486 1253.39 202.918C1252.47 203.812 1251.75 204.885 1251.27 206.07C1248.48 211.936 1244.06 216.878 1238.54 220.313C1231.96 224.196 1224.04 225.147 1216.39 224.977C1208.75 224.806 1201.15 223.593 1193.51 223.524C1185.71 223.448 1177.17 224.943 1172.1 230.855C1168.46 235.073 1167.24 240.894 1167.26 246.466C1167.29 252.037 1168.44 257.528 1168.99 263.06C1170.28 276.547 1167.96 290.135 1162.27 302.428C1161.61 303.834 1161.01 305.741 1162.2 306.735C1163.07 307.474 1164.37 307.204 1165.44 306.819C1168.61 305.699 1171.54 303.993 1174.07 301.792C1172.92 302.895 1172.14 304.321 1171.81 305.882C1171.49 307.443 1171.65 309.064 1172.27 310.532C1177.47 308.937 1182.21 306.13 1186.1 302.344" stroke="#171717" stroke-width="2.718" stroke-linecap="round" stroke-linejoin="round"/>
<path d="M1187.49 360.691C1184.68 361.124 1181.81 360.674 1178.97 360.818C1176.14 360.963 1173.07 361.855 1171.48 364.216C1170.53 365.938 1170.02 367.877 1170.02 369.847C1169.8 372.634 1169.64 375.422 1169.55 378.214C1169.45 381.178 1169.42 384.14 1169.45 387.098" stroke="#171717" stroke-width="2.718" stroke-linecap="round" stroke-linejoin="round"/>
<path d="M1251.97 363.027C1253.1 362.09 1254.93 362.662 1255.8 363.825C1256.58 365.072 1256.98 366.517 1256.96 367.987C1257.18 370.969 1257.24 373.96 1257.14 376.948C1257.09 378.741 1256.99 380.533 1256.83 382.316" stroke="#171717" stroke-width="2.718" stroke-linecap="round" stroke-linejoin="round"/>
<path d="M1168.99 378.197C1140.49 380.533 1112.81 385.748 1086.58 397.121C1060.35 408.494 1036.44 426.383 1021.02 450.454C1001.31 481.176 996.817 519.908 1002.72 555.923C1005.83 574.86 1012.15 594.179 1025.96 607.506C1037.15 618.309 1051.91 623.941 1067.38 626.982C1074.68 628.368 1082.06 629.324 1089.47 629.844C1111.68 631.545 1134 631.159 1156.14 628.689C1161.64 628.078 1167.43 627.211 1171.71 623.721C1177.41 619.066 1178.93 611.081 1179.71 603.769C1180.78 593.761 1181.22 583.695 1181.02 573.632C1180.89 566.779 1180.46 559.934 1179.73 553.101C1179.18 547.962 1178.23 542.413 1175.35 538.305C1174.54 537.139 1173.56 536.102 1172.43 535.23C1166.48 530.626 1158.06 531.977 1150.63 533.183C1132.43 536.131 1113.95 536.827 1095.58 535.255C1088.78 534.669 1080.88 533.013 1077.95 526.847" stroke="#171717" stroke-width="2.718" stroke-linecap="round" stroke-linejoin="round"/>
<path d="M1257.36 376.957C1267.76 377.529 1278.02 379.744 1287.73 383.519C1307.44 391.087 1325.1 404.507 1338.52 420.942C1349.72 434.643 1358.21 450.263 1364.52 466.818C1369.48 479.954 1373.23 493.511 1375.74 507.324C1381.54 538.412 1382.12 575.267 1382.68 606.898V607.11" stroke="#171717" stroke-width="2.718" stroke-linecap="round" stroke-linejoin="round"/>
<path d="M1175.84 538.11C1182.39 527.601 1191.31 518.769 1201.88 512.323C1215.72 503.707 1231.85 499.488 1248.13 500.219C1249.13 500.271 1250.12 500.347 1251.11 500.474C1253.39 500.689 1255.6 501.347 1257.62 502.411C1260.47 504.005 1262.72 507.057 1262.51 510.327C1262.16 515.559 1256.02 518.39 1250.72 518.116C1250.48 518.107 1250.25 518.091 1250.03 518.064C1244.58 517.502 1239.47 514.854 1233.99 514.633C1226.12 514.311 1218.75 519.186 1214.12 525.556C1209.49 531.926 1207.15 539.639 1205.14 547.25C1203.87 552.049 1202.68 556.975 1203.09 561.927C1203.51 566.879 1205.78 571.924 1210.03 574.48C1214.86 577.377 1220.95 576.536 1226.53 577.36C1227.2 577.464 1227.87 577.612 1228.53 577.802C1233.47 579.262 1238.16 583.264 1237.01 588.097C1235.77 593.286 1229.03 594.687 1223.69 594.322C1207.71 593.143 1192.85 585.696 1182.33 573.604" stroke="#171717" stroke-width="2.718" stroke-linecap="round" stroke-linejoin="round"/>
<path d="M1251.18 499.99C1250.84 496.702 1248.46 493.866 1245.54 492.311C1242.54 490.883 1239.24 490.208 1235.92 490.349C1228.5 490.487 1221.27 492.646 1214.99 496.593C1208.72 500.54 1203.64 506.126 1200.3 512.748C1200.77 512.51 1201.24 512.263 1201.71 512.026" stroke="#171717" stroke-width="2.718" stroke-linecap="round" stroke-linejoin="round"/>
<path d="M1287.89 383.107C1283.85 363.535 1281.78 343.609 1281.7 323.624C1281.7 320.609 1281.84 317.288 1283.88 315.071C1286.21 312.523 1290.1 312.369 1293.53 312.396L1297.21 312.421C1307.25 312.488 1317.29 312.557 1327.32 312.624C1327.71 312.624 1328.09 312.633 1328.47 312.633C1331.38 312.65 1334.59 312.769 1336.77 314.706C1339.65 317.254 1339.49 321.696 1339.39 325.544C1339.12 336.346 1340.99 347.094 1344.88 357.174C1348.77 367.254 1354.62 376.467 1362.07 384.287C1377.02 399.814 1393.26 408.987 1414.82 409.165" stroke="#171717" stroke-width="2.718" stroke-linecap="round" stroke-linejoin="round"/>
<path d="M1482.4 334.419C1481.74 334.576 1481.13 334.895 1480.62 335.346C1480.12 335.797 1479.73 336.367 1479.5 337.003C1479.27 337.641 1479.2 338.325 1479.3 338.995C1479.4 339.666 1479.67 340.3 1480.07 340.843C1480.48 341.386 1481.01 341.818 1481.63 342.103C1482.24 342.387 1482.92 342.514 1483.6 342.472C1484.27 342.429 1484.93 342.22 1485.5 341.862C1486.08 341.503 1486.56 341.008 1486.89 340.419" stroke="#171717" stroke-width="2.718" stroke-linecap="round" stroke-linejoin="round"/>
<path d="M1490.06 361.583C1491.2 361.865 1492.38 361.912 1493.53 361.724C1494.68 361.537 1495.79 361.117 1496.77 360.49C1497.76 359.863 1498.61 359.044 1499.27 358.079C1499.93 357.115 1500.39 356.027 1500.61 354.881" stroke="#171717" stroke-width="2.718" stroke-linecap="round" stroke-linejoin="round"/>
<path d="M1475.73 319.547C1475.93 317.347 1476.13 315.15 1476.32 312.956" stroke="#171717" stroke-width="2.718" stroke-linecap="round" stroke-linejoin="round"/>
<path d="M1501.48 322.545C1501.27 320.541 1501.08 318.545 1500.87 316.545" stroke="#171717" stroke-width="2.718" stroke-linecap="round" stroke-linejoin="round"/>
<path d="M1467.92 309.375C1469.71 307.627 1472.02 306.503 1474.51 306.174C1476.99 305.845 1479.51 306.327 1481.7 307.549" stroke="#171717" stroke-width="2.718" stroke-linecap="round" stroke-linejoin="round"/>
<path d="M1451.7 297.973C1455.61 298.981 1459.69 299.088 1463.64 298.287C1469.46 297.171 1474.76 294.202 1478.75 289.827C1486.9 306.73 1503.12 319.301 1521.27 323.811C1526.75 325.198 1532.4 325.805 1538.05 325.612" stroke="#171717" stroke-width="2.718" stroke-linecap="round" stroke-linejoin="round"/>
<path d="M1463.74 298.754C1460.08 317.755 1456.58 338.259 1464.79 355.773C1468.12 362.866 1473.19 368.998 1476.92 375.887C1480.65 382.776 1486.89 396.289 1479.29 409.168" stroke="#171717" stroke-width="2.718" stroke-linecap="round" stroke-linejoin="round"/>
<path d="M1521.4 323.378C1521.36 323.522 1521.31 323.666 1521.27 323.811C1513.44 348.851 1508.98 379.097 1508.06 405.279" stroke="#171717" stroke-width="2.718" stroke-linecap="round" stroke-linejoin="round"/>
<path d="M1427.6 550.095C1423.14 529.001 1418.03 501.264 1415.37 473.803C1413.12 450.741 1412.6 427.877 1415.61 409.303C1415.89 407.522 1416.21 405.787 1416.57 404.088C1420.84 383.677 1427.27 363.53 1428.01 342.695C1428.6 325.979 1425.54 308.923 1429.53 292.674C1436.45 264.456 1465.98 244.26 1494.97 246.29C1523.95 248.319 1549.74 271.126 1557.12 299.223C1563.49 323.541 1557.31 349.515 1561.39 374.317C1565.78 401.063 1581.99 434.818 1578.44 461.684" stroke="#171717" stroke-width="2.718" stroke-linecap="round" stroke-linejoin="round"/>
<path d="M1418.94 581.556C1424.09 572.697 1426.48 561.842 1427.6 550.095C1430.21 522.49 1425.73 489.976 1433.07 467.051C1440.74 443.081 1457.46 418.874 1479.29 409.165C1487.3 405.514 1496.15 404.086 1504.9 405.029C1505.95 405.148 1506.99 405.293 1508.02 405.479C1527.66 408.919 1543.54 423.902 1557.24 438.699C1564.3 446.318 1571.21 454.132 1577.83 462.184C1595.6 483.792 1611.21 507.099 1621.67 532.946C1636.04 568.425 1639.92 609.365 1625.7 644.894C1611.49 680.424 1577.08 708.832 1538.81 709.694C1526.25 709.975 1512.3 706.398 1504.76 696.801C1503.8 695.587 1502.96 694.286 1502.25 692.919C1499.55 687.562 1498.66 681.479 1499.7 675.575C1500.18 672.468 1501.01 669.425 1502.17 666.504C1504.12 661.59 1506.75 656.975 1509.98 652.794C1517.44 643.087 1527.03 635.094 1534.51 625.47C1535.84 623.783 1537.09 622.032 1538.25 620.22C1550.03 601.882 1551.38 578.363 1546.67 557.085C1543 540.48 1535.99 524.894 1528.31 509.664C1526.14 505.375 1523.92 501.111 1521.71 496.864" stroke="#171717" stroke-width="2.718" stroke-linecap="round" stroke-linejoin="round"/>
<path d="M1421.58 584.156C1448.93 585.108 1488.59 583.553 1515.95 584.504C1518.82 584.598 1521.85 584.665 1524.35 583.265C1524.38 583.247 1524.4 583.238 1524.43 583.222C1529.38 580.393 1529.84 573.531 1529.68 567.814C1529.2 550.427 1528.73 527.094 1528.25 509.699" stroke="#171717" stroke-width="2.718" stroke-linecap="round" stroke-linejoin="round"/>
<path d="M1614.62 667.429L1704.73 668.49" stroke="#171717" stroke-width="2.718" stroke-linecap="round" stroke-linejoin="round"/>
<path d="M1366.36 664.703L1398.1 665.067L1501.53 666.248" stroke="#171717" stroke-width="2.718" stroke-linecap="round" stroke-linejoin="round"/>
<path d="M879.729 659.351L1062.08 661.381L1298.52 664.006" stroke="#171717" stroke-width="2.718" stroke-linecap="round" stroke-linejoin="round"/>
<path d="M1298.82 636.112H1204.38V613.934H1325.8H1355.18H1376.97H1451.7V636.112H1402.14H1365.97" stroke="#171717" stroke-width="2.718" stroke-linecap="round" stroke-linejoin="round"/>
<path d="M1298.82 695.475V664.006V636.112H1365.97V664.703V695.475" stroke="#171717" stroke-width="2.718" stroke-linecap="round" stroke-linejoin="round"/>
<path d="M1340.19 695.475H1328.04" stroke="#171717" stroke-width="2.718" stroke-linecap="round" stroke-linejoin="round"/>
<path d="M1328.04 695.475V763.222H1264.64V695.475H1298.82H1328.04Z" stroke="#171717" stroke-width="2.718" stroke-linecap="round" stroke-linejoin="round"/>
<path d="M1340.19 695.475H1365.98H1398.95V763.222H1340.19V695.475Z" stroke="#171717" stroke-width="2.718" stroke-linecap="round" stroke-linejoin="round"/>
<path d="M1250.72 518.141L1289.43 520.851V581.607L1228.67 577.36V516.604L1250.72 518.141Z" stroke="#171717" stroke-width="2.718" stroke-linecap="round" stroke-linejoin="round"/>
<path d="M1166.32 695.475H1097.97V751.832H1166.32V695.475Z" stroke="#171717" stroke-width="2.718" stroke-linecap="round" stroke-linejoin="round"/>
<path d="M1230.38 695.475H1200.3V725.544H1230.38V695.475Z" stroke="#171717" stroke-width="2.718" stroke-linecap="round" stroke-linejoin="round"/>
<path d="M1538.05 744.637H1445.71V757.225H1538.05V744.637Z" stroke="#171717" stroke-width="2.718" stroke-linecap="round" stroke-linejoin="round"/>
<path d="M1451.7 613.934L1421.58 584.155H1421.57L1418.94 581.556L1410.25 572.961L1382.68 606.902L1376.97 613.934" stroke="#171717" stroke-width="2.718" stroke-linecap="round" stroke-linejoin="round"/>
<path d="M1355.18 613.934V581.556H1325.8V613.934" stroke="#171717" stroke-width="2.718" stroke-linecap="round" stroke-linejoin="round"/>
<path d="M1242.27 750.931H1208.29V781.211H1242.27V750.931Z" stroke="#171717" stroke-width="2.718" stroke-linecap="round" stroke-linejoin="round"/>
<path d="M1584.41 744.638L1604 710.51L1634.62 744.638H1584.41Z" stroke="#171717" stroke-width="2.718" stroke-linecap="round" stroke-linejoin="round"/>
<path d="M1060.2 727.573L1038.61 695.475L1007.43 729.349L1060.2 727.573Z" stroke="#171717" stroke-width="2.718" stroke-linecap="round" stroke-linejoin="round"/>
<path d="M1364.3 466.736C1364.38 466.762 1364.45 466.796 1364.52 466.822C1378.97 472.334 1399.59 474.746 1414.98 473.838" stroke="#171717" stroke-width="2.718" stroke-linecap="round" stroke-linejoin="round"/>
<path d="M1311.15 285.631C1311.87 277.001 1312.59 268.374 1313.3 259.75C1313.48 257.585 1313.51 255.028 1311.79 253.694C1310.07 252.344 1307.38 253.091 1305.92 254.725C1304.46 256.359 1303.92 258.59 1303.45 260.725C1299.84 277.309 1297.75 294.189 1297.22 311.153" stroke="#171717" stroke-width="2.718" stroke-linecap="round" stroke-linejoin="round"/>
<path d="M1311.15 285.631C1310.79 288.375 1310.57 291.127 1310.46 293.887L1311.15 285.631Z" stroke="#171717" stroke-width="2.718" stroke-linecap="round" stroke-linejoin="round"/>
<path d="M1327.34 311.818C1338.65 306.174 1347.96 297.194 1354 286.09C1351.88 279.375 1339.69 285.162 1335.94 292.031C1333.91 295.738 1328.44 294.844 1327.09 293.327C1332.49 280.612 1338.77 268.344 1338.75 254.531C1338.74 248.438 1335.47 249.804 1334.03 250.263C1333.59 250.4 1331.25 251.25 1330.31 256.875C1327.34 268.843 1325.1 277.132 1322.14 289.105C1325.36 276.243 1327.97 249.804 1323.29 249.804C1316.25 248.438 1312.76 272.998 1311.15 285.631" stroke="#171717" stroke-width="2.718" stroke-linecap="round" stroke-linejoin="round"/>
<path d="M1499.34 675.515C1496.72 679.387 1492.32 681.086 1488.13 682.148C1480.61 684.051 1472.9 684.577 1465.34 686.157C1457.78 687.737 1450.12 690.515 1444.24 696.188C1443.53 696.877 1442.78 697.876 1443.12 698.839C1443.31 699.268 1443.65 699.616 1444.08 699.819C1444.5 700.023 1444.99 700.07 1445.44 699.952C1471.82 694.567 1483.39 696.749 1504.47 697.029" stroke="#171717" stroke-width="2.718" stroke-linecap="round" stroke-linejoin="round"/>
<path d="M1067.36 627.083C1065.37 638.388 1063.61 649.73 1062.08 661.109" stroke="#171717" stroke-width="2.718" stroke-linecap="round" stroke-linejoin="round"/>
<path d="M1216.7 267.233H1191.65V289.564H1216.7V267.233Z" stroke="#171717" stroke-width="2.718" stroke-linecap="round" stroke-linejoin="round"/>
<path d="M1250.6 269.629H1230.17V288.664H1250.6V269.629Z" stroke="#171717" stroke-width="2.718" stroke-linecap="round" stroke-linejoin="round"/>
<path d="M1216.76 273.587C1218.64 272.261 1220.89 271.553 1223.19 271.563C1225.49 271.572 1227.73 272.298 1229.6 273.638" stroke="#171717" stroke-width="2.718" stroke-linecap="round" stroke-linejoin="round"/>
<path d="M1212.36 327.693C1210.41 328.023 1208.42 327.983 1206.5 327.574C1204.76 327.27 1203.14 326.498 1201.81 325.34C1201.13 324.698 1200.58 323.929 1200.2 323.077C1199.82 322.223 1199.62 321.305 1199.59 320.371" stroke="#171717" stroke-width="2.718" stroke-linecap="round" stroke-linejoin="round"/>
<path d="M1169.32 387.362C1169.37 387.362 1169.42 387.353 1169.47 387.353C1198.57 385.374 1227.7 383.918 1256.85 382.987H1256.86" stroke="#171717" stroke-width="2.718" stroke-linecap="round" stroke-linejoin="round"/>
<path d="M1524.68 583.654C1530.54 596.753 1533.77 610.875 1534.19 625.219C1534.53 624.455 1534.88 623.69 1535.22 622.926" stroke="#171717" stroke-width="2.718" stroke-linecap="round" stroke-linejoin="round"/>
<path d="M1402.14 636.112C1400.8 646.084 1399.44 654.875 1398.1 664.847" stroke="#171717" stroke-width="2.718" stroke-linecap="round" stroke-linejoin="round"/>
<path d="M1320.02 439.408L1322.2 458.644H1334.19L1337.79 474.022" stroke="url(#paint12_linear_293_597)" stroke-width="2.718" stroke-linecap="round" stroke-linejoin="round"/>
<path d="M1225.74 423.869L1213.09 431.063L1216.31 437.859L1206.29 446.253" stroke="url(#paint13_linear_293_597)" stroke-width="2.718" stroke-linecap="round" stroke-linejoin="round"/>
<path d="M1121.95 419.872L1132.14 425.868L1124.35 435.061L1133.94 446.253" stroke="url(#paint14_linear_293_597)" stroke-width="2.718" stroke-linecap="round" stroke-linejoin="round"/>
<path d="M1050 463.041L1033.81 466.733L1036.81 483.825L1024.02 485.824" stroke="url(#paint15_linear_293_597)" stroke-width="2.718" stroke-linecap="round" stroke-linejoin="round"/>
<path d="M1046.4 536.587H1058.8L1052.6 557.22L1064.72 558.571" stroke="url(#paint16_linear_293_597)" stroke-width="2.718" stroke-linecap="round" stroke-linejoin="round"/>
<path d="M1139.14 568.963L1148.73 558.571L1127.94 550.097L1133.94 544.181" stroke="url(#paint17_linear_293_597)" stroke-width="2.718" stroke-linecap="round" stroke-linejoin="round"/>
<path d="M1175.84 482.626L1181.07 477.03L1164.32 466.733L1169.44 460.242" stroke="url(#paint18_linear_293_597)" stroke-width="2.718" stroke-linecap="round" stroke-linejoin="round"/>
<path d="M1303.02 485.824L1296.34 488.622L1303.02 497.416L1292.87 504.539" stroke="url(#paint19_linear_293_597)" stroke-width="2.718" stroke-linecap="round" stroke-linejoin="round"/>
<path d="M1340.19 549.103L1348.26 538.186L1358.98 543.644V523.397" stroke="url(#paint20_linear_293_597)" stroke-width="2.718" stroke-linecap="round" stroke-linejoin="round"/>
<path d="M1115.95 644.094L1124.75 650.479L1138.34 642.111L1148.73 652.103" stroke="url(#paint21_linear_293_597)" stroke-width="2.718" stroke-linecap="round" stroke-linejoin="round"/>
<path d="M963.787 402.702C963.131 397.939 968.091 393.619 972.881 394.03C977.671 394.442 981.578 398.593 982.786 403.248C983.993 407.903 982.92 412.888 980.98 417.289C974.663 431.624 960.303 440.347 947.256 449.019C934.21 457.692 920.725 468.707 918.138 484.16C917.512 487.898 917.608 491.881 919.256 495.294C920.904 498.708 924.335 501.416 928.125 501.436C931.916 501.456 935.656 498.222 935.505 494.436C935.355 490.649 930.537 487.703 927.372 489.795" stroke="#171717" stroke-width="2.718" stroke-linecap="round" stroke-linejoin="round"/>
<path d="M1058.74 374.156C1056.78 367.613 1055.33 360.761 1056.11 353.974C1056.89 347.186 1060.19 340.421 1065.96 336.776C1074.08 331.658 1084.69 333.701 1093.95 331.233C1106.52 327.885 1115.93 315.208 1115.5 302.21C1115.41 299.397 1114.72 296.299 1112.42 294.674C1109.39 292.526 1104.92 294.112 1102.55 296.976C1097.15 303.493 1100.94 314.644 1108.72 317.96C1116.5 321.276 1126.07 317.631 1131.21 310.913C1136.35 304.196 1137.62 295.152 1136.54 286.763C1135.56 279.536 1133.01 272.609 1129.09 266.463C1125.16 260.317 1119.94 255.098 1113.8 251.169" stroke="#171717" stroke-width="2.718" stroke-linecap="round" stroke-linejoin="round"/>
<path d="M1290.59 282.91C1289.67 280.348 1289.3 277.619 1289.52 274.904C1289.73 272.189 1290.52 269.552 1291.84 267.167" stroke="#171717" stroke-width="2.718" stroke-linecap="round" stroke-linejoin="round"/>
<path d="M1391.18 335.679C1386.28 333.51 1382.07 330.045 1379 325.658" stroke="#171717" stroke-width="2.718" stroke-linecap="round" stroke-linejoin="round"/>
<path d="M1379.76 336.932C1383.31 333.212 1386.34 329.023 1388.76 324.483L1388.15 326.14" stroke="#171717" stroke-width="2.718" stroke-linecap="round" stroke-linejoin="round"/>
<path d="M1373.77 377.103L1368.97 368.709" stroke="#171717" stroke-width="2.718" stroke-linecap="round" stroke-linejoin="round"/>
<path d="M1366.57 375.904L1373.77 370.508" stroke="#171717" stroke-width="2.718" stroke-linecap="round" stroke-linejoin="round"/>
<path d="M1409.72 278.26L1394.77 275.092" stroke="#171717" stroke-width="2.718" stroke-linecap="round" stroke-linejoin="round"/>
<path d="M1416.03 265.196C1408.38 254.077 1399.89 243.557 1390.64 233.727" stroke="#171717" stroke-width="2.718" stroke-linecap="round" stroke-linejoin="round"/>
<path d="M1426.72 257.156L1424.16 240.998" stroke="#171717" stroke-width="2.718" stroke-linecap="round" stroke-linejoin="round"/>
<path d="M1627.77 322.148C1615.62 349.099 1607.53 377.699 1603.77 407.019C1602.75 414.974 1602.18 423.607 1606.34 430.464C1608.59 434.175 1612.05 437.003 1616.13 438.481C1620.21 439.958 1624.68 439.995 1628.78 438.585C1632.89 437.175 1636.39 434.404 1638.7 430.731C1641.01 427.058 1642 422.704 1641.5 418.392C1640.87 413.034 1636.97 407.482 1631.58 407.399C1627.97 407.345 1624.7 409.769 1622.67 412.749C1616.86 421.256 1619.65 433.206 1625.6 441.619C1631.54 450.032 1640.1 456.2 1647.04 463.807C1653.99 471.413 1659.52 481.661 1657.22 491.704C1656.47 494.965 1654.79 498.184 1651.91 499.893C1649.03 501.602 1644.85 501.32 1642.81 498.674C1640.76 496.028 1642.18 491.277 1645.49 490.812" stroke="#171717" stroke-width="2.718" stroke-linecap="round" stroke-linejoin="round"/>
<path d="M1657.97 343.125L1654.77 328.737" stroke="#171717" stroke-width="2.718" stroke-linecap="round" stroke-linejoin="round"/>
<path d="M1649.17 336.782L1661.54 334.657" stroke="#171717" stroke-width="2.718" stroke-linecap="round" stroke-linejoin="round"/>
<path d="M1653.21 398.279L1651.19 387.489" stroke="#171717" stroke-width="2.718" stroke-linecap="round" stroke-linejoin="round"/>
<path d="M1646.78 393.396C1650.32 393.788 1653.91 393.424 1657.3 392.326" stroke="#171717" stroke-width="2.718" stroke-linecap="round" stroke-linejoin="round"/>
<path d="M968.532 611.156L958.795 601.712" stroke="#171717" stroke-width="2.718" stroke-linecap="round" stroke-linejoin="round"/>
<path d="M959.11 612.682C961.728 609.623 964.066 606.335 966.096 602.857" stroke="#171717" stroke-width="2.718" stroke-linecap="round" stroke-linejoin="round"/>
<path d="M977.955 565.584C974.969 564.233 972.341 562.202 970.281 559.653" stroke="#171717" stroke-width="2.718" stroke-linecap="round" stroke-linejoin="round"/>
<path d="M970.153 567.094C972.244 563.85 974.93 561.033 978.07 558.79" stroke="#171717" stroke-width="2.718" stroke-linecap="round" stroke-linejoin="round"/>
<path d="M957.608 422.74L951.154 417.209" stroke="#171717" stroke-width="2.718" stroke-linecap="round" stroke-linejoin="round"/>
<path d="M950.444 425.04C953.041 422.258 955.122 419.036 956.591 415.525" stroke="#171717" stroke-width="2.718" stroke-linecap="round" stroke-linejoin="round"/>
<path d="M1138.32 327.917L1145.12 322.325" stroke="#171717" stroke-width="2.718" stroke-linecap="round" stroke-linejoin="round"/>
<path d="M1143.9 331.15L1139.53 321.547" stroke="#171717" stroke-width="2.718" stroke-linecap="round" stroke-linejoin="round"/>
<path d="M1075.41 313.448L1071.19 303.956" stroke="#171717" stroke-width="2.718" stroke-linecap="round" stroke-linejoin="round"/>
<path d="M1067.63 311.637L1077.58 306.743" stroke="#171717" stroke-width="2.718" stroke-linecap="round" stroke-linejoin="round"/>
<path d="M1187.88 186.852C1190.71 192.953 1192.78 199.381 1194.03 205.99C1198.31 203.052 1203.36 201.438 1208.55 201.351C1209.55 201.336 1210.84 201.174 1211.08 200.203C1211.14 199.817 1211.1 199.422 1210.95 199.058L1205.61 180.938" stroke="#171717" stroke-width="2.718" stroke-linecap="round" stroke-linejoin="round"/>
<path d="M1204.59 181.599C1207.93 171.906 1211.27 161.277 1207.77 151.641C1206.71 148.736 1205.07 146.079 1202.95 143.833C1200.82 141.588 1198.26 139.8 1195.42 138.581C1192.58 137.362 1189.52 136.738 1186.43 136.747C1183.34 136.755 1180.29 137.396 1177.45 138.631C1174.62 139.866 1172.07 141.667 1169.96 143.924C1167.85 146.182 1166.22 148.848 1165.18 151.758C1164.14 154.668 1163.7 157.761 1163.9 160.845C1164.1 163.929 1164.93 166.941 1166.33 169.693C1170.71 178.224 1179.89 183.052 1188.73 186.764" stroke="#171717" stroke-width="2.718" stroke-linecap="round" stroke-linejoin="round"/>
<path d="M1187.87 186.375C1192.87 184.183 1198.13 182.652 1203.52 181.823" stroke="#171717" stroke-width="2.718" stroke-linecap="round" stroke-linejoin="round"/>
<path d="M1192.76 193.406L1203.5 189.258" stroke="#171717" stroke-width="2.718" stroke-linecap="round" stroke-linejoin="round"/>
<path d="M1199.19 180.469L1197.22 157.605C1196.38 159.554 1195.43 161.636 1193.59 162.696C1191.75 163.755 1188.81 163.071 1188.44 160.977C1188.49 161.937 1188.22 162.886 1187.66 163.67C1187.1 164.454 1186.3 165.027 1185.37 165.297C1184.45 165.568 1183.46 165.519 1182.57 165.159C1181.68 164.799 1180.94 164.15 1180.46 163.315L1188.48 177.141" stroke="#171717" stroke-width="2.718" stroke-linecap="round" stroke-linejoin="round"/>
<path d="M1153.14 164.739L1146.35 164.233" stroke="#171717" stroke-width="2.718" stroke-linecap="round" stroke-linejoin="round"/>
<path d="M1156.11 138.383L1139.53 126.897" stroke="#171717" stroke-width="2.718" stroke-linecap="round" stroke-linejoin="round"/>
<path d="M1185.37 126.861L1184.74 119.688" stroke="#171717" stroke-width="2.718" stroke-linecap="round" stroke-linejoin="round"/>
<path d="M1206.58 134.813L1215 120.844" stroke="#171717" stroke-width="2.718" stroke-linecap="round" stroke-linejoin="round"/>
<path d="M1215.88 156.13L1222.28 155.764" stroke="#171717" stroke-width="2.718" stroke-linecap="round" stroke-linejoin="round"/>
<path d="M1486.89 181.821L1479.37 205.99L1459.77 186.373L1486.89 181.821Z" stroke="#171717" stroke-width="2.718" stroke-linecap="round" stroke-linejoin="round"/>
<path d="M1542.84 218.314L1560.83 235.383V205.99L1542.84 218.314Z" stroke="#171717" stroke-width="2.718" stroke-linecap="round" stroke-linejoin="round"/>
<path d="M1321.91 202.173L1323.78 209.091C1323.84 209.3 1323.83 209.52 1323.75 209.724C1323.68 209.928 1323.55 210.104 1323.37 210.229C1323.19 210.354 1322.98 210.423 1322.77 210.425C1322.55 210.427 1322.34 210.362 1322.16 210.24L1316.24 206.198C1316.07 206.08 1315.87 206.016 1315.66 206.014C1315.45 206.011 1315.24 206.071 1315.07 206.185L1309.07 210.099C1308.89 210.217 1308.68 210.277 1308.46 210.27C1308.24 210.263 1308.03 210.191 1307.86 210.062C1307.69 209.933 1307.56 209.754 1307.49 209.549C1307.42 209.344 1307.41 209.122 1307.48 208.915L1309.49 202.04C1309.55 201.838 1309.55 201.624 1309.49 201.424C1309.42 201.223 1309.3 201.046 1309.14 200.915L1303.56 196.415C1303.4 196.279 1303.27 196.095 1303.21 195.887C1303.15 195.68 1303.16 195.458 1303.22 195.253C1303.29 195.049 1303.42 194.87 1303.6 194.741C1303.77 194.612 1303.98 194.54 1304.2 194.534L1311.36 194.326C1311.57 194.319 1311.77 194.252 1311.94 194.131C1312.11 194.01 1312.24 193.84 1312.32 193.645L1314.87 186.952C1314.95 186.749 1315.09 186.576 1315.26 186.454C1315.44 186.332 1315.66 186.267 1315.87 186.27C1316.09 186.272 1316.3 186.34 1316.48 186.466C1316.65 186.592 1316.78 186.768 1316.86 186.972L1319.27 193.722C1319.34 193.919 1319.47 194.091 1319.63 194.215C1319.8 194.34 1320 194.412 1320.21 194.422L1327.37 194.784C1327.58 194.795 1327.79 194.872 1327.96 195.004C1328.13 195.136 1328.26 195.318 1328.32 195.524C1328.39 195.73 1328.39 195.952 1328.32 196.158C1328.26 196.364 1328.13 196.546 1327.96 196.678L1322.29 201.056C1322.12 201.184 1322 201.358 1321.93 201.557C1321.86 201.756 1321.86 201.97 1321.91 202.173Z" fill="#171717"/>
<path d="M1273.81 166.867L1275.2 172.024C1275.24 172.179 1275.24 172.344 1275.18 172.496C1275.13 172.648 1275.03 172.78 1274.9 172.874C1274.76 172.967 1274.61 173.018 1274.45 173.019C1274.28 173.021 1274.13 172.972 1273.99 172.882L1269.58 169.867C1269.45 169.779 1269.3 169.732 1269.14 169.73C1268.99 169.729 1268.84 169.773 1268.71 169.858L1264.23 172.781C1264.09 172.869 1263.93 172.914 1263.77 172.91C1263.61 172.905 1263.46 172.851 1263.33 172.754C1263.2 172.658 1263.1 172.524 1263.05 172.372C1263 172.218 1263 172.053 1263.04 171.898L1264.54 166.77C1264.58 166.621 1264.58 166.462 1264.54 166.312C1264.49 166.163 1264.4 166.032 1264.28 165.934L1260.12 162.579C1259.99 162.479 1259.9 162.341 1259.85 162.187C1259.81 162.032 1259.81 161.866 1259.86 161.713C1259.91 161.559 1260.01 161.425 1260.14 161.329C1260.27 161.232 1260.43 161.178 1260.59 161.173L1265.93 161.018C1266.09 161.014 1266.24 160.963 1266.37 160.873C1266.49 160.783 1266.59 160.657 1266.65 160.511L1268.55 155.518C1268.61 155.368 1268.71 155.239 1268.85 155.148C1268.98 155.057 1269.14 155.009 1269.3 155.011C1269.46 155.013 1269.62 155.064 1269.75 155.157C1269.88 155.251 1269.98 155.382 1270.03 155.534L1271.83 160.567C1271.88 160.714 1271.98 160.841 1272.1 160.934C1272.23 161.027 1272.38 161.081 1272.53 161.089L1277.87 161.359C1278.03 161.367 1278.19 161.424 1278.31 161.524C1278.44 161.622 1278.54 161.758 1278.58 161.912C1278.63 162.066 1278.63 162.231 1278.58 162.384C1278.53 162.538 1278.44 162.673 1278.31 162.772L1274.08 166.037C1273.96 166.132 1273.87 166.263 1273.82 166.411C1273.77 166.558 1273.77 166.717 1273.81 166.867Z" fill="#171717"/>
<path d="M1393.09 432.203L1389.51 423.803" stroke="#171717" stroke-width="2.718" stroke-linecap="round" stroke-linejoin="round"/>
<path d="M1350.38 412.478L1356.98 406.478" stroke="#171717" stroke-width="2.718" stroke-linecap="round" stroke-linejoin="round"/>
<path d="M1328.85 375.844C1326.32 373.45 1324.57 370.348 1323.83 366.943" stroke="#171717" stroke-width="2.718" stroke-linecap="round" stroke-linejoin="round"/>
<path d="M1299.97 343.429C1301.4 342.629 1302.65 341.533 1303.62 340.213C1304.6 338.894 1305.28 337.381 1305.63 335.776" stroke="#171717" stroke-width="2.718" stroke-linecap="round" stroke-linejoin="round"/>
<path d="M1512.84 442.464L1508.04 433.474" stroke="#171717" stroke-width="2.718" stroke-linecap="round" stroke-linejoin="round"/>
<path d="M1474.1 470.269L1481.16 464.124" stroke="#171717" stroke-width="2.718" stroke-linecap="round" stroke-linejoin="round"/>
<path d="M1506.64 404.625C1503.04 417.782 1494.65 429.121 1483.13 436.428C1480.33 438.188 1477.15 439.735 1473.86 439.4C1469.04 438.907 1465.4 434.318 1464.6 429.537C1463.8 424.757 1465.27 419.89 1467.15 415.423" stroke="#171717" stroke-width="2.718" stroke-linecap="round" stroke-linejoin="round"/>
<path d="M1455.31 512.604L1450.51 505.41" stroke="#171717" stroke-width="2.718" stroke-linecap="round" stroke-linejoin="round"/>
<path d="M1496.64 522.159L1503.2 515.532" stroke="#171717" stroke-width="2.718" stroke-linecap="round" stroke-linejoin="round"/>
<path d="M1469.38 563.331L1464.42 557.469" stroke="#171717" stroke-width="2.718" stroke-linecap="round" stroke-linejoin="round"/>
<path d="M1554.25 476.05L1561.44 470.05" stroke="#171717" stroke-width="2.718" stroke-linecap="round" stroke-linejoin="round"/>
<path d="M1562.62 523.397L1555.43 515.002" stroke="#171717" stroke-width="2.718" stroke-linecap="round" stroke-linejoin="round"/>
<path d="M1593.81 526.994L1601.6 523.994" stroke="#171717" stroke-width="2.718" stroke-linecap="round" stroke-linejoin="round"/>
<path d="M1607.53 576.206L1600.93 567.815" stroke="#171717" stroke-width="2.718" stroke-linecap="round" stroke-linejoin="round"/>
<path d="M1569.82 598.942L1577.02 592.946" stroke="#171717" stroke-width="2.718" stroke-linecap="round" stroke-linejoin="round"/>
<path d="M1613.29 629.975L1609.57 622.24" stroke="#171717" stroke-width="2.718" stroke-linecap="round" stroke-linejoin="round"/>
<path d="M1569.22 651.703C1572.4 651.238 1575.34 649.767 1577.62 647.506" stroke="#171717" stroke-width="2.718" stroke-linecap="round" stroke-linejoin="round"/>
<path d="M1536.94 669.65L1533.91 662.469" stroke="#171717" stroke-width="2.718" stroke-linecap="round" stroke-linejoin="round"/>
<path d="M1573.43 686.478L1572.22 678.083" stroke="#171717" stroke-width="2.718" stroke-linecap="round" stroke-linejoin="round"/>
<g opacity="0.1">
<path d="M1250.1 248.684C1246.86 246.6 1243.23 247.193 1239.54 247.221C1235.29 247.253 1231.03 247.112 1226.78 246.864C1218.27 246.369 1209.81 243.891 1201.33 243.817C1194.34 243.757 1187.53 246.271 1183.36 252.081C1181.29 254.961 1180.27 258.238 1179.14 261.56C1178.34 264.189 1176.66 266.468 1174.39 268.02C1169.07 272.185 1174.86 280.958 1180.84 279.087C1187.22 277.087 1190.24 271.141 1192.1 265.134C1192.99 262.278 1193.23 258.601 1195.97 256.884C1198.8 255.103 1202.76 255.581 1205.89 255.824C1213.78 256.435 1221.59 257.219 1229.52 257.103C1235.82 257.009 1245.87 257.928 1250.68 253.24C1250.99 252.923 1251.22 252.541 1251.36 252.123C1251.5 251.704 1251.54 251.259 1251.49 250.822C1251.43 250.384 1251.28 249.964 1251.04 249.594C1250.79 249.224 1250.47 248.914 1250.1 248.685V248.684Z" fill="#171717"/>
</g>
<g opacity="0.1">
<path d="M1463.06 308.719C1470.06 309.702 1476.04 305.953 1480.63 300.899L1470.44 299.587C1477.05 309.442 1485.36 317.64 1495.9 323.265C1500.9 325.939 1506.17 328.059 1511.62 329.588C1516.87 331.046 1524.76 333.45 1528.48 328.013C1531.64 323.397 1527.75 318.84 1523.15 317.42C1517.76 315.763 1512.31 314.953 1507.12 312.592C1496.74 307.862 1487.66 300.703 1480.63 291.72C1478.65 289.162 1473.44 289.211 1471.46 291.72C1468.47 295.508 1464.4 297.285 1460.87 300.416C1458.29 302.704 1459.38 308.198 1463.06 308.716V308.719Z" fill="#171717"/>
</g>
<g opacity="0.1">
<path d="M1288.43 313.34C1281.92 315.374 1282.38 324.224 1282.08 329.864C1281.73 337.18 1281.92 344.512 1282.62 351.802C1283.91 365.904 1286.51 380.783 1291.67 394.021C1295 402.565 1308.31 399.398 1305.74 390.143C1301.87 376.229 1298.36 362.724 1296.88 348.301C1296.16 341.281 1296.04 334.273 1295.82 327.227C1295.7 323.107 1296.19 310.914 1288.43 313.339L1288.43 313.34Z" fill="#171717"/>
</g>
<g opacity="0.1">
<path d="M1361.89 464.213C1364.36 468.509 1368.49 469.513 1373.09 470.202C1378.02 470.941 1382.96 471.564 1387.93 471.957C1397.77 472.734 1407.63 473.027 1417.5 472.92C1427.22 472.815 1427.25 457.697 1417.5 457.803C1407.94 457.907 1398.39 457.635 1388.85 456.91C1384.25 456.56 1379.65 456.18 1375.05 455.771C1370.34 455.348 1366.25 455.18 1362.62 458.622C1361.9 459.35 1361.45 460.289 1361.32 461.298C1361.19 462.306 1361.39 463.329 1361.89 464.213Z" fill="#171717"/>
</g>
<g opacity="0.1">
<path d="M1479.46 408.504C1473.07 408.559 1466.55 415.075 1462.12 419.192C1456.88 424.282 1452.24 429.953 1448.3 436.096C1439.93 448.611 1434.31 462.76 1431.82 477.608C1428.83 495.728 1430.06 513.713 1429.36 531.965C1429.06 539.682 1428.62 547.34 1426.97 554.906C1426.17 558.695 1425.08 562.416 1423.71 566.036C1422.24 569.831 1419.97 573.186 1418.37 576.902C1415.7 583.133 1422.86 590.154 1428.38 584.624C1433.78 579.215 1436.93 571.102 1439.28 563.937C1441.64 556.333 1443.2 548.502 1443.92 540.574C1445.77 523.341 1444.23 505.837 1444.97 488.534C1445.69 473.705 1449.89 459.254 1457.24 446.351C1460.8 440.107 1464.98 434.241 1469.72 428.843C1471.94 426.278 1474.18 423.787 1476.54 421.353C1479.02 418.804 1481.81 416.496 1482.9 413.017C1483.04 412.488 1483.05 411.934 1482.95 411.398C1482.84 410.861 1482.61 410.356 1482.28 409.921C1481.95 409.486 1481.52 409.132 1481.03 408.887C1480.54 408.641 1480.01 408.51 1479.46 408.504H1479.46Z" fill="#171717"/>
</g>
<g opacity="0.1">
<path d="M1523.24 496.615C1523.74 500.989 1524.07 504.678 1526.05 508.745C1527.75 512.226 1529.8 515.559 1531.6 518.995C1535.12 525.745 1538.64 532.555 1541.51 539.62C1547.46 554.272 1550.99 570.117 1548.88 585.959C1544.49 618.91 1521.03 645.005 1499.75 668.784C1493.36 675.927 1503.85 686.51 1510.32 679.35C1534.09 653.039 1559.07 624.501 1564.07 588.015C1566.45 570.602 1563.38 553.305 1556.92 537.065C1553.63 528.746 1549.75 520.677 1545.29 512.922C1543.09 509.112 1540.95 505.118 1538.42 501.518C1535.8 497.796 1532.78 495.737 1529.12 493.242C1526.82 491.675 1522.91 493.718 1523.24 496.617L1523.24 496.615Z" fill="#171717"/>
</g>
<g opacity="0.1">
<path d="M1438.9 707.111C1443.76 711.202 1450.2 710.052 1456.06 709.669C1463.01 709.214 1469.95 708.72 1476.92 708.76C1490.9 708.841 1504.66 711.364 1518.43 713.517C1541.62 717.143 1569.48 720.54 1589.49 705.432C1594.04 701.997 1590.26 695.131 1584.97 697.691C1562.01 708.796 1537.76 704.354 1513.79 699.717C1500.67 697.18 1487.58 695.592 1474.19 696.023C1467.56 696.236 1460.93 696.785 1454.35 697.667C1448.55 698.446 1442.2 698.906 1438.5 704.023C1438.21 704.51 1438.1 705.076 1438.17 705.635C1438.24 706.194 1438.5 706.713 1438.9 707.111H1438.9Z" fill="#171717"/>
</g>
</g>
<defs>
<linearGradient id="paint0_linear_293_597" x1="339.387" y1="166.63" x2="339.387" y2="261.21" gradientUnits="userSpaceOnUse">
<stop stop-color="#D89EFF"/>
<stop offset="1" stop-color="#8238E0"/>
</linearGradient>
<linearGradient id="paint1_linear_293_597" x1="405.962" y1="592.316" x2="405.962" y2="616.77" gradientUnits="userSpaceOnUse">
<stop stop-color="#D89EFF"/>
<stop offset="1" stop-color="#8238E0"/>
</linearGradient>
<linearGradient id="paint2_linear_293_597" x1="325.97" y1="569.057" x2="325.97" y2="726.682" gradientUnits="userSpaceOnUse">
<stop stop-color="#D89EFF"/>
<stop offset="1" stop-color="#8238E0"/>
</linearGradient>
<linearGradient id="paint3_linear_293_597" x1="326.179" y1="526.673" x2="326.179" y2="554.628" gradientUnits="userSpaceOnUse">
<stop stop-color="#D89EFF"/>
<stop offset="1" stop-color="#8238E0"/>
</linearGradient>
<linearGradient id="paint4_linear_293_597" x1="326.486" y1="552.96" x2="326.486" y2="571.555" gradientUnits="userSpaceOnUse">
<stop stop-color="#D89EFF"/>
<stop offset="1" stop-color="#8238E0"/>
</linearGradient>
<linearGradient id="paint5_linear_293_597" x1="1526.77" y1="404.746" x2="1526.77" y2="709.709" gradientUnits="userSpaceOnUse">
<stop stop-color="#D89EFF"/>
<stop offset="1" stop-color="#8238E0"/>
</linearGradient>
<linearGradient id="paint6_linear_293_597" x1="1491.88" y1="744.637" x2="1491.88" y2="757.225" gradientUnits="userSpaceOnUse">
<stop stop-color="#D89EFF"/>
<stop offset="1" stop-color="#8238E0"/>
</linearGradient>
<linearGradient id="paint7_linear_293_597" x1="1332.4" y1="636.112" x2="1332.4" y2="695.475" gradientUnits="userSpaceOnUse">
<stop stop-color="#D89EFF"/>
<stop offset="1" stop-color="#8238E0"/>
</linearGradient>
<linearGradient id="paint8_linear_293_597" x1="1348.66" y1="312.392" x2="1348.66" y2="474.023" gradientUnits="userSpaceOnUse">
<stop stop-color="#D89EFF"/>
<stop offset="1" stop-color="#8238E0"/>
</linearGradient>
<linearGradient id="paint9_linear_293_597" x1="1259.05" y1="516.604" x2="1259.05" y2="581.607" gradientUnits="userSpaceOnUse">
<stop stop-color="#D89EFF"/>
<stop offset="1" stop-color="#8238E0"/>
</linearGradient>
<linearGradient id="paint10_linear_293_597" x1="1213.31" y1="360.139" x2="1213.31" y2="387.353" gradientUnits="userSpaceOnUse">
<stop stop-color="#D89EFF"/>
<stop offset="1" stop-color="#8238E0"/>
</linearGradient>
<linearGradient id="paint11_linear_293_597" x1="1033.81" y1="695.475" x2="1033.81" y2="729.349" gradientUnits="userSpaceOnUse">
<stop stop-color="#D89EFF"/>
<stop offset="1" stop-color="#8238E0"/>
</linearGradient>
<linearGradient id="paint12_linear_293_597" x1="1328.91" y1="439.408" x2="1328.91" y2="474.022" gradientUnits="userSpaceOnUse">
<stop stop-color="#D89EFF"/>
<stop offset="1" stop-color="#8238E0"/>
</linearGradient>
<linearGradient id="paint13_linear_293_597" x1="1216.02" y1="423.869" x2="1216.02" y2="446.253" gradientUnits="userSpaceOnUse">
<stop stop-color="#D89EFF"/>
<stop offset="1" stop-color="#8238E0"/>
</linearGradient>
<linearGradient id="paint14_linear_293_597" x1="1127.94" y1="419.872" x2="1127.94" y2="446.253" gradientUnits="userSpaceOnUse">
<stop stop-color="#D89EFF"/>
<stop offset="1" stop-color="#8238E0"/>
</linearGradient>
<linearGradient id="paint15_linear_293_597" x1="1037.01" y1="463.041" x2="1037.01" y2="485.824" gradientUnits="userSpaceOnUse">
<stop stop-color="#D89EFF"/>
<stop offset="1" stop-color="#8238E0"/>
</linearGradient>
<linearGradient id="paint16_linear_293_597" x1="1055.56" y1="536.587" x2="1055.56" y2="558.571" gradientUnits="userSpaceOnUse">
<stop stop-color="#D89EFF"/>
<stop offset="1" stop-color="#8238E0"/>
</linearGradient>
<linearGradient id="paint17_linear_293_597" x1="1138.34" y1="544.181" x2="1138.34" y2="568.963" gradientUnits="userSpaceOnUse">
<stop stop-color="#D89EFF"/>
<stop offset="1" stop-color="#8238E0"/>
</linearGradient>
<linearGradient id="paint18_linear_293_597" x1="1172.69" y1="460.242" x2="1172.69" y2="482.626" gradientUnits="userSpaceOnUse">
<stop stop-color="#D89EFF"/>
<stop offset="1" stop-color="#8238E0"/>
</linearGradient>
<linearGradient id="paint19_linear_293_597" x1="1297.94" y1="485.824" x2="1297.94" y2="504.539" gradientUnits="userSpaceOnUse">
<stop stop-color="#D89EFF"/>
<stop offset="1" stop-color="#8238E0"/>
</linearGradient>
<linearGradient id="paint20_linear_293_597" x1="1349.58" y1="523.397" x2="1349.58" y2="549.103" gradientUnits="userSpaceOnUse">
<stop stop-color="#D89EFF"/>
<stop offset="1" stop-color="#8238E0"/>
</linearGradient>
<linearGradient id="paint21_linear_293_597" x1="1132.34" y1="642.111" x2="1132.34" y2="652.103" gradientUnits="userSpaceOnUse">
<stop stop-color="#D89EFF"/>
<stop offset="1" stop-color="#8238E0"/>
</linearGradient>
</defs>
</svg>
