<svg width="1920" height="960" viewBox="0 0 1920 960" fill="none" xmlns="http://www.w3.org/2000/svg">
<mask id="mask0_297_2627" style="mask-type:luminance" maskUnits="userSpaceOnUse" x="38" y="43" width="884" height="875">
<path d="M922 43H38V918H922V43Z" fill="white"/>
</mask>
<g mask="url(#mask0_297_2627)">
<path fill-rule="evenodd" clip-rule="evenodd" d="M432.899 699.288C432.899 699.288 445.212 655.921 450.158 622.921L448.794 622.72C443.415 611.242 429.87 618.926 429.37 619.211L428.905 619.073C428.642 619.967 428.38 620.872 428.121 621.785C428.368 621.606 428.671 621.5 428.999 621.5C435.397 621.497 441.773 622.248 447.995 623.736C448.801 623.929 449.298 624.738 449.105 625.544C448.912 626.35 448.103 626.847 447.297 626.654C441.304 625.22 435.163 624.497 429.001 624.5C428.377 624.5 427.842 624.12 427.616 623.578C418.474 656.384 411.699 698.991 411.699 698.991L411.71 699.213C418.765 698.849 425.835 698.941 432.878 699.488L432.899 699.288Z" fill="#171717"/>
<path fill-rule="evenodd" clip-rule="evenodd" d="M741.783 312.226C740.891 308.494 738.553 305.269 735.284 303.26L666.747 261.139C665.129 260.143 663.331 259.475 661.455 259.174C659.578 258.874 657.661 258.946 655.813 259.386C653.965 259.827 652.222 260.628 650.683 261.743C649.145 262.858 647.841 264.265 646.847 265.884L604.721 334.419C602.712 337.688 602.083 341.62 602.973 345.352C603.863 349.084 606.199 352.31 609.467 354.319L678.002 396.444C679.62 397.44 681.418 398.106 683.294 398.406C685.17 398.707 687.087 398.634 688.935 398.194C690.783 397.753 692.526 396.953 694.064 395.838C695.603 394.724 696.907 393.318 697.902 391.699L740.039 323.16C742.047 319.891 742.674 315.958 741.783 312.226ZM676.311 295.807C676.762 295.112 676.564 294.183 675.869 293.733C675.174 293.282 674.245 293.48 673.794 294.175L638.794 348.141C638.343 348.836 638.541 349.765 639.237 350.216C639.932 350.666 640.86 350.468 641.311 349.773L676.311 295.807ZM706.52 309.876C707.233 310.298 707.468 311.218 707.046 311.931C695.577 331.303 683.209 350.093 669.941 368.299C669.811 368.477 669.65 368.618 669.471 368.72C669.312 368.81 669.139 368.87 668.961 368.898C668.695 368.94 668.417 368.91 668.16 368.804C668.064 368.765 667.97 368.715 667.881 368.654C665.254 366.873 662.496 365.295 659.63 363.933C659.622 363.929 659.613 363.925 659.605 363.921C659.597 363.917 659.588 363.912 659.58 363.908C658.312 363.246 657.175 362.565 656.266 361.612C655.325 360.625 654.712 359.439 654.311 357.89V357.889C653.707 355.543 654.559 353.226 655.294 351.516C657.886 345.479 662.054 339.613 668.187 336.53C674.061 333.576 681.984 333.743 687.066 338.29C693.08 329.133 698.879 319.837 704.465 310.403C704.887 309.69 705.807 309.454 706.52 309.876ZM685.39 340.829C681.464 337.01 674.732 336.597 669.534 339.21C664.271 341.856 660.491 347.015 658.051 352.7C657.316 354.411 656.89 355.872 657.216 357.14C657.515 358.298 657.918 358.997 658.437 359.542C658.985 360.116 659.747 360.61 660.943 361.235C663.503 362.453 665.98 363.835 668.36 365.373C674.213 357.306 679.89 349.125 685.39 340.829Z" fill="#171717"/>
<path fill-rule="evenodd" clip-rule="evenodd" d="M681.584 747.015L681.605 747.437L584.471 752.477L584.45 752.077C591.986 733.191 611.093 719.504 631.395 718.448C651.697 717.392 672.125 729.015 681.584 747.015ZM248.438 894.031C289.887 912.578 336.662 916.573 381.905 912.716H381.908C417.407 909.693 453.562 901.513 482.846 881.455L483.671 882.66C560.027 918.909 655.237 919.807 730.61 881.56C783.23 854.864 827.928 809.174 844.636 752.581C861.344 695.988 846.094 628.921 800.566 591.372C770.869 566.885 732.062 556.613 694.09 550.335C651.457 543.297 612.365 540.433 569.183 541.817L568.739 541.437C568.855 530.625 567.29 527.909 561.309 523.809C555.328 519.709 547.634 519.341 540.395 519.109L523.802 518.57L523.591 518.2C512.048 524.417 499.121 527.616 486.01 527.5C470.422 527.5 456.133 523.251 444.994 516.16L444.857 516.371C439.027 516.392 433.279 517.752 428.057 520.345C418.63 524.805 411.306 535.564 414.339 545.54C366.328 546.417 324.582 562.861 283.218 581.768C241.854 600.675 203.882 629.02 179.247 667.255C154.612 705.49 144.53 754.233 157.973 797.69C171.384 841.073 206.989 875.484 248.438 894.031ZM450.159 622.921C445.213 655.916 432.9 699.288 432.9 699.288L432.882 699.493C436.433 699.758 440.153 700.117 444.053 700.593C471.947 703.993 470.442 724.959 468.233 755.742C468.177 756.52 468.12 757.303 468.064 758.093L468.085 758.527L456.085 759.15L371.919 763.525C374.519 754.31 381.79 751.188 387.349 750.188C381.378 749.936 374.149 747.959 376.907 739.388C379.782 730.437 386.968 727.034 391.735 725.745C386.757 726.093 379.37 724.973 378.398 715.514C377.584 707.637 388.702 700.535 411.709 699.214L411.698 698.992C411.698 698.992 419.117 652.333 428.904 619.074C434.517 599.977 440.904 585.298 447.104 586.387C453.424 587.496 453.086 603.391 450.159 622.921ZM775.254 585.549C774.542 585.125 773.621 585.359 773.198 586.071C772.774 586.783 773.008 587.704 773.72 588.127C817.676 614.268 838.83 670.115 832.39 721.111C825.95 772.1 795.696 817.862 757.412 852.507C756.798 853.063 756.751 854.011 757.307 854.625C757.863 855.24 758.811 855.287 759.425 854.731C798.052 819.776 828.809 773.405 835.366 721.487C841.922 669.575 820.45 612.427 775.254 585.549Z" fill="url(#paint0_linear_297_2627)"/>
<path d="M523.693 319.008C510.028 323.647 446.925 345.048 432.309 349.698C415.896 354.919 421.609 371.585 421.609 371.585L429.356 408.268C429.356 408.268 408.684 430.018 394.502 418.329V416.839C408.684 410.868 401.466 379.047 401.466 379.047C401.466 379.047 397 353.429 404.7 335.029C412.4 316.629 467.613 302.447 486.013 294.5C504.413 286.553 511.874 253.463 511.874 253.463L521.818 277.834L550.418 249.986L538.983 288.275C538.983 288.275 585.983 257.69 569.325 271.863C552.775 285.95 534.397 363.67 534.143 364.748C528.7 340.335 523.693 319.008 523.693 319.008Z" fill="#171717"/>
<path d="M538.541 449.358C546.024 457.442 550.42 467.334 550.42 478.008C550.42 494.558 539.841 509.217 523.598 518.2C512.055 524.417 499.128 527.616 486.017 527.5C470.429 527.5 456.14 523.251 445.001 516.16C430.713 507.082 421.613 493.36 421.613 478.008C421.613 465.527 427.627 454.113 437.561 445.416C449.366 435.059 466.698 428.527 486.017 428.527C507.693 428.527 526.863 436.75 538.541 449.358ZM503.92 459.366C503.92 449.749 493.848 441.949 481.42 441.949C468.992 441.949 458.92 449.749 458.92 459.366C458.92 468.983 468.991 476.772 481.42 476.772C493.849 476.772 503.92 468.972 503.92 459.366Z" fill="#171717"/>
<path d="M447.1 586.387C453.42 587.496 453.082 603.387 450.155 622.921L448.791 622.721C443.412 611.243 429.863 618.927 429.367 619.212L428.902 619.074C434.517 599.977 440.9 585.3 447.1 586.387Z" fill="#171717"/>
<path d="M340.47 349.508C344.099 350.76 347.082 353.402 348.764 356.852C350.446 360.302 350.69 364.279 349.442 367.908L323.233 443.968C321.981 447.596 319.339 450.579 315.889 452.259C312.438 453.94 308.462 454.181 304.833 452.93L228.784 426.72C225.156 425.471 222.173 422.832 220.49 419.384C218.807 415.935 218.563 411.96 219.811 408.331L246.021 332.271C246.641 330.475 247.608 328.817 248.868 327.394C250.128 325.971 251.656 324.811 253.365 323.979C255.073 323.146 256.929 322.659 258.826 322.544C260.723 322.429 262.625 322.689 264.421 323.309L340.47 349.508Z" fill="url(#paint1_linear_297_2627)"/>
<path d="M135.529 575.364L161.189 576.864C160.733 585.97 158.238 594.856 153.886 602.867C149.534 610.879 143.438 617.81 136.048 623.148C128.658 628.487 120.163 632.097 111.19 633.711C102.217 635.325 92.9964 634.903 84.209 632.474L89.144 606.687C94.2735 608.433 99.7377 608.967 105.108 608.248C110.479 607.528 115.61 605.575 120.099 602.54C124.588 599.506 128.313 595.473 130.983 590.758C133.653 586.043 135.195 580.774 135.487 575.363L135.529 575.364Z" fill="url(#paint2_linear_297_2627)"/>
<path d="M89.1439 606.687L84.2089 632.474C72.1172 629.117 61.3601 622.101 53.4128 612.389C45.4656 602.677 40.7173 590.745 39.8191 578.228C38.9209 565.711 41.9169 553.222 48.396 542.475C54.8752 531.728 64.5204 523.249 76.0089 518.199L87.1799 541.047C80.5729 543.752 74.9487 548.408 71.0591 554.395C67.1695 560.381 65.1999 567.412 65.4136 574.548C65.6272 581.684 68.0138 588.585 72.2545 594.328C76.4952 600.071 82.3869 604.383 89.1439 606.687Z" fill="#171717"/>
<path d="M444.864 516.371C439.034 516.392 433.286 517.752 428.064 520.345C418.637 524.805 411.313 535.564 414.346 545.54C366.335 546.417 324.59 562.872 283.225 581.768C241.86 600.664 203.889 629.019 179.254 667.255C154.619 705.491 144.537 754.233 157.98 797.69C171.391 841.073 206.996 875.473 248.445 894.031C289.894 912.589 336.669 916.573 381.912 912.716C417.412 909.693 453.566 901.516 482.85 881.454C484.245 880.514 485.619 879.531 486.972 878.527C527.84 848.27 546.972 800.934 565.231 753.482" stroke="#171717" stroke-width="3" stroke-linecap="round" stroke-linejoin="round"/>
<path d="M568.746 541.439C568.862 530.627 567.287 527.911 561.316 523.811C555.345 519.711 547.641 519.34 540.402 519.111L523.809 518.572" stroke="#171717" stroke-width="3" stroke-linecap="round" stroke-linejoin="round"/>
<path d="M569.191 541.819C612.373 540.435 651.465 543.299 694.098 550.337C732.07 556.615 770.877 566.887 800.574 591.374C846.102 628.923 861.352 695.99 844.644 752.583C827.936 809.176 783.231 854.863 730.611 881.559C655.238 919.806 560.028 918.908 483.672 882.659" stroke="#171717" stroke-width="3" stroke-linecap="round" stroke-linejoin="round"/>
<path d="M456.088 759.147L468.083 758.524L565.228 753.482L584.472 752.479L681.606 747.438L688.349 747.089L692.83 643.646" stroke="#171717" stroke-width="3" stroke-linecap="round" stroke-linejoin="round"/>
<path d="M387.352 750.186C381.793 751.186 374.522 754.308 371.922 763.523" stroke="#171717" stroke-width="3" stroke-linecap="round" stroke-linejoin="round"/>
<path d="M387.352 750.185C389.679 750.274 392.01 750.154 394.316 749.826C391.988 749.644 389.648 749.765 387.352 750.185Z" stroke="#171717" stroke-width="3" stroke-linecap="round" stroke-linejoin="round"/>
<path d="M391.738 725.74C386.971 727.029 379.785 730.432 376.91 739.383C374.152 747.954 381.381 749.931 387.352 750.183" stroke="#171717" stroke-width="3" stroke-linecap="round" stroke-linejoin="round"/>
<path d="M391.736 725.741C393.28 725.634 394.81 725.372 396.301 724.959C394.757 725.06 393.227 725.322 391.736 725.741Z" stroke="#171717" stroke-width="3" stroke-linecap="round" stroke-linejoin="round"/>
<path d="M468.062 758.089C470.345 726.025 472.649 704.075 444.051 700.589C440.151 700.113 436.431 699.754 432.88 699.489C425.837 698.942 418.767 698.85 411.712 699.214C388.705 700.535 377.587 707.637 378.401 715.514C379.373 724.973 386.76 726.093 391.738 725.745" stroke="#171717" stroke-width="3" stroke-linecap="round" stroke-linejoin="round"/>
<path d="M320.327 665.025L314.852 766.481L371.921 763.521L456.087 759.146" stroke="#171717" stroke-width="3" stroke-linecap="round" stroke-linejoin="round"/>
<path d="M584.449 752.076C591.985 733.19 611.092 719.504 631.394 718.447C651.696 717.39 672.124 729.016 681.583 747.014" stroke="#171717" stroke-width="3" stroke-linecap="round" stroke-linejoin="round"/>
<path d="M538.541 449.358C546.024 457.442 550.42 467.334 550.42 478.008C550.42 494.558 539.841 509.217 523.598 518.2C512.055 524.417 499.128 527.616 486.017 527.5C470.429 527.5 456.14 523.251 445.001 516.16C430.713 507.082 421.613 493.36 421.613 478.008C421.613 465.527 427.627 454.113 437.561 445.416C449.366 435.059 466.698 428.527 486.017 428.527C507.693 428.527 526.863 436.75 538.541 449.358Z" stroke="#171717" stroke-width="3" stroke-linecap="round" stroke-linejoin="round"/>
<path d="M503.92 459.366C503.92 468.972 493.848 476.772 481.42 476.772C468.992 476.772 458.92 468.972 458.92 459.366C458.92 449.76 468.991 441.949 481.42 441.949C493.849 441.949 503.92 449.749 503.92 459.366Z" stroke="#171717" stroke-width="3" stroke-linecap="round" stroke-linejoin="round"/>
<path d="M437.076 444.844L429.361 408.267L421.614 371.584C421.614 371.584 415.897 354.918 432.314 349.697C446.93 345.047 510.033 323.646 523.698 319.007L526.308 318.119" stroke="#171717" stroke-width="3" stroke-linecap="round" stroke-linejoin="round"/>
<path d="M534.145 364.748C528.702 340.335 523.693 319.008 523.693 319.008" stroke="#171717" stroke-width="3" stroke-linecap="round" stroke-linejoin="round"/>
<path d="M540.137 449.019C540.137 449.019 547.185 446.177 547.693 434.742C547.967 428.475 540.74 394.349 534.145 364.758" stroke="#171717" stroke-width="3" stroke-linecap="round" stroke-linejoin="round"/>
<path d="M517.352 341.867C517.352 341.867 484.284 349.328 481.42 351.812C478.556 354.296 475.829 356.536 478.059 361.512C480.289 366.488 499.946 413.476 499.946 413.476C499.946 413.476 503.18 417.704 498.456 420.694C493.732 423.684 489.504 424.922 487.264 424.922" stroke="#171717" stroke-width="3" stroke-linecap="round" stroke-linejoin="round"/>
<path d="M458.921 381.487L455.93 372.578" stroke="#171717" stroke-width="3" stroke-linecap="round" stroke-linejoin="round"/>
<path d="M505.663 370.337L503.92 362.379" stroke="#171717" stroke-width="3" stroke-linecap="round" stroke-linejoin="round"/>
<path d="M468.863 454.082C468.863 454.082 469.857 463.082 486.016 460.856" stroke="#171717" stroke-width="3" stroke-linecap="round" stroke-linejoin="round"/>
<path d="M429.36 408.268C429.36 408.268 408.688 430.018 394.506 418.329" stroke="#171717" stroke-width="3" stroke-linecap="round" stroke-linejoin="round"/>
<path d="M534.145 364.758V364.748C534.399 363.67 552.777 285.948 569.327 271.863C585.983 257.69 538.985 288.275 538.985 288.275L550.42 249.986L521.82 277.834L511.876 253.463C511.876 253.463 504.414 286.542 486.015 294.5C467.616 302.458 412.415 316.63 404.702 335.029C396.989 353.428 401.468 379.047 401.468 379.047C401.468 379.047 408.686 410.868 394.504 416.839" stroke="#171717" stroke-width="3" stroke-linecap="round" stroke-linejoin="round"/>
<path d="M304.833 452.93L228.784 426.72C225.156 425.471 222.173 422.832 220.49 419.384C218.807 415.935 218.563 411.96 219.811 408.331L246.021 332.271C246.641 330.475 247.608 328.817 248.868 327.394C250.128 325.971 251.656 324.811 253.365 323.979C255.073 323.146 256.929 322.659 258.826 322.544C260.723 322.429 262.625 322.689 264.421 323.309L340.471 349.509C344.1 350.761 347.083 353.403 348.765 356.853C350.447 360.303 350.691 364.28 349.443 367.909L323.234 443.969C321.982 447.598 319.34 450.58 315.889 452.26C312.438 453.941 308.462 454.182 304.833 452.93Z" stroke="#171717" stroke-width="3" stroke-linecap="round" stroke-linejoin="round"/>
<path d="M436.039 241.776L384.639 179.909C383.424 178.447 382.509 176.761 381.946 174.946C381.383 173.131 381.183 171.223 381.358 169.331C381.533 167.439 382.079 165.599 382.964 163.918C383.85 162.237 385.058 160.747 386.52 159.533L448.398 108.118C451.35 105.669 455.154 104.492 458.973 104.845C462.792 105.198 466.316 107.052 468.769 110.001L520.169 171.879C521.385 173.339 522.3 175.025 522.864 176.84C523.427 178.655 523.627 180.564 523.453 182.456C523.278 184.348 522.732 186.188 521.846 187.869C520.959 189.55 519.751 191.04 518.288 192.254L456.421 243.669C453.466 246.118 449.66 247.295 445.838 246.94C442.016 246.585 438.492 244.728 436.039 241.776Z" stroke="#171717" stroke-width="3" stroke-linecap="round" stroke-linejoin="round"/>
<path d="M740.037 323.16L697.9 391.699C696.905 393.318 695.601 394.724 694.062 395.838C692.524 396.953 690.781 397.753 688.933 398.194C687.085 398.634 685.168 398.707 683.292 398.406C681.417 398.106 679.618 397.44 678 396.444L609.465 354.319C606.197 352.31 603.861 349.084 602.971 345.352C602.081 341.62 602.71 337.688 604.719 334.419L646.845 265.884C647.839 264.265 649.143 262.858 650.681 261.743C652.22 260.628 653.963 259.827 655.811 259.386C657.66 258.946 659.576 258.874 661.453 259.174C663.329 259.475 665.127 260.143 666.745 261.139L735.281 303.264C738.549 305.273 740.886 308.497 741.778 312.228C742.67 315.959 742.044 319.891 740.037 323.16Z" stroke="#171717" stroke-width="3" stroke-linecap="round" stroke-linejoin="round"/>
<path d="M411.699 698.992C411.699 698.992 419.118 652.333 428.905 619.074C434.516 599.974 440.905 585.298 447.105 586.387C453.425 587.496 453.087 603.387 450.16 622.921C445.214 655.921 432.901 699.288 432.901 699.288" stroke="#171717" stroke-width="3" stroke-linecap="round" stroke-linejoin="round"/>
<path d="M429.359 619.223L429.37 619.213C429.87 618.928 443.415 611.244 448.794 622.722" stroke="#171717" stroke-width="3" stroke-linecap="round" stroke-linejoin="round"/>
<path d="M76.0081 518.2C85.2633 514.139 95.3847 512.448 105.457 513.281C115.53 514.114 125.236 517.444 133.699 522.97C142.161 528.496 149.113 536.045 153.926 544.932C158.739 553.82 161.26 563.767 161.263 573.874C161.263 574.874 161.242 575.874 161.189 576.865C160.655 587.68 157.242 598.156 151.303 607.21C145.365 616.265 137.116 623.569 127.41 628.368C117.703 633.167 106.891 635.286 96.0909 634.508C85.2909 633.729 74.8948 630.08 65.977 623.939C57.0593 617.797 49.9435 609.385 45.3653 599.572C40.787 589.76 38.9122 578.903 39.9349 568.123C40.9575 557.343 44.8404 547.032 51.1821 538.256C57.5239 529.479 66.0945 522.555 76.0081 518.2Z" stroke="#171717" stroke-width="3" stroke-linecap="round" stroke-linejoin="round"/>
<path d="M87.1791 541.048C92.5049 538.869 98.2847 538.035 104.009 538.618C109.733 539.201 115.226 541.183 120.004 544.39C124.781 547.597 128.696 551.93 131.404 557.007C134.111 562.084 135.528 567.75 135.529 573.504C135.529 574.127 135.508 574.751 135.487 575.364C135.154 581.633 133.144 587.697 129.668 592.925C126.191 598.152 121.375 602.35 115.722 605.081C110.069 607.812 103.787 608.975 97.5309 608.45C91.275 607.924 85.2749 605.729 80.1569 602.094C75.0389 598.458 70.9906 593.515 68.4346 587.781C65.8787 582.047 64.9088 575.732 65.6262 569.495C66.3437 563.258 68.7221 557.329 72.5132 552.325C76.3044 547.321 81.3692 543.426 87.1791 541.048Z" stroke="#171717" stroke-width="3" stroke-linecap="round" stroke-linejoin="round"/>
<path d="M87.1788 541.047L76.0078 518.199" stroke="#171717" stroke-width="3" stroke-linecap="round" stroke-linejoin="round"/>
<path d="M89.144 606.688L84.209 632.474" stroke="#171717" stroke-width="3" stroke-linecap="round" stroke-linejoin="round"/>
<path d="M135.529 575.363L161.189 576.864" stroke="#171717" stroke-width="3" stroke-linecap="round" stroke-linejoin="round"/>
<path d="M451.299 219.999L419.688 172.689" stroke="#171717" stroke-width="3" stroke-linecap="round" stroke-linejoin="round"/>
<path d="M412.857 179.042C416.635 172.503 422.102 167.1 428.686 163.399C433.409 160.755 439.352 159.08 444.142 161.599C450.042 164.707 451.4 173.05 448.835 179.209C446.27 185.368 440.898 189.834 435.721 194.043" stroke="#171717" stroke-width="3" stroke-linecap="round" stroke-linejoin="round"/>
<path d="M469.776 170.734C467.551 173.152 465.223 175.777 464.733 179.026C464.243 182.275 466.563 186.142 469.843 185.94C471.981 185.809 473.788 184.062 475.93 184.029C478.613 183.988 480.675 186.935 480.33 189.597C479.985 192.259 477.83 194.405 475.374 195.489C472.856 196.431 470.194 196.935 467.505 196.979" stroke="#171717" stroke-width="3" stroke-linecap="round" stroke-linejoin="round"/>
<path d="M237.352 411.615L281.267 350.477C277.957 373.7 275.875 397.081 275.028 420.524" stroke="#171717" stroke-width="3" stroke-linecap="round" stroke-linejoin="round"/>
<path d="M255.18 385L276.074 391.695" stroke="#171717" stroke-width="3" stroke-linecap="round" stroke-linejoin="round"/>
<path d="M287.385 426.556L295.616 405.678" stroke="#171717" stroke-width="3" stroke-linecap="round" stroke-linejoin="round"/>
<path d="M303.746 387.745L305.238 382.523" stroke="#171717" stroke-width="3" stroke-linecap="round" stroke-linejoin="round"/>
<path d="M150.184 849.44C133.641 825.665 125.346 797.125 126.567 768.188" stroke="#171717" stroke-width="3" stroke-linecap="round" stroke-linejoin="round"/>
<path d="M806.82 857.411C840.734 836.051 865.783 803.151 877.349 764.777L879.669 763.725" stroke="#171717" stroke-width="3" stroke-linecap="round" stroke-linejoin="round"/>
<path d="M429.049 544.651L430.525 529.729" stroke="#171717" stroke-width="3" stroke-linecap="round" stroke-linejoin="round"/>
<path d="M448.018 546.149L449.409 532.711" stroke="#171717" stroke-width="3" stroke-linecap="round" stroke-linejoin="round"/>
<path d="M465.879 550.123L467.371 537.193" stroke="#171717" stroke-width="3" stroke-linecap="round" stroke-linejoin="round"/>
<path d="M481.246 551.112L483.212 537.184" stroke="#171717" stroke-width="3" stroke-linecap="round" stroke-linejoin="round"/>
<path d="M502.277 549.641L504.228 536.705" stroke="#171717" stroke-width="3" stroke-linecap="round" stroke-linejoin="round"/>
<path d="M523.631 547.146L525.031 531.223" stroke="#171717" stroke-width="3" stroke-linecap="round" stroke-linejoin="round"/>
<path d="M544.953 545.649V531.227" stroke="#171717" stroke-width="3" stroke-linecap="round" stroke-linejoin="round"/>
<path d="M809.537 689.131L811.265 690.336L802.242 676.336" stroke="#171717" stroke-width="3" stroke-linecap="round" stroke-linejoin="round"/>
<path d="M747.037 728.817L759.779 714.697" stroke="#171717" stroke-width="3" stroke-linecap="round" stroke-linejoin="round"/>
<path d="M754.15 639.727L768.742 623.699" stroke="#171717" stroke-width="3" stroke-linecap="round" stroke-linejoin="round"/>
<path d="M725.43 669.594L717.93 659.18" stroke="#171717" stroke-width="3" stroke-linecap="round" stroke-linejoin="round"/>
<path d="M702.7 605.8C697.778 602.297 693.555 597.903 690.25 592.846" stroke="#171717" stroke-width="3" stroke-linecap="round" stroke-linejoin="round"/>
<path d="M647.58 655.531C649.741 649.93 653.08 644.858 657.369 640.658" stroke="#171717" stroke-width="3" stroke-linecap="round" stroke-linejoin="round"/>
<path d="M617.813 594.387L607.369 581.705" stroke="#171717" stroke-width="3" stroke-linecap="round" stroke-linejoin="round"/>
<path d="M568.576 642.131C570.594 637.299 573.65 632.969 577.528 629.449" stroke="#171717" stroke-width="3" stroke-linecap="round" stroke-linejoin="round"/>
<path d="M551.44 693.577L537.383 682.977" stroke="#171717" stroke-width="3" stroke-linecap="round" stroke-linejoin="round"/>
<path d="M631.908 702.62L625.219 694.395" stroke="#171717" stroke-width="3" stroke-linecap="round" stroke-linejoin="round"/>
<path d="M494.846 739.218L506.001 726.5" stroke="#171717" stroke-width="3" stroke-linecap="round" stroke-linejoin="round"/>
<path d="M475.262 665.215L486.744 647.025" stroke="#171717" stroke-width="3" stroke-linecap="round" stroke-linejoin="round"/>
<path d="M507.866 602.94L493.066 590.854" stroke="#171717" stroke-width="3" stroke-linecap="round" stroke-linejoin="round"/>
<path d="M376.109 624.227C377.61 619.711 380.168 615.619 383.569 612.291" stroke="#171717" stroke-width="3" stroke-linecap="round" stroke-linejoin="round"/>
<path d="M358.052 684.835L346.27 674.953" stroke="#171717" stroke-width="3" stroke-linecap="round" stroke-linejoin="round"/>
<path d="M306 618.268L314.945 604.09" stroke="#171717" stroke-width="3" stroke-linecap="round" stroke-linejoin="round"/>
<path d="M274.653 686.145L264.209 677.939" stroke="#171717" stroke-width="3" stroke-linecap="round" stroke-linejoin="round"/>
<path d="M188 722.637L196.243 706.99" stroke="#171717" stroke-width="3" stroke-linecap="round" stroke-linejoin="round"/>
<path d="M253.885 782.254L240.285 769.008" stroke="#171717" stroke-width="3" stroke-linecap="round" stroke-linejoin="round"/>
<path d="M253.57 851.623L264.79 835.232" stroke="#171717" stroke-width="3" stroke-linecap="round" stroke-linejoin="round"/>
<path d="M357.564 812.129L345.6 797.982" stroke="#171717" stroke-width="3" stroke-linecap="round" stroke-linejoin="round"/>
<path d="M352.807 883.692L361.8 872.535" stroke="#171717" stroke-width="3" stroke-linecap="round" stroke-linejoin="round"/>
<path d="M447.693 810.007L435.764 795.082" stroke="#171717" stroke-width="3" stroke-linecap="round" stroke-linejoin="round"/>
<path d="M458.254 848.85L473.237 832.5" stroke="#171717" stroke-width="3" stroke-linecap="round" stroke-linejoin="round"/>
<path d="M593.85 787.674L584.15 775.736" stroke="#171717" stroke-width="3" stroke-linecap="round" stroke-linejoin="round"/>
<path d="M550.012 885.434L561.969 875.762" stroke="#171717" stroke-width="3" stroke-linecap="round" stroke-linejoin="round"/>
<path d="M615.335 854.146L605.506 838.562" stroke="#171717" stroke-width="3" stroke-linecap="round" stroke-linejoin="round"/>
<path d="M666.301 809.982L679.601 798.725L678.232 800.284" stroke="#171717" stroke-width="3" stroke-linecap="round" stroke-linejoin="round"/>
<path d="M723.812 852.456C720.715 847.997 718.394 843.046 716.947 837.812" stroke="#171717" stroke-width="3" stroke-linecap="round" stroke-linejoin="round"/>
<path d="M765.521 816.7C769.182 812.466 773.78 809.145 778.949 807" stroke="#171717" stroke-width="3" stroke-linecap="round" stroke-linejoin="round"/>
<path d="M799.421 763.261L789.301 748.127" stroke="#171717" stroke-width="3" stroke-linecap="round" stroke-linejoin="round"/>
<path d="M300.062 230.8L295.651 244.177C295.518 244.581 295.265 244.935 294.925 245.19C294.585 245.445 294.175 245.59 293.75 245.605C293.325 245.621 292.905 245.505 292.548 245.275C292.191 245.044 291.913 244.71 291.751 244.316L286.4 231.281C286.244 230.901 285.979 230.576 285.638 230.346C285.297 230.117 284.896 229.993 284.485 229.991L270.4 229.93C269.975 229.928 269.561 229.796 269.213 229.552C268.866 229.307 268.601 228.962 268.456 228.562C268.31 228.163 268.291 227.729 268.399 227.318C268.508 226.907 268.74 226.539 269.064 226.264L279.806 217.152C280.12 216.886 280.348 216.533 280.461 216.138C280.574 215.743 280.567 215.323 280.442 214.931L276.142 201.516C276.014 201.112 276.012 200.677 276.138 200.272C276.263 199.866 276.51 199.509 276.845 199.247C277.179 198.986 277.586 198.833 278.01 198.81C278.434 198.787 278.855 198.893 279.216 199.116L291.201 206.516C291.551 206.732 291.957 206.839 292.368 206.825C292.779 206.81 293.176 206.674 293.509 206.434L304.941 198.204C305.286 197.956 305.699 197.819 306.124 197.813C306.549 197.806 306.966 197.93 307.318 198.167C307.671 198.405 307.942 198.745 308.096 199.141C308.249 199.537 308.278 199.971 308.177 200.384L304.842 214.07C304.745 214.47 304.768 214.889 304.909 215.275C305.05 215.661 305.302 215.997 305.633 216.24L317 224.566C317.343 224.818 317.6 225.168 317.738 225.57C317.875 225.972 317.887 226.407 317.77 226.815C317.653 227.224 317.414 227.587 317.084 227.855C316.755 228.124 316.351 228.285 315.927 228.317L301.88 229.375C301.47 229.406 301.079 229.558 300.755 229.812C300.432 230.066 300.191 230.41 300.062 230.8Z" fill="#171717"/>
<path d="M841.137 424.766H821.335C819.748 424.766 818.461 426.052 818.461 427.64V447.442C818.461 449.029 819.748 450.316 821.335 450.316H841.137C842.724 450.316 844.011 449.029 844.011 447.442V427.64C844.011 426.052 842.724 424.766 841.137 424.766Z" stroke="#171717" stroke-width="3" stroke-miterlimit="10"/>
<path d="M893.915 352.658L875.775 344.717C874.321 344.08 872.627 344.743 871.99 346.197L864.049 364.337C863.413 365.791 864.075 367.486 865.529 368.123L883.669 376.064C885.123 376.7 886.818 376.037 887.455 374.583L895.396 356.443C896.032 354.989 895.369 353.295 893.915 352.658Z" stroke="#171717" stroke-width="3" stroke-miterlimit="10"/>
<path d="M916.789 412.145H896.987C895.4 412.145 894.113 413.431 894.113 415.019V434.821C894.113 436.408 895.4 437.695 896.987 437.695H916.789C918.377 437.695 919.663 436.408 919.663 434.821V415.019C919.663 413.431 918.377 412.145 916.789 412.145Z" stroke="#171717" stroke-width="3" stroke-miterlimit="10"/>
<path d="M844.01 437.697L894.113 426.557" stroke="#171717" stroke-width="3" stroke-miterlimit="10"/>
<path d="M886.373 374.375L906.888 412.144" stroke="#171717" stroke-width="3" stroke-miterlimit="10"/>
<path d="M614.17 140.953C611.792 148.978 608.426 156.677 604.15 163.872C610.561 164.654 616.599 167.306 621.511 171.498C622.457 172.308 623.79 173.218 624.816 172.511C625.19 172.201 625.475 171.796 625.641 171.34L635.585 150.04" stroke="#171717" stroke-width="3" stroke-linecap="round" stroke-linejoin="round"/>
<path d="M634.088 149.817C645.179 143.517 657.047 136.357 661.722 124.49C663.133 120.909 663.796 117.077 663.669 113.229C663.542 109.382 662.628 105.602 660.983 102.121C659.338 98.6409 656.998 95.5346 654.106 92.994C651.214 90.4533 647.832 88.5323 644.169 87.3494C640.505 86.1666 636.639 85.7469 632.807 86.1164C628.975 86.4859 625.26 87.6367 621.891 89.4978C618.521 91.3589 615.568 93.8908 613.215 96.9372C610.862 99.9836 609.158 103.48 608.209 107.21C605.264 118.773 609.854 130.834 615.046 141.578" stroke="#171717" stroke-width="3" stroke-linecap="round" stroke-linejoin="round"/>
<path d="M614.559 140.5C621.023 142.568 627.189 145.472 632.901 149.138" stroke="#171717" stroke-width="3" stroke-linecap="round" stroke-linejoin="round"/>
<path d="M613.332 151.082L626.76 156.051" stroke="#171717" stroke-width="3" stroke-linecap="round" stroke-linejoin="round"/>
<path d="M629.979 144.319L646.969 121.371C644.581 122.497 641.98 123.653 639.391 123.13C636.802 122.607 634.627 119.54 636.005 117.287C635.259 118.222 634.22 118.879 633.055 119.152C631.89 119.425 630.667 119.297 629.583 118.789C628.5 118.281 627.62 117.423 627.084 116.353C626.548 115.283 626.388 114.064 626.63 112.893L622.73 132.393" stroke="#171717" stroke-width="3" stroke-linecap="round" stroke-linejoin="round"/>
<path d="M599.972 91.7184L594.059 85.6562" stroke="#171717" stroke-width="3" stroke-linecap="round" stroke-linejoin="round"/>
<path d="M624.451 69.5848L618.441 45.2148" stroke="#171717" stroke-width="3" stroke-linecap="round" stroke-linejoin="round"/>
<path d="M661.234 82.9338L666.545 75.7168" stroke="#171717" stroke-width="3" stroke-linecap="round" stroke-linejoin="round"/>
<path d="M674.467 107.815L693.827 101.715" stroke="#171717" stroke-width="3" stroke-linecap="round" stroke-linejoin="round"/>
<path d="M665.592 135.359L671.86 140.285" stroke="#171717" stroke-width="3" stroke-linecap="round" stroke-linejoin="round"/>
<path d="M151.986 328.787C158.377 373.523 100.462 405.495 100.462 405.495C100.462 405.495 77.4618 336.721 142.611 328.787" stroke="#171717" stroke-width="3" stroke-linecap="round" stroke-linejoin="round"/>
<path d="M132.589 370.179C135.017 367.751 132.124 360.921 126.127 354.925C120.131 348.928 113.302 346.035 110.874 348.463C108.446 350.891 111.339 357.721 117.335 363.717C123.332 369.714 130.161 372.606 132.589 370.179Z" fill="#171717"/>
<path d="M120.793 325.805L118.279 318.354" stroke="#171717" stroke-width="3" stroke-linecap="round" stroke-linejoin="round"/>
<path d="M98.8803 337.218C95.0535 334.455 91.6026 331.206 88.6143 327.553" stroke="#171717" stroke-width="3" stroke-linecap="round" stroke-linejoin="round"/>
<path d="M84.9925 359.793C83.7498 360.392 82.397 360.729 81.0183 360.783C79.6396 360.836 78.2648 360.605 76.9795 360.103" stroke="#171717" stroke-width="3" stroke-linecap="round" stroke-linejoin="round"/>
<path d="M203.961 493.799L192.917 477.955" stroke="#171717" stroke-width="3" stroke-linecap="round" stroke-linejoin="round"/>
<path d="M189.927 491.53L204.5 480.387L204.174 479.01" stroke="#171717" stroke-width="3" stroke-linecap="round" stroke-linejoin="round"/>
<path d="M304.324 470.377C307.942 471.927 311.978 472.204 315.773 471.162C319.569 470.12 322.898 467.821 325.216 464.641" stroke="#171717" stroke-width="3" stroke-linecap="round" stroke-linejoin="round"/>
<path d="M390.787 440.358C387.651 440.403 384.603 439.314 382.205 437.291C379.808 435.268 378.221 432.447 377.738 429.348" stroke="#171717" stroke-width="3" stroke-linecap="round" stroke-linejoin="round"/>
<path d="M434.99 258.538C431.946 259.518 428.652 259.384 425.698 258.158C422.744 256.933 420.322 254.697 418.865 251.85" stroke="#171717" stroke-width="3" stroke-linecap="round" stroke-linejoin="round"/>
<path d="M537.245 159.47L526.145 142.104L527.487 140.76" stroke="#171717" stroke-width="3" stroke-linecap="round" stroke-linejoin="round"/>
<path d="M744.246 220.945L762.1 205.33" stroke="#171717" stroke-width="3" stroke-linecap="round" stroke-linejoin="round"/>
<path d="M759.033 221.216L746.17 204.199" stroke="#171717" stroke-width="3" stroke-linecap="round" stroke-linejoin="round"/>
<path d="M776.686 329.54C779.733 324.676 781.539 319.137 781.945 313.411C782.352 307.685 781.346 301.947 779.017 296.701" stroke="#171717" stroke-width="3" stroke-linecap="round" stroke-linejoin="round"/>
<path d="M725.599 506.257L719.236 483.24" stroke="#171717" stroke-width="3" stroke-linecap="round" stroke-linejoin="round"/>
<path d="M711.074 501.152C717.693 496.559 724.985 493.02 732.688 490.662" stroke="#171717" stroke-width="3" stroke-linecap="round" stroke-linejoin="round"/>
<g opacity="0.1">
<path d="M442.21 513.522C426.398 516.695 413.85 531.373 410.98 547.007L420.931 539.431C413.277 539.979 405.602 541.986 398.091 543.523C390.811 545.013 383.548 546.574 376.318 548.293C361.887 551.725 347.552 555.584 333.43 560.129C306.647 568.748 280.408 579.793 256.424 594.595C211.736 622.174 174.2 663.267 160.412 714.884C153.424 741.044 152.742 769.284 160.271 795.408C167.145 819.263 180.786 840.825 198.271 858.329C238.011 898.119 294.023 914.205 348.916 917.112C409.049 920.295 483.442 910.52 517.185 853.845C522.348 845.174 509.616 834.609 502.829 842.768C487.86 860.492 468.678 874.172 447.044 882.55C421.435 892.301 394.073 894.95 366.859 894.85C317.934 894.671 265.63 885.157 226.652 853.55C209.431 839.586 194.732 822.05 186.114 801.462C177.232 780.247 175.26 756.295 179.106 733.713C187.189 686.25 217.556 647.27 256.579 620.404C279.827 604.404 305.494 592.419 332.155 583.313C347.066 578.219 362.247 573.946 377.545 570.185C385.057 568.339 392.59 566.58 400.145 564.908C407.897 563.18 416.145 562.169 423.679 559.699C427.946 558.299 431.35 554.423 431.255 549.748C431.055 540.012 437.23 531.769 446.202 527.984C454.919 524.307 451.935 511.569 442.214 513.52L442.21 513.522Z" fill="#171717"/>
</g>
<g opacity="0.1">
<path d="M592.789 755.255C601.897 752.683 609.277 745.828 617.397 741.117C621.417 738.786 625.683 736.783 629.55 734.205C633.068 731.86 637.879 728.652 638.857 724.344C639.122 723.297 639.046 722.193 638.639 721.193C638.232 720.193 637.515 719.349 636.595 718.786C632.57 716.47 627.451 717.945 623.214 719.178C618.168 720.647 613.335 723.861 608.958 726.678C600.743 731.965 590.696 737.891 586.436 746.991C584.446 751.243 587.743 756.68 592.789 755.255Z" fill="#171717"/>
</g>
<g opacity="0.1">
<path d="M519.569 313.583C512.375 314.457 505.542 318.305 498.581 320.341C491.265 322.481 483.751 324.041 476.331 325.78C461.586 329.239 444.766 332.501 433.184 342.966C421.161 353.83 420.41 370.999 423.159 385.871C424.624 393.793 427.491 401.346 429.589 409.104C430.733 412.899 431.488 416.799 431.843 420.746C432.103 425.024 431.295 428.989 430.871 433.225C429.893 442.987 445.871 447.509 449.826 438.359C456.74 422.345 450.126 404.981 445.416 389.299C442.368 379.143 438.837 364.399 448.295 356.449C453.274 352.262 460.195 350.109 466.276 348.149C473.066 345.957 479.983 344.191 486.854 342.277C493.847 340.315 500.681 337.824 507.297 334.828C513.497 332.036 521.019 328.191 524.386 321.981C526.192 318.65 524.015 313.047 519.569 313.587V313.583Z" fill="#171717"/>
</g>
</g>
<mask id="mask1_297_2627" style="mask-type:luminance" maskUnits="userSpaceOnUse" x="998" y="95" width="884" height="770">
<path d="M1882 95H998V865H1882V95Z" fill="white"/>
</mask>
<g mask="url(#mask1_297_2627)">
<path fill-rule="evenodd" clip-rule="evenodd" d="M1635.59 207.507L1597.14 196.183L1571.26 188.559C1571.26 188.559 1567.16 276.839 1562.37 309.685C1560.94 319.457 1556.79 331.479 1550.96 344.072C1546.21 354.234 1540.84 364.096 1534.88 373.602C1522.48 393.457 1507.9 411.537 1495.3 421.232C1468.61 441.756 1430.98 444.179 1430.98 444.179L1429.65 438.091L1426.7 424.654L1385.63 422.774L1342.98 420.815L1322.16 419.865L1315.32 446.545C1250.99 434.911 1193.91 469.89 1193.91 469.89L1282.47 792.82L1426.7 734.22V734.21L1456.3 555.362C1456.3 555.362 1455.61 521.15 1494.62 502.671C1495.41 502.297 1496.23 501.909 1497.09 501.506C1512 494.472 1536.78 482.788 1562.55 460.82C1570.1 454.395 1577.24 447.502 1583.93 440.18C1622.47 398.017 1657.72 329.156 1659.54 214.565L1635.59 207.507ZM1650.31 269.446C1650.42 268.625 1649.84 267.873 1649.02 267.766C1648.2 267.66 1647.45 268.24 1647.34 269.062C1639.48 329.862 1614.53 387.185 1575.39 434.376C1574.86 435.014 1574.95 435.96 1575.59 436.489C1576.23 437.017 1577.17 436.929 1577.7 436.291C1617.2 388.664 1642.38 330.81 1650.31 269.446Z" fill="url(#paint3_linear_297_2627)"/>
<path fill-rule="evenodd" clip-rule="evenodd" d="M1636.84 141.553L1658.16 137.83L1672.08 135.406L1694.44 119.894L1663.41 112.594L1660.99 113.04L1645.29 115.9C1648.4 118.915 1649.88 121.881 1649.28 124.227C1647.22 132.217 1613.36 121.727 1613.36 121.727L1574.37 128.833L1499.17 142.542C1499.17 142.542 1485.95 146.817 1489.14 156.851C1492.33 166.885 1501.92 165.062 1501.92 165.062L1575.54 152.236L1636.84 141.553ZM1666.56 115.508C1666.16 114.784 1665.24 114.525 1664.52 114.928C1663.8 115.331 1663.54 116.245 1663.94 116.968C1666.84 122.174 1668.32 128.054 1668.22 134.013C1668.2 134.841 1668.86 135.524 1669.69 135.538C1670.52 135.552 1671.2 134.892 1671.22 134.064C1671.32 127.576 1669.72 121.176 1666.56 115.508Z" fill="#171717"/>
<path fill-rule="evenodd" clip-rule="evenodd" d="M1492.5 303.8C1488.78 298.9 1484.23 294.691 1479.06 291.365C1482.82 288.194 1485.75 284.156 1487.61 279.597C1492.73 267.304 1490.76 251.618 1483.31 240.091C1473.12 224.337 1455.44 215.078 1437.72 208.903C1420.21 202.805 1401.18 199.043 1383.14 203.328C1365.1 207.613 1348.44 221.539 1345.47 239.839C1330.65 224.124 1306.81 218.162 1285.9 223.552C1265 228.942 1247.46 244.919 1238.64 264.628C1237.75 266.615 1236.96 268.632 1236.24 270.677C1233.48 278.603 1231.91 286.892 1231.57 295.277C1231.12 306.334 1232.6 317.385 1235.96 327.929C1236.07 328.256 1236.17 328.586 1236.28 328.918C1239.19 338.087 1242.65 348.966 1236.19 355.908C1231.34 361.133 1223.73 360.963 1216.27 360.796C1214.1 360.747 1211.94 360.699 1209.86 360.784C1192.37 361.521 1176.25 375.181 1172.63 392.311L1193.91 469.898C1193.91 469.898 1250.99 434.919 1315.31 446.553L1322.16 419.873L1342.97 420.823C1354.21 354.712 1334.82 308.323 1334.82 308.323L1334.88 307.179C1343.51 307.518 1357.89 305.783 1374.29 294.469C1396.2 279.355 1397.96 263.107 1397.89 257.775C1400.91 259.746 1404.44 260.82 1408.05 260.875C1411.25 260.916 1414.44 260.394 1417.47 259.334C1419.7 267.24 1440.76 347.73 1385.63 388.04V422.777L1426.7 424.657L1429.64 438.091L1431.6 437.665C1449.93 427.96 1467.56 416.317 1481.33 400.786C1495.09 385.255 1504.79 365.478 1505.39 344.731C1505.85 330.022 1501.31 315.59 1492.5 303.8ZM1426.95 212.006C1426.14 211.83 1425.34 212.342 1425.16 213.152C1424.99 213.961 1425.5 214.76 1426.31 214.937C1438.1 217.511 1449.61 221.709 1459.17 228.81C1468.72 235.911 1476.16 246.137 1478.3 257.671C1480.43 269.211 1476.65 281.967 1467.67 289.24C1467.32 289.524 1467.12 289.95 1467.12 290.4C1467.11 290.851 1467.32 291.278 1467.66 291.564C1476.76 299.047 1483.89 308.64 1488.44 319.508C1492.98 330.376 1494.8 342.19 1493.74 353.922C1492.68 365.653 1488.77 376.948 1482.34 386.823C1475.92 396.698 1467.18 404.854 1456.89 410.581C1456.16 410.984 1455.9 411.897 1456.31 412.621C1456.71 413.345 1457.62 413.605 1458.35 413.202C1469.07 407.237 1478.17 398.743 1484.86 388.459C1491.55 378.174 1495.62 366.411 1496.73 354.192C1497.83 341.973 1495.94 329.669 1491.21 318.351C1486.7 307.579 1479.76 298.01 1470.93 290.392C1479.89 282.186 1483.44 268.975 1481.25 257.126C1478.95 244.686 1470.97 233.848 1460.96 226.403C1450.94 218.958 1438.98 214.632 1426.95 212.006Z" fill="#171717"/>
<path d="M1846.36 273.759L1825.15 276.154L1832.33 299.761L1812.49 284.026L1791.62 297.027L1802.91 274.099L1778.95 256.997L1810.09 259.043L1821.38 237.143L1824.46 261.098L1846.36 273.759Z" fill="url(#paint4_linear_297_2627)"/>
<path d="M1776.22 613.87L1750.21 612.842L1745.76 629.953L1739.26 610.108L1718.39 614.219L1732.42 601.208L1719.76 589.235L1743.36 594.025L1757.05 579.996L1754.32 601.208L1776.22 613.87Z" fill="#171717"/>
<path d="M1760.14 330.901L1736.18 341.507L1753.29 366.829L1724.9 353.829L1699.91 375.38L1710.18 345.617L1683.15 324.056L1711.21 319.578L1716.34 292.52L1731.05 319.578L1760.14 330.901Z" fill="#171717"/>
<path d="M1757.05 500.956L1737.21 501.305L1730.71 524.572L1721.64 501.644L1696.49 504.378L1711.89 489.671L1703 468.798L1726.6 478.377L1749.87 465.715L1742.69 487.616L1757.05 500.956Z" fill="url(#paint5_linear_297_2627)"/>
<path d="M1100.09 761.005L1132.23 636.719L1161.36 743.08L1100.09 761.005Z" fill="#171717"/>
<path d="M1058.01 263.154L1220.2 862.626L1184.27 826.697L1161.36 743.081L1132.23 636.72V636.71L1039.53 298.336L1058.01 263.154Z" fill="#171717"/>
<path d="M1550.75 343.979L1529.17 281.632L1488.67 280.043" stroke="#171717" stroke-width="3" stroke-linecap="round" stroke-linejoin="round"/>
<path d="M1234.57 270.076L1058.01 263.154L1220.2 862.626L1659.53 658.359L1584.09 440.335" stroke="#171717" stroke-width="3" stroke-linecap="round" stroke-linejoin="round"/>
<path d="M1132.23 636.71L1039.53 298.336L1058.01 263.154" stroke="#171717" stroke-width="3" stroke-linecap="round" stroke-linejoin="round"/>
<path d="M1220.2 862.625L1184.27 826.696L1161.36 743.08L1132.23 636.719" stroke="#171717" stroke-width="3" stroke-linecap="round" stroke-linejoin="round"/>
<path d="M1161.36 743.08L1100.09 761.005L1132.23 636.719V636.709" stroke="#171717" stroke-width="3" stroke-linecap="round" stroke-linejoin="round"/>
<path d="M1533.65 372.839L1511.04 304.21L1492.73 303.629" stroke="#171717" stroke-width="3" stroke-linecap="round" stroke-linejoin="round"/>
<path d="M1426.7 734.21L1626.01 653.22L1562.68 460.965" stroke="#171717" stroke-width="3" stroke-linecap="round" stroke-linejoin="round"/>
<path d="M1230.91 295.254L1145.26 292.52L1172.63 392.307L1193.91 469.894L1282.47 792.824L1426.7 734.22" stroke="#171717" stroke-width="3" stroke-linecap="round" stroke-linejoin="round"/>
<path d="M1193.91 469.893C1193.91 469.893 1250.99 434.915 1315.32 446.549L1322.16 419.869L1342.97 420.818L1385.63 422.778L1426.7 424.658L1429.64 438.094L1430.97 444.183C1430.97 444.183 1468.61 441.759 1495.3 421.235C1507.9 411.54 1522.48 393.461 1534.88 373.606C1540.84 364.1 1546.21 354.238 1550.95 344.076C1556.79 331.483 1560.94 319.46 1562.37 309.688C1567.15 276.842 1571.26 188.562 1571.26 188.562L1597.14 196.183L1635.59 207.507L1659.54 214.564C1657.72 329.156 1622.47 398.016 1583.93 440.179C1577.24 447.502 1570.1 454.395 1562.55 460.82C1535.3 484.048 1509.16 495.778 1494.62 502.67C1455.61 521.149 1456.3 555.362 1456.3 555.362L1426.7 734.209V734.219" stroke="#171717" stroke-width="3" stroke-linecap="round" stroke-linejoin="round"/>
<path d="M1385.63 383.252V388.041V422.778" stroke="#171717" stroke-width="3" stroke-linecap="round" stroke-linejoin="round"/>
<path d="M1417.28 258.701C1417.28 258.701 1417.35 258.914 1417.47 259.331C1419.7 267.231 1440.75 347.731 1385.63 388.037" stroke="#171717" stroke-width="3" stroke-linecap="round" stroke-linejoin="round"/>
<path d="M1334.82 308.322C1334.82 308.322 1354.21 354.711 1342.97 420.822" stroke="#171717" stroke-width="3" stroke-linecap="round" stroke-linejoin="round"/>
<path d="M1326.27 305.926C1329.08 306.701 1331.97 307.121 1334.88 307.177C1343.52 307.516 1357.89 305.777 1374.29 294.467C1396.2 279.353 1397.96 263.105 1397.89 257.773C1397.89 257.171 1397.85 256.57 1397.78 255.973" stroke="#171717" stroke-width="3" stroke-linecap="round" stroke-linejoin="round"/>
<path d="M1392.65 253.342C1394.17 255.067 1395.93 256.56 1397.88 257.773C1400.91 259.743 1404.43 260.818 1408.04 260.873C1411.25 260.913 1414.44 260.391 1417.47 259.332C1419 258.823 1420.44 258.07 1421.73 257.102" stroke="#171717" stroke-width="3" stroke-linecap="round" stroke-linejoin="round"/>
<path d="M1172.56 392.607C1172.58 392.507 1172.6 392.407 1172.63 392.307C1176.25 375.177 1192.38 361.517 1209.87 360.78C1219.08 360.402 1229.92 362.651 1236.2 355.904C1242.89 348.71 1238.93 337.29 1235.96 327.925C1232.61 317.381 1231.12 306.33 1231.57 295.273C1231.91 286.888 1233.48 278.599 1236.24 270.673C1236.96 268.628 1237.76 266.611 1238.64 264.624C1247.47 244.915 1265 228.938 1285.91 223.548C1306.81 218.158 1330.66 224.12 1345.47 239.835C1348.44 221.535 1365.1 207.609 1383.14 203.324C1401.19 199.039 1420.22 202.801 1437.73 208.899C1455.44 215.074 1473.12 224.333 1483.31 240.087C1490.76 251.614 1492.73 267.3 1487.61 279.593C1485.76 284.152 1482.82 288.191 1479.06 291.362C1484.23 294.689 1488.78 298.899 1492.5 303.8C1501.31 315.59 1505.85 330.022 1505.39 344.731C1504.79 365.478 1495.09 385.255 1481.33 400.786C1467.56 416.317 1449.93 427.96 1431.6 437.665" stroke="#171717" stroke-width="3" stroke-linecap="round" stroke-linejoin="round"/>
<path d="M1390.36 326C1391.63 325.472 1393.01 325.279 1394.38 325.439C1395.74 325.599 1397.04 326.107 1398.15 326.914C1399.27 327.721 1400.15 328.8 1400.73 330.048C1401.3 331.296 1401.55 332.67 1401.44 334.04C1401.33 335.41 1400.88 336.729 1400.11 337.871C1399.35 339.013 1398.3 339.94 1397.08 340.562C1395.85 341.185 1394.49 341.482 1393.12 341.426C1391.74 341.37 1390.41 340.962 1389.24 340.242" stroke="#171717" stroke-width="3" stroke-linecap="round" stroke-linejoin="round"/>
<path d="M1368.7 363.639C1364.68 363.613 1360.79 362.165 1357.73 359.552C1354.67 356.939 1352.63 353.329 1351.98 349.359" stroke="#171717" stroke-width="3" stroke-linecap="round" stroke-linejoin="round"/>
<path d="M1367.78 308.32C1367.64 305.576 1367.49 302.839 1367.33 300.109" stroke="#171717" stroke-width="3" stroke-linecap="round" stroke-linejoin="round"/>
<path d="M1402.33 309.232C1402.11 305.287 1401.91 301.332 1401.7 297.385" stroke="#171717" stroke-width="3" stroke-linecap="round" stroke-linejoin="round"/>
<path d="M1410.99 288.8C1409.13 286.415 1406.41 284.851 1403.41 284.44C1400.41 284.029 1397.37 284.804 1394.94 286.601" stroke="#171717" stroke-width="3" stroke-linecap="round" stroke-linejoin="round"/>
<path d="M1645.29 115.9L1660.99 113.04L1663.42 112.594L1694.44 119.894L1672.08 135.406L1658.16 137.83L1636.84 141.553L1575.54 152.236L1501.92 165.062C1501.92 165.062 1492.33 166.885 1489.14 156.851C1485.95 146.817 1499.17 142.542 1499.17 142.542L1574.37 128.833L1613.36 121.727L1613.65 121.669" stroke="#171717" stroke-width="3" stroke-linecap="round" stroke-linejoin="round"/>
<path d="M1192.04 554.091L1167.53 561.256C1165.71 561.786 1163.75 561.573 1162.09 560.662C1160.43 559.751 1159.19 558.217 1158.66 556.398L1151.04 530.32C1150.51 528.5 1150.72 526.545 1151.63 524.883C1152.54 523.222 1154.08 521.99 1155.9 521.459L1180.4 514.294C1182.22 513.763 1184.18 513.977 1185.84 514.888C1187.5 515.798 1188.73 517.332 1189.26 519.151L1196.88 545.221C1197.15 546.121 1197.23 547.065 1197.13 547.998C1197.03 548.932 1196.75 549.836 1196.3 550.66C1195.85 551.483 1195.24 552.21 1194.51 552.799C1193.78 553.388 1192.94 553.827 1192.04 554.091Z" stroke="#171717" stroke-width="3" stroke-linecap="round" stroke-linejoin="round"/>
<path d="M1175.57 497.028L1150.65 504.309C1148.89 504.823 1146.99 504.617 1145.38 503.736C1143.77 502.855 1142.58 501.371 1142.06 499.609L1113.18 396.64C1112.66 394.875 1112.87 392.978 1113.76 391.365C1114.64 389.752 1116.13 388.556 1117.89 388.04L1143.04 385.733C1143.91 385.477 1144.83 385.395 1145.73 385.493C1146.64 385.591 1147.51 385.865 1148.31 386.302C1149.11 386.738 1149.82 387.328 1150.39 388.037C1150.96 388.746 1151.38 389.56 1151.64 390.433L1180.29 488.427C1180.54 489.302 1180.62 490.218 1180.52 491.123C1180.43 492.028 1180.15 492.905 1179.71 493.704C1179.28 494.503 1178.68 495.208 1177.97 495.778C1177.26 496.348 1176.45 496.773 1175.57 497.028Z" stroke="#171717" stroke-width="3" stroke-linecap="round" stroke-linejoin="round"/>
<path d="M1229.59 682.594L1205.09 689.758C1203.27 690.29 1201.32 690.077 1199.65 689.167C1197.99 688.256 1196.76 686.722 1196.22 684.901L1167.7 587.333C1167.17 585.513 1167.38 583.556 1168.29 581.893C1169.2 580.23 1170.74 578.996 1172.56 578.463L1197.06 571.299C1198.88 570.767 1200.83 570.98 1202.5 571.891C1204.16 572.801 1205.4 574.335 1205.93 576.156L1234.45 673.724C1234.98 675.544 1234.77 677.5 1233.86 679.163C1232.95 680.826 1231.41 682.06 1229.59 682.594Z" stroke="#171717" stroke-width="3" stroke-linecap="round" stroke-linejoin="round"/>
<path d="M1597.14 196.182C1597.14 196.182 1575.72 169.289 1575.54 152.236" stroke="#171717" stroke-width="3" stroke-linecap="round" stroke-linejoin="round"/>
<path d="M1574.38 128.834C1574.38 128.834 1571.94 100.739 1600.69 100.962C1602.93 100.982 1605.13 101.088 1607.27 101.282C1624.58 102.782 1638.66 109.464 1645.29 115.902C1648.41 118.917 1649.88 121.883 1649.28 124.229C1647.22 132.218 1613.36 121.729 1613.36 121.729" stroke="#171717" stroke-width="3" stroke-linecap="round" stroke-linejoin="round"/>
<path d="M1607.3 100.961C1607.3 100.961 1655.66 86.5943 1660.91 112.595" stroke="#171717" stroke-width="3" stroke-linecap="round" stroke-linejoin="round"/>
<path d="M1610.03 160.051C1610.03 160.051 1620.63 144.375 1636.84 141.551" stroke="#171717" stroke-width="3" stroke-linecap="round" stroke-linejoin="round"/>
<path d="M1658.16 137.84C1658.16 137.84 1653.88 154.001 1643.88 163.162C1642.24 164.696 1640.39 166.001 1638.4 167.04C1637.49 167.516 1636.55 167.924 1635.59 168.262" stroke="#171717" stroke-width="3" stroke-linecap="round" stroke-linejoin="round"/>
<path d="M1635.59 207.507L1638.4 167.041" stroke="#171717" stroke-width="3" stroke-linecap="round" stroke-linejoin="round"/>
<path d="M1694.43 119.896L1719.08 136.212L1749.18 110.201L1739.94 155.708L1781.35 175.902H1731.39L1727.97 222.776L1708.81 172.819" stroke="#171717" stroke-width="3" stroke-linecap="round" stroke-linejoin="round"/>
<path d="M1810.09 259.043L1821.38 237.143L1824.46 261.098L1846.36 273.759L1825.15 276.154L1832.33 299.761L1812.49 284.026L1791.62 297.027L1802.91 274.099L1778.95 256.997L1810.09 259.043Z" stroke="#171717" stroke-width="3" stroke-linecap="round" stroke-linejoin="round"/>
<path d="M1753.29 366.829L1736.18 341.507L1760.14 330.901L1731.05 319.578L1716.34 292.52L1711.21 319.578L1683.15 324.056L1710.18 345.617L1699.91 375.38L1724.9 353.829L1753.29 366.829Z" stroke="#171717" stroke-width="3" stroke-linecap="round" stroke-linejoin="round"/>
<path d="M1801.19 402.069L1781.35 394.197L1789.56 409.252L1776.22 418.152L1797.09 421.574L1804.28 439.364L1809.4 420.547L1830.62 420.886L1812.65 408.574L1816.25 387.701L1801.19 402.069Z" stroke="#171717" stroke-width="3" stroke-linecap="round" stroke-linejoin="round"/>
<path d="M1757.05 500.956L1742.69 487.616L1749.87 465.715L1726.6 478.377L1703 468.798L1711.89 489.671L1696.49 504.378L1721.64 501.644L1730.71 524.572L1737.21 501.305L1757.05 500.956Z" stroke="#171717" stroke-width="3" stroke-linecap="round" stroke-linejoin="round"/>
<path d="M1754.32 601.208L1757.05 579.996L1743.36 594.025L1719.76 589.235L1732.42 601.208L1718.39 614.219L1739.26 610.108L1745.76 629.953L1750.21 612.842L1776.22 613.87L1754.32 601.208Z" stroke="#171717" stroke-width="3" stroke-linecap="round" stroke-linejoin="round"/>
<path d="M1322.59 448.036C1356.29 445.605 1390.06 444.728 1423.89 445.405" stroke="#171717" stroke-width="3" stroke-linecap="round" stroke-linejoin="round"/>
<path d="M1415.3 439.7L1414.39 431.488" stroke="#171717" stroke-width="3" stroke-linecap="round" stroke-linejoin="round"/>
<path d="M1399.72 439.709L1400.18 431.953" stroke="#171717" stroke-width="3" stroke-linecap="round" stroke-linejoin="round"/>
<path d="M1385.58 440.165V431.041" stroke="#171717" stroke-width="3" stroke-linecap="round" stroke-linejoin="round"/>
<path d="M1367.59 439.25L1367.49 432.408" stroke="#171717" stroke-width="3" stroke-linecap="round" stroke-linejoin="round"/>
<path d="M1349.08 440.621C1350.06 437.528 1350.37 434.263 1349.99 431.041" stroke="#171717" stroke-width="3" stroke-linecap="round" stroke-linejoin="round"/>
<path d="M1331.28 440.62L1333.1 431.039" stroke="#171717" stroke-width="3" stroke-linecap="round" stroke-linejoin="round"/>
<path d="M1568.52 234.4L1656.01 258.069" stroke="#171717" stroke-width="3" stroke-linecap="round" stroke-linejoin="round"/>
<path d="M1646.68 248.791L1648.66 220.045" stroke="#171717" stroke-width="3" stroke-linecap="round" stroke-linejoin="round"/>
<path d="M1624.16 244.019L1628.25 215.275" stroke="#171717" stroke-width="3" stroke-linecap="round" stroke-linejoin="round"/>
<path d="M1601.3 237.82L1606.13 209.768" stroke="#171717" stroke-width="3" stroke-linecap="round" stroke-linejoin="round"/>
<path d="M1580.95 230.32L1584.98 202.252" stroke="#171717" stroke-width="3" stroke-linecap="round" stroke-linejoin="round"/>
<path d="M1633.53 304.9L1628.06 287.791" stroke="#171717" stroke-width="3" stroke-linecap="round" stroke-linejoin="round"/>
<path d="M1583.53 328.074L1591.75 323.309" stroke="#171717" stroke-width="3" stroke-linecap="round" stroke-linejoin="round"/>
<path d="M1589.38 333.639C1589.39 328.609 1588.07 323.666 1585.55 319.312" stroke="#171717" stroke-width="3" stroke-linecap="round" stroke-linejoin="round"/>
<path d="M1596.56 386.924L1583.51 390.184" stroke="#171717" stroke-width="3" stroke-linecap="round" stroke-linejoin="round"/>
<path d="M1540.16 421.223L1539.89 409.596" stroke="#171717" stroke-width="3" stroke-linecap="round" stroke-linejoin="round"/>
<path d="M1532.29 415.962L1548.46 413.047L1546.71 413.887" stroke="#171717" stroke-width="3" stroke-linecap="round" stroke-linejoin="round"/>
<path d="M1519.27 473.165L1506.29 469.018" stroke="#171717" stroke-width="3" stroke-linecap="round" stroke-linejoin="round"/>
<path d="M1452.4 495.186L1455.64 480.086" stroke="#171717" stroke-width="3" stroke-linecap="round" stroke-linejoin="round"/>
<path d="M1459.06 490.901L1447.43 488.139" stroke="#171717" stroke-width="3" stroke-linecap="round" stroke-linejoin="round"/>
<path d="M1393.33 489.666C1396.83 485.757 1401 482.511 1405.65 480.086" stroke="#171717" stroke-width="3" stroke-linecap="round" stroke-linejoin="round"/>
<path d="M1431.66 556.73C1427.01 558.162 1422.12 558.628 1417.29 558.099" stroke="#171717" stroke-width="3" stroke-linecap="round" stroke-linejoin="round"/>
<path d="M1371.3 568.3L1378.82 552.557" stroke="#171717" stroke-width="3" stroke-linecap="round" stroke-linejoin="round"/>
<path d="M1383.06 564.263L1368.1 555.881" stroke="#171717" stroke-width="3" stroke-linecap="round" stroke-linejoin="round"/>
<path d="M1346.07 513.69L1335.13 506.828" stroke="#171717" stroke-width="3" stroke-linecap="round" stroke-linejoin="round"/>
<path d="M1259.83 491.673L1268.03 480.717" stroke="#171717" stroke-width="3" stroke-linecap="round" stroke-linejoin="round"/>
<path d="M1269.48 491.009C1264.72 488.761 1260.49 485.532 1257.06 481.533" stroke="#171717" stroke-width="3" stroke-linecap="round" stroke-linejoin="round"/>
<path d="M1408.51 683.434L1418.06 672.461" stroke="#171717" stroke-width="3" stroke-linecap="round" stroke-linejoin="round"/>
<path d="M1392.76 618.269C1391.66 617.321 1390.3 616.728 1388.86 616.565C1387.41 616.402 1385.96 616.678 1384.67 617.357C1383.39 618.036 1382.34 619.086 1381.66 620.37C1380.99 621.653 1380.71 623.112 1380.88 624.554C1381.2 627.401 1383.17 630.371 1381.81 632.891C1380.15 635.947 1375.59 635.058 1372.37 633.743" stroke="#171717" stroke-width="3" stroke-linecap="round" stroke-linejoin="round"/>
<path d="M1282.21 529.549C1283.32 527.865 1284.79 526.444 1286.51 525.388C1288.3 524.467 1290.75 524.488 1292.09 525.994C1294.18 528.342 1292.31 531.94 1291.97 535.068C1291.79 536.294 1291.96 537.546 1292.46 538.679C1292.96 539.812 1293.77 540.779 1294.8 541.468C1296.95 542.692 1300.2 541.775 1300.91 539.408" stroke="#171717" stroke-width="3" stroke-linecap="round" stroke-linejoin="round"/>
<path d="M1477.8 459.531C1476.53 455.477 1480.17 451.387 1484.13 449.871C1488.1 448.355 1492.52 448.399 1496.52 446.971C1500.52 445.543 1504.31 441.679 1503.32 437.549" stroke="#171717" stroke-width="3" stroke-linecap="round" stroke-linejoin="round"/>
<path d="M1310.26 733.118C1314.16 727.19 1311.51 718.044 1305.04 715.118C1303.06 714.224 1300.88 713.866 1298.87 713.032C1296.86 712.198 1294.93 710.694 1294.48 708.569C1294.03 706.444 1295.83 703.895 1297.96 704.294" stroke="#171717" stroke-width="3" stroke-linecap="round" stroke-linejoin="round"/>
<path d="M1264.68 635.429L1273.58 625.848" stroke="#171717" stroke-width="3" stroke-linecap="round" stroke-linejoin="round"/>
<path d="M1273.45 636.921C1268.41 631.914 1264.4 625.963 1261.66 619.408" stroke="#171717" stroke-width="3" stroke-linecap="round" stroke-linejoin="round"/>
<path d="M1314.63 626.532L1316 610.793" stroke="#171717" stroke-width="3" stroke-linecap="round" stroke-linejoin="round"/>
<path d="M1252.33 572.264C1250.14 572.577 1247.9 572.358 1245.81 571.626C1243.72 570.893 1241.84 569.668 1240.32 568.055" stroke="#171717" stroke-width="3" stroke-linecap="round" stroke-linejoin="round"/>
<path d="M1361.85 712.757L1356.38 700.439" stroke="#171717" stroke-width="3" stroke-linecap="round" stroke-linejoin="round"/>
<path d="M1351.57 711.36L1365.51 704.326" stroke="#171717" stroke-width="3" stroke-linecap="round" stroke-linejoin="round"/>
<path d="M1320.79 764.082C1325.41 760.663 1329.16 756.211 1331.74 751.082" stroke="#171717" stroke-width="3" stroke-linecap="round" stroke-linejoin="round"/>
<path d="M1381.62 177.601L1383.8 159.139" stroke="#171717" stroke-width="3" stroke-linecap="round" stroke-linejoin="round"/>
<path d="M1352.76 184.553L1333.53 146.6" stroke="#171717" stroke-width="3" stroke-linecap="round" stroke-linejoin="round"/>
<path d="M1331.74 205.684L1318.05 199.529" stroke="#171717" stroke-width="3" stroke-linecap="round" stroke-linejoin="round"/>
<path d="M1440.55 135.866L1450.13 118.758" stroke="#171717" stroke-width="3" stroke-linecap="round" stroke-linejoin="round"/>
<path d="M1453.47 131.183L1438.63 119.949" stroke="#171717" stroke-width="3" stroke-linecap="round" stroke-linejoin="round"/>
<path d="M1007.67 592.154C1026.39 587.379 1047.76 596.444 1057.34 613.222C1066.92 630 1063.86 653.01 1050.23 666.703C1044.48 672.48 1036.39 676.763 1028.36 675.32C1020.34 673.877 1013.72 664.861 1016.93 657.371C1020.03 650.171 1030.67 648.524 1036.95 653.213C1043.24 657.902 1045.2 666.837 1043.42 674.473C1041.65 682.109 1036.79 688.654 1031.51 694.453C1027.77 698.561 1023.73 702.467 1020.82 707.196C1017.9 711.925 1016.2 717.729 1017.67 723.084C1019.15 728.439 1024.5 732.894 1029.99 732.04C1035.48 731.186 1039.19 723.84 1035.71 719.499" stroke="#171717" stroke-width="3" stroke-linecap="round" stroke-linejoin="round"/>
<path d="M1045.17 550.438L1032.7 535.512" stroke="#171717" stroke-width="3" stroke-linecap="round" stroke-linejoin="round"/>
<path d="M1031.4 551.336L1046.43 536.256" stroke="#171717" stroke-width="3" stroke-linecap="round" stroke-linejoin="round"/>
<path d="M1837.96 159.189L1833.17 142.764" stroke="#171717" stroke-width="3" stroke-linecap="round" stroke-linejoin="round"/>
<path d="M1827.05 154.706L1844.17 146.533" stroke="#171717" stroke-width="3" stroke-linecap="round" stroke-linejoin="round"/>
<path d="M1633.33 442.336C1632.89 435.945 1640.23 430.871 1646.49 432.277C1652.74 433.683 1657.07 439.901 1657.9 446.255C1658.73 452.609 1656.68 459.002 1653.91 464.779C1651.14 470.556 1647.63 475.979 1645.25 481.928C1639.13 497.163 1640.94 514.543 1645.9 530.192C1648.16 537.335 1651.21 544.517 1656.72 549.592C1662.23 554.667 1670.72 557.138 1677.43 553.81C1680.57 552.252 1683.21 549.299 1683.56 545.81C1683.9 542.321 1681.38 538.545 1677.89 538.242C1674.4 537.939 1671.14 542.105 1672.82 545.183" stroke="#171717" stroke-width="3" stroke-linecap="round" stroke-linejoin="round"/>
<path d="M1843.87 353.024C1848.23 350.924 1853.62 352.177 1857.55 354.997C1861.47 357.817 1864.21 361.972 1866.68 366.129C1872.68 376.248 1877.73 387.174 1879.34 398.829C1880.95 410.484 1878.81 423.006 1871.65 432.343C1862.59 444.143 1847.43 449.043 1834.69 456.702C1822.06 464.287 1811.24 475.225 1805.08 488.602C1801.69 495.949 1799.74 504.309 1801.68 512.163C1803.61 520.017 1810.16 527.07 1818.22 527.738C1826.28 528.406 1834.57 520.958 1833.23 512.982C1832.58 509.164 1829.39 505.537 1825.52 505.628C1821.65 505.719 1818.59 510.891 1821.13 513.814" stroke="#171717" stroke-width="3" stroke-linecap="round" stroke-linejoin="round"/>
<path d="M1847.73 393.86L1856.63 388.385" stroke="#171717" stroke-width="3" stroke-linecap="round" stroke-linejoin="round"/>
<path d="M1854.05 396.859L1847.71 384.289" stroke="#171717" stroke-width="3" stroke-linecap="round" stroke-linejoin="round"/>
<path d="M1700.54 272.776L1692.34 262.502" stroke="#171717" stroke-width="3" stroke-linecap="round" stroke-linejoin="round"/>
<path d="M1690.33 272.048L1700.6 261.783" stroke="#171717" stroke-width="3" stroke-linecap="round" stroke-linejoin="round"/>
<path d="M1009.53 641.469C1006.13 638.26 1003.36 634.433 1001.38 630.191" stroke="#171717" stroke-width="3" stroke-linecap="round" stroke-linejoin="round"/>
<path d="M999.843 642.271C1003.9 639.555 1007.39 636.067 1010.11 632.006" stroke="#171717" stroke-width="3" stroke-linecap="round" stroke-linejoin="round"/>
<g opacity="0.1">
<path d="M1419.8 259.268C1417.25 258.213 1414.76 259.313 1412.24 259.873C1411.02 260.246 1409.72 260.327 1408.46 260.109C1407.2 259.89 1406.01 259.379 1404.99 258.616C1401.15 256.136 1395.59 258.554 1394.5 262.884C1393.09 268.802 1390.46 274.362 1386.78 279.208C1383.1 284.055 1378.46 288.081 1373.14 291.032C1368.05 293.745 1362.4 295.225 1356.64 295.352C1347.75 295.604 1339.27 298.146 1336.87 307.921C1334.97 315.635 1337.82 324.334 1338.41 332.098C1339.1 340.998 1339.79 349.858 1339.79 358.798C1339.76 367.719 1339.26 376.633 1338.32 385.504C1337.39 394.56 1334.73 403.772 1334.44 412.821C1334.16 421.87 1348.55 426.709 1352.44 417.695C1356.18 409.032 1357.24 399.035 1358.49 389.724C1359.7 380.42 1360.33 371.048 1360.36 361.664C1360.48 352.74 1360.03 343.818 1359.03 334.95C1358.47 330.266 1357.65 325.613 1356.85 320.965C1356.79 320.573 1355.9 312.543 1355.6 312.415C1353.04 314.345 1352.39 315.015 1353.67 314.426C1354.42 314.378 1355.16 314.345 1355.9 314.326C1357.54 314.254 1359.16 314.147 1360.79 313.953C1364.38 313.582 1367.91 312.816 1371.33 311.669C1378.03 309.305 1384.25 305.769 1389.71 301.226C1395.22 296.804 1399.75 291.277 1402.99 285C1406.23 278.722 1408.12 271.835 1408.53 264.783L1399.49 271.671C1405.01 273.913 1412.41 273.903 1417.64 270.845C1421.42 268.632 1425.82 261.759 1419.81 259.268H1419.8Z" fill="#171717"/>
</g>
<g opacity="0.1">
<path d="M1319.97 425.792C1318.91 430.192 1318.93 432.983 1315.33 436.097C1312.24 438.771 1307.68 439.48 1303.76 440.064C1292.04 441.809 1280.23 442.581 1268.54 444.693C1256.9 446.777 1245.39 449.541 1234.07 452.971C1228.12 454.784 1222.23 456.771 1216.39 458.934C1210.2 461.228 1203.22 463.177 1198.22 467.552C1191.91 473.07 1196.73 485.542 1205.35 484.752C1212.34 484.115 1218.91 480.352 1225.49 477.932C1231.91 475.567 1238.41 473.412 1244.97 471.465C1258.38 467.45 1272.03 464.304 1285.85 462.047C1298.05 460.077 1311.82 460.527 1322.67 453.86C1332.19 448.014 1340.6 432.305 1331.25 422.809C1327.77 419.27 1321.16 420.83 1319.97 425.788V425.792Z" fill="#171717"/>
</g>
<g opacity="0.1">
<path d="M1429.03 456.529C1437.47 462.407 1450.8 458.277 1459.96 455.424C1469.93 452.325 1479.55 448.203 1488.66 443.124C1506.32 433.114 1522.13 420.152 1535.4 404.801C1565.62 370.123 1581.9 326.106 1588.16 280.94C1591.99 253.34 1592.61 225.52 1591.29 197.708C1590.64 184.134 1569.45 184.056 1570.1 197.708C1572.26 243.008 1569.69 289.224 1554.09 332.208C1541.13 367.948 1517.61 400.676 1485.34 421.338C1476.82 426.906 1467.7 431.51 1458.15 435.066C1453.08 436.904 1447.88 438.336 1442.67 439.753C1437.22 441.237 1431.57 442.726 1427.8 446.958C1427.16 447.626 1426.67 448.429 1426.39 449.308C1426.1 450.187 1426.01 451.12 1426.13 452.038C1426.24 452.955 1426.57 453.835 1427.07 454.612C1427.57 455.389 1428.24 456.045 1429.03 456.529Z" fill="#171717"/>
</g>
<g opacity="0.1">
<path d="M1579.85 161.932C1590.61 166.656 1603.7 162.913 1614.57 160.332C1626.25 157.467 1637.74 153.86 1648.96 149.532C1653.76 147.719 1657.06 143.108 1655.6 137.826C1654.33 133.203 1648.74 129.372 1643.9 131.179C1632.93 135.279 1621.76 138.764 1610.5 141.988C1600.19 144.941 1586.97 146.454 1578.84 154.061C1576.68 156.078 1576.9 160.643 1579.85 161.938L1579.85 161.932Z" fill="#171717"/>
</g>
</g>
<defs>
<linearGradient id="paint0_linear_297_2627" x1="501.601" y1="516.16" x2="501.601" y2="914.051" gradientUnits="userSpaceOnUse">
<stop stop-color="#FA9DFF"/>
<stop offset="1" stop-color="#C25DDE"/>
</linearGradient>
<linearGradient id="paint1_linear_297_2627" x1="284.627" y1="322.518" x2="284.627" y2="453.721" gradientUnits="userSpaceOnUse">
<stop stop-color="#FA9DFF"/>
<stop offset="1" stop-color="#C25DDE"/>
</linearGradient>
<linearGradient id="paint2_linear_297_2627" x1="122.699" y1="575.363" x2="122.699" y2="634.672" gradientUnits="userSpaceOnUse">
<stop stop-color="#FA9DFF"/>
<stop offset="1" stop-color="#C25DDE"/>
</linearGradient>
<linearGradient id="paint3_linear_297_2627" x1="1426.72" y1="188.559" x2="1426.72" y2="792.82" gradientUnits="userSpaceOnUse">
<stop stop-color="#FA9DFF"/>
<stop offset="1" stop-color="#C25DDE"/>
</linearGradient>
<linearGradient id="paint4_linear_297_2627" x1="1812.66" y1="237.143" x2="1812.66" y2="299.761" gradientUnits="userSpaceOnUse">
<stop stop-color="#FA9DFF"/>
<stop offset="1" stop-color="#C25DDE"/>
</linearGradient>
<linearGradient id="paint5_linear_297_2627" x1="1726.77" y1="465.715" x2="1726.77" y2="524.572" gradientUnits="userSpaceOnUse">
<stop stop-color="#FA9DFF"/>
<stop offset="1" stop-color="#C25DDE"/>
</linearGradient>
</defs>
</svg>
