<svg width="1920" height="960" viewBox="0 0 1920 960" fill="none" xmlns="http://www.w3.org/2000/svg">
<mask id="mask0_297_2625" style="mask-type:luminance" maskUnits="userSpaceOnUse" x="38" y="77" width="884" height="806">
<path d="M922 77H38V883H922V77Z" fill="white"/>
</mask>
<g mask="url(#mask0_297_2625)">
<path fill-rule="evenodd" clip-rule="evenodd" d="M678.225 366.149C677.233 363.396 676.938 360.44 677.366 357.545C677.538 355.802 678.281 354.165 679.479 352.887C681.269 351.205 684.096 351.037 686.41 351.887C688.674 352.865 690.705 354.311 692.372 356.129C691.891 354.184 691.059 352.35 690.226 350.515C689.434 348.769 688.641 347.021 688.15 345.174C687.142 341.387 687.88 336.572 691.403 334.832C694.926 333.092 699.058 335.297 702.203 337.64L703.656 338.74L722.369 292.699L725.434 294.014L725.503 293.856C725.862 289.825 726.225 285.798 726.591 281.774L726.581 280.755C726.645 279.709 726.709 278.663 726.773 277.618C726.907 275.435 727.04 273.253 727.181 271.066L727.211 270.651C726.064 270.572 724.917 270.453 723.78 270.325C723.831 265.738 724.222 261.161 724.947 256.631C725.005 255.53 725.454 254.486 726.212 253.685C727.127 253.097 728.215 252.839 729.297 252.953C730.352 252.953 731.573 252.875 732.875 252.792C737.219 252.514 742.473 252.178 745.551 254.486C747.242 255.761 747.736 257.62 747.884 259.637C747.899 259.842 747.919 260.08 747.942 260.345C748.161 262.927 748.597 268.071 747.172 269.623C746.572 270.138 745.807 270.418 745.017 270.414C743.328 270.595 741.628 270.73 739.917 270.819L742.498 271.541C742.493 272.625 742.49 273.708 742.488 274.791C742.485 275.875 742.483 276.958 742.478 278.041C742.534 278.561 742.419 279.085 742.152 279.534C741.977 279.719 741.767 279.868 741.535 279.971C741.302 280.074 741.051 280.129 740.797 280.134L740.906 281.073C741.331 287.353 741.212 293.658 740.55 299.917L740.35 300.382L743.761 301.845L761.133 309.261L761.281 308.905C762.411 306.631 763.544 304.357 764.681 302.083C764.954 301.342 765.461 300.711 766.125 300.283C767.035 299.989 768.024 300.061 768.883 300.483C769.968 300.856 771.053 301.226 772.139 301.596C773.358 302.012 774.577 302.428 775.794 302.846C777.524 303.439 779.354 304.102 780.461 305.555C781.001 306.361 781.348 307.281 781.475 308.243C781.602 309.205 781.505 310.184 781.192 311.102C780.551 312.932 779.627 314.65 778.454 316.193L778.286 316.593L795.875 324.117L826.109 337.029L811.17 377.629L811.18 377.955C795.78 378.577 780.414 376.078 766.006 370.609C765.743 370.509 765.479 370.408 765.214 370.307C759.267 368.031 752.683 365.512 747.023 368.266C745.544 368.996 744.229 370.019 743.157 371.272C740.231 374.643 738.768 379.508 737.621 383.986C735.425 392.539 733.225 401.091 731.021 409.643C730.437 411.746 730.001 413.887 729.716 416.05C729.41 418.246 729.603 420.483 730.28 422.595C732.494 428.982 739.652 431.978 746.059 434.123C759.589 438.802 773.421 442.562 787.459 445.375L787.359 445.875L778.184 470.444L668.478 425.31L681.232 393.919L681.539 393.454C681.213 393.248 680.898 393.041 680.583 392.833L680.58 392.831C677.742 390.966 674.875 388.994 672.858 386.266C670.841 383.538 669.783 379.86 670.97 376.686C671.396 375.539 672.087 374.509 672.988 373.681C673.889 372.853 674.973 372.25 676.152 371.922C677.331 371.594 678.571 371.55 679.77 371.794C680.969 372.038 682.093 372.562 683.051 373.324C680.875 371.367 679.217 368.902 678.225 366.149ZM586.319 407.883C609.334 413.94 635.011 412.101 655.319 399.683L655.629 399.684C655.372 423.858 655.066 453.805 655.866 471.523C656.025 474.914 656.331 478.641 658.743 481.014C661.205 483.427 665.012 483.634 668.482 483.644H668.719C718.354 483.69 767.993 483.733 817.637 483.773C818.915 483.794 820.193 483.731 821.463 483.585C823.445 483.445 825.31 482.592 826.713 481.185C828.779 478.882 828.681 475.421 828.463 472.326C827.919 464.769 827.376 457.209 826.832 449.646L826.763 448.321C828.414 448.221 830.075 448.09 831.736 447.921C860.736 445.074 889.951 430.293 903.536 404.508C915.113 382.519 913.795 355.064 903.18 332.59C892.565 310.116 873.519 292.369 851.965 279.99C830.441 267.632 806.426 260.266 782.252 254.601C782.856 250.903 780.532 246.642 777.121 244.625C773.137 242.272 768.322 242.113 763.665 242.202C763.198 242.222 762.733 242.232 762.276 242.242H762.251L722.525 243.369C722.355 243.374 722.186 243.38 722.017 243.385C721.204 243.41 720.387 243.436 719.569 243.469C713.755 243.696 707.882 244.309 702.869 247.176C697.006 250.518 692.913 257.993 695.661 264.162L694.119 264.202C685.448 261.186 675.452 263.411 667.8 268.542C659.8 273.911 654.074 282.082 649.744 290.684C647.099 295.937 644.916 301.396 642.732 306.857C641.339 310.338 639.946 313.82 638.434 317.25C635.942 322.886 632.709 328.779 627.083 331.27C619.747 334.533 611.294 330.841 604.333 326.841C592.743 320.188 581.765 312.522 571.528 303.933C568.342 301.264 565.231 298.505 562.195 295.657C558.972 292.632 554.483 289.28 550.588 291.386C549.423 292.068 548.479 293.07 547.869 294.273C547.379 295.151 546.947 296.059 546.574 296.992C542.444 306.847 538.308 316.707 534.166 326.574C529.904 336.733 525.642 346.9 521.382 357.074C520.354 359.516 519.311 362.116 519.711 364.727C520.185 367.92 522.67 370.382 525.07 372.547C538.945 385.074 554.612 395.989 571.845 403.029C576.558 404.961 581.393 406.583 586.319 407.883ZM862.142 293.843C861.443 293.415 860.53 293.635 860.102 294.334C859.675 295.032 859.894 295.945 860.593 296.373C870.636 302.521 879.173 310.842 885.577 320.724C891.982 330.606 896.09 341.797 897.6 353.476C899.111 365.154 897.985 377.022 894.306 388.208C890.626 399.394 884.487 409.613 876.339 418.115C875.772 418.706 875.792 419.645 876.383 420.212C876.974 420.778 877.913 420.758 878.48 420.167C886.935 411.346 893.305 400.742 897.123 389.135C900.941 377.528 902.109 365.213 900.542 353.095C898.975 340.977 894.712 329.365 888.066 319.111C881.421 308.857 872.562 300.223 862.142 293.843Z" fill="url(#paint0_linear_297_2625)"/>
<path d="M799.935 861.424C811.948 856.461 820.435 845.377 826.027 833.652L826.521 833.711C825.395 843.273 822.661 852.576 818.434 861.226C815.408 867.396 811.394 873.417 805.434 876.826C798.573 880.751 790.228 880.672 782.328 880.494L755.92 879.871C750.888 879.752 745.203 879.337 741.99 875.461C739.113 872.001 739.399 867.097 741.19 862.816L742.09 863.182C761.416 860.959 781.961 868.859 799.935 861.424Z" fill="#171717"/>
<path d="M767.544 839.426C775.978 833.207 783.721 823.557 781.763 813.255L781.883 812.955C787.162 815.012 793.162 815.921 798.797 816.623C805.856 817.503 813.046 818.383 820.076 817.216C821.401 816.998 822.712 816.698 824 816.316L826.807 816.592C827.291 822.292 827.195 828.026 826.521 833.707L826.026 833.648C820.426 845.373 811.948 856.457 799.935 861.42C781.961 868.855 761.415 860.955 742.086 863.18L741.188 862.814C741.735 861.502 742.419 860.249 743.224 859.077C749.176 850.449 759.099 845.644 767.544 839.426Z" fill="url(#paint1_linear_297_2625)"/>
<path d="M747.879 259.644C748.047 261.839 748.739 267.919 747.167 269.63C746.568 270.145 745.802 270.426 745.012 270.421C743.321 270.599 741.621 270.734 739.912 270.826C735.68 271.052 731.437 270.995 727.212 270.658C726.065 270.579 724.918 270.458 723.781 270.332C723.833 265.745 724.223 261.168 724.948 256.638C725.007 255.537 725.456 254.493 726.213 253.692C727.128 253.105 728.217 252.846 729.298 252.96C733.875 252.96 741.548 251.497 745.552 254.493C747.237 255.768 747.731 257.627 747.879 259.644Z" fill="#171717"/>
<path d="M742.492 271.548C742.482 273.713 742.482 275.878 742.472 278.048C742.529 278.568 742.414 279.092 742.146 279.541C741.972 279.726 741.762 279.875 741.529 279.978C741.297 280.081 741.046 280.136 740.791 280.141C740.613 280.16 740.435 280.17 740.257 280.18C735.691 280.38 731.13 280.575 726.574 280.763C726.774 277.53 726.974 274.307 727.174 271.074L727.204 270.659C731.429 270.996 735.672 271.053 739.904 270.827L742.492 271.548Z" fill="#171717"/>
<path d="M746.601 144.362C736.277 145.221 725.892 144.996 715.615 143.69C711.725 143.259 707.883 142.474 704.136 141.346C702.45 140.814 700.808 140.153 699.223 139.369C694.131 136.828 689.662 132.656 687.823 127.277C687.24 125.557 686.973 123.54 687.981 122.027C690.107 118.854 695.228 120.94 697.591 123.945C699.954 126.95 701.961 130.965 705.748 131.539C703.978 129.116 702.139 126.506 702.04 123.51C701.941 120.514 704.492 117.272 707.429 117.855C709.1 118.181 710.329 119.575 711.413 120.89C714.716 124.914 717.936 129.004 721.073 133.16C719.392 130.66 717.632 127.95 717.701 124.934C717.77 121.918 720.608 118.824 723.485 119.704C726.293 120.574 726.975 124.104 728.385 126.674C730.61 130.718 735.346 132.824 739.943 133.239C744.54 133.654 749.138 132.666 753.706 131.993C759.579 131.123 766.124 130.935 770.86 134.524C775.704 138.212 777.237 144.906 776.98 150.986C776.723 157.066 775.032 163.048 774.903 169.139C774.841 175 776.2 180.789 778.865 186.01C781.529 191.231 785.42 195.728 790.203 199.116C788.14 200.208 785.807 200.685 783.482 200.49C781.156 200.295 778.935 199.437 777.083 198.016C780.266 200.627 783.783 204.73 781.759 208.309C780.286 210.899 776.489 211.309 773.83 209.97C771.171 208.631 768.382 205.076 766.701 202.614H766.592C767.205 187.467 767.159 172.314 766.454 157.154C766.335 154.405 766.148 151.538 764.724 149.185C761.301 143.531 753.181 143.808 746.601 144.362Z" fill="#171717"/>
<path d="M740.347 300.388L725.428 294.021L725.497 293.863C725.863 289.839 726.225 285.812 726.585 281.781L726.575 280.762C731.133 280.575 735.694 280.38 740.258 280.179C740.436 280.169 740.614 280.159 740.792 280.14L740.901 281.079C741.326 287.359 741.207 293.664 740.545 299.923L740.347 300.388Z" fill="#171717"/>
<path d="M736.521 843.548H736.6C736.492 847.048 736.037 850.687 733.713 853.238C731.004 856.214 726.605 856.787 722.59 857.173C695.975 859.733 669.221 862.304 642.546 860.495C635.298 860.01 627.221 858.725 622.9 852.901C621.606 851.136 620.758 849.084 620.428 846.92L620.628 846.88C659.274 849.599 698.095 848.483 736.521 843.548Z" fill="#171717"/>
<path d="M684.18 795.31C680.28 791.21 679.859 785.018 679.641 779.372C675.924 680.472 672.197 582.542 668.479 483.643H668.716C718.348 483.692 767.987 483.735 817.633 483.772C818.912 483.793 820.189 483.73 821.458 483.584L821.529 484.084C831.99 584.704 838.544 684.75 841.203 785.874C841.381 792.933 841.441 800.437 837.773 806.468C834.767 811.412 829.606 814.655 824 816.316C822.712 816.698 821.401 816.998 820.076 817.216C813.046 818.383 805.856 817.503 798.797 816.623C793.162 815.923 787.162 815.012 781.883 812.955C777.392 811.398 773.478 808.517 770.659 804.69C766.941 799.351 766.239 792.548 765.659 786.082C759.292 715.865 750.979 638.124 744.612 567.907C747.825 634.861 751.037 701.815 754.25 768.77C754.675 777.51 754.734 787.27 748.802 793.695C745.154 797.64 739.965 799.479 734.576 800.409C732.51 800.774 730.423 801.002 728.375 801.16C718.273 801.963 708.117 801.771 698.052 800.586C695.19 800.329 692.368 799.724 689.651 798.786C687.588 798.056 685.718 796.867 684.18 795.31Z" fill="#171717"/>
<path d="M676.605 814.461C682.755 811.228 688.054 805.761 689.567 798.978L689.646 798.79C692.362 799.729 695.183 800.333 698.046 800.59C708.11 801.775 718.267 801.967 728.369 801.164C730.416 801.006 732.502 800.778 734.569 800.413L734.797 801.727C736.192 815.186 736.803 828.714 736.626 842.244C736.616 842.669 736.606 843.102 736.596 843.544H736.517C698.09 848.479 659.269 849.595 620.622 846.876L620.422 846.916C619.798 842.748 620.666 838.493 622.874 834.903C626.196 829.485 631.931 825.886 637.942 823.81C643.953 821.734 650.331 820.982 656.629 820.033C663.505 819.019 670.465 817.7 676.605 814.461Z" fill="url(#paint2_linear_297_2625)"/>
<path d="M491.116 269.877C487.916 268.756 484.56 268.142 481.17 268.058L481.209 267.118C481.644 266.861 482.02 266.634 482.326 266.426C484.326 265.082 486.41 263.026 485.935 260.662C485.559 258.784 483.71 257.607 481.921 256.915C476.295 254.75 469.987 255.323 464.095 256.727L463.795 255.482L452.023 242.46L468.781 230.833L487.992 252.417L513.905 281.544L506.816 289.127L506.678 289.334C502.276 286.374 497.155 284.66 491.857 284.371L491.957 282.908C493.189 282.029 494.237 280.917 495.042 279.635C496.367 277.49 496.762 274.563 495.289 272.527C494.198 271.242 492.743 270.318 491.116 269.877Z" fill="#171717"/>
<path d="M332.687 300.092L401.777 264.469L419.228 328.25L386.423 316.197L318.727 419.842H216.832L162.394 505.335H132.387L203.573 397.162H297.094L364.088 308.149L332.687 300.092Z" fill="#171717"/>
<path d="M402.479 202.319H132.387V224.99H402.479V202.319Z" fill="url(#paint3_linear_297_2625)"/>
<path d="M348.734 152.884H132.387V175.555H348.734V152.884Z" fill="url(#paint4_linear_297_2625)"/>
<path d="M719.555 243.152C720.662 239.297 721.78 235.352 721.542 231.352C721.304 227.352 719.476 223.206 715.956 221.278C713.256 219.795 709.905 219.765 707.335 218.064C703.103 215.264 702.688 209.305 702.708 204.223C702.797 184.093 702.889 163.963 702.985 143.833" stroke="#171717" stroke-width="2.966" stroke-linecap="round" stroke-linejoin="round"/>
<path d="M716.766 152.884L734.592 152.944C732.704 164.294 730.812 175.646 728.917 187C728.781 187.249 728.719 187.53 728.737 187.812C728.755 188.094 728.852 188.366 729.017 188.595C729.183 188.824 729.409 189.002 729.672 189.108C729.934 189.214 730.22 189.244 730.499 189.194C732.743 189.324 734.98 189.449 737.212 189.57" stroke="#171717" stroke-width="2.966" stroke-linecap="round" stroke-linejoin="round"/>
<path d="M738.801 204.316C741.077 205.13 743.549 205.22 745.878 204.574C748.207 203.928 750.28 202.578 751.812 200.708" stroke="#171717" stroke-width="2.966" stroke-linecap="round" stroke-linejoin="round"/>
<path d="M713.969 162.88C715.386 162.492 716.87 162.416 718.32 162.657C719.769 162.899 721.148 163.453 722.363 164.28" stroke="#171717" stroke-width="2.966" stroke-linecap="round" stroke-linejoin="round"/>
<path d="M744.699 162.94C747.094 162.131 749.653 161.93 752.144 162.356" stroke="#171717" stroke-width="2.966" stroke-linecap="round" stroke-linejoin="round"/>
<path d="M763.63 241.037C765.084 228.273 766.069 215.466 766.586 202.616C767.199 187.469 767.153 172.316 766.448 157.156C766.329 154.407 766.142 151.54 764.718 149.187C761.297 143.531 753.18 143.808 746.595 144.362C736.271 145.221 725.886 144.996 715.609 143.69C711.72 143.259 707.877 142.474 704.13 141.346C702.444 140.814 700.802 140.153 699.217 139.369C694.125 136.828 689.656 132.656 687.817 127.277C687.234 125.557 686.967 123.54 687.975 122.027C690.101 118.854 695.222 120.94 697.585 123.945C699.948 126.95 701.955 130.965 705.742 131.539C703.972 129.116 702.133 126.506 702.034 123.51C701.935 120.514 704.486 117.272 707.423 117.855C709.094 118.181 710.323 119.575 711.407 120.89C714.71 124.914 717.93 129.004 721.067 133.16C719.386 130.66 717.626 127.95 717.695 124.934C717.764 121.918 720.602 118.824 723.479 119.704C726.287 120.574 726.969 124.104 728.379 126.674C730.604 130.718 735.34 132.824 739.937 133.239C744.534 133.654 749.132 132.666 753.7 131.993C759.573 131.123 766.118 130.935 770.854 134.524C775.698 138.212 777.231 144.906 776.974 150.986C776.717 157.066 775.026 163.048 774.897 169.139C774.835 175 776.194 180.789 778.859 186.01C781.524 191.231 785.414 195.728 790.197 199.116C788.135 200.208 785.802 200.685 783.476 200.49C781.15 200.295 778.929 199.437 777.077 198.016C780.26 200.627 783.777 204.73 781.753 208.309C780.28 210.899 776.483 211.309 773.824 209.97C771.165 208.631 768.376 205.076 766.695 202.614" stroke="#171717" stroke-width="2.966" stroke-linecap="round" stroke-linejoin="round"/>
<path d="M695.658 264.162C692.91 257.993 697.003 250.518 702.866 247.176C707.879 244.309 713.752 243.696 719.566 243.469C720.555 243.429 721.543 243.4 722.522 243.369L762.248 242.242C762.713 242.232 763.187 242.222 763.662 242.202C768.319 242.113 773.134 242.272 777.118 244.625C780.529 246.642 782.853 250.903 782.249 254.601C782.09 255.68 781.661 256.701 781.001 257.568" stroke="#171717" stroke-width="2.966" stroke-linecap="round" stroke-linejoin="round"/>
<path d="M695.252 264.627C694.876 264.469 694.491 264.327 694.115 264.202C685.444 261.186 675.448 263.411 667.796 268.542C659.796 273.911 654.063 282.077 649.742 290.679C645.421 299.281 642.317 308.436 638.432 317.245C635.94 322.881 632.707 328.774 627.081 331.265C619.745 334.528 611.292 330.84 604.331 326.836C592.742 320.183 581.764 312.517 571.526 303.928C568.344 301.262 565.233 298.503 562.193 295.652C558.97 292.627 554.481 289.275 550.586 291.381C549.422 292.063 548.478 293.065 547.867 294.268C547.378 295.146 546.945 296.054 546.572 296.987C542.439 306.844 538.303 316.705 534.164 326.569C529.902 336.733 525.641 346.9 521.38 357.069C520.352 359.511 519.313 362.111 519.709 364.722C520.183 367.915 522.665 370.377 525.068 372.542C538.939 385.069 554.61 395.984 571.843 403.024C576.557 404.956 581.392 406.578 586.317 407.878C609.334 413.939 635.011 412.1 655.317 399.678" stroke="#171717" stroke-width="2.966" stroke-linecap="round" stroke-linejoin="round"/>
<path d="M547.431 294.011C539.818 282.799 531.721 271.973 523.139 261.532C516.339 253.257 508.605 244.832 498.471 242.371C495.92 241.758 493.152 241.561 490.771 242.708C488.39 243.855 486.579 246.633 487.142 249.322C487.364 250.304 487.838 251.21 488.517 251.952C489.704 253.174 491.088 254.188 492.61 254.952C498.81 258.422 505.013 261.889 511.217 265.352" stroke="#171717" stroke-width="3.346" stroke-linecap="round" stroke-linejoin="round"/>
<path d="M506.816 289.127L513.905 281.544L487.992 252.417L468.781 230.833L452.023 242.46L463.798 255.482" stroke="#171717" stroke-width="2.966" stroke-linecap="round" stroke-linejoin="round"/>
<path d="M782.149 254.582C782.181 254.594 782.215 254.6 782.249 254.602C806.423 260.267 830.438 267.633 851.962 279.991C873.516 292.37 892.562 310.117 903.177 332.591C913.792 355.065 915.11 382.52 903.533 404.509C889.948 430.294 860.733 445.075 831.733 447.922C830.072 448.091 828.411 448.222 826.76 448.322C813.589 448.957 800.389 447.967 787.46 445.376C773.422 442.563 759.591 438.803 746.06 434.124C739.653 431.979 732.495 428.983 730.281 422.596C729.604 420.484 729.412 418.247 729.717 416.051C730.002 413.888 730.438 411.747 731.022 409.644C733.227 401.092 735.427 392.54 737.622 383.987C738.769 379.509 740.232 374.644 743.158 371.273C744.23 370.02 745.545 368.997 747.024 368.267C752.937 365.39 759.857 368.267 766.007 370.61C780.416 376.079 795.782 378.578 811.181 377.956C816.704 377.748 822.203 377.127 827.633 376.098" stroke="#171717" stroke-width="2.966" stroke-linecap="round" stroke-linejoin="round"/>
<path d="M655.812 376.745C655.792 383.102 655.712 391.022 655.624 399.683C655.367 423.857 655.06 453.804 655.861 471.522C656.02 474.913 656.326 478.64 658.738 481.013C661.2 483.426 665.007 483.633 668.477 483.643H668.714C718.347 483.692 767.986 483.735 817.632 483.772C818.91 483.793 820.188 483.73 821.458 483.584C823.441 483.444 825.305 482.592 826.708 481.184C828.774 478.884 828.676 475.42 828.458 472.325C827.914 464.762 827.371 457.202 826.827 449.645" stroke="#171717" stroke-width="2.966" stroke-linecap="round" stroke-linejoin="round"/>
<path d="M744.609 567.9C743.778 550.657 742.951 533.418 742.127 516.181" stroke="#171717" stroke-width="2.966" stroke-linecap="round" stroke-linejoin="round"/>
<path d="M668.479 483.534V483.643C672.197 582.543 675.924 680.473 679.641 779.372C679.859 785.018 680.284 791.207 684.18 795.31C685.715 796.868 687.585 798.058 689.646 798.79C692.363 799.729 695.184 800.333 698.047 800.59C708.111 801.775 718.267 801.967 728.37 801.164C730.417 801.006 732.501 800.778 734.568 800.413C739.957 799.483 745.149 797.644 748.797 793.699C754.729 787.273 754.67 777.514 754.245 768.774C751.041 701.82 747.827 634.866 744.604 567.911" stroke="#171717" stroke-width="2.966" stroke-linecap="round" stroke-linejoin="round"/>
<path d="M744.607 567.9V567.91C750.974 638.127 759.289 715.868 765.656 786.085C766.239 792.551 766.941 799.354 770.656 804.693C773.475 808.52 777.388 811.401 781.878 812.958C787.157 815.015 793.159 815.924 798.794 816.626C805.853 817.506 813.041 818.386 820.071 817.219C821.397 817.001 822.708 816.701 823.996 816.319C829.602 814.658 834.763 811.419 837.769 806.471C841.437 800.44 841.377 792.936 841.199 785.877C838.54 684.753 831.985 584.707 821.524 484.087" stroke="#171717" stroke-width="2.966" stroke-linecap="round" stroke-linejoin="round"/>
<path d="M689.568 798.978C688.055 805.76 682.756 811.228 676.606 814.461C670.456 817.694 663.506 819.019 656.635 820.037C650.335 820.986 643.959 821.728 637.948 823.814C631.937 825.9 626.202 829.489 622.88 834.907C620.672 838.497 619.803 842.752 620.428 846.92C620.758 849.083 621.607 851.135 622.901 852.9C627.222 858.724 635.301 860.009 642.547 860.494C669.222 862.303 695.976 859.732 722.591 857.172C726.606 856.786 731.005 856.213 733.714 853.237C736.038 850.686 736.493 847.047 736.601 843.547C736.611 843.102 736.621 842.668 736.631 842.247C736.807 828.717 736.197 815.189 734.802 801.73" stroke="#171717" stroke-width="2.966" stroke-linecap="round" stroke-linejoin="round"/>
<path d="M781.763 813.255C783.721 823.555 775.979 833.207 767.545 839.426C759.111 845.645 749.176 850.449 743.224 859.081C742.418 860.254 741.736 861.506 741.187 862.818C739.397 867.099 739.111 872.003 741.987 875.463C745.2 879.339 750.887 879.754 755.917 879.873L782.325 880.496C790.225 880.674 798.57 880.753 805.431 876.828C811.393 873.417 815.407 867.396 818.431 861.228C825.199 847.38 828.093 831.958 826.805 816.598" stroke="#171717" stroke-width="2.966" stroke-linecap="round" stroke-linejoin="round"/>
<path d="M571.714 303.7V97.4092L39.9141 108.927L46.1921 559.081L571.714 548.61V403.361" stroke="#171717" stroke-width="2.966" stroke-linecap="round" stroke-linejoin="round"/>
<path d="M811.167 377.625L826.106 337.029L795.872 324.117L778.283 316.593L761.129 309.267L743.757 301.851L740.346 300.388L725.427 294.021L722.362 292.706L703.656 338.74" stroke="#171717" stroke-width="2.966" stroke-linecap="round" stroke-linejoin="round"/>
<path d="M681.232 393.919L668.479 425.31L778.185 470.444L787.359 445.875" stroke="#171717" stroke-width="2.966" stroke-linecap="round" stroke-linejoin="round"/>
<path d="M743.163 303.236L741.453 313.933L785.628 331.216L795.871 324.117" stroke="#171717" stroke-width="2.966" stroke-linecap="round" stroke-linejoin="round"/>
<path d="M743.163 371.307C743.163 371.297 743.153 371.278 743.153 371.268C738.615 353.402 726.353 331.512 719.978 331.542C719.051 331.63 718.193 332.071 717.582 332.774C716.971 333.477 716.654 334.388 716.696 335.319C716.637 337.104 716.83 338.888 717.269 340.619C720.186 349.547 720.097 352.296 723.488 360.106C718.083 351.953 711.384 344.737 703.655 338.741L702.202 337.641C699.057 335.298 694.925 333.093 691.402 334.833C687.879 336.573 687.141 341.388 688.149 345.175C689.157 348.962 691.432 352.333 692.371 356.13C690.705 354.312 688.674 352.866 686.409 351.888C684.095 351.038 681.268 351.206 679.478 352.888C678.28 354.165 677.536 355.802 677.362 357.545C676.934 360.44 677.23 363.396 678.222 366.149C679.213 368.902 680.871 371.367 683.047 373.324C682.09 372.562 680.966 372.038 679.767 371.794C678.568 371.55 677.328 371.594 676.149 371.922C674.97 372.25 673.886 372.853 672.985 373.681C672.084 374.509 671.392 375.539 670.966 376.686C669.779 379.86 670.837 383.538 672.854 386.266C674.871 388.994 677.738 390.966 680.576 392.831C680.892 393.039 681.208 393.247 681.535 393.454C696.355 403.163 712.095 411.735 729.035 416.954C729.223 416.648 729.42 416.341 729.618 416.035" stroke="#171717" stroke-width="2.966" stroke-linecap="round" stroke-linejoin="round"/>
<path d="M468.968 272.121C473.225 270.925 477.331 269.247 481.208 267.121C481.643 266.864 482.019 266.637 482.325 266.429C484.325 265.085 486.409 263.029 485.934 260.665C485.558 258.787 483.709 257.61 481.92 256.918C476.294 254.753 469.986 255.326 464.094 256.73C463.856 256.78 463.619 256.839 463.394 256.898C460.649 257.437 458.046 258.542 455.751 260.141C453.556 261.852 451.951 264.581 452.271 267.349C452.933 273.143 458.351 274.112 464.491 273.123C465.996 272.881 467.486 272.547 468.95 272.123" stroke="#171717" stroke-width="2.966" stroke-linecap="round" stroke-linejoin="round"/>
<path d="M470.353 271.9C469.888 271.969 469.434 272.048 468.969 272.117C468.967 272.118 468.966 272.119 468.964 272.12C468.962 272.121 468.959 272.121 468.959 272.121C468.957 272.121 468.955 272.121 468.953 272.12C468.951 272.119 468.949 272.117 468.949 272.117C467.442 272.354 465.953 272.688 464.49 273.117C462.827 273.593 461.263 274.363 459.873 275.391C456.927 277.665 455.305 282.124 457.381 285.219C458.562 286.798 460.31 287.857 462.256 288.175C463.443 288.431 464.65 288.58 465.864 288.62C472.336 288.896 478.809 288.061 485 286.151C487.482 285.459 489.833 284.364 491.96 282.908C493.192 282.029 494.24 280.917 495.045 279.635C496.37 277.49 496.765 274.563 495.292 272.527C494.201 271.242 492.746 270.318 491.12 269.877C487.919 268.756 484.564 268.142 481.174 268.058H481.085" stroke="#171717" stroke-width="2.966" stroke-linecap="round" stroke-linejoin="round"/>
<path d="M462.077 289.028C461.742 289.746 461.597 290.538 461.658 291.328C461.719 292.117 461.982 292.878 462.423 293.536C463.326 294.838 464.491 295.936 465.844 296.76C472.979 301.585 481.357 304.243 489.968 304.412C492.766 304.486 495.563 304.21 498.293 303.592C501.235 302.939 504.012 301.687 506.449 299.914C508.733 298.203 510.76 295.356 509.791 292.676C509.161 291.318 508.129 290.186 506.835 289.433C506.785 289.397 506.732 289.363 506.677 289.333C502.274 286.374 497.153 284.659 491.856 284.37H491.799" stroke="#171717" stroke-width="2.966" stroke-linecap="round" stroke-linejoin="round"/>
<path d="M498.344 303.8C512.023 308.008 524.309 315.838 533.901 326.46" stroke="#171717" stroke-width="2.966" stroke-linecap="round" stroke-linejoin="round"/>
<path d="M778.45 316.2C779.624 314.657 780.548 312.939 781.188 311.109C781.502 310.191 781.599 309.212 781.472 308.25C781.345 307.288 780.998 306.368 780.457 305.562C779.35 304.109 777.52 303.446 775.79 302.853C773.49 302.062 771.183 301.281 768.879 300.49C768.021 300.068 767.032 299.997 766.121 300.29C765.458 300.718 764.951 301.35 764.677 302.09C763.541 304.364 762.407 306.638 761.277 308.912" stroke="#171717" stroke-width="2.636" stroke-linecap="round" stroke-linejoin="round"/>
<path d="M739.91 270.826C741.622 270.737 743.322 270.602 745.01 270.421C745.801 270.426 746.566 270.145 747.165 269.63C748.737 267.919 748.045 261.839 747.877 259.644C747.729 257.627 747.235 255.768 745.544 254.493C741.544 251.493 733.867 252.96 729.29 252.96C728.209 252.846 727.121 253.105 726.205 253.692C725.448 254.493 724.999 255.537 724.94 256.638C724.215 261.168 723.825 265.745 723.773 270.332C724.91 270.46 726.057 270.579 727.204 270.658C731.431 270.996 735.676 271.052 739.91 270.826Z" stroke="#171717" stroke-width="2.636" stroke-linecap="round" stroke-linejoin="round"/>
<path d="M727.176 271.073C726.968 274.306 726.776 277.529 726.576 280.762C731.134 280.575 735.695 280.381 740.259 280.179C740.437 280.169 740.615 280.159 740.793 280.14C741.048 280.136 741.298 280.08 741.531 279.977C741.764 279.874 741.974 279.725 742.148 279.54C742.416 279.091 742.53 278.567 742.474 278.047C742.484 275.881 742.484 273.716 742.494 271.547" stroke="#171717" stroke-width="2.636" stroke-linecap="round" stroke-linejoin="round"/>
<path d="M725.5 293.863C725.866 289.839 726.229 285.812 726.588 281.781" stroke="#171717" stroke-width="2.636" stroke-linecap="round" stroke-linejoin="round"/>
<path d="M740.545 299.923C741.207 293.664 741.327 287.359 740.901 281.079" stroke="#171717" stroke-width="2.636" stroke-linecap="round" stroke-linejoin="round"/>
<path d="M94.0059 152.884L100.986 517.901" stroke="#171717" stroke-width="2.966" stroke-linecap="round" stroke-linejoin="round"/>
<path d="M100.986 532.554L528.103 517.901" stroke="#171717" stroke-width="2.966" stroke-linecap="round" stroke-linejoin="round"/>
<path d="M162.394 505.335L216.832 419.842H318.727L386.423 316.197L419.228 328.25L401.777 264.469L332.687 300.092L364.088 308.149L297.094 397.162H203.573L132.387 505.335H162.394Z" stroke="#171717" stroke-width="2.966" stroke-linecap="round" stroke-linejoin="round"/>
<path d="M348.734 152.884H132.387V175.555H348.734V152.884Z" stroke="#171717" stroke-width="2.966" stroke-linecap="round" stroke-linejoin="round"/>
<path d="M402.479 202.319H132.387V224.99H402.479V202.319Z" stroke="#171717" stroke-width="3.314" stroke-linecap="round" stroke-linejoin="round"/>
<path d="M82.834 151.273H104.466" stroke="#171717" stroke-width="3.314" stroke-linecap="round" stroke-linejoin="round"/>
<path d="M516.119 527.67L529.842 517.901L516.119 507.431" stroke="#171717" stroke-width="3.314" stroke-linecap="round" stroke-linejoin="round"/>
<path d="M620.625 846.88C659.272 849.599 698.093 848.483 736.52 843.548" stroke="#171717" stroke-width="2.966" stroke-linecap="round" stroke-linejoin="round"/>
<path d="M742.088 863.184C761.417 860.959 781.962 868.859 799.936 861.424C811.949 856.461 820.436 845.377 826.028 833.652" stroke="#171717" stroke-width="2.966" stroke-linecap="round" stroke-linejoin="round"/>
<path d="M480.641 207.333L487.969 189.533" stroke="#171717" stroke-width="2.966" stroke-linecap="round" stroke-linejoin="round"/>
<path d="M465.876 201.062C464.593 186.502 461.99 172.089 458.1 158" stroke="#171717" stroke-width="2.966" stroke-linecap="round" stroke-linejoin="round"/>
<path d="M451.418 206.2L438.863 192.585" stroke="#171717" stroke-width="2.966" stroke-linecap="round" stroke-linejoin="round"/>
<path d="M766.087 370.432C757.967 391.866 754.468 413.682 753.859 436.594" stroke="#171717" stroke-width="2.966" stroke-linecap="round" stroke-linejoin="round"/>
<path d="M564.229 298.268C553.129 327.198 546.788 356.585 543.475 387.395" stroke="#171717" stroke-width="2.966" stroke-linecap="round" stroke-linejoin="round"/>
<path d="M656.601 202.108L647.42 191.763" stroke="#171717" stroke-width="2.966" stroke-linecap="round" stroke-linejoin="round"/>
<path d="M646.432 202.841L657.095 191.375L656.895 192.697" stroke="#171717" stroke-width="2.966" stroke-linecap="round" stroke-linejoin="round"/>
<path d="M660.451 100.058L670.018 94.8501L669.3 95.8851" stroke="#171717" stroke-width="2.966" stroke-linecap="round" stroke-linejoin="round"/>
<path d="M667.551 103.763L662.059 91.625" stroke="#171717" stroke-width="2.966" stroke-linecap="round" stroke-linejoin="round"/>
<path d="M633.42 143.287L639.947 137.719" stroke="#171717" stroke-width="2.966" stroke-linecap="round" stroke-linejoin="round"/>
<path d="M639.507 145.236L633.443 136.406" stroke="#171717" stroke-width="2.966" stroke-linecap="round" stroke-linejoin="round"/>
<path d="M845.586 110.3C834.425 125.518 828.818 144.102 829.699 162.953C830.02 169.353 831.145 175.858 834.266 181.453C837.387 187.048 842.755 191.653 849.086 192.653C855.417 193.653 862.512 190.385 864.862 184.421C867.212 178.457 863.404 170.553 857.062 169.612C850.104 168.581 844.109 175.907 844.097 182.941C844.085 189.975 848.278 196.298 852.856 201.641C857.434 206.984 862.656 211.99 865.484 218.433C868.312 224.876 867.984 233.404 862.521 237.839C857.058 242.274 846.612 238.673 846.997 231.649" stroke="#171717" stroke-width="2.966" stroke-linecap="round" stroke-linejoin="round"/>
<path d="M587.537 422.654C597.457 426.124 608.195 426.507 618.337 423.754" stroke="#171717" stroke-width="2.966" stroke-linecap="round" stroke-linejoin="round"/>
<path d="M883.273 447.963C904.04 439.855 919.057 418.754 919.914 396.476" stroke="#171717" stroke-width="2.966" stroke-linecap="round" stroke-linejoin="round"/>
<path d="M484.1 319.222C478.175 319.495 472.29 318.131 467.089 315.279C461.888 312.428 457.572 308.2 454.615 303.058" stroke="#171717" stroke-width="2.966" stroke-linecap="round" stroke-linejoin="round"/>
<path d="M760.5 845.061L784.694 844.607" stroke="#171717" stroke-width="2.966" stroke-linecap="round" stroke-linejoin="round"/>
<path d="M773.064 834.366L794.464 833.918" stroke="#171717" stroke-width="2.966" stroke-linecap="round" stroke-linejoin="round"/>
<path d="M672.988 816.185L684.637 826.4" stroke="#171717" stroke-width="2.966" stroke-linecap="round" stroke-linejoin="round"/>
<path d="M664.935 832.546L657.447 821.409" stroke="#171717" stroke-width="2.966" stroke-linecap="round" stroke-linejoin="round"/>
<path d="M792.176 428.609L800.542 420.689" stroke="#171717" stroke-width="2.966" stroke-linecap="round" stroke-linejoin="round"/>
<path d="M790.26 394.639L782.719 390.639" stroke="#171717" stroke-width="2.966" stroke-linecap="round" stroke-linejoin="round"/>
<path d="M861 378.319C864.082 375.985 866.755 373.155 868.91 369.945" stroke="#171717" stroke-width="2.966" stroke-linecap="round" stroke-linejoin="round"/>
<path d="M860.961 419.362C857.884 418.134 855.404 415.759 854.045 412.738" stroke="#171717" stroke-width="2.966" stroke-linecap="round" stroke-linejoin="round"/>
<path d="M853.542 333.212C851.017 332.018 849.054 329.89 848.068 327.276" stroke="#171717" stroke-width="2.966" stroke-linecap="round" stroke-linejoin="round"/>
<path d="M822.33 293.569L829.696 288.34" stroke="#171717" stroke-width="2.966" stroke-linecap="round" stroke-linejoin="round"/>
<path d="M787.48 290.852L782.363 283.872" stroke="#171717" stroke-width="2.966" stroke-linecap="round" stroke-linejoin="round"/>
<path d="M708.855 282.474C706.606 282.165 704.501 281.193 702.807 279.682" stroke="#171717" stroke-width="2.966" stroke-linecap="round" stroke-linejoin="round"/>
<path d="M671.635 296.9L673.035 305.275" stroke="#171717" stroke-width="2.966" stroke-linecap="round" stroke-linejoin="round"/>
<path d="M672.099 339.644L664.188 340.061" stroke="#171717" stroke-width="2.966" stroke-linecap="round" stroke-linejoin="round"/>
<path d="M627.9 369.479L624.643 362.966" stroke="#171717" stroke-width="2.966" stroke-linecap="round" stroke-linejoin="round"/>
<path d="M593.464 331.76L585.072 333.046" stroke="#171717" stroke-width="2.966" stroke-linecap="round" stroke-linejoin="round"/>
<path d="M568.345 370.41L562.762 363.896" stroke="#171717" stroke-width="2.966" stroke-linecap="round" stroke-linejoin="round"/>
<path d="M598.588 376.924L600.449 385.764" stroke="#171717" stroke-width="2.966" stroke-linecap="round" stroke-linejoin="round"/>
<path d="M678.707 457.193L685.155 454.693" stroke="#171717" stroke-width="2.966" stroke-linecap="round" stroke-linejoin="round"/>
<path d="M728.811 470.465L725.232 462.491" stroke="#171717" stroke-width="2.966" stroke-linecap="round" stroke-linejoin="round"/>
<path d="M811.162 588.627L809.754 577" stroke="url(#paint5_linear_297_2625)" stroke-width="2.966" stroke-linecap="round" stroke-linejoin="round"/>
<path d="M775.343 541.634L774.377 533.263" stroke="url(#paint6_linear_297_2625)" stroke-width="2.966" stroke-linecap="round" stroke-linejoin="round"/>
<path d="M793.533 665.39V654.224" stroke="url(#paint7_linear_297_2625)" stroke-width="2.966" stroke-linecap="round" stroke-linejoin="round"/>
<path d="M829.2 730.064L829.082 717.969" stroke="url(#paint8_linear_297_2625)" stroke-width="2.966" stroke-linecap="round" stroke-linejoin="round"/>
<path d="M791.095 777.992L790.268 764.492" stroke="url(#paint9_linear_297_2625)" stroke-width="2.966" stroke-linecap="round" stroke-linejoin="round"/>
<path d="M725.969 736.118L725.152 724.018" stroke="url(#paint10_linear_297_2625)" stroke-width="2.966" stroke-linecap="round" stroke-linejoin="round"/>
<path d="M689.033 677.029L689.402 667.255" stroke="url(#paint11_linear_297_2625)" stroke-width="2.966" stroke-linecap="round" stroke-linejoin="round"/>
<path d="M726.07 612.815L726.536 604.905" stroke="url(#paint12_linear_297_2625)" stroke-width="2.966" stroke-linecap="round" stroke-linejoin="round"/>
<path d="M696.292 545.816L695.792 536.028C695.852 535.919 695.947 535.832 696.061 535.783C696.176 535.734 696.303 535.725 696.424 535.758C696.544 535.791 696.65 535.863 696.724 535.963C696.798 536.063 696.836 536.185 696.833 536.309C696.829 536.434 696.783 536.554 696.703 536.649C696.623 536.744 696.513 536.81 696.391 536.835C696.269 536.861 696.142 536.844 696.031 536.788C695.92 536.732 695.83 536.641 695.777 536.528" stroke="url(#paint13_linear_297_2625)" stroke-width="2.966" stroke-linecap="round" stroke-linejoin="round"/>
<path d="M419.863 462.29C452.746 458.147 485.881 456.348 519.019 456.906" stroke="#171717" stroke-width="2.966" stroke-linecap="round" stroke-linejoin="round"/>
<path d="M416.367 447.8L484.14 443.383" stroke="#171717" stroke-width="2.966" stroke-linecap="round" stroke-linejoin="round"/>
<path d="M759.999 88.9212L766.364 94.3122C766.556 94.4747 766.694 94.6923 766.759 94.9355C766.824 95.1788 766.812 95.4361 766.726 95.6726C766.64 95.9092 766.484 96.1138 766.278 96.2587C766.072 96.4036 765.827 96.482 765.575 96.4832L757.234 96.5262C756.991 96.5272 756.753 96.6004 756.551 96.7366C756.35 96.8728 756.193 97.0658 756.101 97.2912L752.941 105.01C752.846 105.243 752.682 105.442 752.47 105.579C752.259 105.715 752.01 105.784 751.759 105.775C751.507 105.767 751.264 105.681 751.063 105.53C750.861 105.379 750.711 105.169 750.632 104.93L748.014 97.0112C747.938 96.78 747.795 96.5767 747.603 96.4268C747.411 96.277 747.179 96.1873 746.936 96.1692L738.618 95.5492C738.367 95.5305 738.128 95.4353 737.933 95.2766C737.738 95.1178 737.596 94.903 737.526 94.6611C737.457 94.4192 737.463 94.1618 737.545 93.9237C737.626 93.6856 737.778 93.4781 737.981 93.3292L744.703 88.3922C744.9 88.2481 745.049 88.049 745.132 87.8201C745.215 87.5912 745.229 87.3428 745.171 87.1062L743.189 79.0002C743.129 78.7556 743.146 78.4986 743.236 78.2637C743.327 78.0288 743.488 77.8274 743.696 77.6866C743.905 77.5458 744.152 77.4724 744.404 77.4762C744.655 77.4801 744.9 77.561 745.104 77.7082L751.877 82.5762C752.075 82.7181 752.31 82.7983 752.553 82.8067C752.796 82.815 753.036 82.7512 753.243 82.6232L760.337 78.2352C760.551 78.103 760.801 78.0396 761.052 78.0535C761.303 78.0673 761.544 78.1577 761.742 78.3126C761.941 78.4674 762.087 78.6793 762.161 78.9197C762.236 79.16 762.234 79.4174 762.158 79.6572L759.621 87.6032C759.547 87.8356 759.543 88.0849 759.61 88.3195C759.677 88.5542 759.813 88.7636 759.999 88.9212Z" fill="#171717"/>
<g opacity="0.1">
<path d="M520.288 354.005C518.966 360.505 519.264 366.286 522.936 372.046C526.633 377.617 531.616 382.217 537.464 385.457C549.397 392.198 561.939 397.798 574.924 402.182C598.402 410.339 629.962 414.113 651.839 399.256C661.287 392.84 653.2 379.473 642.99 384.118C633.871 388.268 625.149 391.082 615.019 391.328C604.101 391.593 593.497 389.492 583.132 386.168C572.591 382.628 562.33 378.301 552.437 373.224C544.269 369.171 534.301 363.676 531.95 354.005C530.581 348.377 521.488 348.105 520.288 354.005Z" fill="#171717"/>
</g>
<g opacity="0.1">
<path d="M658.529 377.018C653.838 386.545 653.349 397.096 652.87 407.543C652.38 417.304 652.404 427.085 652.94 436.843C653.495 446.243 653.774 456.122 656.057 465.294C657.59 471.452 662.314 483.547 670.468 482.538C672.052 482.37 673.517 481.614 674.572 480.419C675.627 479.224 676.196 477.678 676.168 476.084C676.195 472.66 673.2 468.735 672.294 465.369C670.114 457.262 670.523 448.094 670.418 439.769C670.291 429.687 670.376 419.562 670.786 409.487C671.207 399.152 672.703 388.756 670.354 378.556C669.154 373.326 660.985 372.027 658.531 377.01L658.529 377.018Z" fill="#171717"/>
</g>
<g opacity="0.1">
<path d="M707.741 244.211C698.9 244.495 693.399 254.138 692.741 261.833C692.403 265.812 696.377 269.218 700.126 269.218C702.076 269.191 703.939 268.405 705.318 267.026C706.698 265.646 707.484 263.783 707.511 261.833C707.518 261.304 707.503 260.764 707.554 260.233C707.48 260.997 707.612 260.033 707.667 259.791C707.815 259.151 707.783 257.546 708.132 257.137L707.801 258.306C707.968 257.94 708.153 257.584 708.357 257.237C709.407 255.387 711.075 253.922 712.236 252.048C712.686 251.254 712.922 250.357 712.919 249.444C712.917 248.532 712.677 247.635 712.223 246.844C711.768 246.052 711.116 245.393 710.329 244.931C709.542 244.468 708.648 244.219 707.736 244.207L707.741 244.211Z" fill="#171717"/>
</g>
</g>
<mask id="mask1_297_2625" style="mask-type:luminance" maskUnits="userSpaceOnUse" x="998" y="85" width="885" height="790">
<path d="M1883 85H998V875H1883V85Z" fill="white"/>
</mask>
<g mask="url(#mask1_297_2625)">
<path d="M1866.7 481.661L1836.59 488.434L1831.18 518.814L1824.41 488.706L1794.03 483.281L1824.14 476.522L1829.56 446.128L1836.32 476.25L1866.7 481.661Z" fill="url(#paint14_linear_297_2625)"/>
<path d="M1698.93 434.4C1699.43 426.4 1699.91 418.403 1700.37 410.408V410.369C1700.79 410.385 1701.2 410.336 1701.6 410.223C1703.42 409.655 1704.44 407.76 1705.13 405.966C1707.28 400.266 1707.83 394.097 1708.03 387.99C1708.16 383.822 1708.15 379.552 1706.82 375.602C1705.32 371.102 1698.88 362.534 1694.44 369.302C1693.45 371.1 1692.87 373.093 1692.74 375.139C1692.34 378.153 1692.02 381.217 1691.86 384.292C1691.47 379.307 1690.62 374.264 1688.04 370.013C1686.44 367.374 1683.57 364.92 1680.56 365.593C1679.64 365.858 1678.8 366.327 1678.1 366.964C1677.39 367.6 1676.83 368.389 1676.48 369.27C1675.79 371.041 1675.38 372.909 1675.27 374.805C1675.03 377.116 1674.82 379.453 1674.68 381.805L1673.93 381.77C1671.79 379.832 1670.06 377.478 1668.86 374.851C1667.66 372.225 1667 369.381 1666.93 366.492C1666.87 363.251 1666.83 359.998 1666.77 356.757H1667.02C1681.36 332.715 1696.2 308.991 1711.54 285.585L1648.88 249.462L1827.11 149.034L1838.51 368.328L1775.73 326.936L1701.41 460.068L1701.15 460.06C1701.23 458.213 1701.3 456.354 1701.36 454.493C1701.58 447.978 1701.73 441.464 1701.86 434.951L1698.91 434.793C1698.92 434.661 1698.93 434.53 1698.93 434.4Z" fill="url(#paint15_linear_297_2625)"/>
<path d="M1826.88 810.822C1829.13 830.739 1824.78 850.854 1818.53 869.891L1818.52 870.115C1770.48 868.155 1722.44 866.204 1674.41 864.261L1674.44 863.47C1676.53 859.654 1677.51 855.328 1677.25 850.985C1677 846.642 1675.53 842.458 1673.01 838.91C1667.91 831.934 1660.13 828.088 1651.7 829.831C1652.54 827.848 1653.27 825.832 1653.91 823.784C1657.41 812.676 1658.33 800.939 1658.79 789.305C1659.47 772.262 1658.52 753.385 1646.78 741.005C1638.12 731.881 1625.08 727.914 1612.52 727.47C1607.64 727.323 1602.76 727.515 1597.92 728.045L1597.83 727.204L1605.99 664.316C1627.89 649.252 1653.62 642.194 1679.96 645.798C1706.33 649.398 1731.28 665.12 1743.89 688.575C1756.24 711.547 1755.71 740.948 1742.53 763.475C1756.95 749.552 1781.32 749.365 1798.15 760.232C1814.99 771.099 1824.63 790.907 1826.88 810.822Z" fill="url(#paint16_linear_297_2625)"/>
<path d="M1758.15 621.497L1751.56 626.521L1751.95 634.788L1745.14 630.077L1737.4 633.018L1739.78 625.083L1734.59 618.622L1742.87 618.424L1747.41 611.496L1750.16 619.316L1758.15 621.497Z" fill="url(#paint17_linear_297_2625)"/>
<path d="M1702.86 125.224C1710.05 129.399 1711.34 140.903 1705.26 146.572C1701.29 150.272 1673.43 145.832 1667.44 145.69C1654.47 145.385 1641.49 145.081 1628.51 144.778C1615.93 144.492 1600.78 146.478 1588.51 143.852C1580.72 142.18 1574.88 134.258 1585.26 128.478C1591.03 125.266 1598.16 126.648 1604.58 128.219C1602.79 118.757 1609.71 108.519 1619.15 106.662C1628.58 104.805 1638.88 111.612 1640.85 121.044C1638.7 110.97 1638.36 99.0255 1645.87 92.0005C1654.9 83.5755 1670.89 87.9234 1677.97 98.0324C1685.04 108.141 1685.19 121.579 1683.14 133.75C1685.03 125.648 1695.67 121.062 1702.86 125.224Z" fill="url(#paint18_linear_297_2625)"/>
<path d="M1651.28 381.729C1651.2 383.616 1651.11 385.516 1651.04 387.402C1650.2 387.842 1649.37 388.295 1648.55 388.761C1647.6 389.296 1646.66 389.844 1645.74 390.419C1647.38 387.396 1649.23 384.492 1651.28 381.729Z" fill="#171717"/>
<path d="M1644.39 430.62L1644.37 430.884C1644.18 438.967 1643.96 447.129 1643.47 455.284C1642.09 477.547 1638.63 499.607 1627.86 518.878C1619.38 534.053 1606.83 546.554 1591.61 554.967C1576.4 563.381 1559.14 567.371 1541.78 566.488C1542.13 565.623 1542.32 564.705 1542.35 563.774C1542.55 561.502 1542.75 559.244 1542.95 556.974C1543.09 555.455 1543.15 553.741 1542.15 552.59C1541.03 551.324 1539.08 551.302 1537.39 551.378L1526.69 551.893V551.88C1526.89 546.953 1528.24 542.142 1530.64 537.833C1533.04 533.525 1536.41 529.839 1540.49 527.073L1540.57 527.151C1540.39 527.326 1540.23 527.501 1540.05 527.663C1549.9 520.512 1561.1 509.81 1566.81 498.508C1569.7 499.867 1572.58 501.222 1575.45 502.573C1581.72 491.811 1588.1 482.443 1595.77 471.729C1608.44 449.041 1622.49 428.96 1635.2 407.314L1635.67 407.214C1636.49 410.32 1637.89 413.242 1639.81 415.82C1643.35 421.082 1647.33 426.041 1651.7 430.644L1651.67 431.119C1649.24 430.96 1646.82 430.79 1644.39 430.62Z" fill="url(#paint19_linear_297_2625)"/>
<path d="M1651.7 829.832C1650.5 832.727 1649.07 835.525 1647.45 838.204C1644.18 843.682 1639.85 848.451 1634.71 852.233C1633.74 852.941 1632.74 853.595 1631.72 854.198C1625.14 858.179 1617.69 860.374 1609.97 861.654C1604.19 862.558 1598.36 863.137 1592.51 863.388C1555.63 865.369 1515.29 863.936 1473.69 861.767L1473.62 861.36C1476.48 860.875 1479.08 859.946 1480.13 858.038C1481.02 856.438 1480.44 853.63 1479.81 851.35C1479.57 850.42 1479.31 849.569 1479.15 848.927C1477.93 844.158 1474.34 839.942 1469.79 836.998C1467.42 835.491 1464.89 834.248 1462.25 833.292L1462.35 833.026C1478.22 812.508 1489.09 780.557 1507.29 762.069C1509.84 759.481 1514.59 756.252 1520.87 752.819C1534.13 745.769 1548.05 740.026 1562.42 735.669C1573.98 731.994 1585.87 729.442 1597.91 728.051C1602.76 727.52 1607.64 727.327 1612.51 727.475C1625.08 727.919 1638.11 731.886 1646.78 741.011C1658.52 753.388 1659.47 772.265 1658.79 789.311C1658.33 800.945 1657.4 812.682 1653.91 823.791C1653.27 825.83 1652.54 827.85 1651.7 829.832Z" fill="#171717"/>
<path d="M1564.25 455.31C1572.59 466.142 1573.45 481.529 1568.65 494.328C1568.11 495.755 1567.5 497.15 1566.8 498.507C1561.1 509.807 1549.9 520.507 1540.04 527.662C1540.22 527.5 1540.39 527.325 1540.57 527.15C1548.16 519.863 1552.21 509.415 1553.33 498.939C1554.49 488.211 1552.78 477.39 1550.35 466.888L1550.34 466.862C1550.65 466.736 1550.96 466.597 1551.28 466.462C1556.56 464.13 1562.16 460.369 1563.93 455.202L1564.25 455.31Z" fill="#171717"/>
<path d="M1502.8 472.601L1502.61 473.659C1505.4 498.149 1501.91 530.318 1471.5 537.44C1472.08 543.086 1472.38 548.757 1472.4 554.434C1472.39 558.227 1471.98 562.008 1471.18 565.716C1470.24 569.965 1468.6 574.026 1466.31 577.726C1458.66 590.114 1445.65 599.47 1431.18 601.072C1422.92 601.994 1414.36 600.484 1405.95 599.327C1395.95 597.969 1386.14 597.107 1377.24 601.443C1368.78 605.573 1363.19 613.552 1358.46 621.868C1357.46 623.63 1356.49 625.418 1355.54 627.178C1346.59 643.852 1337.62 660.53 1328.64 677.212L1328.63 677.198C1322.71 663.05 1319.69 647.861 1319.74 632.526C1319.8 617.191 1322.92 602.023 1328.94 587.916C1334.95 573.81 1343.73 561.052 1354.76 550.396C1365.79 539.74 1378.84 531.403 1393.14 525.877C1397.92 523.988 1402.83 522.434 1407.82 521.227C1409.5 520.808 1411.19 520.441 1412.89 520.113C1417.91 519.144 1423.26 518.392 1427.27 515.206C1432.49 511.057 1434.05 503.931 1435.62 497.44C1439.45 481.592 1445.5 466.025 1455.45 453.085C1456.75 451.385 1458.14 449.717 1459.6 448.117C1469.15 437.597 1481.64 429.61 1495.56 426.993C1513.64 423.599 1532.11 429.354 1549.13 436.303C1556.28 439.215 1564.46 443.961 1564.51 451.683C1564.53 452.88 1564.33 454.071 1563.93 455.201C1562.16 460.367 1556.57 464.129 1551.28 466.461C1550.97 466.599 1550.66 466.739 1550.34 466.861C1535.34 473.186 1518.87 475.174 1502.8 472.601Z" fill="#171717"/>
<path d="M1442.02 743.65C1449.52 747.41 1455.54 750.861 1461.37 753.499C1475.44 759.88 1488.48 761.619 1519.03 751.923L1520.54 751.875L1520.87 752.818C1514.59 756.252 1509.84 759.482 1507.29 762.068C1489.09 780.555 1478.22 812.506 1462.35 833.025L1462.25 833.291C1462.02 833.204 1461.8 833.117 1461.57 833.042C1456.63 831.376 1451.55 830.153 1446.39 829.387C1439.16 828.026 1431.8 827.47 1424.45 827.728C1417.05 828.143 1409.56 829.878 1403.41 833.495C1397.26 837.112 1392.58 842.695 1391.72 848.795L1390.13 848.581C1360.63 835.505 1362.35 834.597 1337.96 813.462C1330.13 806.662 1322.82 799.093 1317.66 790.087C1314.07 783.945 1311.79 777.126 1310.97 770.059C1310.61 766.799 1310.65 763.507 1311.11 760.259C1312.55 751.274 1316.87 742.998 1323.41 736.672C1327.83 732.245 1333.03 728.667 1338.75 726.115C1346.4 722.804 1354.61 720.984 1362.95 720.753C1367.45 720.586 1371.96 720.763 1376.44 721.282C1378.89 721.571 1381.33 721.937 1383.74 722.398C1394.84 724.498 1405.54 728.225 1416.08 732.379C1417.49 732.94 1418.91 733.502 1420.32 734.064C1422.61 735.001 1424.9 735.926 1427.17 736.864C1432.79 739.177 1437.65 741.468 1442.02 743.65Z" fill="#171717"/>
<path d="M1461.37 753.501L1519.03 751.925C1488.49 761.619 1475.44 759.881 1461.37 753.501Z" fill="url(#paint20_linear_297_2625)"/>
<path d="M1459.44 447.987L1459.59 448.116C1458.14 449.716 1456.75 451.383 1455.45 453.085C1445.49 466.025 1439.45 481.592 1435.61 497.44C1434.04 503.933 1432.49 511.057 1427.27 515.206C1423.26 518.393 1417.91 519.144 1412.88 520.112C1411.19 520.44 1409.5 520.807 1407.82 521.227L1407.7 520.727L1377.39 506.286L1377.29 506.381C1356.27 481.929 1333.21 459.591 1307.94 440.425L1308.64 439.513C1314.5 429.63 1320.35 419.752 1326.2 409.879C1329.47 404.363 1332.75 398.838 1336.03 393.305C1336.55 392.423 1337.07 391.542 1337.59 390.661C1378.24 409.364 1419.52 428.212 1459.44 447.987Z" fill="url(#paint21_linear_297_2625)"/>
<path d="M1362.94 720.65V720.755C1354.6 720.986 1346.39 722.806 1338.74 726.118C1333.02 728.669 1327.82 732.247 1323.4 736.674L1322.74 735.49C1310.26 720.586 1297.67 705.786 1284.97 691.09C1286.33 680.214 1287.69 669.342 1289.05 658.474C1313.54 683.348 1340.26 705.473 1362.94 720.65Z" fill="url(#paint22_linear_297_2625)"/>
<path d="M1341.81 320.797L1332.01 330.78L1334.69 344.505L1322.16 338.275L1309.93 345.059L1311.99 331.227L1301.76 321.689L1315.55 319.365L1321.46 306.688L1327.93 319.09L1341.81 320.797Z" fill="#171717"/>
<path d="M1322.74 735.489L1323.4 736.673C1316.86 742.999 1312.54 751.275 1311.1 760.26C1310.65 763.507 1310.6 766.797 1310.96 770.055L1309.46 770.22C1287.06 770.35 1263.88 764.304 1245.07 757.343C1234.76 753.558 1224.72 749.057 1215.03 743.872L1213.96 743.211L1244.6 693.37L1244.93 693.57C1258.27 692.745 1271.6 691.908 1284.93 691.321C1284.95 691.242 1284.96 691.163 1284.97 691.082C1297.67 705.788 1310.26 720.59 1322.74 735.489Z" fill="url(#paint23_linear_297_2625)"/>
<path d="M1305.7 216.7C1307.19 223.757 1302.14 230.881 1295.73 234.187C1289.32 237.493 1281.86 237.857 1274.65 238.162L1171.97 242.468C1162.3 242.868 1138.92 248.081 1130.55 240.874C1119.44 231.303 1139.61 227.624 1147.08 227.959C1152.8 228.213 1158.82 228.632 1163.99 226.159C1156.81 212.259 1163.5 192.985 1177.73 186.5C1191.96 180.015 1210.9 187.645 1216.67 202.185C1212.08 188.485 1218.81 171.931 1231.68 165.344C1244.54 158.757 1261.91 162.957 1270.34 174.683C1278.77 186.409 1277.22 204.222 1266.89 214.31C1273.19 209.846 1280.14 205.62 1287.85 205.132C1295.56 204.644 1304.1 209.128 1305.7 216.7Z" fill="#171717"/>
<path d="M1284.39 299.093L1258.74 304.87L1254.11 330.751L1248.35 305.102L1222.46 300.472L1248.12 294.709L1252.73 268.828L1258.51 294.477L1284.39 299.093Z" fill="url(#paint24_linear_297_2625)"/>
<path d="M1289.05 658.472C1287.69 669.335 1286.33 680.207 1284.97 691.088C1277.45 682.4 1269.9 673.752 1262.32 665.143L1262.06 664.99L1274.87 644.158L1275.22 643.833C1279.72 648.795 1284.33 653.675 1289.05 658.472Z" fill="url(#paint25_linear_297_2625)"/>
<path d="M1284.97 691.088C1284.96 691.167 1284.95 691.246 1284.94 691.327C1271.6 691.914 1258.27 692.751 1244.94 693.576L1244.6 693.376L1262.07 664.994L1262.32 665.147C1269.91 673.751 1277.46 682.398 1284.97 691.088Z" fill="url(#paint26_linear_297_2625)"/>
<path d="M1209.69 606.826C1212.48 602.086 1215.26 597.349 1218.03 592.617C1220.93 587.651 1223.84 582.692 1226.73 577.742L1227.41 577.41C1238.44 599.252 1255.62 622.221 1275.23 643.833L1274.87 644.158L1262.06 664.99L1244.6 693.371L1213.96 743.212L1145.82 854.025V854.17C1117.86 854.319 1089.98 854.488 1062.19 854.677V854.493C1092.9 802.305 1124.6 749.661 1156.07 697.059C1174.09 666.938 1192.04 636.833 1209.69 606.826Z" fill="url(#paint27_linear_297_2625)"/>
<path d="M1245.08 757.346L1244.78 758.146C1232.29 759.967 1220.98 766.536 1213.21 776.484C1205.45 786.432 1201.81 798.994 1203.07 811.553C1197.6 810.454 1191.93 810.877 1186.69 812.776C1181.44 814.675 1176.81 817.977 1173.31 822.323C1169.81 826.668 1167.57 831.891 1166.83 837.423C1166.1 842.954 1166.89 848.581 1169.13 853.693L1169.13 854.049L1145.82 854.173V854.028L1213.97 743.215L1215.04 743.877C1224.72 749.061 1234.76 753.561 1245.08 757.346Z" fill="#171717"/>
<path d="M1218.03 592.619C1215.26 597.347 1212.48 602.083 1209.69 606.828C1192.04 636.834 1174.16 666.911 1156.07 697.06L1155.63 696.793C1148.64 689.032 1142.37 680.649 1136.9 671.748C1092.14 600.078 1073.52 479.339 1072.53 462.214C1108.54 470.797 1143.86 482.103 1178.16 496.036C1187.35 499.769 1196.46 503.696 1205.5 507.815C1208.94 527.122 1214.29 546.04 1221.47 564.288C1223.17 568.599 1225.15 572.974 1227.4 577.413L1226.72 577.745C1223.84 582.697 1220.94 587.655 1218.03 592.619Z" fill="url(#paint28_linear_297_2625)"/>
<path d="M1155.63 696.792L1156.07 697.059C1124.6 749.659 1092.9 802.3 1062.19 854.493V854.677C1051.09 854.754 1040.02 854.834 1028.98 854.917C1021.5 854.979 1013.35 854.804 1007.56 850.057C1000.78 844.502 999.639 834.511 1000.89 825.824C1002.19 816.915 1005.42 808.4 1010.38 800.883C1015.33 793.367 1021.88 787.034 1029.56 782.335C1037.24 777.636 1045.86 774.686 1054.8 773.695C1063.75 772.704 1072.81 773.695 1081.33 776.6C1077.68 766.14 1076.23 755.041 1077.05 743.995C1077.88 732.948 1080.97 722.19 1086.13 712.388C1091.29 702.587 1098.41 693.951 1107.05 687.018C1115.69 680.086 1125.67 675.005 1136.35 672.09L1136.9 671.749C1142.37 680.649 1148.64 689.032 1155.63 696.792Z" fill="#171717"/>
<path d="M1491.5 469.968C1495.2 471.1 1498.98 471.975 1502.8 472.589V472.602C1518.87 475.176 1535.34 473.188 1550.34 466.864C1550.65 466.739 1550.97 466.599 1551.28 466.464C1556.57 464.132 1562.16 460.37 1563.93 455.204C1564.33 454.074 1564.52 452.883 1564.51 451.686C1564.46 443.964 1556.27 439.218 1549.13 436.306C1532.11 429.358 1513.63 423.606 1495.56 426.996C1481.64 429.613 1469.15 437.596 1459.59 448.119C1458.14 449.719 1456.75 451.385 1455.45 453.088C1445.5 466.028 1439.45 481.595 1435.61 497.442C1434.05 503.935 1432.49 511.059 1427.27 515.208C1423.26 518.396 1417.91 519.147 1412.88 520.115C1411.19 520.443 1409.5 520.809 1407.82 521.23C1402.83 522.438 1397.92 523.992 1393.14 525.88C1378.84 531.406 1365.78 539.743 1354.76 550.399C1343.73 561.054 1334.95 573.812 1328.93 587.919C1322.92 602.025 1319.79 617.194 1319.74 632.529C1319.69 647.864 1322.71 663.054 1328.63 677.201" stroke="#171717" stroke-width="3.953" stroke-linecap="round" stroke-linejoin="round"/>
<path d="M1564.25 455.311C1572.59 466.143 1573.45 481.53 1568.65 494.329C1568.11 495.756 1567.5 497.151 1566.8 498.508C1561.1 509.808 1549.9 520.508 1540.04 527.663" stroke="#171717" stroke-width="3.953" stroke-linecap="round" stroke-linejoin="round"/>
<path d="M1327.97 678.466C1328.2 678.052 1328.42 677.625 1328.64 677.211C1337.61 660.524 1346.58 643.846 1355.54 627.178C1356.49 625.418 1357.45 623.63 1358.45 621.868C1363.18 613.552 1368.78 605.568 1377.24 601.443C1386.13 597.107 1395.94 597.969 1405.95 599.327C1414.36 600.484 1422.92 601.993 1431.17 601.072C1445.65 599.472 1458.66 590.113 1466.3 577.726C1468.59 574.026 1470.24 569.965 1471.17 565.716C1471.98 562.009 1472.39 558.227 1472.4 554.434C1472.38 548.758 1472.08 543.086 1471.49 537.44C1501.91 530.317 1505.39 498.148 1502.61 473.659" stroke="#171717" stroke-width="3.953" stroke-linecap="round" stroke-linejoin="round"/>
<path d="M1540.04 527.663C1540.22 527.501 1540.39 527.326 1540.57 527.151C1548.16 519.864 1552.21 509.416 1553.33 498.94C1554.49 488.212 1552.78 477.391 1550.35 466.889" stroke="#171717" stroke-width="3.953" stroke-linecap="round" stroke-linejoin="round"/>
<path d="M1544.19 486.636C1543.76 485.765 1543.11 485.024 1542.3 484.488C1541.49 483.952 1540.55 483.642 1539.58 483.588C1538.61 483.535 1537.65 483.74 1536.78 484.183C1535.92 484.626 1535.19 485.291 1534.66 486.11" stroke="#171717" stroke-width="2.635" stroke-linecap="round" stroke-linejoin="round"/>
<path d="M1517.76 486.672C1517.44 485.887 1516.91 485.21 1516.22 484.722C1515.53 484.235 1514.72 483.958 1513.87 483.925C1513.01 483.842 1512.13 483.997 1511.35 484.372C1510.56 484.747 1509.89 485.329 1509.41 486.055" stroke="#171717" stroke-width="2.635" stroke-linecap="round" stroke-linejoin="round"/>
<path d="M1528.9 499.867C1528.99 500.137 1529.13 500.385 1529.33 500.592C1529.52 500.799 1529.76 500.962 1530.02 501.067C1530.54 501.319 1531.1 501.439 1531.62 501.69C1532.19 501.962 1532.68 502.368 1533.05 502.873C1533.43 503.378 1533.67 503.968 1533.77 504.589C1533.86 505.211 1533.8 505.846 1533.59 506.439C1533.38 507.032 1533.03 507.565 1532.57 507.991C1532.11 508.417 1531.55 508.724 1530.94 508.884C1530.33 509.044 1529.7 509.053 1529.08 508.91C1528.47 508.766 1527.9 508.476 1527.43 508.062C1526.96 507.649 1526.59 507.126 1526.37 506.539" stroke="#171717" stroke-width="2.635" stroke-linecap="round" stroke-linejoin="round"/>
<path d="M1518.89 522.283C1518.46 522.853 1517.87 523.29 1517.21 523.545C1516.54 523.8 1515.81 523.862 1515.11 523.725C1513.7 523.423 1512.46 522.592 1511.65 521.403C1510.85 520.225 1510.29 518.899 1510.01 517.503" stroke="#171717" stroke-width="2.635" stroke-linecap="round" stroke-linejoin="round"/>
<path d="M1540.49 527.073C1536.41 529.84 1533.04 533.525 1530.64 537.834C1528.24 542.143 1526.89 546.954 1526.69 551.88" stroke="#171717" stroke-width="3.953" stroke-linecap="round" stroke-linejoin="round"/>
<path d="M1473.66 554.446C1491.33 553.604 1509.01 552.753 1526.69 551.892L1537.39 551.377C1539.08 551.299 1541.03 551.322 1542.15 552.589C1543.15 553.739 1543.08 555.455 1542.95 556.973C1542.75 559.244 1542.55 561.503 1542.35 563.773C1542.32 564.704 1542.13 565.623 1541.78 566.487C1541.62 566.85 1541.39 567.177 1541.1 567.451C1540.04 568.463 1538.4 568.461 1536.93 568.401C1515.21 567.555 1493.48 566.704 1471.76 565.848" stroke="#171717" stroke-width="3.953" stroke-linecap="round" stroke-linejoin="round"/>
<path d="M1541.09 566.452C1541.32 566.46 1541.56 566.481 1541.78 566.489C1559.14 567.372 1576.4 563.381 1591.61 554.968C1606.83 546.555 1619.38 534.054 1627.86 518.879C1638.63 499.608 1642.09 477.548 1643.47 455.285C1643.96 447.129 1644.18 438.967 1644.37 430.885" stroke="#171717" stroke-width="3.953" stroke-linecap="round" stroke-linejoin="round"/>
<path d="M1610.8 627.378C1628.9 627.054 1643.41 616.055 1655.73 602.786C1675.95 581.025 1687.87 552.609 1694.12 523.568C1698.6 502.711 1700.32 481.415 1701.15 460.06C1701.23 458.213 1701.31 456.354 1701.36 454.494C1701.58 447.978 1701.73 441.464 1701.86 434.951" stroke="#171717" stroke-width="3.953" stroke-linecap="round" stroke-linejoin="round"/>
<path d="M1644.25 430.609C1644.3 430.609 1644.34 430.619 1644.39 430.619C1646.82 430.789 1649.24 430.959 1651.67 431.119C1667.41 432.219 1683.17 433.313 1698.93 434.401C1699.87 434.459 1700.79 434.531 1701.73 434.589" stroke="#171717" stroke-width="3.953" stroke-linecap="round" stroke-linejoin="round"/>
<path d="M1407.85 597.981C1407.21 598.417 1406.57 598.866 1405.95 599.327C1389.73 611.089 1376.73 627.527 1369.9 646.327C1369.3 647.947 1368.76 649.581 1368.27 651.227C1361.84 672.708 1365.45 701.686 1376.43 721.289C1376.49 721.389 1376.55 721.497 1376.6 721.601" stroke="#171717" stroke-width="3.953" stroke-linecap="round" stroke-linejoin="round"/>
<path d="M1651.7 430.64C1647.33 426.037 1643.35 421.078 1639.81 415.815C1637.9 413.236 1636.49 410.315 1635.68 407.209C1635.5 406.334 1635.42 405.444 1635.43 404.552C1635.66 400.935 1637.22 397.53 1639.82 395.005C1641.59 393.231 1643.58 391.689 1645.74 390.419C1646.66 389.844 1647.6 389.296 1648.55 388.761C1649.37 388.295 1650.21 387.842 1651.04 387.402C1654.49 385.453 1658.19 383.986 1662.04 383.044C1664.03 382.503 1666.13 382.488 1668.13 383.001C1669.12 383.275 1670.02 383.822 1670.72 384.58C1671.41 385.337 1671.89 386.276 1672.08 387.288C1672.1 387.446 1672.12 387.588 1672.12 387.748C1672.17 390.107 1670.35 392.148 1668.59 393.797C1665.5 396.715 1662.24 399.45 1658.84 401.988C1657.1 403.293 1655.12 404.988 1655.44 407.139C1655.78 408.401 1656.5 409.526 1657.51 410.36C1661.17 414.168 1664.18 418.554 1666.41 423.341" stroke="#171717" stroke-width="3.953" stroke-linecap="round" stroke-linejoin="round"/>
<path d="M1651.04 387.428V387.4C1651.11 385.513 1651.2 383.613 1651.28 381.727C1651.93 366.439 1652.57 351.15 1653.21 335.862C1653.19 334.088 1653.43 332.32 1653.92 330.614C1654.17 329.761 1654.6 328.97 1655.17 328.292C1655.75 327.614 1656.46 327.064 1657.26 326.678C1660.07 325.508 1663.4 327.411 1664.87 330.078C1666.34 332.745 1666.43 335.935 1666.48 338.978C1666.57 344.908 1666.67 350.831 1666.77 356.749C1666.83 359.99 1666.88 363.249 1666.94 366.485C1667.01 369.373 1667.66 372.218 1668.87 374.844C1670.07 377.471 1671.8 379.825 1673.94 381.762" stroke="#171717" stroke-width="3.953" stroke-linecap="round" stroke-linejoin="round"/>
<path d="M1700.38 410.368C1700.79 410.384 1701.2 410.335 1701.6 410.222C1703.42 409.654 1704.44 407.759 1705.13 405.965C1707.28 400.265 1707.83 394.096 1708.03 387.989C1708.17 383.821 1708.15 379.551 1706.82 375.601C1705.32 371.101 1698.89 362.533 1694.44 369.301C1693.45 371.099 1692.87 373.091 1692.74 375.138C1692.34 378.152 1692.02 381.216 1691.86 384.291C1691.68 387.655 1691.76 391.029 1692.1 394.381C1692.5 398.113 1693.44 401.768 1694.89 405.232C1695.43 406.671 1696.27 407.978 1697.36 409.064C1698.19 409.82 1699.25 410.278 1700.38 410.368Z" stroke="#171717" stroke-width="3.953" stroke-linecap="round" stroke-linejoin="round"/>
<path d="M1692.1 394.381C1692.2 391.645 1692.16 388.905 1691.98 386.172C1691.94 385.554 1691.9 384.922 1691.86 384.291C1691.47 379.305 1690.62 374.263 1688.04 370.011C1686.44 367.372 1683.57 364.919 1680.56 365.592C1679.65 365.857 1678.8 366.325 1678.1 366.962C1677.39 367.599 1676.83 368.387 1676.47 369.268C1675.79 371.039 1675.38 372.907 1675.27 374.803C1675.03 377.114 1674.82 379.451 1674.69 381.803C1674.57 383.782 1674.51 385.761 1674.55 387.736C1674.5 393.073 1675.42 398.375 1677.26 403.384C1678.04 405.694 1679.37 407.775 1681.15 409.439C1682.71 410.761 1685.97 412.31 1687.8 410.674C1689.33 409.296 1690.14 405.759 1690.67 403.863C1691.53 400.771 1692 397.587 1692.1 394.381Z" stroke="#171717" stroke-width="3.953" stroke-linecap="round" stroke-linejoin="round"/>
<path d="M1700.38 410.406C1699.91 418.406 1699.43 426.404 1698.93 434.398C1698.93 434.53 1698.93 434.661 1698.92 434.793" stroke="#171717" stroke-width="3.953" stroke-linecap="round" stroke-linejoin="round"/>
<path d="M1519.6 751.738C1519.4 751.795 1519.22 751.865 1519.03 751.923C1488.48 761.623 1475.44 759.881 1461.37 753.5C1455.53 750.862 1449.53 747.411 1442.02 743.651C1437.65 741.469 1432.79 739.177 1427.16 736.864C1424.89 735.926 1422.6 735.004 1420.31 734.065C1418.9 733.503 1417.48 732.941 1416.07 732.378C1405.53 728.225 1394.84 724.497 1383.73 722.398C1381.33 721.938 1378.88 721.57 1376.43 721.282C1371.96 720.764 1367.45 720.587 1362.94 720.752C1354.61 720.983 1346.39 722.804 1338.74 726.115C1333.02 728.667 1327.82 732.245 1323.4 736.672C1316.86 742.999 1312.54 751.274 1311.1 760.259C1310.65 763.506 1310.6 766.797 1310.96 770.055C1311.79 777.121 1314.06 783.941 1317.66 790.082C1322.81 799.088 1330.12 806.66 1337.96 813.457C1362.35 834.593 1360.63 835.502 1390.12 848.576" stroke="#171717" stroke-width="3.953" stroke-linecap="round" stroke-linejoin="round"/>
<path d="M1479.81 851.349C1479.57 850.419 1479.31 849.568 1479.15 848.926C1477.93 844.157 1474.34 839.94 1469.79 836.997C1467.42 835.49 1464.89 834.247 1462.25 833.291C1462.02 833.204 1461.8 833.117 1461.57 833.042C1456.63 831.376 1451.55 830.153 1446.39 829.387C1439.16 828.027 1431.8 827.47 1424.45 827.728C1417.05 828.143 1409.56 829.878 1403.41 833.495C1397.26 837.112 1392.59 842.695 1391.72 848.795C1391.54 850.054 1391.54 851.334 1391.74 852.59C1392.09 855.041 1393.38 857.261 1395.33 858.782C1398.16 860.947 1402.23 861.62 1406.12 862.008C1413.17 862.721 1420.32 862.808 1427.45 862.902C1440.09 863.082 1452.8 863.246 1465.46 862.095C1467.53 861.904 1470.7 861.859 1473.62 861.36C1476.48 860.875 1479.08 859.946 1480.13 858.038C1481.02 856.436 1480.44 853.629 1479.81 851.349Z" stroke="#171717" stroke-width="3.953" stroke-linecap="round" stroke-linejoin="round"/>
<path d="M1462.35 833.025C1478.22 812.508 1489.09 780.557 1507.29 762.069C1509.84 759.481 1514.59 756.252 1520.87 752.818C1534.13 745.769 1548.05 740.026 1562.42 735.669C1573.98 731.994 1585.86 729.443 1597.91 728.051C1602.76 727.52 1607.64 727.327 1612.51 727.475C1625.08 727.919 1638.11 731.886 1646.78 741.01C1658.52 753.388 1659.46 772.265 1658.79 789.31C1658.33 800.944 1657.4 812.681 1653.9 823.79C1653.26 825.833 1652.53 827.853 1651.69 829.836C1650.49 832.731 1649.07 835.529 1647.44 838.208C1644.17 843.686 1639.84 848.456 1634.71 852.237C1633.73 852.945 1632.73 853.6 1631.72 854.202C1625.14 858.184 1617.69 860.379 1609.97 861.658C1604.18 862.562 1598.35 863.141 1592.5 863.392C1555.62 865.374 1515.29 863.94 1473.69 861.771" stroke="#171717" stroke-width="3.953" stroke-linecap="round" stroke-linejoin="round"/>
<path d="M1420.37 733.947L1445.39 607.807" stroke="#171717" stroke-width="3.953" stroke-linecap="round" stroke-linejoin="round"/>
<path d="M1614.23 600.629L1445.39 607.807" stroke="#171717" stroke-width="3.953" stroke-linecap="round" stroke-linejoin="round"/>
<path d="M1597.83 727.209L1605.98 664.323L1610.77 627.381L1614.23 600.629" stroke="#171717" stroke-width="3.953" stroke-linecap="round" stroke-linejoin="round"/>
<path d="M1440.97 743.727L1442.02 743.651L1562.35 735.433" stroke="#171717" stroke-width="3.953" stroke-linecap="round" stroke-linejoin="round"/>
<path d="M1461.04 753.505L1461.37 753.499L1519.03 751.923L1520.54 751.875" stroke="#171717" stroke-width="3.953" stroke-linecap="round" stroke-linejoin="round"/>
<path d="M1614.23 600.628L1605.46 596.791" stroke="#171717" stroke-width="3.953" stroke-linecap="round" stroke-linejoin="round"/>
<path d="M1445.39 607.807L1441.29 604.8" stroke="#171717" stroke-width="3.953" stroke-linecap="round" stroke-linejoin="round"/>
<path d="M1605.46 596.791L1441.29 604.799" stroke="#171717" stroke-width="3.953" stroke-linecap="round" stroke-linejoin="round"/>
<path d="M1416.15 732.183L1441.29 604.8" stroke="#171717" stroke-width="3.953" stroke-linecap="round" stroke-linejoin="round"/>
<path d="M1605.88 664.39C1605.92 664.362 1605.94 664.349 1605.98 664.321C1627.88 649.258 1653.61 642.199 1679.95 645.803C1706.32 649.403 1731.27 665.125 1743.88 688.58C1756.23 711.552 1755.7 740.954 1742.52 763.48C1756.94 749.557 1781.31 749.37 1798.14 760.238C1814.98 771.106 1824.63 790.908 1826.88 810.823C1829.13 830.738 1824.78 850.855 1818.53 869.892" stroke="#171717" stroke-width="3.953" stroke-linecap="round" stroke-linejoin="round"/>
<path d="M1362.94 720.65C1340.26 705.473 1313.54 683.349 1289.05 658.47C1284.33 653.686 1279.72 648.808 1275.22 643.834C1255.62 622.224 1238.43 599.253 1227.4 577.41C1225.15 572.98 1223.18 568.605 1221.47 564.285C1214.28 546.037 1208.93 527.12 1205.5 507.813C1198.35 467.881 1199.39 426.913 1208.55 387.395C1244.95 399.445 1278.01 417.7 1307.94 440.425C1333.21 459.591 1356.27 481.925 1377.28 506.382C1382.67 512.64 1387.91 519.029 1393.01 525.55" stroke="#171717" stroke-width="3.953" stroke-linecap="round" stroke-linejoin="round"/>
<path d="M1155.63 696.793C1148.64 689.032 1142.37 680.649 1136.9 671.748C1092.14 600.078 1073.52 479.339 1072.53 462.214C1108.54 470.797 1143.86 482.103 1178.16 496.036C1187.35 499.769 1196.46 503.696 1205.5 507.815C1205.94 508.004 1206.38 508.204 1206.82 508.405" stroke="#171717" stroke-width="3.953" stroke-linecap="round" stroke-linejoin="round"/>
<path d="M1309.47 770.221C1287.07 770.352 1263.88 764.305 1245.08 757.345C1234.76 753.559 1224.72 749.058 1215.03 743.874" stroke="#171717" stroke-width="3.953" stroke-linecap="round" stroke-linejoin="round"/>
<path d="M1308.65 439.514C1314.5 429.631 1320.35 419.752 1326.2 409.879C1329.48 404.364 1332.75 398.839 1336.03 393.306C1336.55 392.424 1337.07 391.542 1337.59 390.661" stroke="#171717" stroke-width="3.953" stroke-linecap="round" stroke-linejoin="round"/>
<path d="M1062.19 854.492C1092.9 802.3 1124.6 749.659 1156.07 697.058C1174.09 666.938 1191.96 636.861 1209.69 606.826C1212.48 602.086 1215.26 597.349 1218.03 592.617C1220.94 587.651 1223.84 582.692 1226.73 577.742" stroke="#171717" stroke-width="3.953" stroke-linecap="round" stroke-linejoin="round"/>
<path d="M1145.82 854.024L1213.96 743.212L1244.6 693.371L1262.06 664.99L1274.87 644.159" stroke="#171717" stroke-width="3.953" stroke-linecap="round" stroke-linejoin="round"/>
<path d="M1635.2 407.313C1622.49 428.959 1608.44 449.041 1595.77 471.727C1588.1 482.442 1581.72 491.808 1575.45 502.572" stroke="#171717" stroke-width="3.953" stroke-linecap="round" stroke-linejoin="round"/>
<path d="M1651.34 381.637C1651.31 381.663 1651.3 381.704 1651.28 381.73C1649.23 384.493 1647.38 387.396 1645.74 390.42C1645.64 390.594 1645.55 390.78 1645.46 390.953" stroke="#171717" stroke-width="3.953" stroke-linecap="round" stroke-linejoin="round"/>
<path d="M1711.55 285.576C1696.18 308.955 1681.34 332.679 1667.02 356.747" stroke="#171717" stroke-width="3.953" stroke-linecap="round" stroke-linejoin="round"/>
<path d="M1566.8 498.508C1569.69 499.866 1572.58 501.221 1575.45 502.573" stroke="#171717" stroke-width="3.953" stroke-linecap="round" stroke-linejoin="round"/>
<path d="M1337.59 390.66C1378.24 409.36 1419.52 428.212 1459.44 447.987" stroke="#171717" stroke-width="3.953" stroke-linecap="round" stroke-linejoin="round"/>
<path d="M1377.39 506.288L1407.7 520.729" stroke="#171717" stroke-width="3.953" stroke-linecap="round" stroke-linejoin="round"/>
<path d="M1701.42 460.068L1775.73 326.938" stroke="#171717" stroke-width="3.953" stroke-linecap="round" stroke-linejoin="round"/>
<path d="M1711.55 285.576L1648.88 249.453" stroke="#171717" stroke-width="3.953" stroke-linecap="round" stroke-linejoin="round"/>
<path d="M1775.73 326.938L1838.51 368.33" stroke="#171717" stroke-width="3.953" stroke-linecap="round" stroke-linejoin="round"/>
<path d="M1827.11 149.036L1648.88 249.453" stroke="#171717" stroke-width="3.953" stroke-linecap="round" stroke-linejoin="round"/>
<path d="M1838.51 368.33L1827.12 149.036" stroke="#171717" stroke-width="3.953" stroke-linecap="round" stroke-linejoin="round"/>
<path d="M1470.17 174.001C1450.67 180.313 1433.82 194.013 1422.93 211.375C1416.58 221.519 1412.13 233.256 1412.63 245.225C1413.11 256.574 1418.05 267.43 1425.04 276.38C1441.61 297.598 1470.46 308.46 1496.91 303.428C1523.35 298.396 1546.21 277.728 1553.82 251.894C1560.34 229.846 1555.91 198.157 1538.02 181.95C1521.94 167.384 1489.35 167.795 1470.17 174.001Z" stroke="#171717" stroke-width="3.953" stroke-linecap="round" stroke-linejoin="round"/>
<path d="M1531.65 209.564C1526.83 210.543 1522.54 213.227 1519.55 217.122C1516.72 221.086 1515.86 226.561 1517.98 230.928C1520.11 235.295 1525.51 238.009 1530.14 236.521C1534.77 235.033 1537.51 229.003 1535.08 224.787" stroke="#171717" stroke-width="3.953" stroke-linecap="round" stroke-linejoin="round"/>
<path d="M1485.67 205.542C1486.99 204.325 1488.67 203.565 1490.45 203.373C1492.24 203.181 1494.04 203.568 1495.59 204.476C1497.14 205.384 1498.36 206.765 1499.07 208.417C1499.77 210.069 1499.93 211.904 1499.52 213.652C1499.1 215.4 1498.14 216.969 1496.76 218.127C1495.39 219.286 1493.68 219.974 1491.89 220.09C1490.1 220.205 1488.31 219.742 1486.8 218.769C1485.29 217.796 1484.14 216.364 1483.5 214.684" stroke="#171717" stroke-width="3.953" stroke-linecap="round" stroke-linejoin="round"/>
<path d="M1457.85 239.927C1466.97 240.95 1473.43 251.876 1469.96 260.348C1466.48 268.82 1454.19 272.06 1447 266.381C1439.8 260.717 1440.06 248.02 1447.48 242.648" stroke="#171717" stroke-width="3.953" stroke-linecap="round" stroke-linejoin="round"/>
<path d="M1511.8 274.913C1515.89 275.213 1518.91 280.105 1517.36 283.896C1515.81 287.687 1510.21 289.063 1507.08 286.405C1503.96 283.747 1504.39 278.005 1507.89 275.856" stroke="#171717" stroke-width="3.953" stroke-linecap="round" stroke-linejoin="round"/>
<path d="M1705.26 146.575C1711.34 140.904 1710.04 129.401 1702.86 125.226C1695.68 121.051 1685.02 125.65 1683.14 133.757C1685.19 121.587 1685.06 108.148 1677.97 98.0386C1670.87 87.9296 1654.9 83.5826 1645.87 92.0076C1638.36 99.0276 1638.7 110.974 1640.84 121.048C1638.87 111.616 1628.59 104.795 1619.14 106.666C1609.69 108.537 1602.77 118.759 1604.57 128.222C1598.15 126.652 1591.02 125.27 1585.25 128.482C1574.87 134.262 1580.71 142.182 1588.5 143.855C1600.77 146.481 1615.92 144.496 1628.5 144.781C1641.47 145.086 1654.45 145.39 1667.43 145.693C1673.43 145.834 1701.28 150.274 1705.26 146.575Z" stroke="#171717" stroke-width="3.953" stroke-linecap="round" stroke-linejoin="round"/>
<path d="M1274.65 238.159C1281.85 237.859 1289.32 237.49 1295.73 234.184C1302.14 230.878 1307.18 223.754 1305.7 216.697C1304.1 209.128 1295.57 204.64 1287.84 205.129C1280.12 205.618 1273.19 209.845 1266.88 214.307C1277.21 204.219 1278.77 186.407 1270.33 174.68C1261.9 162.953 1244.53 158.755 1231.67 165.341C1218.81 171.927 1212.08 188.486 1216.66 202.182C1210.9 187.642 1191.97 180.011 1177.73 186.497C1163.48 192.983 1156.8 212.254 1163.98 226.156C1158.82 228.631 1152.8 228.212 1147.07 227.956C1139.61 227.621 1119.43 231.3 1130.54 240.871C1138.91 248.078 1162.3 242.864 1171.96 242.465L1274.65 238.159Z" stroke="#171717" stroke-width="3.953" stroke-linecap="round" stroke-linejoin="round"/>
<path d="M1136.35 672.09C1125.66 675.004 1115.69 680.086 1107.05 687.018C1098.41 693.951 1091.29 702.587 1086.13 712.388C1080.97 722.19 1077.88 732.949 1077.05 743.995C1076.22 755.042 1077.68 766.14 1081.32 776.601C1072.8 773.698 1063.75 772.707 1054.8 773.699C1045.86 774.691 1037.24 777.641 1029.56 782.34C1021.88 787.039 1015.34 793.371 1010.38 800.886C1005.43 808.402 1002.19 816.916 1000.9 825.824C999.643 834.51 1000.79 844.5 1007.57 850.056C1013.35 854.804 1021.5 854.978 1028.99 854.917C1040.03 854.829 1051.1 854.749 1062.19 854.677C1089.97 854.477 1117.85 854.308 1145.83 854.17L1169.14 854.046C1243.18 853.66 1317.46 853.323 1390.69 852.757" stroke="#171717" stroke-width="3.953" stroke-linecap="round" stroke-linejoin="round"/>
<path d="M1609.52 861.638C1609.67 861.648 1609.82 861.644 1609.97 861.654C1631.45 862.532 1652.93 863.401 1674.41 864.262C1722.45 866.223 1770.49 868.174 1818.52 870.116C1839.16 870.948 1859.81 871.784 1880.45 872.624" stroke="#171717" stroke-width="3.953" stroke-linecap="round" stroke-linejoin="round"/>
<path d="M1321.46 306.688L1327.93 319.09L1341.81 320.797L1332.01 330.78L1334.69 344.505L1322.16 338.275L1309.93 345.059L1311.99 331.227L1301.76 321.689L1315.55 319.365L1321.46 306.688Z" stroke="#171717" stroke-width="3.953" stroke-linecap="round" stroke-linejoin="round"/>
<path d="M1548.69 289.444L1552.61 296.974L1561.03 297.999L1555.09 304.063L1556.71 312.395L1549.12 308.61L1541.68 312.73L1542.93 304.333L1536.73 298.541L1545.09 297.141L1548.69 289.444Z" stroke="url(#paint29_linear_297_2625)" stroke-width="3.953" stroke-linecap="round" stroke-linejoin="round"/>
<path d="M1638.1 238.992L1645.61 272.378L1679.3 278.389L1645.91 285.893L1639.9 319.581L1632.4 286.194L1598.71 280.184L1632.1 272.679L1638.1 238.992Z" stroke="#171717" stroke-width="3.953" stroke-linecap="round" stroke-linejoin="round"/>
<path d="M1252.73 268.828L1258.51 294.477L1284.39 299.093L1258.74 304.87L1254.11 330.751L1248.35 305.102L1222.46 300.472L1248.12 294.709L1252.73 268.828Z" stroke="#171717" stroke-width="3.953" stroke-linecap="round" stroke-linejoin="round"/>
<path d="M1580.41 391.771C1577.69 389.443 1575.18 386.874 1572.91 384.096C1571.1 381.909 1569.45 379.593 1567.97 377.168" stroke="url(#paint30_linear_297_2625)" stroke-width="3.953" stroke-linecap="round" stroke-linejoin="round"/>
<path d="M1567.44 392.52C1569.11 389.616 1570.94 386.803 1572.92 384.096C1574.39 382.047 1575.95 380.075 1577.59 378.154" stroke="url(#paint31_linear_297_2625)" stroke-width="3.953" stroke-linecap="round" stroke-linejoin="round"/>
<path d="M1378.56 245.544C1376.67 242.657 1374.49 239.968 1372.06 237.519C1370.23 235.645 1368.26 233.917 1366.16 232.352" stroke="url(#paint32_linear_297_2625)" stroke-width="3.953" stroke-linecap="round" stroke-linejoin="round"/>
<path d="M1365.87 244.8C1370.59 240.12 1374.44 234.64 1377.25 228.614" stroke="url(#paint33_linear_297_2625)" stroke-width="3.953" stroke-linecap="round" stroke-linejoin="round"/>
<path d="M1166.42 428.821C1162.73 425.821 1159.04 422.823 1155.36 419.828C1152.73 417.686 1150.11 415.543 1147.48 413.414" stroke="#171717" stroke-width="3.953" stroke-linecap="round" stroke-linejoin="round"/>
<path d="M1148.53 431.038C1150.81 427.298 1153.08 423.562 1155.36 419.828C1158.23 415.114 1161.1 410.402 1163.98 405.693" stroke="#171717" stroke-width="3.953" stroke-linecap="round" stroke-linejoin="round"/>
<path d="M1775.62 592.061C1772.74 587.947 1769.87 583.842 1767 579.746C1764.11 575.606 1761.22 571.467 1758.31 567.328" stroke="#171717" stroke-width="3.953" stroke-linecap="round" stroke-linejoin="round"/>
<path d="M1757.11 590.76C1760.42 587.088 1763.71 583.417 1767 579.747C1770.31 576.075 1773.6 572.408 1776.89 568.747" stroke="#171717" stroke-width="3.953" stroke-linecap="round" stroke-linejoin="round"/>
<path d="M1807.6 733.695C1806.11 731.449 1804.61 729.202 1803.14 726.955C1800.77 723.396 1798.4 719.833 1796.05 716.266" stroke="#171717" stroke-width="3.953" stroke-linecap="round" stroke-linejoin="round"/>
<path d="M1795.55 735.822L1803.14 726.955C1805.74 723.904 1808.35 720.854 1810.96 717.805" stroke="#171717" stroke-width="3.953" stroke-linecap="round" stroke-linejoin="round"/>
<path d="M1083.67 642.848C1080.82 638.952 1077.57 635.375 1073.95 632.178C1071.63 630.102 1069.16 628.197 1066.57 626.478" stroke="url(#paint34_linear_297_2625)" stroke-width="3.953" stroke-linecap="round" stroke-linejoin="round"/>
<path d="M1066.61 643.623C1069.05 639.813 1071.5 635.998 1073.95 632.178C1075.6 629.625 1077.23 627.085 1078.87 624.53" stroke="url(#paint35_linear_297_2625)" stroke-width="3.953" stroke-linecap="round" stroke-linejoin="round"/>
<path d="M1463.81 418.541C1461.39 415.932 1458.98 413.319 1456.58 410.702C1454.22 408.145 1451.86 405.602 1449.51 403.045" stroke="#171717" stroke-width="3.953" stroke-linecap="round" stroke-linejoin="round"/>
<path d="M1449.82 416.994C1452.29 415.145 1454.56 413.035 1456.58 410.701C1458.92 408.006 1460.91 405.026 1462.5 401.832" stroke="#171717" stroke-width="3.953" stroke-linecap="round" stroke-linejoin="round"/>
<path d="M1522.33 661.415C1520.36 663.527 1518.94 666.094 1518.21 668.887C1516.73 673.493 1516.03 678.741 1518.35 682.972C1521.7 689.143 1530.85 690.561 1536.71 686.687C1539.31 684.894 1541.3 682.344 1542.41 679.382C1543.52 676.421 1543.69 673.19 1542.9 670.128C1540.77 662.414 1529.35 654.7 1522.33 661.415Z" stroke="url(#paint36_linear_297_2625)" stroke-width="3.953" stroke-linecap="round" stroke-linejoin="round"/>
<path d="M1651.59 829.848C1651.63 829.836 1651.66 829.83 1651.7 829.832C1660.13 828.089 1667.92 831.932 1673.01 838.911C1675.53 842.459 1677 846.643 1677.25 850.985C1677.5 855.328 1676.53 859.655 1674.44 863.471" stroke="#171717" stroke-width="3.953" stroke-linecap="round" stroke-linejoin="round"/>
<path d="M1452.51 852.354C1454.53 845.994 1453.98 839.097 1450.99 833.134" stroke="#171717" stroke-width="3.953" stroke-linecap="round" stroke-linejoin="round"/>
<path d="M1437.15 853.249C1437.2 853.118 1437.24 852.985 1437.28 852.849C1439.48 846.166 1439.09 838.9 1436.2 832.485" stroke="#171717" stroke-width="3.953" stroke-linecap="round" stroke-linejoin="round"/>
<path d="M1421.03 852.371C1422.86 846.147 1422.54 839.486 1420.11 833.471" stroke="#171717" stroke-width="3.953" stroke-linecap="round" stroke-linejoin="round"/>
<path d="M1461.5 833.268C1458 833.405 1454.49 833.343 1450.99 833.081C1446.27 832.781 1441.21 832.31 1436.23 832.026C1430.81 831.594 1425.35 831.694 1419.95 832.326C1419.08 832.451 1418.23 832.601 1417.4 832.778C1413.93 833.379 1410.75 835.113 1408.37 837.711C1406.13 840.396 1405.33 844.448 1407.06 847.48C1409.44 851.643 1415.1 852.269 1419.88 852.413C1420.27 852.431 1420.65 852.435 1421.03 852.44C1426.45 852.609 1431.87 852.766 1437.28 852.855C1442.37 852.955 1447.45 852.997 1452.53 852.937C1461.41 852.845 1470.27 852.463 1479.09 851.537" stroke="#171717" stroke-width="3.953" stroke-linecap="round" stroke-linejoin="round"/>
<path d="M1647.25 838.313C1647.31 838.271 1647.37 838.235 1647.44 838.204C1649.46 837.212 1651.77 836.973 1653.95 837.532C1654.78 837.708 1655.58 838.006 1656.32 838.414C1657.57 839.139 1658.6 840.182 1659.32 841.437C1660.03 842.691 1660.4 844.113 1660.39 845.558C1660.26 848.025 1659.2 850.352 1657.43 852.068C1655.66 853.766 1653.52 855.035 1651.18 855.778C1647.57 857.01 1643.71 857.377 1639.93 856.847C1637.05 856.476 1634.27 855.577 1631.73 854.196C1631.68 854.18 1631.63 854.159 1631.59 854.133" stroke="#171717" stroke-width="3.953" stroke-linecap="round" stroke-linejoin="round"/>
<path d="M1639.76 857.101C1639.81 857.013 1639.87 856.929 1639.93 856.847C1644.06 850.343 1648.74 844.195 1653.9 838.468" stroke="#171717" stroke-width="3.953" stroke-linecap="round" stroke-linejoin="round"/>
<path d="M1209.74 606.892C1209.73 606.866 1209.7 606.854 1209.69 606.828C1200.41 596.755 1190.94 586.581 1181.42 576.461C1170.91 565.282 1160.32 554.145 1149.83 543.268" stroke="#171717" stroke-width="3.953" stroke-linecap="round" stroke-linejoin="round"/>
<path d="M1322.74 735.49C1310.26 720.584 1297.67 705.784 1284.97 691.09C1277.45 682.402 1269.9 673.753 1262.32 665.145" stroke="#171717" stroke-width="3.953" stroke-linecap="round" stroke-linejoin="round"/>
<path d="M1335.4 573.463C1329.86 562.729 1324.14 552.081 1318.23 541.517C1308.21 523.554 1297.68 505.887 1286.64 488.517C1281.61 480.589 1276.48 472.726 1271.24 464.927C1264.62 455.085 1257.86 445.351 1250.94 435.727" stroke="#171717" stroke-width="3.953" stroke-linecap="round" stroke-linejoin="round"/>
<path d="M1369.62 646.224C1366.2 638.168 1362.67 630.159 1359.04 622.196" stroke="#171717" stroke-width="3.953" stroke-linecap="round" stroke-linejoin="round"/>
<path d="M1286.64 488.555C1286.64 488.542 1286.64 488.529 1286.64 488.516C1286.69 474.254 1286.73 459.998 1286.78 445.748" stroke="#171717" stroke-width="3.953" stroke-linecap="round" stroke-linejoin="round"/>
<path d="M1318.2 542.401C1318.21 542.112 1318.21 541.808 1318.22 541.519C1318.67 521.543 1319.12 501.571 1319.57 481.603" stroke="#171717" stroke-width="3.953" stroke-linecap="round" stroke-linejoin="round"/>
<path d="M1357.66 547.609C1358.37 540.424 1358.98 533.228 1359.49 526.021" stroke="#171717" stroke-width="3.953" stroke-linecap="round" stroke-linejoin="round"/>
<path d="M1322.37 605.79C1309.24 607.123 1296.1 608.453 1282.96 609.778" stroke="#171717" stroke-width="3.953" stroke-linecap="round" stroke-linejoin="round"/>
<path d="M1317.93 541.576C1299.35 540.843 1280.18 539.425 1261.58 539.406" stroke="#171717" stroke-width="3.953" stroke-linecap="round" stroke-linejoin="round"/>
<path d="M1286.39 488.206C1265.33 482.806 1243.42 476.763 1222.36 471.368" stroke="#171717" stroke-width="3.953" stroke-linecap="round" stroke-linejoin="round"/>
<path d="M1181.9 577.016C1160.76 569.449 1139.2 563.1 1117.33 558" stroke="#171717" stroke-width="3.953" stroke-linecap="round" stroke-linejoin="round"/>
<path d="M1181.43 576.553C1181.43 576.526 1181.43 576.487 1181.43 576.461C1179.78 558.543 1179.23 540.541 1179.77 522.556" stroke="#171717" stroke-width="3.953" stroke-linecap="round" stroke-linejoin="round"/>
<path d="M1200.98 621.161C1186.15 621.821 1171.32 622.064 1156.48 621.889" stroke="#171717" stroke-width="3.953" stroke-linecap="round" stroke-linejoin="round"/>
<path d="M1284.94 691.325C1271.6 691.913 1258.27 692.75 1244.94 693.574" stroke="#171717" stroke-width="3.953" stroke-linecap="round" stroke-linejoin="round"/>
<path d="M1284.94 691.326C1284.95 691.247 1284.96 691.167 1284.97 691.087C1286.34 680.211 1287.7 669.338 1289.05 658.47C1289.08 658.22 1289.11 657.982 1289.14 657.73" stroke="#171717" stroke-width="3.953" stroke-linecap="round" stroke-linejoin="round"/>
<path d="M1218.03 592.646V592.619C1217.56 582.919 1216.82 573.208 1215.79 563.556" stroke="#171717" stroke-width="3.953" stroke-linecap="round" stroke-linejoin="round"/>
<path d="M1244.78 758.143C1232.29 759.964 1220.99 766.533 1213.22 776.481C1205.45 786.429 1201.81 798.99 1203.07 811.55C1197.6 810.451 1191.94 810.874 1186.69 812.773C1181.44 814.672 1176.82 817.974 1173.32 822.319C1169.81 826.665 1167.57 831.888 1166.84 837.419C1166.1 842.951 1166.89 848.578 1169.13 853.69" stroke="#171717" stroke-width="3.953" stroke-linecap="round" stroke-linejoin="round"/>
<path d="M1643.71 455.306C1662.61 455.016 1681.52 454.735 1700.43 454.463" stroke="#171717" stroke-width="3.953" stroke-linecap="round" stroke-linejoin="round"/>
<g opacity="0.1">
<path d="M1200.75 391.037C1193.76 416.927 1195.07 445.919 1197.97 472.345C1206.16 549.926 1241.51 622.115 1297.77 676.158C1307.62 685.667 1318.15 694.445 1329.28 702.423C1334.82 706.559 1340.71 710.206 1346.88 713.323C1353.23 716.357 1358.92 720.81 1365.86 722.341C1367.31 722.696 1368.83 722.573 1370.2 721.99C1371.57 721.408 1372.72 720.398 1373.47 719.111C1374.22 717.824 1374.53 716.329 1374.36 714.849C1374.19 713.37 1373.55 711.985 1372.52 710.902C1368.58 706.488 1363.38 704.061 1358.91 700.302C1354.47 696.571 1350.02 692.861 1345.51 689.219C1336.41 681.886 1327.44 674.311 1318.88 666.344C1302.35 651.025 1287.48 634.009 1274.5 615.578C1246.04 574.919 1227.93 528.191 1220.56 479.146C1218.56 465.435 1217.48 451.603 1217.34 437.746C1217.14 422.955 1218.46 408.191 1218.34 393.411C1218.26 383.386 1203.42 381.165 1200.76 391.031L1200.75 391.037Z" fill="#171717"/>
</g>
<g opacity="0.1">
<path d="M1411.08 593.468C1399.74 597.443 1390.62 609.078 1384 618.698C1376.94 629.284 1371.87 641.068 1369.04 653.473C1362.67 680.799 1366.54 709.511 1379.92 734.173C1386.6 746.495 1405.29 735.546 1398.7 723.196C1388.18 703.455 1384.3 680.144 1389.07 658.174C1392.8 643.062 1399.44 628.823 1408.62 616.251C1411.98 611.933 1415.98 607.971 1418.49 603.108C1420.91 598.402 1416.82 591.452 1411.08 593.468Z" fill="#171717"/>
</g>
<g opacity="0.1">
<path d="M1613.9 628.913C1626.49 626.913 1638.36 618.199 1647.84 610.078C1657.75 601.436 1666.33 591.375 1673.3 580.223C1689.38 554.923 1696.73 525.341 1699.22 495.723C1700.75 477.645 1700.45 459.412 1699.6 441.305C1699.17 431.953 1684.39 432.005 1685.07 441.305C1687.79 478.524 1686.91 517.687 1672.2 552.599C1666.24 566.942 1657.8 580.119 1647.25 591.521C1642.07 597.125 1636.3 602.15 1630.03 606.508C1623.45 611.017 1616.22 614.308 1609.56 618.633C1603.98 622.264 1607.72 629.895 1613.9 628.913Z" fill="#171717"/>
</g>
<g opacity="0.1">
<path d="M1474.57 552.342C1476.86 549.416 1478.58 546.369 1481.32 543.783C1483.81 541.429 1486.58 539.397 1489.19 537.191C1494.96 532.409 1499.73 526.533 1503.22 519.903C1510.09 506.611 1512.43 490.385 1507.86 475.983C1505.59 468.845 1495.02 471.76 1496.65 479.074C1499.68 492.74 1497.79 506.467 1490.15 518.335C1486.45 524.078 1481.44 528.191 1476.49 532.78C1471.94 536.997 1466.64 542.464 1466.68 549.08C1466.71 552.718 1471.98 555.648 1474.56 552.345L1474.57 552.342Z" fill="#171717"/>
</g>
<g opacity="0.1">
<path d="M1172.86 852.25C1172.55 843.707 1175.84 836.5 1183.29 831.928C1189.7 827.997 1196.43 826.152 1203.67 828.835C1209.92 831.15 1216.01 825.235 1216.17 819.31C1216.49 807.61 1220.01 798.01 1226.22 788.147C1232 778.992 1241.75 775.147 1249.11 767.765C1252.96 763.902 1249.85 758.143 1244.94 757.704C1231.89 756.535 1218.61 767.788 1210.56 777.023C1200.8 788.214 1195.74 804.534 1196.42 819.31L1208.92 809.784C1196.27 807.262 1181.73 809.32 1172.86 819.616C1165.33 828.37 1163.15 842.116 1166.59 853.097C1167.63 856.417 1172.99 855.971 1172.85 852.25H1172.86Z" fill="#171717"/>
</g>
<g opacity="0.1">
<path d="M1480.71 169.066C1467.46 172.477 1454.94 178.255 1443.74 186.122C1431.39 194.822 1421.08 205.022 1414.89 219.09C1408.07 234.584 1407.16 250.572 1414.2 266.128C1420.24 279.463 1431.98 287.962 1444.58 294.575C1452.29 298.616 1461.97 300.593 1470.5 302.256C1478.88 303.891 1487.64 304.571 1496.1 303.202C1499.5 302.651 1498.53 298.246 1496.1 297.235C1492.22 295.62 1488.11 295.06 1484.42 293.244C1480.95 291.532 1476.69 291.1 1473 289.929C1464.57 287.256 1457.74 283.053 1450.46 278.167C1445.01 274.506 1440.79 268.291 1437.39 262.759C1434.08 257.369 1431.42 252.008 1430.85 245.642C1429.35 228.908 1438.96 215.625 1446.92 201.915C1454.75 188.445 1468.45 179.323 1482.45 173.179C1484.84 172.127 1483.1 168.468 1480.71 169.066H1480.71Z" fill="#171717"/>
</g>
</g>
<defs>
<linearGradient id="paint0_linear_297_2625" x1="715.657" y1="242.184" x2="715.657" y2="483.777" gradientUnits="userSpaceOnUse">
<stop stop-color="#FF9A34"/>
<stop offset="1" stop-color="#EB6421"/>
</linearGradient>
<linearGradient id="paint1_linear_297_2625" x1="784.149" y1="812.955" x2="784.149" y2="864.687" gradientUnits="userSpaceOnUse">
<stop stop-color="#FF9A34"/>
<stop offset="1" stop-color="#EB6421"/>
</linearGradient>
<linearGradient id="paint2_linear_297_2625" x1="678.44" y1="798.79" x2="678.44" y2="848.322" gradientUnits="userSpaceOnUse">
<stop stop-color="#FF9A34"/>
<stop offset="1" stop-color="#EB6421"/>
</linearGradient>
<linearGradient id="paint3_linear_297_2625" x1="267.433" y1="202.319" x2="267.433" y2="224.99" gradientUnits="userSpaceOnUse">
<stop stop-color="#FF9A34"/>
<stop offset="1" stop-color="#EB6421"/>
</linearGradient>
<linearGradient id="paint4_linear_297_2625" x1="240.56" y1="152.884" x2="240.56" y2="175.555" gradientUnits="userSpaceOnUse">
<stop stop-color="#FF9A34"/>
<stop offset="1" stop-color="#EB6421"/>
</linearGradient>
<linearGradient id="paint5_linear_297_2625" x1="810.458" y1="577" x2="810.458" y2="588.627" gradientUnits="userSpaceOnUse">
<stop stop-color="#FF9A34"/>
<stop offset="1" stop-color="#EB6421"/>
</linearGradient>
<linearGradient id="paint6_linear_297_2625" x1="774.86" y1="533.263" x2="774.86" y2="541.634" gradientUnits="userSpaceOnUse">
<stop stop-color="#FF9A34"/>
<stop offset="1" stop-color="#EB6421"/>
</linearGradient>
<linearGradient id="paint7_linear_297_2625" x1="-nan" y1="-nan" x2="-nan" y2="-nan" gradientUnits="userSpaceOnUse">
<stop stop-color="#FF9A34"/>
<stop offset="1" stop-color="#EB6421"/>
</linearGradient>
<linearGradient id="paint8_linear_297_2625" x1="829.141" y1="717.969" x2="829.141" y2="730.064" gradientUnits="userSpaceOnUse">
<stop stop-color="#FF9A34"/>
<stop offset="1" stop-color="#EB6421"/>
</linearGradient>
<linearGradient id="paint9_linear_297_2625" x1="790.681" y1="764.492" x2="790.681" y2="777.992" gradientUnits="userSpaceOnUse">
<stop stop-color="#FF9A34"/>
<stop offset="1" stop-color="#EB6421"/>
</linearGradient>
<linearGradient id="paint10_linear_297_2625" x1="725.561" y1="724.018" x2="725.561" y2="736.118" gradientUnits="userSpaceOnUse">
<stop stop-color="#FF9A34"/>
<stop offset="1" stop-color="#EB6421"/>
</linearGradient>
<linearGradient id="paint11_linear_297_2625" x1="689.218" y1="667.255" x2="689.218" y2="677.029" gradientUnits="userSpaceOnUse">
<stop stop-color="#FF9A34"/>
<stop offset="1" stop-color="#EB6421"/>
</linearGradient>
<linearGradient id="paint12_linear_297_2625" x1="726.303" y1="604.905" x2="726.303" y2="612.815" gradientUnits="userSpaceOnUse">
<stop stop-color="#FF9A34"/>
<stop offset="1" stop-color="#EB6421"/>
</linearGradient>
<linearGradient id="paint13_linear_297_2625" x1="696.305" y1="535.739" x2="696.305" y2="545.816" gradientUnits="userSpaceOnUse">
<stop stop-color="#FF9A34"/>
<stop offset="1" stop-color="#EB6421"/>
</linearGradient>
<linearGradient id="paint14_linear_297_2625" x1="1830.37" y1="446.128" x2="1830.37" y2="518.814" gradientUnits="userSpaceOnUse">
<stop stop-color="#FF9A34"/>
<stop offset="1" stop-color="#EB6421"/>
</linearGradient>
<linearGradient id="paint15_linear_297_2625" x1="1743.69" y1="149.034" x2="1743.69" y2="460.068" gradientUnits="userSpaceOnUse">
<stop stop-color="#FF9A34"/>
<stop offset="1" stop-color="#EB6421"/>
</linearGradient>
<linearGradient id="paint16_linear_297_2625" x1="1712.66" y1="644.871" x2="1712.66" y2="870.115" gradientUnits="userSpaceOnUse">
<stop stop-color="#FF9A34"/>
<stop offset="1" stop-color="#EB6421"/>
</linearGradient>
<linearGradient id="paint17_linear_297_2625" x1="1746.37" y1="611.496" x2="1746.37" y2="634.788" gradientUnits="userSpaceOnUse">
<stop stop-color="#FF9A34"/>
<stop offset="1" stop-color="#EB6421"/>
</linearGradient>
<linearGradient id="paint18_linear_297_2625" x1="1644.4" y1="87.5391" x2="1644.4" y2="148.041" gradientUnits="userSpaceOnUse">
<stop stop-color="#FF9A34"/>
<stop offset="1" stop-color="#EB6421"/>
</linearGradient>
<linearGradient id="paint19_linear_297_2625" x1="1589.2" y1="407.214" x2="1589.2" y2="566.608" gradientUnits="userSpaceOnUse">
<stop stop-color="#FF9A34"/>
<stop offset="1" stop-color="#EB6421"/>
</linearGradient>
<linearGradient id="paint20_linear_297_2625" x1="1490.2" y1="751.925" x2="1490.2" y2="758.741" gradientUnits="userSpaceOnUse">
<stop stop-color="#FF9A34"/>
<stop offset="1" stop-color="#EB6421"/>
</linearGradient>
<linearGradient id="paint21_linear_297_2625" x1="1383.77" y1="390.661" x2="1383.77" y2="521.227" gradientUnits="userSpaceOnUse">
<stop stop-color="#FF9A34"/>
<stop offset="1" stop-color="#EB6421"/>
</linearGradient>
<linearGradient id="paint22_linear_297_2625" x1="1323.95" y1="658.474" x2="1323.95" y2="736.674" gradientUnits="userSpaceOnUse">
<stop stop-color="#FF9A34"/>
<stop offset="1" stop-color="#EB6421"/>
</linearGradient>
<linearGradient id="paint23_linear_297_2625" x1="1268.68" y1="691.082" x2="1268.68" y2="770.222" gradientUnits="userSpaceOnUse">
<stop stop-color="#FF9A34"/>
<stop offset="1" stop-color="#EB6421"/>
</linearGradient>
<linearGradient id="paint24_linear_297_2625" x1="1253.43" y1="268.828" x2="1253.43" y2="330.751" gradientUnits="userSpaceOnUse">
<stop stop-color="#FF9A34"/>
<stop offset="1" stop-color="#EB6421"/>
</linearGradient>
<linearGradient id="paint25_linear_297_2625" x1="1275.56" y1="643.833" x2="1275.56" y2="691.088" gradientUnits="userSpaceOnUse">
<stop stop-color="#FF9A34"/>
<stop offset="1" stop-color="#EB6421"/>
</linearGradient>
<linearGradient id="paint26_linear_297_2625" x1="1264.79" y1="664.994" x2="1264.79" y2="693.576" gradientUnits="userSpaceOnUse">
<stop stop-color="#FF9A34"/>
<stop offset="1" stop-color="#EB6421"/>
</linearGradient>
<linearGradient id="paint27_linear_297_2625" x1="1168.71" y1="577.41" x2="1168.71" y2="854.677" gradientUnits="userSpaceOnUse">
<stop stop-color="#FF9A34"/>
<stop offset="1" stop-color="#EB6421"/>
</linearGradient>
<linearGradient id="paint28_linear_297_2625" x1="1149.97" y1="462.214" x2="1149.97" y2="697.06" gradientUnits="userSpaceOnUse">
<stop stop-color="#FF9A34"/>
<stop offset="1" stop-color="#EB6421"/>
</linearGradient>
<linearGradient id="paint29_linear_297_2625" x1="1548.88" y1="289.444" x2="1548.88" y2="312.73" gradientUnits="userSpaceOnUse">
<stop stop-color="#FF9A34"/>
<stop offset="1" stop-color="#EB6421"/>
</linearGradient>
<linearGradient id="paint30_linear_297_2625" x1="1574.19" y1="377.168" x2="1574.19" y2="391.771" gradientUnits="userSpaceOnUse">
<stop stop-color="#FF9A34"/>
<stop offset="1" stop-color="#EB6421"/>
</linearGradient>
<linearGradient id="paint31_linear_297_2625" x1="1572.51" y1="378.154" x2="1572.51" y2="392.52" gradientUnits="userSpaceOnUse">
<stop stop-color="#FF9A34"/>
<stop offset="1" stop-color="#EB6421"/>
</linearGradient>
<linearGradient id="paint32_linear_297_2625" x1="1372.36" y1="232.352" x2="1372.36" y2="245.544" gradientUnits="userSpaceOnUse">
<stop stop-color="#FF9A34"/>
<stop offset="1" stop-color="#EB6421"/>
</linearGradient>
<linearGradient id="paint33_linear_297_2625" x1="1371.56" y1="228.614" x2="1371.56" y2="244.8" gradientUnits="userSpaceOnUse">
<stop stop-color="#FF9A34"/>
<stop offset="1" stop-color="#EB6421"/>
</linearGradient>
<linearGradient id="paint34_linear_297_2625" x1="1075.12" y1="626.478" x2="1075.12" y2="642.848" gradientUnits="userSpaceOnUse">
<stop stop-color="#FF9A34"/>
<stop offset="1" stop-color="#EB6421"/>
</linearGradient>
<linearGradient id="paint35_linear_297_2625" x1="1072.74" y1="624.53" x2="1072.74" y2="643.623" gradientUnits="userSpaceOnUse">
<stop stop-color="#FF9A34"/>
<stop offset="1" stop-color="#EB6421"/>
</linearGradient>
<linearGradient id="paint36_linear_297_2625" x1="1530.12" y1="658.848" x2="1530.12" y2="688.841" gradientUnits="userSpaceOnUse">
<stop stop-color="#FF9A34"/>
<stop offset="1" stop-color="#EB6421"/>
</linearGradient>
</defs>
</svg>
