<svg width="1920" height="960" viewBox="0 0 1920 960" fill="none" xmlns="http://www.w3.org/2000/svg">
<g clip-path="url(#clip0_297_2622)">
<mask id="mask0_297_2622" style="mask-type:luminance" maskUnits="userSpaceOnUse" x="0" y="0" width="960" height="960">
<path d="M960 0H0V960H960V0Z" fill="white"/>
</mask>
<g mask="url(#mask0_297_2622)">
<mask id="mask1_297_2622" style="mask-type:luminance" maskUnits="userSpaceOnUse" x="59" y="38" width="842" height="885">
<path d="M901 38H59V923H901V38Z" fill="white"/>
</mask>
<g mask="url(#mask1_297_2622)">
<path fill-rule="evenodd" clip-rule="evenodd" d="M346.351 781.767C341.072 749.09 340.118 715.628 339.2 682.444C348.176 677.286 355.146 668.564 357.162 658.37C362.908 661.969 369.535 663.918 376.315 664.001C383.095 664.084 389.768 662.299 395.601 658.841C405.99 652.487 411.547 640.347 411.547 628.17C417.609 644.309 423.7 660.605 426.309 677.638C428.942 694.731 427.851 712.864 420.051 728.29C415.157 738.001 407.9 746.159 400.639 754.323C397.593 757.747 394.548 761.171 391.675 764.712C387.523 769.734 383.942 775.2 380.996 781.012L381.286 781.145C386.053 780.194 390.888 779.62 395.746 779.43C418.13 778.52 440.158 785.251 458.212 798.517C467.317 805.335 475.147 813.706 481.345 823.245L481.611 823.064C499.647 796.15 499.985 766.3 488.328 736.064C486.497 731.325 484.308 726.707 482.121 722.093C478.144 713.704 474.174 705.328 472.382 696.264C470.634 687.421 471.055 678.396 471.477 669.352C471.77 663.077 472.063 656.792 471.633 650.553C469.229 615.955 442.821 585.018 409.71 574.666C376.599 564.314 338.727 573.724 312.429 596.35C286.131 618.976 271.332 653.561 270.209 688.243C270.131 690.672 270.113 693.118 270.095 695.567C270.03 704.477 269.965 713.426 267.009 721.765C264.57 728.631 260.333 734.598 256.091 740.572C254.154 743.3 252.215 746.03 250.447 748.848C232.653 777.2 233.39 816.075 252.247 843.726C259.13 832.35 268.025 822.32 278.497 814.126C294.201 801.735 312.514 793.194 331.456 786.526C336.131 784.871 340.855 783.338 345.578 781.887L346.351 781.767ZM426.873 590.327C426.076 589.722 424.939 589.878 424.334 590.675C423.729 591.472 423.885 592.609 424.682 593.214C435.018 601.06 443.402 611.188 449.179 622.808C454.956 634.428 457.971 647.226 457.987 660.203C457.989 661.204 458.801 662.014 459.802 662.012C460.802 662.011 461.613 661.199 461.611 660.198C461.594 646.663 458.45 633.315 452.424 621.195C446.398 609.075 437.654 598.511 426.873 590.327Z" fill="#171717"/>
<path fill-rule="evenodd" clip-rule="evenodd" d="M773.94 565.776C773.833 564.492 773.725 563.195 773.48 561.956C773.325 561.103 773.072 560.27 772.725 559.475C770.019 553.338 761.873 552.372 755.173 552.299C753.486 552.276 751.803 552.259 750.119 552.241C748.861 552.228 747.603 552.215 746.342 552.199C729.566 552.026 712.795 551.849 696.028 551.668L682.559 551.523C678.27 551.475 673.897 551.439 669.778 552.659C666.103 553.622 662.911 555.906 660.815 559.074C660.546 559.533 660.308 560.009 660.102 560.499C659.577 561.755 659.289 563.105 659.002 564.45C658.594 566.365 658.188 568.269 657.102 569.873C655.721 571.771 653.677 573.082 651.376 573.545C649.102 574.054 646.761 574.197 644.442 573.968C641.741 573.751 639.061 573.33 636.383 572.909C632.951 572.369 629.523 571.83 626.056 571.721C619.883 571.528 613.263 572.965 609.035 577.459C605.206 581.518 603.961 587.328 603.297 592.873C602.115 602.765 602.245 612.769 603.684 622.626L603.068 623.58C634.165 643.49 670.374 653.942 707.298 653.667C744.221 653.393 780.27 642.403 811.068 622.033C813.737 613.927 812.457 594.635 807.637 587.677C805.31 584.382 802.296 581.63 798.803 579.611C795.31 577.592 791.42 576.355 787.403 575.983C786.956 575.945 786.497 575.91 786.05 575.897C785.541 575.88 785.022 575.874 784.5 575.867C781.757 575.835 778.92 575.802 776.85 574.097C774.469 572.121 774.208 568.986 773.94 565.776ZM791.774 584.732C790.9 584.245 789.796 584.56 789.309 585.434C788.823 586.308 789.137 587.412 790.011 587.899C798.828 592.808 803.091 604.722 799.392 614.11C799.025 615.041 799.482 616.093 800.413 616.46C801.344 616.827 802.397 616.37 802.763 615.439C807.128 604.361 802.178 590.525 791.774 584.732Z" fill="url(#paint0_linear_297_2622)"/>
<path fill-rule="evenodd" clip-rule="evenodd" d="M479.487 387.109L478.351 386.288C441.533 363.697 398.637 353.025 355.526 355.733C355.368 357.434 354.755 359.062 353.75 360.444C350.948 364.14 345.657 364.599 341.018 364.732C307.346 365.73 273.671 366.725 239.992 367.716C236.38 367.825 232.393 367.813 229.627 365.469C228.84 364.798 228.188 363.983 227.706 363.069L225.706 364.084C193.004 371.045 162.84 386.848 138.5 409.771C161.157 433.072 188.606 451.173 218.948 462.821C249.29 474.468 281.801 479.385 314.23 477.229C346.659 475.074 378.233 465.899 406.767 450.338C435.301 434.778 460.113 413.204 479.487 387.109ZM365.952 368.113C396.402 367.844 426.497 374.663 453.858 388.029C454.757 388.468 455.842 388.095 456.282 387.196C456.721 386.297 456.348 385.212 455.449 384.773C427.583 371.16 396.932 364.216 365.92 364.489C364.919 364.498 364.115 365.316 364.124 366.317C364.132 367.317 364.951 368.121 365.952 368.113Z" fill="url(#paint1_linear_297_2622)"/>
<path d="M787.456 575.501L787.409 575.983C786.962 575.947 786.502 575.911 786.055 575.898C782.866 575.789 779.314 576.127 776.85 574.098C773.516 571.332 774.337 566.298 773.48 561.957C776.344 561.764 779.211 561.575 782.081 561.389C784.775 561.208 787.794 561.135 789.787 562.959C791.623 564.65 791.949 567.525 791.225 569.918C790.501 572.311 788.999 573.542 787.456 575.501Z" fill="url(#paint2_linear_297_2622)"/>
<path d="M769.893 446.47C782.408 450.843 789.463 466.67 784.365 478.905C779.267 491.14 763.032 497.255 751.121 491.42L749.2 491.408C749.381 473.748 748.962 456.095 747.944 438.449C747.57 431.914 746.978 425.004 743.144 419.689C739.194 414.217 732.526 411.475 726.075 409.481C704.163 402.75 680.924 401.559 658.439 406.014C658.475 411.014 658.511 416.011 658.548 421.005C650.793 422.926 642.24 422.43 635.248 418.541C628.205 414.627 623.048 407.029 623.107 398.971C623.166 390.913 629.107 382.989 637.047 381.612C632.916 372.54 631.176 361.873 634.764 352.571C638.352 343.269 648.27 336.071 658.091 337.771C667.513 339.414 673.928 347.971 679.34 355.842C678.591 346.057 686.516 336.647 696.168 334.859C705.82 333.071 716.124 338.448 721.005 346.975C725.886 355.502 725.511 366.534 720.92 375.219C727.685 370.785 735.742 367.91 743.8 368.587C751.858 369.264 759.794 373.939 763.092 381.319C766.39 388.699 763.998 398.557 756.979 402.579C768.262 399.874 781.018 407.254 784.292 418.392C787.566 429.53 780.837 442.641 769.893 446.47Z" fill="#171717"/>
<path d="M660.109 560.494C658.841 563.538 658.961 567.138 657.109 569.868C655.728 571.766 653.684 573.077 651.383 573.54L651.298 573.226C649.571 572.826 645.098 572.296 643.555 571.414C642.761 571.008 642.063 570.439 641.505 569.744C640.947 569.048 640.542 568.242 640.318 567.379C639.811 564.879 641.518 562.33 643.749 561.109C646.073 560.028 648.636 559.566 651.19 559.768C653.734 559.963 656.292 559.865 658.813 559.478L660.813 559.067C660.548 559.527 660.313 560.004 660.109 560.494Z" fill="url(#paint3_linear_297_2622)"/>
<path d="M310.728 118.412C312.021 110.572 313.567 102.466 318.447 96.2207C323.496 89.7697 333.342 86.2667 340.119 90.8817C344.819 94.0817 346.751 100.292 346.232 105.958C345.713 111.624 343.14 116.866 340.409 121.858C345.374 115.878 350.532 109.758 357.43 106.158C364.328 102.558 373.46 102.111 379.367 107.173C386.18 113.032 386.132 124.109 381.723 131.937C377.314 139.765 369.623 145.092 362.202 150.154L363.845 151.422C368.061 152.437 372.422 150.89 376.71 150.19C380.998 149.49 386.181 150.045 388.452 153.754C390.723 157.438 388.742 162.56 385.263 165.133C381.784 167.706 377.278 168.358 372.963 168.833C368.163 169.352 363.371 169.727 358.551 170.005C327.143 171.817 295.42 169.405 264.23 173.714C256.438 174.789 247.886 176.782 243.43 183.257C239.697 188.657 239.83 195.736 240.12 202.295C241.014 223.242 241.912 244.185 242.814 265.124L241.703 265.172C238.055 274.063 224.863 277.107 217.676 270.717C211.032 264.817 211.781 252.899 218.546 247.427C219.198 247.103 219.804 246.693 220.346 246.207C219.711 246.56 219.109 246.968 218.546 247.427C212.276 250.737 203.059 246.727 200.846 239.684C198.539 232.291 203.105 223.932 210.015 220.384C210.355 220.249 210.686 220.091 211.006 219.913C210.668 220.058 210.342 220.213 210.015 220.384C204.7 222.584 197.923 219.744 195.06 214.658C192.028 209.246 192.934 202.215 196.22 196.936C199.506 191.657 204.82 187.948 210.426 185.279C204.326 182.742 201.571 174.951 203.371 168.596C205.171 162.241 210.583 157.41 216.611 154.696C222.639 151.982 229.283 151.084 235.83 150.202C234.115 142.664 234.042 134.534 237.062 127.407C240.082 120.28 246.562 114.385 254.228 113.382C260.836 112.512 267.987 115.931 271.068 121.693C271.366 122.706 271.75 123.692 272.216 124.641C271.955 123.615 271.569 122.625 271.068 121.693C270.159 118.776 269.917 115.692 270.36 112.669C270.803 109.646 271.92 106.761 273.628 104.228C275.337 101.695 277.592 99.5785 280.229 98.0345C282.865 96.4905 285.815 95.5588 288.86 95.3083C291.905 95.0577 294.967 95.4947 297.82 96.587C300.673 97.6793 303.245 99.399 305.344 101.619C307.443 103.839 309.017 106.502 309.948 109.412C310.879 112.322 311.145 115.403 310.725 118.43L310.728 118.412Z" fill="#171717"/>
<path d="M355.533 355.736C355.376 357.438 354.763 359.065 353.757 360.447C350.957 364.147 345.663 364.603 341.025 364.735C307.359 365.726 273.683 366.721 239.999 367.719C236.387 367.828 232.399 367.819 229.634 365.472C228.848 364.801 228.196 363.987 227.713 363.072C226.263 360.366 226.094 356.863 226.07 353.686C226.022 348.733 226.142 343.309 229.344 339.528C232.992 335.24 239.262 334.599 244.879 334.285H245.737C260.112 334.225 274.753 332.727 289.008 331.085C297.367 330.233 305.774 329.951 314.171 330.239C321.649 330.396 329.126 330.722 336.471 330.758C340.288 330.782 344.335 330.867 347.571 332.884C352.488 335.94 353.937 342.306 354.964 347.996C355.518 350.537 355.71 353.142 355.533 355.736Z" fill="url(#paint4_linear_297_2622)"/>
<path d="M331.578 786.851C331.34 800.965 334.223 814.957 340.022 827.827C342.897 834.157 346.522 840.257 351.546 845.077C356.57 849.897 363.107 853.34 370.053 853.714C380.116 854.27 389.816 848.157 395.276 839.689C400.736 831.221 402.391 820.747 401.799 810.689C401.207 800.631 398.489 790.829 395.807 781.117L395.747 779.437C418.132 778.527 440.16 785.258 458.213 798.524C467.318 805.342 475.149 813.713 481.346 823.252C490.006 836.445 495.352 851.534 496.929 867.236L498.173 868.625C463.174 900.33 418.065 918.594 370.867 920.168C323.669 921.743 277.442 906.526 240.408 877.225L240.908 876.608C242.303 864.964 246.17 853.753 252.251 843.726C259.135 832.35 268.03 822.32 278.501 814.126C294.201 801.732 312.519 793.191 331.46 786.526L331.578 786.851Z" fill="url(#paint5_linear_297_2622)"/>
<path d="M297.3 252.561C301.984 253.243 306.763 252.422 310.951 250.217C307.713 234.065 304.476 217.914 301.239 201.764C300.454 197.886 299.739 193.61 301.71 190.179C304.09 186.036 309.441 184.767 314.225 184.465C323.455 183.893 332.694 185.422 341.248 188.935" stroke="#171717" stroke-width="3.624" stroke-linecap="round" stroke-linejoin="round"/>
<path d="M316.031 206.1C318.884 204.681 322.027 203.943 325.214 203.945C328.4 203.947 331.542 204.689 334.393 206.112" stroke="#171717" stroke-width="3.624" stroke-linecap="round" stroke-linejoin="round"/>
<path d="M288.138 208.033C286.651 206.594 284.886 205.473 282.95 204.739C281.015 204.006 278.95 203.675 276.883 203.768C274.815 203.861 272.788 204.375 270.926 205.279C269.064 206.183 267.407 207.457 266.055 209.024" stroke="#171717" stroke-width="3.624" stroke-linecap="round" stroke-linejoin="round"/>
<path d="M286.966 280.526C285.132 281.249 283.173 281.597 281.202 281.551C279.232 281.505 277.29 281.066 275.492 280.259C273.694 279.452 272.076 278.293 270.732 276.852C269.388 275.41 268.345 273.714 267.666 271.864" stroke="#171717" stroke-width="3.624" stroke-linecap="round" stroke-linejoin="round"/>
<path d="M314.2 328.69C313.33 323.979 312.46 319.207 312.811 314.435C313.162 309.663 314.853 304.807 318.392 301.594C324.082 296.424 332.973 296.605 339.315 292.256C347.529 286.627 349.148 275.38 350.042 265.462C352.881 233.74 355.724 202.021 358.571 170.307" stroke="#171717" stroke-width="3.624" stroke-linecap="round" stroke-linejoin="round"/>
<path d="M245.737 333.231C244.759 310.532 243.784 287.826 242.814 265.111C241.92 244.164 241.022 223.221 240.12 202.282C239.83 195.723 239.697 188.644 243.43 183.244C247.888 176.769 256.44 174.776 264.23 173.701C295.421 169.388 327.143 171.801 358.551 169.992C363.371 169.714 368.167 169.34 372.963 168.82C377.276 168.349 381.769 167.697 385.263 165.12C388.757 162.543 390.723 157.425 388.452 153.741C386.181 150.032 380.999 149.477 376.71 150.177C372.421 150.877 368.061 152.424 363.845 151.409" stroke="#171717" stroke-width="3.624" stroke-linecap="round" stroke-linejoin="round"/>
<path d="M218.545 247.414C211.78 252.886 211.031 264.814 217.675 270.704C224.863 277.094 238.054 274.05 241.702 265.159" stroke="#171717" stroke-width="3.624" stroke-linecap="round" stroke-linejoin="round"/>
<path d="M218.545 247.414C219.197 247.091 219.803 246.681 220.345 246.194C219.71 246.547 219.108 246.955 218.545 247.414Z" stroke="#171717" stroke-width="3.624" stroke-linecap="round" stroke-linejoin="round"/>
<path d="M210.015 220.367C203.105 223.919 198.539 232.278 200.846 239.667C203.057 246.71 212.274 250.72 218.546 247.41" stroke="#171717" stroke-width="3.624" stroke-linecap="round" stroke-linejoin="round"/>
<path d="M210.016 220.367C210.356 220.232 210.687 220.075 211.007 219.896C210.668 220.041 210.342 220.2 210.016 220.367Z" stroke="#171717" stroke-width="3.624" stroke-linecap="round" stroke-linejoin="round"/>
<path d="M271.069 121.672C267.989 115.91 260.837 112.491 254.229 113.361C246.558 114.361 240.083 120.271 237.063 127.386C234.043 134.501 234.115 142.643 235.831 150.186C229.284 151.068 222.631 151.962 216.612 154.68C210.593 157.398 205.172 162.23 203.372 168.58C201.572 174.93 204.326 182.726 210.427 185.263C204.827 187.933 199.507 191.653 196.221 196.92C192.935 202.187 192.029 209.23 195.061 214.642C197.924 219.728 204.701 222.567 210.016 220.368" stroke="#171717" stroke-width="3.624" stroke-linecap="round" stroke-linejoin="round"/>
<path d="M271.068 121.672C271.366 122.685 271.75 123.672 272.216 124.62C271.955 123.594 271.569 122.604 271.068 121.672Z" stroke="#171717" stroke-width="3.624" stroke-linecap="round" stroke-linejoin="round"/>
<path d="M310.728 118.411C311.15 115.384 310.887 112.3 309.956 109.388C309.026 106.476 307.453 103.81 305.354 101.588C303.254 99.3665 300.682 97.6451 297.827 96.5515C294.972 95.4579 291.908 95.0202 288.862 95.2707C285.815 95.5213 282.863 96.4536 280.226 97.9988C277.588 99.544 275.332 101.662 273.623 104.197C271.915 106.733 270.798 109.619 270.356 112.644C269.914 115.669 270.158 118.754 271.069 121.672" stroke="#171717" stroke-width="3.624" stroke-linecap="round" stroke-linejoin="round"/>
<path d="M362.2 150.146C369.617 145.084 377.3 139.746 381.721 131.929C386.142 124.112 386.179 113.029 379.365 107.165C373.458 102.103 364.313 102.55 357.428 106.15C350.543 109.75 345.372 115.874 340.407 121.85C343.137 116.861 345.707 111.606 346.23 105.95C346.753 100.294 344.817 94.0746 340.117 90.8736C333.34 86.2586 323.495 89.7626 318.445 96.2126C313.565 102.458 312.018 110.564 310.726 118.404C310.678 118.682 310.641 118.96 310.593 119.238" stroke="#171717" stroke-width="3.624" stroke-linecap="round" stroke-linejoin="round"/>
<path d="M245.737 334.283H244.879C239.262 334.597 232.992 335.237 229.344 339.526C226.144 343.307 226.022 348.731 226.07 353.684C226.094 356.861 226.263 360.364 227.713 363.07C228.195 363.984 228.847 364.799 229.634 365.47C232.4 367.814 236.387 367.826 239.999 367.717C273.678 366.725 307.353 365.731 341.025 364.733C345.664 364.6 350.955 364.141 353.757 360.445C354.762 359.063 355.376 357.435 355.533 355.734C355.711 353.139 355.52 350.532 354.965 347.991C353.938 342.301 352.489 335.935 347.572 332.879C344.335 330.862 340.288 330.779 336.472 330.753C329.127 330.716 321.65 330.391 314.172 330.233C305.775 329.943 297.368 330.226 289.009 331.08C274.753 332.725 260.112 334.223 245.737 334.283Z" stroke="#171717" stroke-width="3.624" stroke-linecap="round" stroke-linejoin="round"/>
<path d="M138.079 410.169C138.224 410.036 138.357 409.903 138.502 409.769C162.842 386.846 193.006 371.043 225.708 364.082" stroke="#171717" stroke-width="3.624" stroke-linecap="round" stroke-linejoin="round"/>
<path d="M354.784 355.785C355.038 355.773 355.284 355.749 355.533 355.737C398.642 353.029 441.535 363.698 478.351 386.288" stroke="#171717" stroke-width="3.624" stroke-linecap="round" stroke-linejoin="round"/>
<path d="M669.107 417.261C679.799 418.251 690.49 419.246 701.18 420.245C697.955 434.717 694.734 449.183 691.516 463.645C690.67 467.438 690.199 472.245 693.425 474.396C696.747 476.607 701.857 474.287 704.925 476.848" stroke="#171717" stroke-width="3.624" stroke-linecap="round" stroke-linejoin="round"/>
<path d="M712.56 498.185C711.908 498.173 711.243 498.149 710.591 498.137C712.572 498.968 714.699 499.399 716.847 499.405C718.996 499.412 721.125 498.994 723.111 498.176C725.098 497.357 726.904 496.155 728.424 494.637C729.945 493.119 731.151 491.315 731.973 489.33" stroke="#171717" stroke-width="3.624" stroke-linecap="round" stroke-linejoin="round"/>
<path d="M718.104 436.794C718.528 434.234 718.955 431.673 719.385 429.111" stroke="#171717" stroke-width="3.624" stroke-linecap="round" stroke-linejoin="round"/>
<path d="M682.782 438.486C682.545 435.619 683.155 432.746 684.534 430.223" stroke="#171717" stroke-width="3.624" stroke-linecap="round" stroke-linejoin="round"/>
<path d="M696.046 550.07C697.822 542.87 699.598 535.55 699.356 528.145C699.114 520.74 696.578 513.069 690.972 508.201C684.147 502.27 673.951 501.339 667.307 495.201C659.539 488.025 658.935 476.163 658.863 465.593C658.754 450.734 658.649 435.871 658.549 421.005C658.513 416.005 658.477 411.008 658.44 406.014C680.926 401.558 704.165 402.749 726.076 409.481C732.527 411.474 739.195 414.216 743.145 419.689C746.974 425.004 747.566 431.914 747.945 438.449C748.961 456.085 749.379 473.738 749.201 491.408C749.021 511.401 748.074 531.365 746.362 551.301" stroke="#171717" stroke-width="3.624" stroke-linecap="round" stroke-linejoin="round"/>
<path d="M658.719 420.969L658.55 421.005C650.795 422.926 642.242 422.43 635.25 418.541C628.207 414.627 623.05 407.029 623.109 398.971C623.168 390.913 629.109 382.989 637.049 381.612C632.918 372.54 631.178 361.873 634.766 352.571C638.354 343.269 648.272 336.071 658.093 337.771C667.515 339.414 673.93 347.971 679.342 355.843C678.593 346.058 686.518 336.643 696.17 334.86C705.822 333.077 716.126 338.448 721.007 346.976C725.888 355.504 725.513 366.534 720.922 375.219C727.687 370.786 735.744 367.911 743.802 368.587C751.86 369.263 759.796 373.939 763.094 381.319C766.392 388.699 764 398.557 756.981 402.58C768.264 399.874 781.02 407.255 784.294 418.393C787.568 429.531 780.839 442.638 769.894 446.467C782.409 450.84 789.464 466.667 784.366 478.902C779.268 491.137 763.033 497.252 751.122 491.417" stroke="#171717" stroke-width="3.624" stroke-linecap="round" stroke-linejoin="round"/>
<path d="M603.7 622.623C602.261 612.765 602.131 602.761 603.313 592.87C603.977 587.325 605.222 581.515 609.051 577.456C613.279 572.962 619.899 571.524 626.072 571.717C632.245 571.91 638.297 573.469 644.458 573.964C646.777 574.193 649.117 574.05 651.392 573.542C653.693 573.078 655.736 571.767 657.118 569.87C658.966 567.14 658.845 563.539 660.118 560.495C660.323 560.005 660.562 559.529 660.831 559.071C662.927 555.902 666.118 553.618 669.794 552.656C673.913 551.436 678.286 551.471 682.575 551.519L696.044 551.665C712.811 551.846 729.582 552.023 746.358 552.196C749.306 552.232 752.241 552.255 755.189 552.295C761.889 552.368 770.035 553.335 772.741 559.472C773.084 560.27 773.335 561.105 773.49 561.961C774.348 566.298 773.526 571.335 776.86 574.102C779.324 576.131 782.876 575.793 786.065 575.902C786.512 575.914 786.971 575.95 787.418 575.987C791.435 576.358 795.324 577.595 798.817 579.614C802.31 581.633 805.324 584.385 807.652 587.68C812.472 594.638 813.752 613.931 811.083 622.037C811.071 622.061 811.071 622.096 811.059 622.121" stroke="#171717" stroke-width="3.624" stroke-linecap="round" stroke-linejoin="round"/>
<path d="M651.3 573.227C649.573 572.827 645.1 572.297 643.557 571.415C642.763 571.01 642.064 570.44 641.507 569.745C640.949 569.049 640.544 568.243 640.32 567.38C639.813 564.88 641.52 562.331 643.751 561.11C646.074 560.029 648.638 559.567 651.192 559.769C653.736 559.964 656.294 559.867 658.815 559.479" stroke="#171717" stroke-width="3.624" stroke-linecap="round" stroke-linejoin="round"/>
<path d="M773.082 561.981C773.215 561.969 773.348 561.969 773.482 561.957C776.345 561.764 779.212 561.575 782.082 561.389C784.776 561.208 787.796 561.135 789.789 562.959C791.625 564.65 791.951 567.525 791.227 569.917C790.503 572.309 789 573.541 787.458 575.501" stroke="#171717" stroke-width="3.624" stroke-linecap="round" stroke-linejoin="round"/>
<path d="M252.32 843.834L252.248 843.725C233.391 816.074 232.654 777.2 250.448 748.848C256.089 739.86 263.458 731.767 267.01 721.764C270.779 711.134 269.849 699.512 270.21 688.242C271.333 653.56 286.132 618.975 312.43 596.349C338.728 573.723 376.6 564.313 409.711 574.665C442.822 585.017 469.23 615.955 471.634 650.552C472.685 665.785 469.423 681.284 472.383 696.263C475.161 710.312 483.171 722.706 488.329 736.063C499.986 766.299 499.648 796.149 481.612 823.063" stroke="#171717" stroke-width="3.624" stroke-linecap="round" stroke-linejoin="round"/>
<path d="M316.525 687.106C324.392 688.128 332.375 686.487 339.199 682.443C348.175 677.284 355.145 668.563 357.162 658.378C362.909 661.978 369.535 663.926 376.316 664.009C383.096 664.093 389.768 662.308 395.601 658.85C405.99 652.495 411.547 640.35 411.547 628.178C411.547 626.837 411.475 625.496 411.347 624.167" stroke="#171717" stroke-width="3.624" stroke-linecap="round" stroke-linejoin="round"/>
<path d="M411.499 628.046C411.511 628.094 411.535 628.131 411.547 628.179C417.611 644.318 423.7 660.614 426.309 677.647C428.942 694.74 427.855 712.873 420.051 728.299C413.105 742.082 401.399 752.737 391.675 764.721C387.525 769.742 383.945 775.207 380.999 781.017C380.899 781.217 380.806 781.417 380.709 781.617C376.88 789.617 374.814 798.203 376.155 806.889" stroke="#171717" stroke-width="3.624" stroke-linecap="round" stroke-linejoin="round"/>
<path d="M339.2 682.358V682.443C340.118 715.627 341.072 749.089 346.351 781.766C348.168 793.272 350.616 804.668 353.684 815.904C355.532 822.604 357.803 829.53 362.756 834.404C367.709 839.278 376.165 841.29 381.686 837.074C385.793 833.945 387.207 828.437 387.799 823.315C389.454 809 387.582 794.504 380.925 781.723" stroke="#171717" stroke-width="3.624" stroke-linecap="round" stroke-linejoin="round"/>
<path d="M387.292 697.193C390.276 697.145 393.924 696.686 395.092 693.93C395.877 692.107 395.177 690.016 394.476 688.157C392.338 682.443 390.2 676.733 388.061 671.027" stroke="#171717" stroke-width="3.624" stroke-linecap="round" stroke-linejoin="round"/>
<path d="M371.648 673.214C369.831 671.744 367.514 671.039 365.186 671.248C362.859 671.458 360.705 672.566 359.181 674.337" stroke="#171717" stroke-width="3.624" stroke-linecap="round" stroke-linejoin="round"/>
<path d="M412.792 669.614C412.018 668.938 411.116 668.423 410.141 668.099C409.165 667.775 408.135 667.648 407.109 667.725C406.084 667.803 405.085 668.084 404.169 668.551C403.253 669.019 402.44 669.664 401.775 670.448" stroke="#171717" stroke-width="3.624" stroke-linecap="round" stroke-linejoin="round"/>
<path d="M385.153 722.984C383.458 723.55 381.665 723.764 379.884 723.612C378.103 723.46 376.372 722.946 374.797 722.101C373.222 721.256 371.837 720.097 370.726 718.697C369.615 717.297 368.802 715.685 368.337 713.959" stroke="#171717" stroke-width="3.624" stroke-linecap="round" stroke-linejoin="round"/>
<path d="M345.579 781.887C340.856 783.337 336.132 784.871 331.457 786.525C312.515 793.194 294.202 801.734 278.498 814.125C268.027 822.319 259.132 832.349 252.248 843.725C246.167 853.752 242.299 864.963 240.905 876.607" stroke="#171717" stroke-width="3.624" stroke-linecap="round" stroke-linejoin="round"/>
<path d="M381.288 781.149C386.056 780.198 390.891 779.625 395.748 779.433C418.133 778.523 440.161 785.254 458.214 798.52C467.319 805.338 475.15 813.709 481.347 823.248C490.007 836.441 495.353 851.53 496.93 867.232" stroke="#171717" stroke-width="3.624" stroke-linecap="round" stroke-linejoin="round"/>
<path d="M331.578 786.851C331.34 800.965 334.223 814.957 340.022 827.827C342.897 834.157 346.522 840.257 351.546 845.077C356.57 849.897 363.107 853.34 370.053 853.714C380.116 854.27 389.816 848.157 395.276 839.689C400.736 831.221 402.391 820.747 401.799 810.689C401.207 800.631 398.489 790.829 395.807 781.117" stroke="#171717" stroke-width="3.624" stroke-linecap="round" stroke-linejoin="round"/>
<path d="M138.5 409.771C99.2414 369.403 77.2817 315.311 77.292 259C77.292 138.2 176.747 40.2783 299.421 40.2783C422.095 40.2783 521.55 138.2 521.55 259C521.589 305.103 506.846 350.003 479.487 387.109C460.113 413.204 435.3 434.778 406.767 450.338C378.233 465.899 346.659 475.074 314.23 477.229C281.801 479.385 249.29 474.468 218.948 462.821C188.606 451.173 161.157 433.073 138.5 409.771Z" stroke="#171717" stroke-width="3.624" stroke-linecap="round" stroke-linejoin="round"/>
<path d="M240.41 877.222C216.78 858.562 197.69 834.786 184.575 807.683C171.46 780.581 164.662 750.857 164.692 720.748C164.692 610.541 254.023 521.209 364.23 521.209C474.437 521.209 563.758 610.541 563.758 720.748C563.755 758.242 553.19 794.976 533.271 826.742C513.352 858.507 484.885 884.017 451.136 900.35C417.386 916.682 379.717 923.175 342.447 919.084C305.177 914.994 269.814 900.485 240.41 877.222Z" stroke="#171717" stroke-width="3.624" stroke-linecap="round" stroke-linejoin="round"/>
<path d="M603.078 623.577C576.149 606.344 553.994 582.608 538.654 554.558C523.314 526.508 515.284 495.047 515.304 463.077C515.304 357.823 600.626 272.501 705.88 272.501C811.134 272.501 896.468 357.823 896.468 463.077C896.466 497.277 887.263 530.847 869.823 560.266C852.382 589.686 827.347 613.87 797.343 630.284C767.339 646.698 733.471 654.736 699.291 653.556C665.111 652.376 631.878 642.021 603.078 623.577Z" stroke="#171717" stroke-width="3.624" stroke-linecap="round" stroke-linejoin="round"/>
<path d="M333.894 806.732L348.229 800.238" stroke="#171717" stroke-width="3.624" stroke-linecap="round" stroke-linejoin="round"/>
<path d="M339.91 826.888C343.803 823.864 348.031 821.298 352.51 819.24" stroke="#171717" stroke-width="3.624" stroke-linecap="round" stroke-linejoin="round"/>
<path d="M353.053 846.435L362.543 836.521" stroke="#171717" stroke-width="3.624" stroke-linecap="round" stroke-linejoin="round"/>
<path d="M374.36 852.918C374.446 848.866 374.53 844.814 374.614 840.762" stroke="#171717" stroke-width="3.624" stroke-linecap="round" stroke-linejoin="round"/>
<path d="M385.059 834.117C388.541 835.317 392.135 836.167 395.786 836.655" stroke="#171717" stroke-width="3.624" stroke-linecap="round" stroke-linejoin="round"/>
<path d="M388.784 819.311C392.595 817.342 396.671 815.934 400.884 815.129" stroke="#171717" stroke-width="3.624" stroke-linecap="round" stroke-linejoin="round"/>
<path d="M387.7 798.853L397.909 796.615" stroke="#171717" stroke-width="3.624" stroke-linecap="round" stroke-linejoin="round"/>
<path d="M374.189 853.366C376.133 874.848 377.633 896.364 378.689 917.915" stroke="#171717" stroke-width="3.624" stroke-linecap="round" stroke-linejoin="round"/>
<path d="M324.608 856.101L320.33 848.221" stroke="#171717" stroke-width="3.624" stroke-linecap="round" stroke-linejoin="round"/>
<path d="M317.514 856.711L327.542 849.903" stroke="#171717" stroke-width="3.624" stroke-linecap="round" stroke-linejoin="round"/>
<path d="M451.084 865.866C448.368 863.835 445.762 861.66 443.277 859.353" stroke="#171717" stroke-width="3.624" stroke-linecap="round" stroke-linejoin="round"/>
<path d="M444.392 867.877L443.97 867.909L450.302 857.787" stroke="#171717" stroke-width="3.624" stroke-linecap="round" stroke-linejoin="round"/>
<path d="M434.782 819.456C432.1 817.248 429.611 814.816 427.341 812.187" stroke="#171717" stroke-width="3.624" stroke-linecap="round" stroke-linejoin="round"/>
<path d="M428.125 820.69L434.718 809.939" stroke="#171717" stroke-width="3.624" stroke-linecap="round" stroke-linejoin="round"/>
<path d="M412.941 894.838C410.109 892.716 407.482 890.333 405.095 887.721" stroke="#171717" stroke-width="3.624" stroke-linecap="round" stroke-linejoin="round"/>
<path d="M412.824 886.101L405.899 895.901" stroke="#171717" stroke-width="3.624" stroke-linecap="round" stroke-linejoin="round"/>
<path d="M345.259 904.935C349.239 901.023 352.77 896.678 355.785 891.981" stroke="#171717" stroke-width="3.624" stroke-linecap="round" stroke-linejoin="round"/>
<path d="M354.943 904.21C351.937 900.664 348.931 897.119 345.926 893.573" stroke="#171717" stroke-width="3.624" stroke-linecap="round" stroke-linejoin="round"/>
<path d="M274.066 867.419C275.709 864.665 277.601 862.067 279.718 859.657" stroke="#171717" stroke-width="3.624" stroke-linecap="round" stroke-linejoin="round"/>
<path d="M279.686 866.701C277.239 864.566 275.132 862.071 273.438 859.301" stroke="#171717" stroke-width="3.624" stroke-linecap="round" stroke-linejoin="round"/>
<path d="M758.737 572.375C758.603 568.751 758.473 565.127 758.345 561.502" stroke="#171717" stroke-width="3.624" stroke-linecap="round" stroke-linejoin="round"/>
<path d="M742.277 572.169C742.704 568.702 742.704 565.196 742.277 561.729" stroke="#171717" stroke-width="3.624" stroke-linecap="round" stroke-linejoin="round"/>
<path d="M725.274 571.113C725.759 567.791 725.906 564.429 725.714 561.077" stroke="#171717" stroke-width="3.624" stroke-linecap="round" stroke-linejoin="round"/>
<path d="M708.454 570.033C708.544 566.833 708.634 563.633 708.723 560.433" stroke="#171717" stroke-width="3.624" stroke-linecap="round" stroke-linejoin="round"/>
<path d="M691.146 569.426C691.939 566.938 692.178 564.308 691.846 561.719" stroke="#171717" stroke-width="3.624" stroke-linecap="round" stroke-linejoin="round"/>
<path d="M673.817 570.243L674.225 561.289" stroke="#171717" stroke-width="3.624" stroke-linecap="round" stroke-linejoin="round"/>
<path d="M703.463 580.315C702.833 580.042 702.122 580.022 701.477 580.259C700.833 580.496 700.304 580.972 700.001 581.588C699.699 582.205 699.645 582.914 699.851 583.569C700.057 584.224 700.507 584.774 701.109 585.106C701.71 585.438 702.416 585.525 703.08 585.351C703.744 585.176 704.315 584.752 704.675 584.167C705.035 583.583 705.156 582.882 705.013 582.21C704.87 581.538 704.474 580.948 703.907 580.56" stroke="#171717" stroke-width="3.624" stroke-linecap="round" stroke-linejoin="round"/>
<path d="M739.7 580.316C739.07 580.042 738.358 580.021 737.713 580.257C737.067 580.494 736.538 580.969 736.234 581.586C735.931 582.202 735.876 582.912 736.082 583.568C736.287 584.224 736.737 584.775 737.339 585.108C737.94 585.44 738.647 585.529 739.311 585.354C739.976 585.18 740.548 584.756 740.909 584.171C741.27 583.586 741.391 582.885 741.249 582.213C741.106 581.54 740.71 580.949 740.143 580.561" stroke="#171717" stroke-width="3.624" stroke-linecap="round" stroke-linejoin="round"/>
<path d="M701.969 582.395C698.932 585.919 698.269 590.98 698.958 595.58C699.647 600.18 701.527 604.501 703.073 608.888C704.619 613.275 705.857 617.936 705.198 622.541C704.539 627.146 701.573 631.684 697.098 632.955" stroke="#171717" stroke-width="3.624" stroke-linecap="round" stroke-linejoin="round"/>
<path d="M738.287 583.176C741.764 586.305 744.408 590.251 745.979 594.658C747.551 599.064 748 603.792 747.287 608.416C746.749 611.678 745.629 614.827 745.187 618.103C744.745 621.379 745.087 624.965 747.144 627.549" stroke="#171717" stroke-width="3.624" stroke-linecap="round" stroke-linejoin="round"/>
<path d="M337.865 364.308C337.616 353.508 337.367 342.708 337.119 331.908" stroke="#171717" stroke-width="3.624" stroke-linecap="round" stroke-linejoin="round"/>
<path d="M317.473 365.168C317.904 353.986 318.335 342.804 318.767 331.623" stroke="#171717" stroke-width="3.624" stroke-linecap="round" stroke-linejoin="round"/>
<path d="M296.637 365.446C296.3 354.454 295.963 343.462 295.625 332.471" stroke="#171717" stroke-width="3.624" stroke-linecap="round" stroke-linejoin="round"/>
<path d="M272.732 366.014C272.175 355.128 271.927 344.232 271.987 333.326" stroke="#171717" stroke-width="3.624" stroke-linecap="round" stroke-linejoin="round"/>
<path d="M251.273 366.585L251.117 336.171" stroke="#171717" stroke-width="3.624" stroke-linecap="round" stroke-linejoin="round"/>
<path d="M237.42 366.3C237.138 356.446 236.854 346.593 236.57 336.739" stroke="#171717" stroke-width="3.624" stroke-linecap="round" stroke-linejoin="round"/>
<path d="M418.69 403.494C419.002 402.492 419.112 401.438 419.012 400.394C418.913 399.349 418.606 398.335 418.111 397.41C417.615 396.485 416.94 395.668 416.126 395.007C415.311 394.345 414.373 393.852 413.366 393.557C410.655 392.891 407.837 393.757 405.118 394.388C402.399 395.019 399.34 395.38 396.988 393.875C394.406 392.223 393.543 388.913 392.946 385.906" stroke="#171717" stroke-width="3.624" stroke-linecap="round" stroke-linejoin="round"/>
<path d="M370.677 450.054C371.671 448.68 372.144 446.997 372.011 445.306C371.878 443.616 371.149 442.027 369.953 440.825C368.539 439.488 366.622 438.802 365.139 437.542C363.656 436.282 362.694 433.942 363.896 432.416" stroke="#171717" stroke-width="3.624" stroke-linecap="round" stroke-linejoin="round"/>
<path d="M312.121 426.143C311.111 424.231 310.371 422.189 309.921 420.074C309.702 419.014 309.703 417.92 309.925 416.86C310.146 415.801 310.584 414.798 311.209 413.915C312.3 412.535 313.946 411.722 315.254 410.545C316.502 409.393 317.418 407.928 317.909 406.303C318.4 404.678 318.448 402.951 318.047 401.301" stroke="#171717" stroke-width="3.624" stroke-linecap="round" stroke-linejoin="round"/>
<path d="M255.107 449.005C254.545 446.477 252.949 444.326 251.755 442.028C250.561 439.73 249.764 436.928 250.882 434.591C251.853 432.561 254 431.418 255.627 429.862C256.986 428.536 257.997 426.895 258.57 425.084C259.144 423.274 259.261 421.349 258.913 419.482" stroke="#171717" stroke-width="3.624" stroke-linecap="round" stroke-linejoin="round"/>
<path d="M218.715 411.522C218.197 409.465 218.034 407.334 218.232 405.222C218.343 404.167 218.718 403.157 219.322 402.284C219.926 401.412 220.74 400.705 221.688 400.23C222.908 399.721 224.288 399.752 225.546 399.352C226.673 398.918 227.686 398.232 228.507 397.347C229.329 396.462 229.938 395.401 230.287 394.245C230.967 391.93 231.285 389.524 231.231 387.112" stroke="#171717" stroke-width="3.624" stroke-linecap="round" stroke-linejoin="round"/>
<path d="M173.73 417.408C173.462 415.682 173.431 413.928 173.638 412.194C173.746 411.326 174.029 410.49 174.47 409.735C174.91 408.98 175.499 408.322 176.2 407.801C177.502 407.134 178.878 406.622 180.3 406.276C181.782 405.715 183.11 404.81 184.174 403.635C185.237 402.46 186.006 401.049 186.417 399.519" stroke="#171717" stroke-width="3.624" stroke-linecap="round" stroke-linejoin="round"/>
<path d="M394.856 183.437L414.637 161.917" stroke="#171717" stroke-width="3.624" stroke-linecap="round" stroke-linejoin="round"/>
<path d="M397.857 199.408C417.062 196.387 435.915 191.451 454.135 184.673" stroke="#171717" stroke-width="3.624" stroke-linecap="round" stroke-linejoin="round"/>
<path d="M392.5 217.511C397.54 222.505 403.581 226.375 410.224 228.866" stroke="#171717" stroke-width="3.624" stroke-linecap="round" stroke-linejoin="round"/>
<path d="M206.029 122.98C208.441 118.856 210.852 114.732 213.263 110.607" stroke="#171717" stroke-width="3.624" stroke-linecap="round" stroke-linejoin="round"/>
<path d="M214.775 122.86C211.737 118.302 207.861 114.364 203.353 111.255" stroke="#171717" stroke-width="3.624" stroke-linecap="round" stroke-linejoin="round"/>
<path d="M183.132 168.987L175.394 153.243" stroke="#171717" stroke-width="3.624" stroke-linecap="round" stroke-linejoin="round"/>
<path d="M171.043 168.146C175.344 163.436 180.236 159.301 185.597 155.846" stroke="#171717" stroke-width="3.624" stroke-linecap="round" stroke-linejoin="round"/>
<path d="M611.573 430.8C610.183 427.068 608.13 423.618 605.513 420.617" stroke="#171717" stroke-width="3.624" stroke-linecap="round" stroke-linejoin="round"/>
<path d="M603.763 430.324L612.663 420.892" stroke="#171717" stroke-width="3.624" stroke-linecap="round" stroke-linejoin="round"/>
<path d="M616.892 481.893C611.59 479.283 606.655 475.986 602.214 472.087" stroke="#171717" stroke-width="3.624" stroke-linecap="round" stroke-linejoin="round"/>
<path d="M603.425 486.254L615.159 464.631" stroke="#171717" stroke-width="3.624" stroke-linecap="round" stroke-linejoin="round"/>
<path d="M503.138 797.029C508.852 783.262 509.466 767.908 504.871 753.729" stroke="#171717" stroke-width="3.624" stroke-linecap="round" stroke-linejoin="round"/>
<path d="M228.056 778.337C229.581 766.659 234.169 755.592 241.356 746.262" stroke="#171717" stroke-width="3.624" stroke-linecap="round" stroke-linejoin="round"/>
<path d="M274.266 607.76C276.717 604.024 279.91 600.831 283.646 598.38" stroke="#171717" stroke-width="3.624" stroke-linecap="round" stroke-linejoin="round"/>
<path d="M281.647 610.244L273.547 595.744" stroke="#171717" stroke-width="3.624" stroke-linecap="round" stroke-linejoin="round"/>
<path d="M243.477 632.485C243.725 626.799 243.972 621.112 244.22 615.426" stroke="#171717" stroke-width="3.624" stroke-linecap="round" stroke-linejoin="round"/>
<path d="M233.755 625.147L252.526 623.571" stroke="#171717" stroke-width="3.624" stroke-linecap="round" stroke-linejoin="round"/>
<path d="M154.663 764.138C150.128 754.261 147.652 743.563 147.387 732.697C147.122 721.831 149.074 711.025 153.123 700.938" stroke="#171717" stroke-width="3.624" stroke-linecap="round" stroke-linejoin="round"/>
<path d="M852.6 611.328C873.999 592.367 889.858 567.958 898.488 540.7" stroke="#171717" stroke-width="3.624" stroke-linecap="round" stroke-linejoin="round"/>
<path d="M86.4228 375.269C71.5493 354.272 62.9912 329.459 61.7578 303.758" stroke="#171717" stroke-width="3.624" stroke-linecap="round" stroke-linejoin="round"/>
<path d="M604.136 134.368C593.151 144.855 586.275 158.921 584.745 174.03C583.71 184.655 586.473 197.079 595.939 202.014C604.629 206.544 616.81 201.729 620.054 192.482C621.237 189.111 621.129 184.882 618.447 182.52C615.147 179.611 609.853 181.048 606.295 183.64C602.513 186.489 599.632 190.367 597.995 194.809C596.358 199.252 596.034 204.072 597.063 208.693C598.863 216.218 604.12 222.364 609.197 228.203C614.274 234.042 619.509 240.213 621.258 247.75C623.007 255.287 619.971 264.541 612.683 267.142" stroke="#171717" stroke-width="3.624" stroke-linecap="round" stroke-linejoin="round"/>
<path d="M141.938 473.322C156.432 476.629 167.557 491.034 167.094 505.893C166.631 520.752 154.629 534.436 139.958 536.833C134.042 537.8 127.389 536.856 123.195 532.573C119.001 528.29 118.752 520.146 123.757 516.846C129.343 513.163 137.057 517.469 140.6 523.146C146.842 533.123 145.585 546.261 140.983 557.093C136.381 567.925 128.859 577.2 122.539 587.129C116.219 597.058 110.927 608.349 111.676 620.094" stroke="#171717" stroke-width="3.624" stroke-linecap="round" stroke-linejoin="round"/>
<path d="M617.8 794.254C630.075 771.203 649.844 753.028 673.843 742.729C680.582 739.863 689.656 738.198 694.174 743.961C696.89 747.426 696.711 752.49 694.885 756.495C693.059 760.5 689.86 763.689 686.727 766.782C683.881 769.592 680.88 772.498 677.06 773.682C673.24 774.866 668.37 773.703 666.678 770.082C664.431 765.268 668.766 760.061 672.908 756.734C690.913 742.315 712.358 732.825 735.138 729.195" stroke="#171717" stroke-width="3.624" stroke-linecap="round" stroke-linejoin="round"/>
<path d="M563.762 134.931C562.909 130.664 562.057 126.4 561.204 122.14" stroke="#171717" stroke-width="3.624" stroke-linecap="round" stroke-linejoin="round"/>
<path d="M553.494 131.408L572.244 125.408" stroke="#171717" stroke-width="3.624" stroke-linecap="round" stroke-linejoin="round"/>
<path d="M101.7 508.389C100.052 502.483 98.4035 496.577 96.7549 490.672" stroke="#171717" stroke-width="3.624" stroke-linecap="round" stroke-linejoin="round"/>
<path d="M89.0566 505.46L106 495.881" stroke="#171717" stroke-width="3.624" stroke-linecap="round" stroke-linejoin="round"/>
<path d="M719.855 782.183C724.012 777.575 726.923 771.981 728.31 765.933" stroke="#171717" stroke-width="3.624" stroke-linecap="round" stroke-linejoin="round"/>
<path d="M716.426 773.534L733.439 779.617" stroke="#171717" stroke-width="3.624" stroke-linecap="round" stroke-linejoin="round"/>
<path d="M673.762 712.218C673.955 706.567 675.412 701.031 678.026 696.018" stroke="#171717" stroke-width="3.624" stroke-linecap="round" stroke-linejoin="round"/>
<path d="M665.23 704.791L682.281 705.062" stroke="#171717" stroke-width="3.624" stroke-linecap="round" stroke-linejoin="round"/>
<g opacity="0.1">
<path d="M320.259 171.334C315.082 170.502 309.842 170.134 304.6 170.234C300.026 170.442 295.479 170.915 290.9 170.971C281.671 171.083 271.971 171.256 262.836 172.533C255.647 173.539 248.456 177.479 244.325 183.581C240.072 189.862 240.033 198.53 240.198 205.847C241.082 244.969 244.389 284.103 246.764 323.16C247.548 336.048 267.709 336.137 266.92 323.16C264.766 287.737 263.509 252.119 260.232 216.783C259.601 209.973 258.009 202.383 258.932 195.538C259.174 193.731 259.599 190.719 260.68 189.297C262.28 187.197 267.274 186.425 269.688 185.804C286.688 181.429 304.176 179.852 320.5 173.081C320.697 173.013 320.865 172.88 320.974 172.702C321.084 172.525 321.128 172.315 321.1 172.108C321.072 171.902 320.974 171.711 320.822 171.57C320.669 171.428 320.471 171.343 320.263 171.331L320.259 171.334Z" fill="#171717"/>
</g>
<g opacity="0.1">
<path d="M229.38 338.208C227.588 343.539 227.18 349.14 226.699 354.716C226.445 357.662 226.336 360.656 225.936 363.585C225.928 364.377 225.789 365.162 225.525 365.908C225.794 365.414 226.563 365.078 225.606 365.473C221.616 367.119 216.492 367.195 212.271 368.186C207.433 369.322 202.633 370.666 197.924 372.256C188.771 375.337 179.933 379.285 171.532 384.046C163.058 388.865 155.8 395.058 147.791 400.518C142.712 403.98 140.94 410.541 144.898 415.671C148.388 420.193 156.226 421.487 160.288 416.714C166.796 409.069 176.071 403.314 184.74 398.429C193.662 393.351 203.16 389.359 213.032 386.539C222.37 383.915 235.332 384.265 240.832 374.853C243.871 369.653 243.314 363.461 243.313 357.673C243.313 351.116 243.462 344.622 241.901 338.208C240.308 331.665 231.326 332.419 229.38 338.208Z" fill="#171717"/>
</g>
<g opacity="0.1">
<path d="M354.883 663.336C354.936 668.836 351.645 671.271 348.352 675.062C345.381 678.413 342.782 682.076 340.599 685.987C335.21 695.855 337.125 707.577 337.532 718.415C338.412 741.861 340.483 765.262 342.178 788.662L349.508 779.034C326.164 783.728 304.214 793.731 285.355 808.269C275.942 815.376 267.353 823.514 259.749 832.532C255.677 837.408 251.892 842.516 248.412 847.832C245.062 852.987 241.091 858.732 239.99 864.86C239.196 869.276 240.516 873.76 244.578 876.135C248.22 878.266 253.791 877.88 256.678 874.574C260.57 870.118 262.829 864.794 265.851 859.751C268.438 855.385 271.282 851.178 274.368 847.151C281.072 838.488 288.817 830.685 297.428 823.917C314.203 810.857 333.895 802.064 354.816 798.291C358.823 797.553 362.447 792.724 362.146 788.663C360.409 765.242 359.046 741.763 356.495 718.416C355.905 713.005 355.315 707.594 354.689 702.188C354.15 697.537 352.689 691.718 353.663 687.158C354.52 683.13 357.217 679.299 358.763 675.472C360.394 671.435 361.858 667.772 361.446 663.337C361.062 659.209 354.846 659.036 354.883 663.336Z" fill="#171717"/>
</g>
<g opacity="0.1">
<path d="M661.077 407.05C658.613 413.688 659.339 421.965 658.715 428.991C658.033 436.672 657.315 444.364 656.761 452.055C655.946 463.355 658.136 476.84 663.487 486.933C666.235 492.117 670.451 497.149 675.618 500.039C680.649 502.853 686.258 504.515 691.278 507.416C704.504 515.057 699.545 531.995 693.055 542.804C688.175 550.931 702.547 557.076 704.964 547.825C708.464 534.425 714.182 521.025 706.807 507.662C704.024 502.62 699.707 498.552 695.177 495.112C690.464 491.64 686.071 487.754 682.049 483.499C678.163 479.305 674.849 474.749 673.209 469.242C671.656 463.623 670.642 457.868 670.181 452.056C669.416 444.356 670.141 436.696 670.287 428.992C670.425 421.726 671.112 412.611 667.075 406.267C666.737 405.727 666.251 405.296 665.674 405.024C665.098 404.752 664.455 404.652 663.823 404.734C663.192 404.817 662.597 405.079 662.109 405.49C661.622 405.901 661.263 406.443 661.075 407.051L661.077 407.05Z" fill="#171717"/>
</g>
<g opacity="0.1">
<path d="M674.989 553.819C667.708 550.713 661.238 559.877 658.979 565.576C657.094 570.332 655.613 574.876 649.756 574.736C644.162 574.603 638.681 572.136 633.2 571.181C623.057 569.413 610.326 572.564 605.443 582.508C600.143 593.308 603.918 604.36 601.875 615.616C599.657 627.848 616.475 632.694 620.588 620.775C623.888 611.204 619.888 601.381 621.765 591.747C622.173 589.942 622.824 588.202 623.7 586.573C624.374 585.245 624.417 585.931 624.044 586.134C625.034 585.669 626.091 585.365 627.175 585.234C631.936 584.44 636.537 585.795 641.175 586.652C649.991 588.281 659.48 587.617 664.521 579.079C666.633 575.501 667.431 571.404 668.405 567.423C668.802 565.272 669.347 563.152 670.036 561.077C671.127 558.339 672.707 557.319 674.985 555.767C675.599 555.348 675.828 554.184 674.985 553.824L674.989 553.819Z" fill="#171717"/>
</g>
</g>
</g>
</g>
<path d="M1623.09 453.84L1623.08 453.813C1624.9 453.059 1627.02 453.281 1629.02 453.289C1630.82 453.417 1632.61 452.905 1634.08 451.843C1636.75 451.825 1639.08 453.875 1640.23 456.29C1641.22 458.787 1641.73 461.45 1641.72 464.137C1645.83 533.152 1646.16 602.34 1642.71 671.392L1642.94 672.67C1638.76 673.418 1634.54 673.884 1630.29 674.064C1626.28 674.233 1622.11 674.224 1617.97 674.393C1614.5 674.489 1611.05 674.842 1607.63 675.449L1607.59 675.209C1608.85 610.876 1610.13 546.546 1611.4 482.219C1611.51 476.804 1611.63 471.301 1613.23 466.134C1614.84 460.967 1618.16 456.077 1623.09 453.84Z" fill="url(#paint6_linear_297_2622)"/>
<path d="M1634.68 466.658C1638.99 527.765 1638.27 589.123 1632.53 650.112" stroke="white" stroke-width="3" stroke-linecap="round" stroke-linejoin="round"/>
<path d="M1251.54 421.839C1256.22 426.819 1256.43 434.382 1256.38 441.208C1255.85 501.517 1255.33 561.82 1254.82 622.117L1254.79 623.2C1245.86 622.925 1236.96 621.945 1228.19 620.271L1228.41 619.179C1228.57 571.857 1228.73 524.534 1228.9 477.212C1228.96 459.379 1229.07 441.212 1234.57 424.245L1234.79 423.925C1237.02 425.354 1240.06 425.292 1242.8 425.115C1245.31 424.946 1248.01 424.706 1249.9 423.046C1250.32 422.672 1250.69 422.242 1250.99 421.768L1251.54 421.839Z" fill="#171717"/>
<path d="M1252.59 435.87L1248.89 601.278" stroke="white" stroke-width="3" stroke-linecap="round" stroke-linejoin="round"/>
<path d="M1291.15 625.561C1293.87 626.44 1296.43 627.734 1298.75 629.396C1303.51 632.979 1307.06 637.927 1308.94 643.581C1311.95 651.837 1312.58 661.53 1312.82 670.451C1313.05 679.905 1313.12 690.025 1308.82 698.271C1308.26 699.355 1307.63 700.397 1306.92 701.387C1298.54 713.149 1282.07 715.359 1267.64 714.862C1241.37 713.948 1215.61 707.562 1190.3 700.473C1165.66 693.566 1140.75 685.737 1119.86 670.957C1096.38 654.34 1079.23 629.494 1070.04 602.233C1060.84 574.972 1059.34 545.433 1063.64 516.989C1067.06 494.336 1074.25 471.949 1087.17 453.032C1100.09 434.115 1119.1 418.865 1141.24 412.998C1146 411.737 1151.2 410.725 1154.54 407.104C1156.5 404.973 1157.57 402.168 1159.4 399.931C1160.81 398.253 1162.56 396.891 1164.52 395.931C1185.21 403.883 1206.91 408.866 1228.99 410.731L1230.06 410.536C1230.42 413.03 1230.88 415.5 1231.46 417.948C1231.76 419.857 1232.58 421.648 1233.81 423.132C1234.11 423.43 1234.44 423.698 1234.79 423.932L1234.57 424.252C1229.07 441.215 1228.96 459.386 1228.9 477.219C1228.74 524.542 1228.57 571.864 1228.41 619.186L1228.19 620.278C1236.96 621.952 1245.86 622.932 1254.79 623.207C1258.43 623.34 1262.06 623.376 1265.69 623.34C1274.2 623.253 1283.26 622.943 1291.15 625.561Z" fill="url(#paint7_linear_297_2622)"/>
<path d="M1176.17 485.239C1151.3 505.721 1140.32 541.59 1149.46 572.485C1158.6 603.38 1187.33 627.499 1219.35 631.148" stroke="white" stroke-width="3" stroke-linecap="round" stroke-linejoin="round"/>
<path d="M1608.57 338.125C1611.23 338.99 1613.81 340.074 1616.29 341.365C1620.36 343.291 1624.59 344.854 1628.94 346.034C1636.19 348.087 1643.72 349.015 1651.26 348.786C1658.35 348.466 1665.11 344.934 1671.69 342.626C1675.52 341.167 1679.58 340.389 1683.68 340.326C1686.08 340.325 1688.45 340.808 1690.66 341.747C1695.89 344.028 1699.55 349.088 1701.18 354.556C1702.82 360.024 1702.67 365.865 1701.93 371.52C1700.51 382.5 1696.65 393.703 1688.39 401.088C1684.92 404.103 1680.95 406.494 1676.66 408.154C1672.77 409.674 1668.77 410.874 1664.69 411.74C1656.84 413.458 1648.86 414.524 1640.84 414.927C1636.2 415.167 1631.55 415.211 1626.9 415.087C1625.06 415.034 1623.18 414.945 1621.3 414.787C1617.59 414.509 1613.92 413.831 1610.36 412.763C1605.95 411.514 1601.95 409.108 1598.78 405.795C1593.07 399.572 1591.58 390.642 1590.75 382.236C1589.53 369.95 1589.25 357.036 1594.41 345.814C1595.83 342.714 1597.86 339.627 1600.99 338.278C1603.42 337.344 1606.11 337.29 1608.57 338.125ZM1675.95 364.815C1675.95 358.024 1667.17 352.515 1656.33 352.515C1645.49 352.515 1636.71 358.015 1636.71 364.815C1636.71 371.615 1645.49 377.109 1656.33 377.109C1667.17 377.109 1675.95 371.605 1675.95 364.815Z" fill="#171717"/>
<path d="M1609.88 231.645C1619.05 236.879 1627.11 243.854 1633.6 252.177C1631.27 248.856 1629.65 245.084 1628.85 241.103C1628.06 237.121 1628.1 233.017 1628.98 229.053C1629.58 226.39 1631.77 223.23 1634.29 224.268C1635.23 224.78 1635.99 225.575 1636.46 226.541C1642.38 236.083 1648.3 245.623 1654.22 255.16C1656.37 252.71 1656.79 249.239 1658.12 246.265C1659.44 243.291 1662.75 240.522 1665.71 241.889C1667.57 242.759 1668.44 244.933 1668.72 246.975C1669.01 249.017 1668.88 251.138 1669.54 253.082C1671.16 257.782 1676.64 259.793 1681.53 260.69C1686.43 261.587 1691.87 262.208 1695.2 265.89C1697.57 268.482 1698.36 272.09 1699.08 275.521C1702.62 292.511 1706.15 309.501 1709.7 326.491C1706.23 323.944 1702.75 321.402 1699.28 318.866C1699.46 321.866 1701.86 324.183 1703.36 326.793C1704.86 329.403 1704.94 333.584 1702.1 334.578C1700.48 335.155 1698.73 334.339 1697.2 333.54C1693.52 331.622 1689.84 329.704 1686.16 327.787L1685.91 327.752C1687.23 319.219 1687.92 310.6 1687.97 301.965C1688.01 296.426 1687.69 290.54 1684.55 285.978C1680.62 280.297 1673.31 278.131 1666.5 277.065C1651.74 274.757 1636.6 275.778 1621.89 273.204C1619.94 272.858 1617.98 272.441 1616.03 271.926C1603.32 268.597 1591.2 261.611 1585.63 249.92C1585.36 249.508 1585.19 249.036 1585.14 248.544C1585.09 248.052 1585.16 247.555 1585.35 247.097C1585.93 246.148 1587.28 246.103 1588.4 246.197C1595.74 246.831 1602.93 248.642 1609.7 251.558C1606.29 247.141 1604.05 241.945 1603.16 236.441C1602.83 234.355 1602.94 231.741 1604.81 230.741C1606.39 229.905 1608.31 230.757 1609.88 231.645Z" fill="#171717"/>
<path d="M1623.56 435.953C1622.78 435.907 1622.04 435.604 1621.45 435.092C1620.4 434.092 1620.4 432.447 1620.48 431C1620.73 425.727 1621 420.454 1621.26 415.181L1621.3 414.781C1623.18 414.941 1625.06 415.03 1626.9 415.081C1631.54 415.205 1636.19 415.161 1640.84 414.921L1640.89 415.8C1640.88 420.709 1640.88 425.618 1640.87 430.526C1640.86 432.009 1640.8 433.66 1639.75 434.716C1638.81 435.501 1637.6 435.903 1636.37 435.844C1636.11 435.861 1635.85 435.87 1635.59 435.87C1632.12 435.915 1628.64 435.97 1625.17 436.012C1624.63 436.033 1624.1 436.013 1623.56 435.953Z" fill="url(#paint8_linear_297_2622)"/>
<path d="M1635.59 435.873C1635.85 435.873 1636.11 435.864 1636.38 435.847L1636.41 436.477C1636.15 440.151 1635.9 443.826 1635.65 447.502C1635.66 448.712 1635.38 449.907 1634.82 450.982C1634.62 451.306 1634.37 451.596 1634.08 451.843C1632.61 452.905 1630.82 453.417 1629.02 453.289C1627.02 453.281 1624.9 453.059 1623.08 453.813C1622.92 453.875 1622.77 453.955 1622.61 454.035C1622.33 447.99 1622.65 441.933 1623.57 435.953C1624.1 436.013 1624.64 436.034 1625.17 436.015C1628.65 435.971 1632.12 435.918 1635.59 435.873Z" fill="url(#paint9_linear_297_2622)"/>
<path d="M1480.04 355.547C1485.14 362.125 1485.74 371.09 1485.4 379.408C1483.76 419.708 1464.88 458.243 1437.22 487.608C1417.71 508.344 1393.22 525.208 1365.49 531.655C1337.76 538.102 1306.65 533.031 1284.91 514.647L1283.43 514.78C1280.23 479.273 1276.33 443.837 1271.73 408.472C1271.22 404.548 1270.7 400.627 1270.16 396.71L1270.28 396.692C1276.06 413.692 1284.65 430.113 1297.74 442.381C1310.84 454.649 1328.91 462.371 1346.74 460.312C1366.27 458.066 1383.12 444.494 1393.64 427.894C1404.17 411.294 1409.24 391.872 1413.23 372.627C1414.7 365.535 1416.27 357.963 1421.36 352.814C1424.8 349.314 1429.31 347.461 1434.16 346.467C1438.24 345.708 1442.39 345.31 1446.55 345.278C1454.86 345.065 1464 345.464 1471.32 348.82C1474.74 350.314 1477.73 352.624 1480.04 355.547Z" fill="url(#paint10_linear_297_2622)"/>
<path d="M1296.91 252.674C1301.32 257.494 1298.58 265.883 1293.15 269.531C1287.73 273.179 1280.8 273.431 1274.25 273.552L1272.81 273.579C1255.12 273.916 1237.42 274.256 1219.72 274.6C1214.06 274.706 1207.81 275.052 1203.77 279.02C1199.24 283.477 1199.3 290.676 1199.55 297.031C1200.16 312.548 1200.07 328.068 1199.27 343.59L1199.08 343.581C1194.04 343.528 1192.87 350.913 1187.96 352.081C1184.68 352.862 1181.24 350.235 1180.37 346.981C1179.5 343.727 1180.76 340.181 1182.86 337.536C1184.95 334.891 1187.79 332.956 1190.59 331.065C1186.87 330.355 1183.52 333.133 1180.18 334.891C1176.83 336.649 1171.54 336.746 1170.41 333.133C1169.55 330.355 1171.9 327.733 1173.79 325.517C1177.86 320.693 1180.44 314.784 1181.19 308.517C1182.55 297.137 1177.93 284.772 1183.13 274.563C1187.25 266.485 1196.53 262.287 1205.51 261.097C1214.49 259.907 1223.61 261.115 1232.66 260.797C1241.72 260.479 1251.31 258.285 1257.54 251.716C1260.81 248.281 1263.36 243.559 1267.94 242.369C1269.62 241.925 1271.39 242.03 1273 242.669C1274.61 243.307 1275.97 244.446 1276.89 245.917C1277.8 247.388 1278.22 249.114 1278.08 250.84C1277.94 252.567 1277.25 254.203 1276.11 255.507C1275.34 256.128 1274.58 256.767 1273.83 257.407C1274.71 256.933 1275.48 256.287 1276.11 255.507C1278.65 253.277 1281.58 251.526 1284.75 250.339C1288.89 248.972 1293.96 249.461 1296.91 252.674Z" fill="#171717"/>
<path d="M1283.43 514.779C1286.76 551.645 1289.33 588.573 1291.15 625.561C1283.26 622.943 1274.2 623.253 1265.69 623.333C1262.06 623.369 1258.43 623.333 1254.79 623.2L1254.83 622.117C1255.34 561.817 1255.86 501.514 1256.38 441.208C1256.43 434.382 1256.22 426.819 1251.54 421.839L1251 421.768C1252.31 419.744 1252.53 417.019 1252.62 414.533C1252.67 413.344 1252.71 412.217 1252.76 411.125H1252.82C1259 411.175 1265.15 410.31 1271.07 408.559L1271.73 408.471C1276.32 443.827 1280.23 479.263 1283.43 514.779Z" fill="url(#paint11_linear_297_2622)"/>
<path d="M1252.75 411.125C1253 404.804 1253.18 399.851 1253.29 392.954L1253.47 391.747C1258.98 392.652 1264.44 393.761 1269.85 395.076L1269.95 395.067C1270.02 395.617 1270.09 396.158 1270.16 396.709C1270.7 400.632 1271.22 404.553 1271.73 408.471L1271.07 408.559C1265.15 410.31 1259 411.175 1252.82 411.125H1252.75Z" fill="url(#paint12_linear_297_2622)"/>
<path d="M1253.47 391.747L1253.29 392.954C1253.18 399.854 1253 404.804 1252.76 411.125C1252.71 412.217 1252.67 413.344 1252.62 414.533C1252.52 417.019 1252.31 419.744 1251 421.768C1250.7 422.242 1250.33 422.672 1249.91 423.046C1248.02 424.706 1245.32 424.946 1242.81 425.115C1240.07 425.292 1237.03 425.354 1234.8 423.925C1234.45 423.691 1234.12 423.423 1233.82 423.125C1232.58 421.641 1231.77 419.85 1231.47 417.941C1230.89 415.491 1230.43 413.02 1230.07 410.529C1229.06 403.559 1228.89 396.492 1229.58 389.482L1229.6 389.127C1234.51 389.402 1239.4 389.837 1244.27 390.432C1247.35 390.806 1250.42 391.244 1253.47 391.747Z" fill="#171717"/>
<path d="M1230.07 410.53L1228.99 410.725C1206.91 408.86 1185.21 403.877 1164.53 395.925C1167.78 394.428 1171.22 393.385 1174.75 392.825C1181.57 391.502 1188.43 390.508 1195.34 389.842C1206.73 388.736 1218.18 388.498 1229.6 389.132L1229.58 389.487C1228.89 396.495 1229.05 403.561 1230.07 410.53Z" fill="url(#paint13_linear_297_2622)"/>
<path d="M1228.28 344.86L1227.94 345.56C1221.62 347.708 1217.63 354.232 1219.31 360.686L1219.17 361.281C1218.2 361.063 1217.27 360.707 1216.4 360.224C1214.46 359.048 1212.85 357.423 1211.68 355.486C1210.52 353.549 1209.84 351.359 1209.7 349.102C1209.5 344.56 1210.79 340.076 1213.38 336.337C1214.91 334.002 1217.63 331.694 1220.21 332.768C1222.58 333.754 1223.04 336.816 1223.92 339.231C1224.79 341.497 1226.3 343.455 1228.28 344.86Z" fill="#171717"/>
<path d="M1234.24 332.947C1235.65 335.122 1239.32 334.385 1240.76 332.247C1242.21 330.109 1242.11 327.302 1241.95 324.719C1241.38 315.497 1240.82 306.277 1240.25 297.059C1240.1 294.707 1239.98 292.259 1240.94 290.108C1242.26 287.17 1245.41 285.395 1248.59 284.889C1251.77 284.383 1255.01 284.924 1258.19 285.466" stroke="#171717" stroke-width="3" stroke-linecap="round" stroke-linejoin="round"/>
<path d="M1229.98 286.761C1229.3 285.551 1228.29 284.556 1227.07 283.892C1225.86 283.228 1224.47 282.921 1223.09 283.006C1221.7 283.091 1220.37 283.566 1219.24 284.375C1218.12 285.183 1217.24 286.294 1216.72 287.578" stroke="#171717" stroke-width="3" stroke-linecap="round" stroke-linejoin="round"/>
<path d="M1226.4 304.674L1225.55 297.99" stroke="#171717" stroke-width="3" stroke-linecap="round" stroke-linejoin="round"/>
<path d="M1254.27 307.195V298.425" stroke="#171717" stroke-width="3" stroke-linecap="round" stroke-linejoin="round"/>
<path d="M1238.53 347.105C1236.76 347.476 1234.93 347.468 1233.17 347.081C1231.4 346.694 1229.73 345.937 1228.28 344.86C1226.3 343.456 1224.79 341.497 1223.92 339.232C1223.04 336.817 1222.58 333.755 1220.21 332.769C1217.63 331.695 1214.91 334.003 1213.38 336.338C1210.79 340.077 1209.5 344.561 1209.7 349.103C1209.84 351.36 1210.52 353.55 1211.68 355.487C1212.85 357.424 1214.46 359.049 1216.4 360.225C1217.27 360.708 1218.2 361.064 1219.17 361.282C1220.88 361.72 1222.66 361.716 1224.36 361.27C1226.06 360.825 1227.62 359.951 1228.89 358.734" stroke="#171717" stroke-width="3" stroke-linecap="round" stroke-linejoin="round"/>
<path d="M1219.31 360.687C1217.63 354.233 1221.62 347.709 1227.94 345.561" stroke="#171717" stroke-width="3" stroke-linecap="round" stroke-linejoin="round"/>
<path d="M1244.45 389.025C1244.24 383.956 1244.02 378.816 1245.13 373.872C1246.24 368.928 1248.84 364.099 1253.14 361.4C1258.08 358.311 1264.96 358.1 1268.47 353.437C1270.4 350.872 1270.82 347.508 1271.14 344.303C1273.47 321.152 1274.03 297.857 1272.83 274.62" stroke="#171717" stroke-width="3" stroke-linecap="round" stroke-linejoin="round"/>
<path d="M1276.11 255.506C1277.25 254.202 1277.94 252.566 1278.08 250.839C1278.22 249.113 1277.8 247.387 1276.89 245.916C1275.97 244.445 1274.61 243.306 1273 242.668C1271.39 242.029 1269.62 241.924 1267.94 242.368C1263.35 243.558 1260.81 248.28 1257.54 251.715C1251.31 258.284 1241.72 260.477 1232.66 260.796C1223.61 261.115 1214.49 259.909 1205.51 261.096C1196.52 262.283 1187.25 266.484 1183.13 274.562C1177.93 284.771 1182.55 297.136 1181.19 308.516C1180.44 314.783 1177.86 320.692 1173.79 325.516C1171.9 327.735 1169.55 330.354 1170.41 333.132C1171.54 336.745 1176.82 336.656 1180.18 334.89C1183.53 333.124 1186.87 330.354 1190.59 331.064C1187.79 332.955 1184.94 334.881 1182.86 337.535C1180.77 340.189 1179.51 343.713 1180.37 346.98C1181.23 350.247 1184.68 352.865 1187.96 352.08C1192.87 350.908 1194.04 343.523 1199.08 343.58" stroke="#171717" stroke-width="3" stroke-linecap="round" stroke-linejoin="round"/>
<path d="M1276.11 255.506C1275.34 256.127 1274.58 256.766 1273.83 257.406C1274.71 256.932 1275.49 256.285 1276.11 255.506Z" stroke="#171717" stroke-width="3" stroke-linecap="round" stroke-linejoin="round"/>
<path d="M1195.13 387.77C1197.14 373.114 1198.52 358.387 1199.27 343.59C1200.06 328.082 1200.15 312.562 1199.55 297.031C1199.3 290.676 1199.24 283.477 1203.77 279.02C1207.81 275.052 1214.06 274.706 1219.72 274.6C1237.42 274.254 1255.12 273.913 1272.81 273.579L1274.25 273.552C1280.8 273.428 1287.74 273.179 1293.15 269.531C1298.57 265.883 1301.32 257.494 1296.91 252.674C1293.96 249.461 1288.89 248.974 1284.75 250.339C1281.58 251.525 1278.65 253.276 1276.11 255.506" stroke="#171717" stroke-width="3" stroke-linecap="round" stroke-linejoin="round"/>
<path d="M1191.24 486.107C1183.29 490.446 1176.3 496.331 1170.66 503.415C1165.03 510.5 1160.87 518.64 1158.42 527.357C1155.98 536.074 1155.31 545.191 1156.45 554.172C1157.58 563.153 1160.5 571.816 1165.04 579.651C1174.65 596.251 1191.12 608.189 1209.09 614.918C1215.3 617.222 1221.69 619.012 1228.2 620.271C1236.97 621.945 1245.87 622.925 1254.8 623.2C1258.44 623.333 1262.07 623.369 1265.7 623.333C1274.21 623.253 1283.26 622.943 1291.16 625.561C1293.87 626.44 1296.44 627.734 1298.76 629.396C1303.52 632.979 1307.07 637.927 1308.95 643.581C1311.96 651.837 1312.58 661.53 1312.82 670.451C1313.06 679.905 1313.12 690.025 1308.82 698.271C1308.27 699.355 1307.63 700.397 1306.92 701.387C1298.54 713.149 1282.08 715.359 1267.64 714.862C1241.38 713.948 1215.62 707.562 1190.31 700.473C1165.67 693.566 1140.76 685.737 1119.87 670.957C1096.38 654.34 1079.24 629.494 1070.05 602.233C1060.85 574.972 1059.35 545.433 1063.65 516.989C1067.07 494.336 1074.26 471.949 1087.18 453.032C1100.1 434.115 1119.11 418.865 1141.25 412.998C1146.01 411.737 1151.21 410.725 1154.55 407.104C1156.51 404.973 1157.57 402.168 1159.41 399.931C1160.82 398.253 1162.56 396.891 1164.53 395.931C1167.78 394.432 1171.22 393.387 1174.75 392.825C1181.57 391.502 1188.43 390.508 1195.34 389.842C1206.73 388.736 1218.18 388.498 1229.6 389.132C1234.51 389.406 1239.4 389.841 1244.27 390.437C1247.35 390.81 1250.42 391.248 1253.47 391.751C1258.98 392.655 1264.43 393.765 1269.85 395.08" stroke="#171717" stroke-width="3" stroke-linecap="round" stroke-linejoin="round"/>
<path d="M1269.92 394.889C1269.93 394.951 1269.94 395.004 1269.95 395.067C1270.02 395.617 1270.09 396.158 1270.16 396.709C1270.7 400.632 1271.22 404.553 1271.72 408.471C1276.32 443.827 1280.23 479.263 1283.43 514.779C1286.76 551.645 1289.33 588.573 1291.15 625.561C1291.16 625.686 1291.16 625.81 1291.16 625.934" stroke="#171717" stroke-width="3" stroke-linecap="round" stroke-linejoin="round"/>
<path d="M1270.28 396.691C1276.06 413.691 1284.65 430.112 1297.74 442.38C1310.84 454.648 1328.91 462.37 1346.74 460.311C1366.27 458.065 1383.12 444.493 1393.64 427.893C1404.17 411.293 1409.24 391.871 1413.23 372.626C1414.7 365.534 1416.27 357.962 1421.36 352.813C1424.8 349.313 1429.31 347.46 1434.16 346.466C1438.24 345.707 1442.39 345.309 1446.55 345.277C1454.86 345.064 1464 345.463 1471.32 348.819C1474.73 350.314 1477.72 352.624 1480.03 355.547C1485.13 362.125 1485.73 371.09 1485.39 379.408C1483.75 419.708 1464.87 458.243 1437.22 487.608C1417.71 508.344 1393.22 525.208 1365.49 531.655C1337.75 538.102 1306.64 533.031 1284.9 514.647" stroke="#171717" stroke-width="3" stroke-linecap="round" stroke-linejoin="round"/>
<path d="M1433.95 345.481C1421.56 336.338 1400.48 316.019 1404.43 310.506C1406.71 307.325 1417.9 313.282 1423.69 317.002C1429.47 320.721 1434.25 325.814 1437.59 331.825C1432.12 308.379 1419.75 260.313 1429.27 260.313C1438.95 259.008 1444.62 299.54 1449.4 320.013C1447.18 300.624 1442.75 261.657 1449.42 261.657C1459.07 260.308 1456.97 301.328 1460.16 324.807C1462.25 308.825 1464.05 263.269 1470.4 261.791C1476.75 260.313 1479.72 319.623 1471.33 348.819" stroke="#171717" stroke-width="3" stroke-linecap="round" stroke-linejoin="round"/>
<path d="M1549.42 617.199C1530.35 644.158 1506.81 667.663 1479.83 686.699C1479.63 686.85 1479.42 686.992 1479.22 687.134C1471.5 692.54 1462.18 697.804 1453.12 695.167C1446.36 693.197 1441.59 687.276 1437.67 681.417C1436.55 679.717 1435.45 677.991 1434.4 676.224C1429.09 667.276 1425.14 657.405 1425.64 647.124C1426.06 640.337 1428.17 633.763 1431.78 628.003C1436.08 621.199 1441.5 615.17 1447.8 610.17C1449.89 608.457 1452.03 606.85 1454.19 605.332C1468.51 595.301 1484.77 587.614 1496.64 574.769C1509.46 560.895 1515.88 542.369 1520.8 524.127C1525.71 505.885 1529.57 487.093 1538.51 470.449C1547.46 453.805 1562.69 439.249 1581.41 436.7C1588.92 435.679 1596.91 436.558 1603.77 433.344C1610.63 430.13 1615.89 417.934 1610.35 412.759" stroke="#171717" stroke-width="3" stroke-linecap="round" stroke-linejoin="round"/>
<path d="M1676.66 408.151C1673.17 412.119 1675.57 420.251 1679.69 423.579C1683.81 426.907 1689.26 427.884 1694.41 429.118C1740.77 440.187 1775.94 479.21 1796.97 521.978C1810.59 549.678 1819.64 580.565 1816.39 611.261C1811.74 655.077 1781.84 693.62 1744.03 716.247C1706.55 738.669 1662.15 747.047 1618.48 748.265C1618.08 748.283 1617.69 748.292 1617.29 748.301C1607.96 748.54 1597.6 748.079 1590.92 741.563C1588.22 738.864 1586.29 735.498 1585.32 731.808C1583.57 725.683 1583.71 718.652 1584.05 712.163C1584.47 704.245 1585.15 695.715 1588.61 688.817C1589.84 686.29 1591.51 684.003 1593.54 682.062C1597.49 678.352 1602.35 676.443 1607.63 675.449C1611.05 674.842 1614.5 674.489 1617.97 674.393C1622.11 674.224 1626.28 674.233 1630.29 674.064C1634.54 673.885 1638.76 673.419 1642.94 672.67C1656.12 670.398 1668.7 665.486 1679.93 658.228C1691.17 650.971 1700.81 641.518 1708.3 630.438C1715.79 619.358 1720.96 606.878 1723.5 593.75C1726.04 580.622 1725.9 567.115 1723.09 554.041" stroke="#171717" stroke-width="3" stroke-linecap="round" stroke-linejoin="round"/>
<path d="M1526.89 714.294C1510.97 716.078 1496.41 718.466 1496.97 722.833C1498 730.825 1534.8 726.109 1554.57 721.866C1539.61 725.186 1524.65 728.506 1509.68 731.825C1507.67 732.115 1505.75 732.876 1504.08 734.045C1502.53 735.345 1501.68 737.737 1502.74 739.459C1503.74 741.084 1505.9 741.466 1507.8 741.659C1533.01 744.259 1560.97 740.247 1584.9 731.921" stroke="#171717" stroke-width="3" stroke-linecap="round" stroke-linejoin="round"/>
<path d="M1526.89 714.294C1535.63 714.278 1544.34 713.359 1552.9 711.551C1545.48 712.439 1535.96 713.264 1526.89 714.294Z" stroke="#171717" stroke-width="3" stroke-linecap="round" stroke-linejoin="round"/>
<path d="M1553.32 695.892C1531.69 696.034 1497.1 702.843 1498.79 711.231C1498.79 715.825 1517.44 714.323 1526.89 714.294" stroke="#171717" stroke-width="3" stroke-linecap="round" stroke-linejoin="round"/>
<path d="M1553.32 695.892C1554.97 696.011 1556.64 696.04 1558.3 695.981C1556.74 695.901 1555.07 695.874 1553.32 695.892Z" stroke="#171717" stroke-width="3" stroke-linecap="round" stroke-linejoin="round"/>
<path d="M1588.61 688.817C1574.73 687.61 1561.66 685.293 1547.79 684.086C1546.63 683.986 1545.46 683.886 1544.29 683.873C1542.66 683.819 1541.04 684.056 1539.5 684.573C1536.88 685.532 1534.6 688.026 1534.85 690.814C1534.85 694.325 1546.88 695.446 1553.31 695.891" stroke="#171717" stroke-width="3" stroke-linecap="round" stroke-linejoin="round"/>
<path d="M1570.41 485.947C1561.14 529.302 1554.16 573.117 1549.51 617.208C1547.2 639.064 1545.47 661.04 1544.3 683.136" stroke="#171717" stroke-width="3" stroke-linecap="round" stroke-linejoin="round"/>
<path d="M1653.26 344.931C1649.19 344.114 1645.12 343.294 1641.05 342.472C1642.42 325.421 1645.39 308.537 1649.93 292.043C1658.6 293.081 1667.27 294.116 1675.95 295.149" stroke="#171717" stroke-width="3" stroke-linecap="round" stroke-linejoin="round"/>
<path d="M1642.43 292.06C1636.14 290.424 1629.56 290.287 1623.22 291.66" stroke="#171717" stroke-width="3" stroke-linecap="round" stroke-linejoin="round"/>
<path d="M1656.33 377.109C1667.16 377.109 1675.95 371.605 1675.95 364.815C1675.95 358.026 1667.16 352.521 1656.33 352.521C1645.49 352.521 1636.71 358.026 1636.71 364.815C1636.71 371.605 1645.49 377.109 1656.33 377.109Z" stroke="#171717" stroke-width="3" stroke-linecap="round" stroke-linejoin="round"/>
<path d="M1683.68 340.325C1679.58 340.388 1675.52 341.166 1671.69 342.625C1665.11 344.933 1658.35 348.465 1651.26 348.785C1643.72 349.014 1636.19 348.086 1628.94 346.033C1624.59 344.853 1620.36 343.29 1616.29 341.364C1613.81 340.073 1611.23 338.99 1608.57 338.124C1606.11 337.289 1603.42 337.342 1600.99 338.275C1597.86 339.624 1595.83 342.713 1594.4 345.811C1589.25 357.032 1589.53 369.947 1590.75 382.233C1591.58 390.639 1593.06 399.569 1598.78 405.792C1601.95 409.105 1605.95 411.511 1610.36 412.76C1613.92 413.828 1617.59 414.507 1621.3 414.784C1623.18 414.944 1625.06 415.033 1626.9 415.084C1631.54 415.208 1636.2 415.164 1640.84 414.924C1648.86 414.521 1656.84 413.455 1664.69 411.737C1668.77 410.871 1672.77 409.672 1676.66 408.151C1680.95 406.491 1684.92 404.101 1688.39 401.085C1696.65 393.7 1700.51 382.497 1701.93 371.517C1702.67 365.862 1702.83 360.017 1701.18 354.553C1699.54 349.089 1695.89 344.025 1690.66 341.744C1688.45 340.806 1686.08 340.323 1683.68 340.325Z" stroke="#171717" stroke-width="3" stroke-linecap="round" stroke-linejoin="round"/>
<path d="M1683.69 339.693C1684.56 335.672 1685.3 331.704 1685.91 327.754C1687.23 319.221 1687.92 310.602 1687.97 301.967C1688.01 296.428 1687.69 290.542 1684.55 285.98C1680.62 280.299 1673.31 278.133 1666.49 277.067C1651.74 274.759 1636.59 275.78 1621.89 273.206C1619.94 272.86 1617.98 272.443 1616.03 271.928C1603.32 268.599 1591.2 261.613 1585.63 249.922C1585.35 249.51 1585.19 249.038 1585.14 248.546C1585.09 248.054 1585.16 247.557 1585.35 247.099C1585.93 246.15 1587.28 246.105 1588.4 246.199C1595.74 246.834 1602.93 248.644 1609.69 251.56C1606.29 247.143 1604.04 241.947 1603.15 236.443C1602.82 234.357 1602.94 231.743 1604.8 230.743C1606.39 229.9 1608.32 230.752 1609.88 231.643C1619.05 236.877 1627.11 243.852 1633.61 252.175C1631.27 248.854 1629.65 245.083 1628.86 241.101C1628.06 237.119 1628.1 233.015 1628.98 229.051C1629.58 226.388 1631.77 223.228 1634.29 224.266C1635.24 224.778 1636 225.573 1636.47 226.539C1642.39 236.081 1648.3 245.621 1654.22 255.158C1656.38 252.708 1656.79 249.237 1658.12 246.263C1659.45 243.289 1662.75 240.52 1665.71 241.887C1667.57 242.757 1668.44 244.931 1668.73 246.973C1669.01 249.015 1668.88 251.136 1669.54 253.08C1671.16 257.78 1676.64 259.791 1681.54 260.688C1686.43 261.585 1691.87 262.206 1695.21 265.888C1697.57 268.48 1698.37 272.088 1699.09 275.519C1702.62 292.509 1706.16 309.499 1709.7 326.489C1706.23 323.942 1702.76 321.4 1699.28 318.864C1699.46 321.864 1701.87 324.181 1703.37 326.791C1704.87 329.401 1704.95 333.582 1702.11 334.576C1700.48 335.153 1698.73 334.337 1697.21 333.538C1693.52 331.62 1689.84 329.702 1686.16 327.785" stroke="#171717" stroke-width="3" stroke-linecap="round" stroke-linejoin="round"/>
<path d="M1615.98 272.132C1612.1 293.947 1609.62 315.989 1608.58 338.122C1608.58 338.184 1608.57 338.237 1608.57 338.3" stroke="#171717" stroke-width="3" stroke-linecap="round" stroke-linejoin="round"/>
<path d="M1647 362.025C1649.36 363.969 1651.78 365.958 1654.65 366.987C1657.53 368.016 1661.02 367.911 1663.34 365.931C1664.56 364.751 1665.55 363.346 1666.24 361.794" stroke="#171717" stroke-width="3" stroke-linecap="round" stroke-linejoin="round"/>
<path d="M1309.65 643.288C1322.64 635.588 1335.83 627.816 1350.39 623.848C1364.42 620.031 1380.11 620.12 1392.81 627.062C1393.3 627.328 1393.79 627.612 1394.27 627.896C1396.13 629.006 1398.01 630.396 1398.73 632.441C1400 636.041 1396.95 639.968 1393.34 641.185C1389.73 642.402 1385.78 641.726 1381.99 641.291C1370.44 639.956 1358.73 640.959 1347.56 644.238" stroke="#171717" stroke-width="3" stroke-linecap="round" stroke-linejoin="round"/>
<path d="M1366.16 641.193C1353.23 648.249 1343.64 660.139 1339.46 674.259C1338.7 676.922 1338.19 679.976 1339.7 682.302C1341.14 684.53 1344.14 685.364 1346.77 684.912C1349.38 684.304 1351.8 683.068 1353.82 681.312C1358.01 678.058 1361.69 674.2 1364.75 669.865C1367.23 666.359 1369.57 662.302 1373.58 660.765C1376.67 659.584 1380.11 660.165 1383.42 660.365C1391.16 660.808 1398.87 659.104 1405.7 655.439C1407.9 654.277 1409.98 652.909 1411.93 651.355" stroke="#171717" stroke-width="3" stroke-linecap="round" stroke-linejoin="round"/>
<path d="M1393 626.698C1405.53 623.401 1418.74 623.713 1431.11 627.598" stroke="#171717" stroke-width="3" stroke-linecap="round" stroke-linejoin="round"/>
<path d="M1405.96 655.925C1407.98 655.863 1410.08 654.925 1411.97 655.641C1412.94 655.953 1413.8 656.539 1414.44 657.328C1415.09 658.117 1415.49 659.076 1415.6 660.088C1415.68 663.195 1412.29 665.112 1409.37 666.16C1397.55 670.396 1385.05 672.415 1372.49 672.116" stroke="#171717" stroke-width="3" stroke-linecap="round" stroke-linejoin="round"/>
<path d="M1409.7 666.652C1411.43 666.874 1413.2 666.217 1414.74 667.052C1415.52 667.434 1416.19 668.022 1416.67 668.754C1417.15 669.486 1417.42 670.334 1417.45 671.207C1417.33 672.363 1416.87 673.455 1416.11 674.34C1414.65 676.244 1412.83 677.845 1410.76 679.054C1408.41 680.441 1405.92 681.586 1403.33 682.471C1391.78 686.648 1379.55 688.656 1367.27 688.392C1367.61 688.383 1367.97 688.383 1368.31 688.375" stroke="#171717" stroke-width="3" stroke-linecap="round" stroke-linejoin="round"/>
<path d="M1372.75 698.866C1379.8 698.12 1399.41 695.555 1405.85 692.608C1408.48 691.401 1411.18 689.891 1412.63 687.379C1413.35 686.089 1413.62 684.596 1413.39 683.136C1413.31 682.429 1413.07 681.751 1412.68 681.155C1412.29 680.559 1411.77 680.061 1411.16 679.701" stroke="#171717" stroke-width="3" stroke-linecap="round" stroke-linejoin="round"/>
<path d="M1413.41 683.136C1420.76 682.499 1427.86 680.182 1434.17 676.363" stroke="#171717" stroke-width="3" stroke-linecap="round" stroke-linejoin="round"/>
<path d="M1309.38 698.555C1312.52 699.274 1327.09 698.573 1330.3 698.209" stroke="#171717" stroke-width="3" stroke-linecap="round" stroke-linejoin="round"/>
<path d="M1331.94 697.437C1334.13 694.079 1337.25 691.433 1340.92 689.825C1342.35 689.213 1344.14 688.813 1345.35 689.799C1346.47 690.713 1346.52 692.382 1346.44 693.829C1346.37 695.009 1346.26 696.19 1346.1 697.362C1345.9 698.951 1345.53 700.516 1345.01 702.031C1344.81 702.619 1344.58 703.197 1344.31 703.762C1343.63 705.329 1342.63 706.738 1341.38 707.899C1340.13 709.061 1338.65 709.949 1337.03 710.508C1335.75 710.892 1334.4 710.966 1333.08 710.724C1331.77 710.482 1330.53 709.93 1329.47 709.115C1327.24 707.304 1328.74 704.694 1329.56 702.288C1330.14 700.575 1330.94 698.945 1331.94 697.437Z" stroke="#171717" stroke-width="3" stroke-linecap="round" stroke-linejoin="round"/>
<path d="M1345.01 702.035C1344.63 704.387 1343.46 708.4 1344.75 710.299C1345.21 710.862 1345.86 711.238 1346.57 711.356C1349.96 712.137 1354.41 710.256 1356.53 707.512C1356.91 707.019 1357.26 706.503 1357.57 705.967C1358.91 703.444 1359.84 700.723 1360.32 697.907C1360.34 697.783 1360.37 697.659 1360.39 697.526C1360.58 696.382 1360.5 695.208 1360.15 694.101C1359.8 692.994 1359.2 691.987 1358.38 691.161C1354.32 687.521 1348.2 693.469 1346.33 696.895C1346.25 697.046 1346.17 697.206 1346.1 697.366C1345.54 698.735 1345.2 700.18 1345.07 701.653C1345.06 701.777 1345.04 701.902 1345.01 702.035Z" stroke="#171717" stroke-width="3" stroke-linecap="round" stroke-linejoin="round"/>
<path d="M1357.8 705.381C1357.72 705.581 1357.64 705.772 1357.57 705.967C1357 707.25 1356.68 708.635 1356.64 710.042C1356.62 710.854 1356.85 711.652 1357.29 712.333C1357.73 713.014 1358.37 713.546 1359.12 713.859C1360.54 714.312 1362.07 713.637 1363.34 712.847C1367.39 710.295 1370.47 706.457 1372.09 701.947C1372.46 700.96 1372.68 699.921 1372.73 698.867C1372.8 697.926 1372.61 696.985 1372.17 696.151C1371.57 695.223 1370.69 694.504 1369.67 694.093C1368.64 693.683 1367.51 693.601 1366.44 693.86C1364.29 694.445 1362.44 695.797 1361.22 697.66" stroke="#171717" stroke-width="3" stroke-linecap="round" stroke-linejoin="round"/>
<path d="M1229.58 389.483C1228.89 396.493 1229.05 403.56 1230.07 410.53C1230.42 413.024 1230.89 415.495 1231.47 417.942C1231.77 419.851 1232.58 421.643 1233.82 423.126C1234.12 423.425 1234.44 423.693 1234.79 423.926C1237.02 425.355 1240.07 425.293 1242.8 425.116C1245.31 424.947 1248.01 424.707 1249.9 423.047C1250.32 422.673 1250.69 422.243 1250.99 421.769C1252.31 419.745 1252.52 417.02 1252.62 414.534C1252.66 413.345 1252.71 412.218 1252.75 411.126C1253 404.805 1253.18 399.852 1253.28 392.955" stroke="#171717" stroke-width="3" stroke-linecap="round" stroke-linejoin="round"/>
<path d="M1234.58 424.245C1229.08 441.208 1228.97 459.379 1228.9 477.212C1228.74 524.535 1228.58 571.858 1228.42 619.179" stroke="#171717" stroke-width="3" stroke-linecap="round" stroke-linejoin="round"/>
<path d="M1251.54 421.839C1256.22 426.819 1256.43 434.382 1256.38 441.208C1255.85 501.517 1255.34 561.82 1254.82 622.117" stroke="#171717" stroke-width="3" stroke-linecap="round" stroke-linejoin="round"/>
<path d="M1621.26 415.181C1621 420.454 1620.74 425.727 1620.48 431C1620.4 432.447 1620.4 434.089 1621.45 435.092C1622.04 435.604 1622.78 435.907 1623.56 435.953C1624.1 436.013 1624.63 436.034 1625.17 436.015C1628.64 435.971 1632.12 435.915 1635.59 435.873C1635.85 435.873 1636.11 435.864 1636.37 435.847C1637.6 435.906 1638.81 435.503 1639.76 434.719C1640.8 433.663 1640.87 432.012 1640.87 430.529C1640.87 425.621 1640.88 420.712 1640.89 415.803" stroke="#171717" stroke-width="3" stroke-linecap="round" stroke-linejoin="round"/>
<path d="M1623.57 435.864C1623.57 435.893 1623.57 435.923 1623.57 435.953C1622.65 441.934 1622.33 447.991 1622.61 454.035C1622.77 453.955 1622.92 453.875 1623.08 453.813C1624.9 453.059 1627.02 453.281 1629.02 453.289C1630.82 453.418 1632.61 452.906 1634.08 451.843C1634.37 451.597 1634.62 451.306 1634.82 450.982C1635.38 449.908 1635.66 448.712 1635.65 447.502C1635.9 443.827 1636.16 440.152 1636.41 436.477" stroke="#171717" stroke-width="3" stroke-linecap="round" stroke-linejoin="round"/>
<path d="M1623.1 453.831C1623.09 453.831 1623.09 453.84 1623.09 453.84C1618.16 456.077 1614.85 460.968 1613.23 466.134C1611.62 471.3 1611.51 476.804 1611.4 482.219C1610.14 546.552 1608.86 610.882 1607.59 675.209" stroke="#171717" stroke-width="3" stroke-linecap="round" stroke-linejoin="round"/>
<path d="M1634.06 451.843H1634.08C1636.75 451.825 1639.08 453.875 1640.23 456.29C1641.22 458.787 1641.72 461.45 1641.72 464.137C1645.83 533.152 1646.16 602.34 1642.71 671.392" stroke="#171717" stroke-width="3" stroke-linecap="round" stroke-linejoin="round"/>
<path d="M1663.35 496.555C1667.5 497.203 1671.67 497.791 1675.86 498.321C1679.96 498.854 1684.07 499.321 1688.18 499.733C1695.66 500.487 1703.15 501.064 1710.65 501.464" stroke="#171717" stroke-width="3" stroke-linecap="round" stroke-linejoin="round"/>
<path d="M1662.55 496.625C1661.78 508.931 1662.36 521.284 1664.28 533.464C1664.97 537.884 1665.97 542.545 1669.07 545.776C1671.74 548.563 1675.67 549.886 1679.53 550.152C1683.4 550.265 1687.26 549.902 1691.04 549.069C1696.59 548.084 1702.81 546.655 1705.7 541.808C1707.18 539.322 1707.49 536.34 1707.77 533.464C1708.79 522.962 1709.8 512.458 1710.82 501.951" stroke="#171717" stroke-width="3" stroke-linecap="round" stroke-linejoin="round"/>
<path d="M1688.22 499.254C1688.61 495.871 1688.95 492.259 1687.41 489.223C1685.86 486.187 1681.66 484.261 1678.93 486.293C1677.03 487.714 1676.6 490.341 1676.36 492.702C1676.16 494.575 1675.99 496.448 1675.86 498.321C1675.08 508.508 1675.08 518.738 1675.85 528.925" stroke="#171717" stroke-width="3" stroke-linecap="round" stroke-linejoin="round"/>
<path d="M1448.12 610.568C1447.96 639.09 1459.45 665.729 1479.41 686.101" stroke="#171717" stroke-width="3" stroke-linecap="round" stroke-linejoin="round"/>
<path d="M1617.99 674.765C1614.15 699.128 1614.32 723.954 1618.48 748.265C1618.48 748.309 1618.49 748.354 1618.5 748.398" stroke="#171717" stroke-width="3" stroke-linecap="round" stroke-linejoin="round"/>
<path d="M1163.62 395.581C1163.92 395.697 1164.23 395.821 1164.53 395.928C1185.21 403.881 1206.91 408.864 1228.99 410.728" stroke="#171717" stroke-width="3" stroke-linecap="round" stroke-linejoin="round"/>
<path d="M1252.82 411.125C1259 411.175 1265.15 410.31 1271.07 408.559" stroke="#171717" stroke-width="3" stroke-linecap="round" stroke-linejoin="round"/>
<path d="M1637.02 308.811C1636.56 307.951 1635.88 307.226 1635.05 306.711C1634.22 306.195 1633.27 305.907 1632.29 305.873C1631.31 305.84 1630.34 306.063 1629.48 306.521C1628.62 306.979 1627.89 307.655 1627.37 308.482" stroke="#171717" stroke-width="3" stroke-linecap="round" stroke-linejoin="round"/>
<path d="M1654.13 311.003C1654.74 309.982 1655.62 309.143 1656.66 308.571C1657.71 307.999 1658.89 307.714 1660.08 307.746C1661.27 307.777 1662.43 308.124 1663.44 308.751C1664.46 309.378 1665.29 310.262 1665.85 311.314" stroke="#171717" stroke-width="3" stroke-linecap="round" stroke-linejoin="round"/>
<path d="M1814.38 425.216C1806.18 445.632 1805.58 468.312 1812.7 489.131C1819.81 509.95 1834.15 527.525 1853.13 538.661C1862.29 544.04 1873.1 548.52 1877.73 558.084C1881.98 566.871 1879.62 577.407 1875.9 586.433C1873.24 592.871 1869.76 599.255 1864.17 603.407C1858.58 607.559 1850.45 608.931 1844.63 605.107C1838.81 601.283 1837.34 591.587 1842.84 587.307C1843.87 586.456 1845.11 585.904 1846.42 585.713C1847.74 585.521 1849.09 585.697 1850.31 586.221C1852.69 587.413 1853.94 590.697 1852.51 592.939" stroke="#171717" stroke-width="3" stroke-linecap="round" stroke-linejoin="round"/>
<path d="M1761.4 726.649C1770.14 726.154 1778.61 723.417 1785.98 718.702C1793.35 713.986 1799.38 707.45 1803.5 699.725" stroke="#171717" stroke-width="3" stroke-linecap="round" stroke-linejoin="round"/>
<path d="M1329.6 736.758C1351.91 748.028 1380.54 745.425 1400.45 730.316" stroke="#171717" stroke-width="3" stroke-linecap="round" stroke-linejoin="round"/>
<path d="M1354.44 757.687L1373.33 754.487" stroke="#171717" stroke-width="3" stroke-linecap="round" stroke-linejoin="round"/>
<path d="M1343.19 610.112C1348.31 607.031 1354.15 605.369 1360.13 605.296C1366.1 605.224 1371.99 606.743 1377.19 609.698" stroke="#171717" stroke-width="3" stroke-linecap="round" stroke-linejoin="round"/>
<path d="M1089.35 686.319C1066.74 682.692 1048.03 662.074 1046.6 639.219" stroke="#171717" stroke-width="3" stroke-linecap="round" stroke-linejoin="round"/>
<path d="M1017 548.957C1012 545.152 1007.84 540.351 1004.79 534.857" stroke="#171717" stroke-width="3" stroke-linecap="round" stroke-linejoin="round"/>
<path d="M1000 552.641L1013.16 537.606" stroke="#171717" stroke-width="3" stroke-linecap="round" stroke-linejoin="round"/>
<path d="M1021.22 483.352C1024.74 475.582 1038.27 477.173 1041.11 485.218C1043.95 493.263 1036.66 502.525 1028.16 503.195C1019.65 503.865 1011.64 497.476 1008.62 489.5C1005.59 481.524 1006.8 472.455 1009.96 464.525C1014.35 453.563 1022.16 444.307 1032.22 438.125C1049.2 427.763 1073.02 425.472 1082.34 407.908C1085.76 401.458 1086.35 393.142 1082.36 387.028C1078.36 380.914 1069.23 378.246 1063.28 382.488C1058.73 385.738 1057.1 392.188 1058.75 397.529C1060.4 402.87 1064.87 407.056 1070.01 409.272C1081.04 414.029 1095.26 409.42 1101.41 399.096C1107.78 388.389 1105.38 374.934 1105.04 362.48C1104.69 350.026 1108.59 335.08 1120.48 331.368" stroke="#171717" stroke-width="3" stroke-linecap="round" stroke-linejoin="round"/>
<path d="M1164.55 277.325C1164.37 272.972 1165.63 268.682 1168.13 265.115C1170.63 261.547 1174.23 258.901 1178.39 257.582" stroke="#171717" stroke-width="3" stroke-linecap="round" stroke-linejoin="round"/>
<path d="M1276.46 220.946C1278.55 214.62 1282.42 209.031 1287.6 204.846" stroke="#171717" stroke-width="3" stroke-linecap="round" stroke-linejoin="round"/>
<path d="M1288.81 217.9L1269.95 202" stroke="#171717" stroke-width="3" stroke-linecap="round" stroke-linejoin="round"/>
<path d="M1317.69 244.316L1328 236.764" stroke="#171717" stroke-width="3" stroke-linecap="round" stroke-linejoin="round"/>
<path d="M1327.17 246.31L1319.65 234.092" stroke="#171717" stroke-width="3" stroke-linecap="round" stroke-linejoin="round"/>
<path d="M1497.15 285.755C1498.23 280.32 1497.79 274.69 1495.88 269.488C1493.96 264.286 1490.65 259.716 1486.3 256.282" stroke="#171717" stroke-width="3" stroke-linecap="round" stroke-linejoin="round"/>
<path d="M1509.83 272.453L1504.18 262.118" stroke="#171717" stroke-width="3" stroke-linecap="round" stroke-linejoin="round"/>
<path d="M1694.67 221.873L1691.85 207.773" stroke="#171717" stroke-width="3" stroke-linecap="round" stroke-linejoin="round"/>
<path d="M1685.27 217.17L1697.49 213.41" stroke="#171717" stroke-width="3" stroke-linecap="round" stroke-linejoin="round"/>
<path d="M1722.82 253.777L1748.2 230.289" stroke="#171717" stroke-width="3" stroke-linecap="round" stroke-linejoin="round"/>
<path d="M1743.58 251.925L1726.65 228.436" stroke="#171717" stroke-width="3" stroke-linecap="round" stroke-linejoin="round"/>
<path d="M1797.88 355.477L1785.61 339.532" stroke="#171717" stroke-width="3" stroke-linecap="round" stroke-linejoin="round"/>
<path d="M1783.02 354.398C1789.67 351.02 1795.22 345.801 1799 339.36" stroke="#171717" stroke-width="3" stroke-linecap="round" stroke-linejoin="round"/>
<path d="M1595.55 484.325L1588.44 475.138" stroke="#171717" stroke-width="3" stroke-linecap="round" stroke-linejoin="round"/>
<path d="M1648.24 430.594C1655.8 428.615 1663.18 426.03 1670.32 422.866" stroke="#171717" stroke-width="3" stroke-linecap="round" stroke-linejoin="round"/>
<path d="M1616.03 431.261L1613.11 429.59" stroke="#171717" stroke-width="3" stroke-linecap="round" stroke-linejoin="round"/>
<path d="M1669.03 464.625L1678.85 455.225" stroke="#171717" stroke-width="3" stroke-linecap="round" stroke-linejoin="round"/>
<path d="M1724.75 469.898L1719.15 461.379" stroke="#171717" stroke-width="3" stroke-linecap="round" stroke-linejoin="round"/>
<path d="M1756.99 519.144L1766.49 508.19" stroke="#171717" stroke-width="3" stroke-linecap="round" stroke-linejoin="round"/>
<path d="M1744.68 557.84L1738.45 545.288" stroke="#171717" stroke-width="3" stroke-linecap="round" stroke-linejoin="round"/>
<path d="M1672.38 596.231L1680.24 585.318" stroke="#171717" stroke-width="3" stroke-linecap="round" stroke-linejoin="round"/>
<path d="M1690.77 621.34L1687.43 611.731" stroke="#171717" stroke-width="3" stroke-linecap="round" stroke-linejoin="round"/>
<path d="M1570.61 656.515L1579.46 646.131L1578.86 646.81" stroke="#171717" stroke-width="3" stroke-linecap="round" stroke-linejoin="round"/>
<path d="M1581.35 599.195L1573.83 587.917" stroke="#171717" stroke-width="3" stroke-linecap="round" stroke-linejoin="round"/>
<path d="M1588.23 552.996L1596.15 544.625" stroke="#171717" stroke-width="3" stroke-linecap="round" stroke-linejoin="round"/>
<path d="M1534.58 554.9C1532.29 553.116 1530.64 550.639 1529.87 547.838" stroke="#171717" stroke-width="3" stroke-linecap="round" stroke-linejoin="round"/>
<path d="M1526.99 602.072L1534.92 589.538" stroke="#171717" stroke-width="3" stroke-linecap="round" stroke-linejoin="round"/>
<path d="M1495.17 645.612L1490.85 634.812" stroke="#171717" stroke-width="3" stroke-linecap="round" stroke-linejoin="round"/>
<path d="M1472.38 611.808C1475.36 610.147 1478.56 608.92 1481.89 608.163" stroke="#171717" stroke-width="3" stroke-linecap="round" stroke-linejoin="round"/>
<path d="M1765.96 602.789L1779.06 593.93" stroke="#171717" stroke-width="3" stroke-linecap="round" stroke-linejoin="round"/>
<path d="M1733.42 642.019L1734.34 625.673" stroke="#171717" stroke-width="3" stroke-linecap="round" stroke-linejoin="round"/>
<path d="M1779.46 644.507L1780.05 633.852" stroke="#171717" stroke-width="3" stroke-linecap="round" stroke-linejoin="round"/>
<path d="M1723.8 679.04L1736.96 680.275" stroke="#171717" stroke-width="3" stroke-linecap="round" stroke-linejoin="round"/>
<path d="M1671.13 695.257L1673.62 683.976" stroke="#171717" stroke-width="3" stroke-linecap="round" stroke-linejoin="round"/>
<path d="M1641.1 720.23L1651.13 720.818" stroke="#171717" stroke-width="3" stroke-linecap="round" stroke-linejoin="round"/>
<path d="M1850.69 515.12L1853.51 501.962" stroke="#171717" stroke-width="3" stroke-linecap="round" stroke-linejoin="round"/>
<path d="M1857.27 510.425C1853.3 510.76 1849.34 509.768 1845.99 507.605" stroke="#171717" stroke-width="3" stroke-linecap="round" stroke-linejoin="round"/>
<path d="M1397.32 536.019C1410.32 531.877 1421.72 523.82 1429.96 512.95" stroke="#171717" stroke-width="3" stroke-linecap="round" stroke-linejoin="round"/>
<path d="M1182.01 449.641L1170.23 443.375C1170.23 443.375 1168.22 450.894 1168.22 452.147C1168.22 453.4 1182.01 449.641 1182.01 449.641Z" stroke="#171717" stroke-width="3" stroke-linecap="round" stroke-linejoin="round"/>
<path d="M1130.63 526.504L1118.51 534.314L1136.47 541.907L1130.63 526.504Z" stroke="#171717" stroke-width="3" stroke-linecap="round" stroke-linejoin="round"/>
<path d="M1110.99 458.524L1097.21 465.097L1110.99 475.123V458.524Z" stroke="#171717" stroke-width="3" stroke-linecap="round" stroke-linejoin="round"/>
<path d="M1209.66 534.858L1196.3 539.453L1204.98 551.369L1209.66 534.858Z" stroke="#171717" stroke-width="3" stroke-linecap="round" stroke-linejoin="round"/>
<path d="M1360.47 485.566L1346.47 503.244H1364.69L1360.47 485.566Z" stroke="#171717" stroke-width="3" stroke-linecap="round" stroke-linejoin="round"/>
<path d="M1436.41 424.245L1452.7 425.203L1446.01 439.773L1436.41 424.245Z" stroke="#171717" stroke-width="3" stroke-linecap="round" stroke-linejoin="round"/>
<path d="M1404.66 443.375L1406.33 452.403L1392.36 449.641L1404.66 443.375Z" stroke="#171717" stroke-width="3" stroke-linecap="round" stroke-linejoin="round"/>
<path d="M1284.77 639.216L1291.16 652.241H1263.88L1284.77 639.216Z" stroke="#171717" stroke-width="3" stroke-linecap="round" stroke-linejoin="round"/>
<path d="M1187.12 672.147L1176.99 648.334L1165.3 666.614L1187.12 672.147Z" stroke="#171717" stroke-width="3" stroke-linecap="round" stroke-linejoin="round"/>
<path d="M1124.36 602.072L1113.08 619.183L1108.07 602.072H1124.36Z" stroke="#171717" stroke-width="3" stroke-linecap="round" stroke-linejoin="round"/>
<path d="M1277.52 572.036L1267.64 581.226L1280.54 587.917L1277.52 572.036Z" stroke="#171717" stroke-width="3" stroke-linecap="round" stroke-linejoin="round"/>
<g opacity="0.1">
<path d="M1272.81 270.001C1257.83 267.035 1241.71 267.79 1226.48 268.318C1214.02 268.75 1203.98 274.088 1203.04 287.607C1202.54 294.795 1203.26 302.185 1203.4 309.386C1203.55 317.712 1203.42 326.037 1203 334.36C1202.28 350.556 1200.71 366.703 1198.3 382.734C1197.41 388.384 1205.82 390.973 1207.07 385.151C1213.11 357.138 1215.96 328.435 1213.71 299.784C1213.29 294.414 1210.91 285.62 1214.64 280.953C1217.91 276.865 1224.54 276.96 1229.26 276.818C1243.79 276.38 1258.56 277.189 1272.82 273.978C1274.75 273.542 1274.82 270.396 1272.82 270.001H1272.81Z" fill="#171717"/>
</g>
<g opacity="0.1">
<path d="M1190.3 386.276C1181.4 389.505 1173 394.334 1164.68 398.853C1160.41 401.171 1156.12 402.861 1152 405.488C1147.77 408.192 1143.53 410.903 1139.3 413.62C1124.28 423.261 1109.12 433.336 1097.64 447.206C1076.11 473.213 1065.09 507.917 1063.86 541.378C1062.68 573.605 1070.7 607.149 1089.55 633.644C1109.76 662.059 1139.95 680.52 1172.16 692.595C1212.77 707.637 1256.18 713.647 1299.35 710.206C1304.23 709.824 1308.4 706.321 1308.4 701.159C1308.4 696.546 1304.25 691.745 1299.35 692.112C1263.75 694.853 1227.95 690.895 1193.8 680.443C1163.85 671.221 1134.31 656.984 1113.03 633.396C1093.34 611.56 1083.44 582.16 1082.32 553.06C1081.16 523.027 1088.15 491.483 1104.54 466.079C1114.64 450.428 1128.97 439.225 1144.15 428.802C1152.32 423.188 1161.13 418.087 1168.4 411.345C1176.18 404.123 1185.61 398.828 1193.41 391.608C1195.67 389.515 1193.32 385.186 1190.31 386.281L1190.3 386.276Z" fill="#171717"/>
</g>
<g opacity="0.1">
<path d="M1614.93 414.787C1619.04 425.136 1604.96 429.287 1597.48 429.562C1587.45 429.924 1577.68 432.193 1569.12 437.644C1551.31 448.991 1541.55 468.87 1535.62 488.439C1529.21 509.56 1526.82 532.586 1515.34 551.833C1506.18 567.192 1491.15 577.551 1476.8 587.62C1468.53 593.42 1460.24 599.254 1452.63 605.906C1445.37 612.253 1435.6 620.906 1433.84 630.794C1432.58 637.87 1439.88 641.794 1445.36 637.494C1448.96 634.663 1451.4 630.683 1454.42 627.233C1457.47 623.778 1460.75 620.533 1464.25 617.52C1471.17 611.478 1478.76 606.279 1486.28 601.02C1501.7 590.22 1517.24 579.053 1527.78 563.12C1541 543.12 1544.25 518.913 1550.32 496.243C1555.53 476.772 1564.2 456.75 1583.06 447.038C1593.1 441.869 1606.18 443.3 1615.38 436.362C1623.02 430.611 1627 419.435 1620.49 411.549C1618.43 409.049 1613.72 411.735 1614.93 414.787H1614.93Z" fill="#171717"/>
</g>
<g opacity="0.1">
<path d="M1577.98 482.379C1571.45 486.142 1570.81 496.469 1569.18 503.112C1567.15 511.336 1565.57 519.68 1564.08 528.019C1561.14 544.462 1558.9 561.058 1556.83 577.631C1554.77 594.161 1553.07 610.732 1551.73 627.343C1551.05 635.81 1550.46 644.282 1549.97 652.759C1549.74 656.672 1549.54 660.587 1549.35 664.502C1549.14 669.002 1548.28 673.927 1549.87 678.202C1551.82 683.467 1560.45 686.268 1563.32 679.96C1566.71 672.508 1565.59 662.832 1566.03 654.712C1566.46 646.559 1566.99 638.412 1567.6 630.27C1568.85 613.662 1570.46 597.087 1572.44 580.544C1574.37 564.378 1576.83 548.304 1579.32 532.217C1580.62 523.802 1582.02 515.399 1583.16 506.961C1584.06 500.261 1587.78 489.741 1583.42 483.804C1582.87 482.911 1582 482.265 1580.98 481.999C1579.97 481.733 1578.89 481.867 1577.97 482.375L1577.98 482.379Z" fill="#171717"/>
</g>
<g opacity="0.1">
<path d="M1593.36 693.581C1596.45 693.139 1599.37 691.605 1602.32 690.608C1606.13 689.354 1610.01 688.31 1613.94 687.481C1622.45 685.604 1631.26 685.769 1639.93 685.355C1655.92 684.711 1671.59 680.665 1685.9 673.486C1699.89 666.371 1712.14 656.262 1721.78 643.878C1731.43 631.495 1738.22 617.14 1741.7 601.832C1743.71 592.891 1744.61 583.735 1744.38 574.573C1744.11 565.425 1743.72 554.346 1737.85 546.963C1734.59 542.863 1726.55 545.034 1725.7 550.169C1724.47 557.692 1727.2 565.362 1727.56 572.948C1728.71 595.227 1721.81 617.178 1708.12 634.792C1699.18 645.876 1687.86 654.804 1674.99 660.912C1661.03 667.637 1646.56 669.259 1631.29 670.026C1622.07 670.49 1612.33 671.194 1604.02 675.566C1598.24 678.602 1590.7 684.488 1590.99 691.773C1591 692.06 1591.07 692.341 1591.2 692.596C1591.33 692.851 1591.52 693.074 1591.74 693.247C1591.97 693.421 1592.24 693.541 1592.52 693.599C1592.8 693.657 1593.09 693.651 1593.36 693.581Z" fill="#171717"/>
</g>
<defs>
<linearGradient id="paint0_linear_297_2622" x1="707.468" y1="551.506" x2="707.468" y2="653.673" gradientUnits="userSpaceOnUse">
<stop stop-color="#D89EFF"/>
<stop offset="1" stop-color="#8238E0"/>
</linearGradient>
<linearGradient id="paint1_linear_297_2622" x1="308.994" y1="355.32" x2="308.994" y2="477.723" gradientUnits="userSpaceOnUse">
<stop stop-color="#D89EFF"/>
<stop offset="1" stop-color="#8238E0"/>
</linearGradient>
<linearGradient id="paint2_linear_297_2622" x1="782.532" y1="561.301" x2="782.532" y2="575.983" gradientUnits="userSpaceOnUse">
<stop stop-color="#D89EFF"/>
<stop offset="1" stop-color="#8238E0"/>
</linearGradient>
<linearGradient id="paint3_linear_297_2622" x1="650.521" y1="559.067" x2="650.521" y2="573.54" gradientUnits="userSpaceOnUse">
<stop stop-color="#D89EFF"/>
<stop offset="1" stop-color="#8238E0"/>
</linearGradient>
<linearGradient id="paint4_linear_297_2622" x1="290.83" y1="330.13" x2="290.83" y2="367.754" gradientUnits="userSpaceOnUse">
<stop stop-color="#D89EFF"/>
<stop offset="1" stop-color="#8238E0"/>
</linearGradient>
<linearGradient id="paint5_linear_297_2622" x1="369.291" y1="779.355" x2="369.291" y2="920.279" gradientUnits="userSpaceOnUse">
<stop stop-color="#D89EFF"/>
<stop offset="1" stop-color="#8238E0"/>
</linearGradient>
<linearGradient id="paint6_linear_297_2622" x1="1626.33" y1="451.843" x2="1626.33" y2="675.449" gradientUnits="userSpaceOnUse">
<stop stop-color="#D89EFF"/>
<stop offset="1" stop-color="#8238E0"/>
</linearGradient>
<linearGradient id="paint7_linear_297_2622" x1="1187.12" y1="395.931" x2="1187.12" y2="714.926" gradientUnits="userSpaceOnUse">
<stop stop-color="#D89EFF"/>
<stop offset="1" stop-color="#8238E0"/>
</linearGradient>
<linearGradient id="paint8_linear_297_2622" x1="1630.67" y1="414.781" x2="1630.67" y2="436.02" gradientUnits="userSpaceOnUse">
<stop stop-color="#D89EFF"/>
<stop offset="1" stop-color="#8238E0"/>
</linearGradient>
<linearGradient id="paint9_linear_297_2622" x1="1629.46" y1="435.847" x2="1629.46" y2="454.035" gradientUnits="userSpaceOnUse">
<stop stop-color="#D89EFF"/>
<stop offset="1" stop-color="#8238E0"/>
</linearGradient>
<linearGradient id="paint10_linear_297_2622" x1="1377.82" y1="345.23" x2="1377.82" y2="534.323" gradientUnits="userSpaceOnUse">
<stop stop-color="#D89EFF"/>
<stop offset="1" stop-color="#8238E0"/>
</linearGradient>
<linearGradient id="paint11_linear_297_2622" x1="1271.07" y1="408.471" x2="1271.07" y2="625.561" gradientUnits="userSpaceOnUse">
<stop stop-color="#D89EFF"/>
<stop offset="1" stop-color="#8238E0"/>
</linearGradient>
<linearGradient id="paint12_linear_297_2622" x1="1262.24" y1="391.747" x2="1262.24" y2="411.127" gradientUnits="userSpaceOnUse">
<stop stop-color="#D89EFF"/>
<stop offset="1" stop-color="#8238E0"/>
</linearGradient>
<linearGradient id="paint13_linear_297_2622" x1="1197.3" y1="388.786" x2="1197.3" y2="410.725" gradientUnits="userSpaceOnUse">
<stop stop-color="#D89EFF"/>
<stop offset="1" stop-color="#8238E0"/>
</linearGradient>
<clipPath id="clip0_297_2622">
<rect width="960" height="960" fill="white"/>
</clipPath>
</defs>
</svg>
