<svg width="1920" height="960" viewBox="0 0 1920 960" fill="none" xmlns="http://www.w3.org/2000/svg">
<g clip-path="url(#clip0_297_2626)">
<mask id="mask0_297_2626" style="mask-type:luminance" maskUnits="userSpaceOnUse" x="960" y="0" width="960" height="960">
<path d="M1920 0H960V960H1920V0Z" fill="white"/>
</mask>
<g mask="url(#mask0_297_2626)">
<path fill-rule="evenodd" clip-rule="evenodd" d="M1411.86 403.893C1406.15 408.359 1401.73 414.271 1399.06 421.019C1395.11 430.467 1393.81 441.414 1394.14 451.73C1394.35 458.631 1395.12 465.521 1395.89 472.405C1397.1 483.141 1398.31 493.864 1397.37 504.594C1394.45 538.146 1369.86 567.56 1339.15 581.371C1308.44 595.182 1272.69 594.81 1240.24 585.757C1217.44 579.398 1195.51 568.688 1178.36 552.363C1161.21 536.038 1149.17 513.749 1147.69 490.118L1147.27 489.577C1144.97 490.42 1142.72 491.407 1140.55 492.531C1127.38 499.424 1116.94 510.581 1110.93 524.178C1108.45 529.727 1106.81 535.618 1106.08 541.653C1109.48 567.978 1122 591.924 1140.48 611C1159 630.132 1182.39 644.1 1207.04 654.146C1245.63 669.862 1288.48 676.323 1329.49 668.927C1370.49 661.531 1409.37 639.636 1434.11 606.096C1461.24 569.297 1469.6 522.385 1474.94 476.826L1475.34 476.871C1499.91 596.569 1502.49 720.292 1487.34 841.534C1486.81 845.796 1486.34 850.475 1488.72 854.06C1490.85 857.273 1494.6 858.648 1498.52 859.325C1500.1 859.607 1501.71 859.776 1503.25 859.9C1513.32 860.755 1523.51 861.591 1533.45 859.855C1540.92 858.545 1548.33 855.593 1554.05 850.745C1555.96 849.128 1557.67 847.289 1559.14 845.266C1564.65 837.622 1566.16 827.892 1567.41 818.557C1583.87 695.608 1581.59 570.875 1560.67 448.607C1546.25 452.303 1531.27 453.311 1516.49 451.583C1488.27 448.016 1462.35 434.211 1443.65 412.789C1440.49 409.142 1437.57 405.293 1434.91 401.267L1434.27 401.695C1426.73 401.497 1419.2 402.163 1411.82 403.679L1411.86 403.893ZM1556.88 460.957C1556.75 460.032 1555.9 459.384 1554.97 459.511C1554.05 459.639 1553.4 460.492 1553.53 461.417C1570.52 585.202 1570.69 710.717 1554.03 834.547C1553.91 835.473 1554.56 836.324 1555.49 836.449C1556.41 836.573 1557.26 835.924 1557.39 834.998C1574.08 710.865 1573.91 585.044 1556.88 460.957Z" fill="#171717"/>
<path fill-rule="evenodd" clip-rule="evenodd" d="M1489.89 343.441L1490.24 343.126C1492.1 340.934 1493.77 338.588 1495.24 336.113C1496.71 333.623 1497.52 330.797 1497.58 327.906C1497.62 326.887 1497.41 325.873 1496.97 324.952C1496.75 324.494 1496.43 324.093 1496.02 323.782C1495.62 323.471 1495.15 323.258 1494.65 323.159C1493.22 322.959 1491.9 323.948 1490.94 325.031C1489.55 326.571 1488.49 328.378 1487.82 330.341C1487.71 330.105 1487.61 329.869 1487.51 329.633C1486.68 327.76 1485.88 325.926 1484.17 324.794C1482.24 323.52 1479.22 323.633 1477.99 325.594C1477.65 326.224 1477.47 326.924 1477.47 327.637C1477.46 328.35 1477.62 329.055 1477.93 329.694C1478.58 330.967 1479.43 332.128 1480.45 333.133C1483.59 336.563 1486.73 339.999 1489.89 343.441ZM1477.23 320.893C1479.08 322.305 1481.26 323.242 1483.56 323.621C1485.86 324 1488.22 323.811 1490.43 323.069C1494.85 321.527 1498.65 318.582 1501.25 314.681C1503.82 310.798 1505.76 306.538 1507.01 302.054C1511.08 288.86 1512.29 274.953 1510.57 261.254L1510.59 261.017C1511.88 261.107 1513.18 261.107 1514.48 261.017L1514.51 261.445C1543.2 273.464 1565.27 298.988 1573.59 328.978L1573.54 328.989C1573.1 327.715 1571.25 327.061 1569.76 326.881C1566.9 326.516 1564.02 326.332 1561.14 326.328C1554.59 326.328 1548.08 327.242 1541.79 329.045L1541.7 329.079C1548.23 346.328 1552.91 364.218 1555.68 382.451L1555.36 382.699C1551.07 383.003 1546.79 383.345 1542.53 383.725C1519.91 385.747 1497.42 388.907 1475.13 393.195C1461.68 379.486 1453.63 360.658 1456.41 341.763C1456.98 340.645 1457.26 339.408 1457.26 338.155C1457.27 336.252 1456.61 334.405 1455.41 332.935C1453.01 330.083 1448.99 329.248 1445.28 328.955C1434.98 328.19 1424.68 330.418 1415.62 335.37C1408.18 339.371 1401.7 344.964 1396.67 351.751C1394.07 340.536 1394.08 328.875 1396.69 317.664C1399.31 306.453 1404.45 295.988 1411.73 287.072V287.049C1420.25 286.361 1428.84 285.403 1438.12 280.33C1445.78 276.136 1454.39 268.492 1461.9 259.822C1462.11 277.116 1465.22 294.252 1471.12 310.511C1472.48 314.343 1474.09 318.311 1477.23 320.893ZM1520.99 307.857C1521.81 307.407 1522.83 307.707 1523.28 308.525C1533.81 327.694 1541.02 348.499 1544.63 370.066C1544.78 370.987 1544.16 371.859 1543.24 372.013C1542.31 372.167 1541.44 371.545 1541.29 370.624C1537.75 349.432 1530.66 328.988 1520.32 310.153C1519.87 309.334 1520.17 308.306 1520.99 307.857ZM1521.67 268.023C1520.88 267.532 1519.83 267.778 1519.34 268.572C1518.85 269.367 1519.1 270.409 1519.89 270.9C1538.38 282.328 1552.73 299.368 1560.85 319.532C1561.2 320.398 1562.18 320.818 1563.05 320.469C1563.92 320.12 1564.34 319.135 1563.99 318.269C1555.6 297.436 1540.77 279.83 1521.67 268.023Z" fill="url(#paint0_linear_297_2626)"/>
<path d="M1564.3 335.561C1563.31 332.46 1562.26 329.382 1561.14 326.327C1564.03 326.331 1566.91 326.515 1569.77 326.88C1571.26 327.06 1573.11 327.714 1573.55 328.988C1573.63 329.223 1573.66 329.473 1573.64 329.721C1573.56 330.848 1572.5 331.604 1571.53 332.179C1569.24 333.56 1566.83 334.726 1564.33 335.662L1564.3 335.561Z" fill="#171717"/>
<path d="M1555.36 382.7C1554.88 385.396 1553.55 387.866 1551.56 389.746C1549.85 391.423 1547.69 392.573 1545.35 393.061L1542.53 383.726C1546.8 383.342 1551.08 383 1555.36 382.7Z" fill="url(#paint1_linear_297_2626)"/>
<path d="M1545.34 393.059L1551.3 412.766C1530.98 417.795 1508.86 415.799 1490.8 405.366C1485.05 402.032 1479.78 397.936 1475.13 393.19C1497.42 388.902 1519.91 385.742 1542.53 383.72L1545.34 393.059Z" fill="#171717"/>
<path d="M1497.58 327.906C1497.51 330.797 1496.7 333.623 1495.23 336.113C1493.77 338.588 1492.1 340.934 1490.23 343.126L1489.88 343.441C1486.74 340.003 1483.59 336.57 1480.44 333.141C1479.42 332.136 1478.57 330.975 1477.92 329.702C1477.61 329.063 1477.45 328.358 1477.46 327.645C1477.47 326.932 1477.64 326.232 1477.98 325.602C1479.21 323.641 1482.22 323.539 1484.16 324.802C1486.1 326.065 1486.86 328.241 1487.81 330.349C1488.48 328.386 1489.54 326.579 1490.93 325.039C1491.89 323.956 1493.21 322.964 1494.64 323.167C1495.14 323.265 1495.61 323.479 1496.01 323.79C1496.42 324.101 1496.74 324.502 1496.96 324.96C1497.4 325.878 1497.61 326.889 1497.58 327.906Z" fill="url(#paint2_linear_297_2626)"/>
<path d="M1495.26 252.391C1498.33 258.017 1503.87 260.633 1510.59 261.016L1510.58 261.253C1512.29 274.952 1511.08 288.859 1507.01 302.053C1505.76 306.537 1503.82 310.797 1501.25 314.68C1498.66 318.581 1494.86 321.526 1490.43 323.068C1488.22 323.81 1485.86 323.999 1483.56 323.62C1481.26 323.241 1479.09 322.304 1477.23 320.892C1474.1 318.31 1472.48 314.342 1471.13 310.509C1465.23 294.25 1462.11 277.114 1461.91 259.82C1465.92 255.219 1469.59 250.324 1472.87 245.175C1473.59 247.331 1474.77 249.305 1476.33 250.961C1477.89 252.617 1479.79 253.916 1481.9 254.769C1486.2 256.314 1491.92 255.186 1494.76 251.612L1494.99 251.545C1495.06 251.828 1495.15 252.109 1495.26 252.391Z" fill="url(#paint3_linear_297_2626)"/>
<path d="M1434.9 401.267L1434.26 401.695C1426.73 401.497 1419.19 402.163 1411.81 403.679C1402.14 405.643 1392.81 409.024 1384.12 413.713C1384 413.401 1383.91 413.076 1383.85 412.744C1383.5 410.737 1384.35 408.753 1385.16 406.892C1392.71 389.835 1399.87 373.521 1407.42 356.463V356.263C1410.52 356.281 1413.61 355.77 1416.55 354.752L1416.93 354.696C1419.49 371.336 1425.62 387.224 1434.9 401.267Z" fill="url(#paint4_linear_297_2626)"/>
<path d="M1416.93 354.693L1416.55 354.749C1413.61 355.767 1410.53 356.278 1407.42 356.26C1403.55 356.261 1399.8 354.9 1396.83 352.416C1396.78 352.19 1396.72 351.976 1396.67 351.75C1401.71 344.963 1408.18 339.37 1415.63 335.369C1415.5 341.836 1415.94 348.301 1416.93 354.693Z" fill="#171717"/>
<path d="M1411.81 403.679L1411.86 403.894C1406.14 408.36 1401.72 414.272 1399.06 421.019C1396.23 419.339 1394.4 419.373 1391.17 418.663C1388.25 418.02 1385.14 416.408 1384.12 413.713C1392.81 409.023 1402.14 405.642 1411.81 403.679Z" fill="url(#paint5_linear_297_2626)"/>
<path d="M1495.25 252.391C1495.15 252.109 1495.06 251.828 1494.98 251.546C1493.11 245.007 1496.55 237.825 1501.38 232.932C1506.42 227.814 1512.86 224.332 1518.3 219.64C1534.02 206.04 1539.39 181.792 1530.89 162.829" stroke="#171717" stroke-width="3.382" stroke-linecap="round" stroke-linejoin="round"/>
<path d="M1537.15 155.5C1535.21 158.054 1533.06 160.445 1530.72 162.648C1518.31 174.291 1501.84 180.633 1484.82 180.326C1481.63 180.249 1478.44 179.917 1475.3 179.334" stroke="#171717" stroke-width="3.382" stroke-linecap="round" stroke-linejoin="round"/>
<path d="M1484.81 180.18C1484.81 180.225 1484.83 180.28 1484.83 180.327C1486.8 197.982 1485.73 215.527 1479.54 232.165C1477.76 236.718 1475.53 241.077 1472.86 245.176C1469.58 250.325 1465.92 255.22 1461.91 259.821C1454.4 268.491 1445.78 276.135 1438.13 280.329C1428.85 285.402 1420.26 286.36 1411.74 287.048C1401.83 287.848 1392.01 288.266 1381.28 294.342C1362.32 305.109 1357.52 326.609 1336.78 333.385C1322.94 337.906 1299.47 334.524 1285.31 337.973C1272.44 341.096 1261.25 348.831 1250.53 356.598C1239.8 364.365 1228.97 372.439 1216.34 376.441C1203.71 380.443 1188.73 379.632 1178.78 370.894" stroke="#171717" stroke-width="3.382" stroke-linecap="round" stroke-linejoin="round"/>
<path d="M1177.1 370.15C1177.68 370.195 1178.24 370.229 1178.82 370.263C1205.84 371.616 1232.11 354.693 1245.43 331.051C1253.55 316.651 1257.41 300.251 1264.61 285.379C1271.82 270.507 1283.89 256.36 1300.19 253.665C1312.96 251.546 1326.51 256.777 1338.76 252.665C1354.36 247.445 1361.42 229.733 1365.98 213.938C1370.53 198.143 1375.93 180.33 1390.61 172.911C1405.62 165.346 1424.66 171.852 1439.97 164.952C1457.03 157.263 1463.35 136.169 1477.69 124.152C1491.67 112.438 1512.52 110.904 1529.35 117.928C1546.18 124.952 1559.13 139.473 1567.04 155.9C1578.44 179.553 1579.67 209.2 1565.37 231.222C1555.7 246.127 1532.18 260.017 1514.48 261.022C1513.19 261.112 1511.89 261.112 1510.59 261.022C1503.87 260.639 1498.34 258.022 1495.26 252.397" stroke="#171717" stroke-width="3.382" stroke-linecap="round" stroke-linejoin="round"/>
<path d="M1411.74 287.071C1404.45 295.987 1399.31 306.452 1396.7 317.663C1394.09 328.874 1394.08 340.535 1396.67 351.75C1396.72 351.976 1396.77 352.19 1396.83 352.416C1396.84 352.449 1396.84 352.483 1396.85 352.516" stroke="#171717" stroke-width="3.382" stroke-linecap="round" stroke-linejoin="round"/>
<path d="M1396.47 352.021L1396.67 351.751C1401.71 344.963 1408.18 339.37 1415.62 335.369C1424.69 330.417 1434.99 328.189 1445.29 328.954C1448.99 329.247 1453.01 330.082 1455.41 332.934C1456.62 334.404 1457.27 336.251 1457.26 338.154C1457.27 339.407 1456.98 340.644 1456.41 341.762" stroke="#171717" stroke-width="3.382" stroke-linecap="round" stroke-linejoin="round"/>
<path d="M1456.42 341.762C1453.63 360.657 1461.68 379.485 1475.13 393.194C1479.78 397.94 1485.05 402.036 1490.8 405.37C1508.86 415.799 1530.98 417.795 1551.3 412.77C1556.03 411.607 1560.66 410.061 1565.13 408.148C1588.62 398.091 1607.46 378.824 1619.83 356.467C1619.9 356.332 1619.98 356.185 1620.06 356.05" stroke="#171717" stroke-width="3.382" stroke-linecap="round" stroke-linejoin="round"/>
<path d="M1415.63 335.155V335.369C1415.5 341.836 1415.94 348.301 1416.93 354.693C1419.49 371.333 1425.62 387.222 1434.9 401.267C1437.56 405.294 1440.48 409.142 1443.64 412.789C1462.34 434.211 1488.27 448.016 1516.48 451.583C1531.27 453.312 1546.24 452.303 1560.67 448.607C1582.13 443.083 1602.09 432.842 1619.1 418.629C1639.39 401.797 1655.36 380.387 1667.64 356.97C1672.55 347.564 1676.91 337.878 1680.69 327.962C1681.72 325.279 1682.72 322.393 1682.06 319.608C1681.39 316.823 1678.32 314.433 1675.69 315.56C1673.91 316.327 1673.01 318.311 1672.29 320.115C1672.07 320.668 1671.85 321.231 1671.63 321.784C1667.75 331.513 1663.86 341.235 1659.97 350.95" stroke="#171717" stroke-width="3.382" stroke-linecap="round" stroke-linejoin="round"/>
<path d="M1671.44 322.573C1671.5 322.314 1671.56 322.054 1671.63 321.784C1672.36 318.845 1672.49 315.791 1672.03 312.798C1671.39 309.946 1668.92 307.274 1666 307.454C1665.01 307.582 1664.07 307.941 1663.24 308.501C1662.41 309.061 1661.73 309.807 1661.25 310.679C1660.4 312.153 1659.77 313.74 1659.37 315.391C1659.28 315.673 1659.2 315.966 1659.13 316.248C1656.35 325.815 1652.17 334.912 1646.7 343.239" stroke="#171717" stroke-width="3.382" stroke-linecap="round" stroke-linejoin="round"/>
<path d="M1659.23 315.346C1659.69 310.961 1659.97 304.185 1657.95 300.273C1655.93 296.361 1650.46 293.914 1646.97 296.573C1644.13 298.737 1643.96 302.83 1643.67 306.381C1642.92 315.414 1639.84 324.097 1634.73 331.581C1633.43 333.475 1631.54 335.493 1629.27 335.144C1626.16 334.67 1625.47 330.544 1625.56 327.387C1625.66 323.34 1625.78 319.287 1625.88 315.234C1625.95 312.866 1625.85 310.115 1623.96 308.672C1623.46 308.31 1622.89 308.065 1622.28 307.956C1621.68 307.847 1621.05 307.876 1620.46 308.041C1619.18 308.333 1618.04 309.038 1617.21 310.047C1615.61 312.032 1615.16 314.681 1614.9 317.206C1614.22 323.51 1614.17 329.866 1614.73 336.181C1615.3 343.106 1616.93 349.902 1619.58 356.328" stroke="#171717" stroke-width="3.382" stroke-linecap="round" stroke-linejoin="round"/>
<path d="M1396.74 352.348C1396.77 352.371 1396.8 352.393 1396.83 352.416C1399.8 354.9 1403.55 356.261 1407.42 356.26C1410.53 356.278 1413.61 355.767 1416.55 354.749" stroke="#171717" stroke-width="3.382" stroke-linecap="round" stroke-linejoin="round"/>
<path d="M1407.42 356.463C1399.88 373.521 1392.72 389.835 1385.16 406.892C1384.35 408.753 1383.51 410.737 1383.85 412.744C1383.91 413.076 1384 413.401 1384.13 413.713C1385.14 416.408 1388.25 418.02 1391.17 418.663C1394.41 419.373 1396.23 419.339 1399.06 421.019L1399.13 421.053" stroke="#171717" stroke-width="3.382" stroke-linecap="round" stroke-linejoin="round"/>
<path d="M1383.89 413.837C1383.97 413.791 1384.04 413.75 1384.13 413.713C1392.81 409.024 1402.14 405.642 1411.82 403.679C1419.2 402.163 1426.73 401.497 1434.26 401.695" stroke="#171717" stroke-width="3.382" stroke-linecap="round" stroke-linejoin="round"/>
<path d="M1474.95 393.228C1475.01 393.217 1475.07 393.206 1475.13 393.194C1497.42 388.906 1519.92 385.746 1542.53 383.724C1546.8 383.341 1551.08 382.999 1555.36 382.698C1554.88 385.394 1553.55 387.864 1551.56 389.744C1549.85 391.421 1547.69 392.571 1545.35 393.059C1545.33 393.072 1545.31 393.079 1545.28 393.082" stroke="#171717" stroke-width="3.382" stroke-linecap="round" stroke-linejoin="round"/>
<path d="M1555.69 382.45C1552.92 364.217 1548.23 346.327 1541.71 329.078C1539.46 323.148 1537 317.304 1534.32 311.547" stroke="#171717" stroke-width="3.382" stroke-linecap="round" stroke-linejoin="round"/>
<path d="M1541.79 329.044C1548.08 327.241 1554.6 326.327 1561.14 326.327C1564.02 326.331 1566.9 326.515 1569.77 326.88C1571.25 327.06 1573.1 327.714 1573.54 328.988C1573.63 329.223 1573.66 329.473 1573.63 329.721C1573.55 330.848 1572.49 331.604 1571.52 332.179C1569.24 333.56 1566.83 334.726 1564.33 335.662L1564.06 335.762C1564.42 335.581 1564.08 335.683 1564.3 335.562C1564.32 335.55 1564.35 335.528 1564.4 335.505" stroke="#171717" stroke-width="3.382" stroke-linecap="round" stroke-linejoin="round"/>
<path d="M1560.98 325.888C1561.04 326.034 1561.08 326.181 1561.14 326.327C1562.26 329.383 1563.31 332.461 1564.3 335.561L1564.33 335.661C1566.85 343.486 1568.98 351.445 1570.71 359.484C1570.8 359.856 1570.88 360.239 1570.96 360.611" stroke="#171717" stroke-width="3.382" stroke-linecap="round" stroke-linejoin="round"/>
<path d="M1563.95 364.479C1566.44 363.166 1568.72 361.482 1570.71 359.485C1575.42 354.555 1578.84 348.536 1580.66 341.965C1583.39 332.765 1583.8 323.065 1584.78 313.509C1585.76 303.953 1587.41 294.218 1592.27 285.943C1597.13 277.668 1605.86 271.073 1615.45 271.151" stroke="#171717" stroke-width="3.382" stroke-linecap="round" stroke-linejoin="round"/>
<path d="M1598.28 298.92C1599.61 293.25 1602.57 288.095 1606.8 284.094C1608.15 282.82 1609.98 281.603 1611.74 282.2C1612.34 282.447 1612.86 282.844 1613.26 283.352C1613.66 283.859 1613.93 284.461 1614.03 285.1C1614.21 286.381 1614.16 287.685 1613.86 288.944C1612.35 297.244 1609.54 305.251 1605.52 312.665C1605.38 312.936 1605.23 313.195 1605.09 313.465" stroke="#171717" stroke-width="3.382" stroke-linecap="round" stroke-linejoin="round"/>
<path d="M1551.57 389.767C1553.37 395.449 1560.41 398.11 1566.24 396.904C1572.07 395.698 1576.88 391.638 1581.14 387.467C1595.88 372.981 1607.34 355.489 1614.72 336.181C1614.79 336.023 1614.85 335.876 1614.9 335.719" stroke="#171717" stroke-width="3.382" stroke-linecap="round" stroke-linejoin="round"/>
<path d="M1608.39 327.083C1609.3 324.649 1609.51 322.012 1609 319.465C1608.49 316.918 1607.29 314.563 1605.52 312.663C1605.39 312.528 1605.27 312.392 1605.13 312.263" stroke="#171717" stroke-width="3.382" stroke-linecap="round" stroke-linejoin="round"/>
<path d="M1620.52 308.537C1620.5 308.368 1620.48 308.198 1620.45 308.037C1618.76 294.519 1617.09 283.515 1615.82 271.102C1615.49 268.002 1615.2 264.823 1614.93 261.486C1614.54 256.514 1615.92 254.721 1623.08 253.729C1642.2 251.068 1656.71 248.554 1674.4 247.145" stroke="#171717" stroke-width="3.382" stroke-linecap="round" stroke-linejoin="round"/>
<path d="M1674.4 247.149C1683.38 245.988 1682.99 257.814 1683.75 263.665C1685.13 274.477 1686.53 285.293 1687.93 296.112C1689.4 307.623 1690.89 319.141 1692.37 330.668C1693.06 335.989 1694.69 341.968 1694.44 347.368C1694.19 353.253 1689.13 354.211 1684.51 354.797C1678.89 355.53 1673.26 356.241 1667.63 356.973C1667.61 356.973 1667.59 356.985 1667.57 356.985" stroke="#171717" stroke-width="3.382" stroke-linecap="round" stroke-linejoin="round"/>
<path d="M1573.61 329.067C1573.6 329.033 1573.6 329.011 1573.59 328.977C1565.27 298.987 1543.2 273.463 1514.51 261.444" stroke="#171717" stroke-width="3.382" stroke-linecap="round" stroke-linejoin="round"/>
<path d="M1472.83 245.086C1472.84 245.119 1472.85 245.142 1472.86 245.176C1473.59 247.332 1474.77 249.306 1476.33 250.962C1477.89 252.618 1479.79 253.917 1481.89 254.77C1486.2 256.315 1491.92 255.187 1494.76 251.613" stroke="#171717" stroke-width="3.382" stroke-linecap="round" stroke-linejoin="round"/>
<path d="M1461.9 259.291C1461.9 259.471 1461.9 259.641 1461.91 259.821C1462.11 277.115 1465.23 294.251 1471.13 310.51C1472.48 314.343 1474.09 318.31 1477.23 320.893C1479.08 322.305 1481.26 323.242 1483.56 323.621C1485.86 324 1488.22 323.811 1490.43 323.069C1494.85 321.527 1498.65 318.581 1501.25 314.681C1503.82 310.798 1505.76 306.538 1507.01 302.054C1511.08 288.86 1512.29 274.953 1510.57 261.254" stroke="#171717" stroke-width="3.382" stroke-linecap="round" stroke-linejoin="round"/>
<path d="M1457.22 338.887C1457.24 338.639 1457.25 338.402 1457.26 338.154C1457.97 326.98 1456.65 315.769 1453.37 305.064" stroke="#171717" stroke-width="3.382" stroke-linecap="round" stroke-linejoin="round"/>
<path d="M1487.81 330.341C1486.87 328.233 1486.09 326.068 1484.16 324.794C1482.23 323.52 1479.21 323.633 1477.98 325.594C1477.65 326.224 1477.47 326.924 1477.46 327.637C1477.45 328.35 1477.61 329.055 1477.93 329.694C1478.57 330.967 1479.42 332.128 1480.44 333.133C1483.58 336.56 1486.73 339.994 1489.89 343.433C1489.94 343.49 1489.99 343.546 1490.04 343.603" stroke="#171717" stroke-width="3.382" stroke-linecap="round" stroke-linejoin="round"/>
<path d="M1487.81 330.341C1488.48 328.378 1489.55 326.571 1490.94 325.031C1491.89 323.948 1493.21 322.956 1494.65 323.159C1495.14 323.257 1495.61 323.471 1496.02 323.782C1496.42 324.093 1496.75 324.494 1496.97 324.952C1497.41 325.873 1497.62 326.887 1497.58 327.906C1497.51 330.797 1496.7 333.623 1495.23 336.113C1493.77 338.588 1492.1 340.934 1490.24 343.126" stroke="#171717" stroke-width="3.382" stroke-linecap="round" stroke-linejoin="round"/>
<path d="M1411.86 403.894C1406.14 408.36 1401.72 414.272 1399.06 421.019C1395.1 430.467 1393.81 441.414 1394.13 451.73C1394.67 469.396 1398.9 486.984 1397.37 504.594C1394.45 538.146 1369.87 567.561 1339.15 581.371C1308.43 595.181 1272.69 594.81 1240.24 585.757C1217.43 579.398 1195.5 568.688 1178.36 552.363C1161.21 536.038 1149.17 513.749 1147.69 490.118" stroke="#171717" stroke-width="3.382" stroke-linecap="round" stroke-linejoin="round"/>
<path d="M1106.05 541.889L1106.08 541.653C1106.81 535.618 1108.45 529.727 1110.93 524.178C1116.94 510.581 1127.38 499.424 1140.55 492.531C1142.72 491.407 1144.97 490.42 1147.27 489.577" stroke="#171717" stroke-width="3.382" stroke-linecap="round" stroke-linejoin="round"/>
<path d="M1106.05 541.427C1106.06 541.506 1106.07 541.574 1106.08 541.653C1109.48 567.978 1122 591.924 1140.48 611C1159.01 630.132 1182.39 644.1 1207.04 654.146C1245.64 669.862 1288.49 676.334 1329.49 668.927C1370.5 661.52 1409.38 639.636 1434.12 606.096C1461.25 569.296 1469.61 522.385 1474.95 476.826C1475.18 474.977 1475.39 473.128 1475.6 471.279" stroke="#171717" stroke-width="3.382" stroke-linecap="round" stroke-linejoin="round"/>
<path d="M1475.34 476.871C1499.91 596.571 1502.48 720.292 1487.34 841.534C1486.81 845.796 1486.34 850.475 1488.72 854.06C1490.85 857.273 1494.59 858.648 1498.52 859.325C1500.1 859.607 1501.71 859.776 1503.25 859.9C1513.32 860.757 1523.51 861.591 1533.45 859.855C1540.92 858.547 1548.33 855.593 1554.05 850.745C1555.96 849.128 1557.67 847.289 1559.14 845.266C1564.65 837.622 1566.16 827.892 1567.41 818.557C1583.87 695.608 1581.59 570.875 1560.67 448.607C1560.67 448.584 1560.66 448.55 1560.66 448.528" stroke="#171717" stroke-width="3.382" stroke-linecap="round" stroke-linejoin="round"/>
<path d="M1140.38 492.2C1136.9 485.476 1133.03 478.958 1128.8 472.677C1127.48 470.727 1125.91 468.652 1123.61 468.145C1122.6 468.004 1121.57 468.087 1120.6 468.387C1119.62 468.687 1118.72 469.197 1117.97 469.881C1116.79 470.761 1115.84 471.897 1115.17 473.202C1114.51 474.507 1114.15 475.947 1114.12 477.412C1114.14 478.879 1114.64 480.299 1115.55 481.451C1116.46 482.603 1117.73 483.422 1119.15 483.782" stroke="#171717" stroke-width="3.382" stroke-linecap="round" stroke-linejoin="round"/>
<path d="M1110.78 524.11C1095.1 516.263 1074.31 520.57 1063.03 533.986C1065.79 521.134 1073.86 509.786 1084.13 501.573C1094.39 493.36 1106.72 488.089 1119.38 484.605C1119.39 484.605 1119.41 484.594 1119.43 484.594" stroke="#171717" stroke-width="3.382" stroke-linecap="round" stroke-linejoin="round"/>
<path d="M1498.54 859.156C1498.53 859.212 1498.53 859.268 1498.51 859.325C1496.95 871.681 1495.38 884.041 1493.8 896.406C1493.44 898.303 1493.45 900.253 1493.85 902.144C1494.29 903.594 1495.16 904.878 1496.34 905.831C1497.53 906.785 1498.96 907.366 1500.48 907.499C1501.99 907.58 1503.5 907.234 1504.83 906.5C1506.16 905.767 1507.26 904.676 1508.01 903.35C1508.9 901.45 1509.42 899.394 1509.54 897.296C1510.41 890.103 1511.27 882.914 1512.14 875.729C1511.6 886.202 1517.79 896.315 1526.46 902.212C1535.13 908.109 1545.94 910.212 1556.43 910.036C1566.91 909.86 1577.24 907.511 1587.47 905.188C1588.7 905 1589.87 904.554 1590.92 903.88C1591.43 903.535 1591.82 903.041 1592.05 902.465C1592.27 901.888 1592.31 901.257 1592.17 900.656C1591.75 899.45 1590.44 898.863 1589.28 898.356C1579.81 894.114 1571.6 887.505 1565.43 879.166C1559.26 870.827 1555.34 861.039 1554.05 850.745L1554.02 850.43" stroke="#171717" stroke-width="3.382" stroke-linecap="round" stroke-linejoin="round"/>
<path d="M1501.15 184.814C1500.82 184.143 1500.35 183.553 1499.78 183.083C1499.2 182.613 1498.52 182.276 1497.8 182.096C1497.08 181.915 1496.32 181.895 1495.59 182.038C1494.86 182.18 1494.17 182.481 1493.56 182.92" stroke="#171717" stroke-width="3.382" stroke-linecap="round" stroke-linejoin="round"/>
<path d="M1523.96 186.4C1523.02 185.166 1521.71 184.276 1520.22 183.869C1518.72 183.461 1517.14 183.558 1515.71 184.145" stroke="#171717" stroke-width="3.382" stroke-linecap="round" stroke-linejoin="round"/>
<path d="M1528.61 179.323C1527.66 177.874 1526.26 176.765 1524.64 176.156C1523.01 175.546 1521.24 175.467 1519.56 175.93" stroke="#171717" stroke-width="3.382" stroke-linecap="round" stroke-linejoin="round"/>
<path d="M1508.82 192.435C1508.36 193.504 1508.25 194.687 1508.5 195.821C1508.75 196.956 1509.34 197.986 1510.19 198.771C1510.92 199.291 1511.61 199.856 1512.27 200.462C1512.59 200.772 1512.8 201.178 1512.87 201.618C1512.95 202.059 1512.88 202.511 1512.67 202.909C1512.44 203.196 1512.12 203.407 1511.76 203.515C1511.4 203.624 1511.02 203.625 1510.67 203.518C1509.95 203.295 1509.29 202.926 1508.73 202.435" stroke="#171717" stroke-width="3.382" stroke-linecap="round" stroke-linejoin="round"/>
<path d="M1502.5 217.182C1501.52 217.599 1500.45 217.771 1499.39 217.682C1498.32 217.594 1497.3 217.248 1496.4 216.674C1495.5 216.1 1494.75 215.315 1494.23 214.388C1493.7 213.461 1493.4 212.419 1493.37 211.353" stroke="#171717" stroke-width="3.382" stroke-linecap="round" stroke-linejoin="round"/>
<path d="M1542.5 383.645L1542.53 383.724L1545.35 393.059L1551.3 412.766L1551.46 413.296" stroke="#171717" stroke-width="3.382" stroke-linecap="round" stroke-linejoin="round"/>
<path d="M1660.01 110.271C1660.28 110.996 1660.35 111.779 1660.21 112.539C1660.06 113.043 1659.78 113.498 1659.4 113.856C1659.02 114.214 1658.54 114.463 1658.03 114.575C1657.35 114.695 1656.65 114.651 1655.99 114.444C1655.34 114.238 1654.74 113.877 1654.25 113.39C1653.28 112.404 1652.55 111.206 1652.13 109.89C1651.38 107.624 1650.85 105.292 1650.54 102.926C1650.23 101.026 1649.94 99.02 1650.65 97.232C1650.9 96.5841 1651.32 96.0108 1651.85 95.565C1652.39 95.1191 1653.03 94.8148 1653.71 94.68C1654.94 94.508 1655.41 95.345 1655.71 96.358C1655.89 96.967 1656 97.639 1656.18 98.189C1657.41 102.075 1658.64 105.958 1659.88 109.839C1659.92 109.982 1659.97 110.125 1660.01 110.271Z" fill="#171717"/>
<path d="M1660.4 110.177C1664.79 109.813 1669.08 108.664 1673.06 106.785C1674.99 105.869 1676.97 104.657 1677.83 102.695C1678.78 100.549 1678.16 98.0818 1678.19 95.7358C1678.22 92.8878 1679.21 90.0658 1678.83 87.2478C1678.8 86.5334 1678.58 85.8403 1678.2 85.2343C1677.82 84.6282 1677.29 84.1293 1676.66 83.7848C1675.27 83.2098 1673.7 83.8748 1672.39 84.6218C1670.15 85.9396 1668.01 87.4259 1665.98 89.0678" stroke="#171717" stroke-width="3.382" stroke-linecap="round" stroke-linejoin="round"/>
<path d="M1655.71 96.358C1655.89 96.967 1656 97.639 1656.18 98.189C1657.41 102.075 1658.64 105.959 1659.88 109.84C1659.92 109.983 1659.97 110.125 1660.01 110.273C1660.28 110.997 1660.35 111.78 1660.21 112.54C1660.07 113.044 1659.79 113.499 1659.4 113.857C1659.02 114.216 1658.55 114.464 1658.03 114.576C1657.35 114.696 1656.66 114.652 1656 114.445C1655.34 114.239 1654.74 113.878 1654.25 113.391C1653.28 112.405 1652.56 111.207 1652.13 109.891C1651.39 107.625 1650.85 105.293 1650.54 102.927C1650.23 101.027 1649.94 99.021 1650.65 97.233C1650.91 96.585 1651.32 96.0118 1651.86 95.5659C1652.39 95.1201 1653.03 94.8158 1653.71 94.681C1654.94 94.507 1655.41 95.344 1655.71 96.358Z" stroke="#171717" stroke-width="3.382" stroke-linecap="round" stroke-linejoin="round"/>
<path d="M1655.73 96.3519C1656.6 95.6776 1657.19 94.7021 1657.39 93.6149C1657.58 92.5357 1657.64 91.439 1657.59 90.345C1657.48 87.147 1657.89 83.9522 1658.8 80.886C1658.95 80.3173 1659.26 79.8056 1659.7 79.4199C1660.02 79.2167 1660.39 79.1136 1660.78 79.1237C1661.16 79.1339 1661.52 79.2568 1661.84 79.4769C1662.45 79.935 1662.89 80.5841 1663.1 81.3219C1663.3 82.0525 1663.45 82.7949 1663.57 83.5449C1664.06 85.5084 1664.82 87.3922 1665.85 89.1399C1666.24 89.8432 1666.68 90.5194 1667.16 91.164" stroke="#171717" stroke-width="3.382" stroke-linecap="round" stroke-linejoin="round"/>
<path d="M1669.08 214.725C1669 215.969 1668.59 217.169 1667.89 218.199C1667.34 218.844 1666.63 219.33 1665.83 219.604C1665.03 219.879 1664.17 219.932 1663.35 219.759C1662.26 219.493 1661.26 218.969 1660.43 218.232C1659.59 217.496 1658.95 216.568 1658.55 215.528C1657.77 213.442 1657.49 211.201 1657.73 208.987C1658.12 205.154 1658.87 201.366 1659.97 197.674C1660.76 194.674 1661.64 191.521 1663.87 189.362C1664.67 188.574 1665.66 188.001 1666.74 187.696C1667.82 187.391 1668.96 187.365 1670.06 187.618C1671.98 188.169 1672.13 189.718 1671.9 191.395C1671.76 192.41 1671.49 193.474 1671.39 194.407C1670.65 200.935 1669.91 207.468 1669.18 214.007C1669.15 214.241 1669.12 214.482 1669.08 214.725Z" fill="#171717"/>
<path d="M1669.71 214.838C1676.42 217.184 1683.49 218.307 1690.59 218.154C1694.05 218.075 1697.75 217.589 1700.31 215.267C1703.11 212.732 1703.84 208.688 1705.41 205.245C1707.32 201.076 1710.64 197.573 1711.94 193.166C1712.59 190.966 1712.59 188.313 1711.01 186.643C1709.35 184.876 1706.59 184.829 1704.18 185.071C1700.01 185.537 1695.87 186.317 1691.82 187.404" stroke="#171717" stroke-width="3.382" stroke-linecap="round" stroke-linejoin="round"/>
<path d="M1671.89 191.394C1671.76 192.409 1671.48 193.472 1671.38 194.406C1670.64 200.934 1669.91 207.465 1669.17 214C1669.15 214.24 1669.12 214.481 1669.08 214.724C1669 215.968 1668.59 217.168 1667.89 218.198C1667.34 218.843 1666.63 219.328 1665.83 219.603C1665.03 219.877 1664.17 219.931 1663.35 219.758C1662.26 219.492 1661.26 218.968 1660.43 218.231C1659.59 217.494 1658.95 216.566 1658.55 215.527C1657.77 213.441 1657.49 211.2 1657.73 208.986C1658.12 205.153 1658.87 201.366 1659.97 197.673C1660.76 194.673 1661.64 191.52 1663.87 189.361C1664.67 188.573 1665.66 188 1666.74 187.695C1667.82 187.39 1668.96 187.363 1670.06 187.617C1671.97 188.168 1672.12 189.714 1671.89 191.394Z" stroke="#171717" stroke-width="3.382" stroke-linecap="round" stroke-linejoin="round"/>
<path d="M1671.92 191.4C1673.65 190.983 1675.17 189.936 1676.17 188.462C1677.16 186.996 1677.98 185.425 1678.62 183.78C1680.56 178.996 1683.26 174.559 1686.62 170.642C1687.21 169.897 1688 169.348 1688.91 169.068C1689.51 168.982 1690.13 169.079 1690.69 169.346C1691.24 169.613 1691.7 170.038 1692.01 170.568C1692.62 171.642 1692.85 172.888 1692.66 174.107C1692.48 175.316 1692.22 176.513 1691.89 177.691C1691.33 180.909 1691.22 184.192 1691.57 187.44C1691.69 188.733 1691.89 190.017 1692.17 191.283" stroke="#171717" stroke-width="3.382" stroke-linecap="round" stroke-linejoin="round"/>
<path d="M1638.78 136.04C1638.17 132.156 1636.38 127.692 1632.52 126.94C1629.32 126.319 1626.17 128.784 1624.89 131.779C1623.61 134.774 1623.74 138.161 1623.9 141.414C1619.31 140.135 1614.41 138.935 1609.84 140.273C1605.27 141.611 1601.38 146.473 1602.85 151.011C1604.05 154.696 1608.02 156.602 1611.66 157.947C1616.59 159.773 1632.23 167.14 1636.72 162.902C1641.23 158.641 1639.64 141.589 1638.78 136.04Z" fill="url(#paint6_linear_297_2626)"/>
<path d="M1381.74 138.812L1405.62 125.283" stroke="#171717" stroke-width="3.382" stroke-linecap="round" stroke-linejoin="round"/>
<path d="M1386.52 121.304L1399.25 141.2" stroke="#171717" stroke-width="3.382" stroke-linecap="round" stroke-linejoin="round"/>
<path d="M1443.32 62.981L1441.68 74.08L1449.9 81.724L1438.83 83.594L1434.1 93.767L1428.91 83.823L1417.77 82.467L1425.62 74.452L1423.47 63.44L1433.52 68.431L1443.32 62.981Z" fill="#171717"/>
<path d="M1659.87 41.49C1661.28 39.553 1662.44 36.852 1661.09 34.864C1659.98 33.216 1657.56 32.92 1655.71 33.664C1653.92 34.5462 1652.36 35.8216 1651.13 37.395C1649.7 34.861 1648.11 32.232 1645.56 30.836C1643.01 29.44 1639.23 29.861 1637.91 32.452C1636.83 34.558 1637.73 37.098 1638.71 39.252C1640.06 42.17 1643.63 52.097 1647.39 52.204C1651.18 52.3 1657.85 44.259 1659.87 41.49Z" fill="url(#paint7_linear_297_2626)"/>
<path d="M1219.86 686.528C1273.24 705.389 1334.83 699.428 1383.6 670.682" stroke="#171717" stroke-width="3.382" stroke-linecap="round" stroke-linejoin="round"/>
<path d="M1346.42 228.711C1346.57 236.147 1339.88 242.234 1332.72 244.269C1325.57 246.304 1317.96 245.342 1310.53 244.998C1292.2 244.151 1272.13 248.088 1260.19 262.018C1251.26 272.432 1248.4 286.533 1244.43 299.664C1240.46 312.795 1234.09 326.618 1221.69 332.474" stroke="#171717" stroke-width="3.382" stroke-linecap="round" stroke-linejoin="round"/>
<path d="M1142.52 462.527C1140.05 460.076 1137.1 458.155 1133.85 456.882C1130.61 455.609 1127.14 455.011 1123.66 455.124C1120.17 455.237 1116.75 456.059 1113.6 457.54C1110.44 459.021 1107.63 461.129 1105.31 463.736" stroke="#171717" stroke-width="3.382" stroke-linecap="round" stroke-linejoin="round"/>
<path d="M1132.83 447.305C1130.87 446.285 1128.69 445.743 1126.48 445.722C1124.26 445.701 1122.08 446.201 1120.09 447.183" stroke="#171717" stroke-width="3.382" stroke-linecap="round" stroke-linejoin="round"/>
<path d="M1700.01 258.374L1763.68 230.256" stroke="#171717" stroke-width="3.382" stroke-linecap="round" stroke-linejoin="round"/>
<path d="M1693.65 245.641L1705.32 228.664" stroke="#171717" stroke-width="3.382" stroke-linecap="round" stroke-linejoin="round"/>
<path d="M1702.14 272.168L1719.65 278.535" stroke="#171717" stroke-width="3.382" stroke-linecap="round" stroke-linejoin="round"/>
<path d="M1701.08 282.78L1749.36 325.755" stroke="#171717" stroke-width="3.382" stroke-linecap="round" stroke-linejoin="round"/>
<path d="M1432.62 455.208L1426.25 470.594L1417.76 454.147L1432.62 455.208Z" stroke="url(#paint8_linear_297_2626)" stroke-width="3.382" stroke-linecap="round" stroke-linejoin="round"/>
<path d="M1459.94 496.591L1442.96 492.346L1435.01 507.732L1459.94 496.591Z" stroke="url(#paint9_linear_297_2626)" stroke-width="3.382" stroke-linecap="round" stroke-linejoin="round"/>
<path d="M1526.26 472.982L1510.88 490.489L1534.22 491.55L1526.26 472.982Z" stroke="url(#paint10_linear_297_2626)" stroke-width="3.382" stroke-linecap="round" stroke-linejoin="round"/>
<path d="M1549.61 571.133L1528.91 557.869L1532.1 579.622L1549.61 571.133Z" stroke="url(#paint11_linear_297_2626)" stroke-width="3.382" stroke-linecap="round" stroke-linejoin="round"/>
<path d="M1528.91 625.779L1514.59 633.738L1527.85 643.818L1528.91 625.779Z" stroke="url(#paint12_linear_297_2626)" stroke-width="3.382" stroke-linecap="round" stroke-linejoin="round"/>
<path d="M1563.4 692.628L1543.24 696.342L1556.5 711.198L1563.4 692.628Z" stroke="url(#paint13_linear_297_2626)" stroke-width="3.382" stroke-linecap="round" stroke-linejoin="round"/>
<path d="M1404.5 558.134L1408.74 578.296L1383.28 568.215L1404.5 558.134Z" stroke="url(#paint14_linear_297_2626)" stroke-width="3.382" stroke-linecap="round" stroke-linejoin="round"/>
<path d="M1336.06 593.416L1355.16 593.947L1342.96 606.68L1336.06 593.416Z" stroke="url(#paint15_linear_297_2626)" stroke-width="3.382" stroke-linecap="round" stroke-linejoin="round"/>
<path d="M1301.57 629.228L1310.06 641.961H1288.84L1301.57 629.228Z" stroke="url(#paint16_linear_297_2626)" stroke-width="3.382" stroke-linecap="round" stroke-linejoin="round"/>
<path d="M1210.32 606.945L1232.6 622.331L1216.68 639.839L1210.32 606.945Z" stroke="url(#paint17_linear_297_2626)" stroke-width="3.382" stroke-linecap="round" stroke-linejoin="round"/>
<path d="M1160.18 578.296L1176.1 569.806L1160.18 558.134V578.296Z" stroke="url(#paint18_linear_297_2626)" stroke-width="3.382" stroke-linecap="round" stroke-linejoin="round"/>
<path d="M1535.2 735.302L1518.84 736.228L1526.39 751.078L1535.2 735.302Z" stroke="url(#paint19_linear_297_2626)" stroke-width="3.382" stroke-linecap="round" stroke-linejoin="round"/>
<path d="M1537.13 810.497L1517.37 805.061L1522.84 824.209L1537.13 810.497Z" stroke="url(#paint20_linear_297_2626)" stroke-width="3.382" stroke-linecap="round" stroke-linejoin="round"/>
<path fill-rule="evenodd" clip-rule="evenodd" d="M1484.82 180.327C1501.84 180.634 1518.31 174.292 1530.72 162.649L1530.89 162.835C1539.39 181.798 1534.01 206.046 1518.29 219.646C1516 221.629 1513.52 223.396 1511.04 225.162C1507.66 227.574 1504.28 229.983 1501.37 232.938C1496.55 237.831 1493.11 245.013 1494.98 251.552C1495.06 251.834 1495.15 252.115 1495.25 252.397C1498.33 258.022 1503.86 260.639 1510.58 261.022C1511.88 261.112 1513.18 261.112 1514.47 261.022C1532.17 260.017 1555.69 246.127 1565.36 231.222C1579.66 209.2 1578.43 179.553 1567.03 155.9C1559.12 139.473 1546.18 124.952 1529.34 117.928C1512.51 110.904 1491.67 112.438 1477.69 124.152C1471.71 129.16 1467.13 135.743 1462.58 142.277C1456.21 151.421 1449.91 160.467 1439.96 164.952C1432.49 168.318 1424.14 168.494 1415.79 168.669C1407.03 168.853 1398.29 169.037 1390.6 172.911C1375.92 180.33 1370.52 198.143 1365.97 213.938C1361.41 229.733 1354.35 247.445 1338.75 252.665C1331.9 254.964 1324.65 254.343 1317.35 253.718C1311.59 253.225 1305.81 252.73 1300.18 253.665C1283.88 256.36 1271.81 270.507 1264.6 285.379C1261.44 291.908 1258.92 298.731 1256.41 305.55C1253.19 314.265 1249.98 322.972 1245.43 331.051C1232.1 354.693 1205.83 371.616 1178.81 370.263L1178.77 370.894C1188.73 379.632 1203.71 380.443 1216.34 376.441C1228.46 372.599 1238.93 365.004 1249.24 357.53C1249.67 357.219 1250.09 356.908 1250.52 356.598C1261.24 348.831 1272.44 341.096 1285.3 337.973C1291.88 336.372 1300.45 336.243 1309.15 336.112C1319.18 335.961 1329.36 335.807 1336.78 333.385C1348.17 329.663 1354.75 321.499 1361.52 313.111C1367.06 306.228 1372.73 299.195 1381.28 294.342C1391.33 288.648 1400.58 287.923 1409.86 287.196C1410.49 287.147 1411.11 287.098 1411.73 287.048C1420.26 286.36 1428.85 285.402 1438.13 280.329C1445.78 276.135 1454.39 268.491 1461.9 259.821C1465.92 255.22 1469.58 250.325 1472.86 245.176C1475.52 241.077 1477.76 236.718 1479.54 232.165C1485.72 215.527 1486.8 197.982 1484.82 180.327ZM1538.24 127.654C1537.49 127.106 1536.43 127.275 1535.88 128.031C1535.33 128.787 1535.5 129.844 1536.26 130.392C1563.48 150.127 1574.95 189.061 1562.77 220.397C1562.44 221.267 1562.87 222.247 1563.74 222.585C1564.61 222.924 1565.59 222.492 1565.93 221.622C1578.66 188.853 1566.71 148.291 1538.24 127.654Z" fill="#171717"/>
<g opacity="0.1">
<path d="M1417.71 283.81C1412.08 284.787 1408.11 288.81 1404.36 292.833C1400.25 297.239 1397.51 302.468 1395.25 307.999C1390.81 318.864 1390.19 330.579 1392.13 342.064C1392.96 347.01 1399.06 349.777 1403.54 348.546C1408.73 347.122 1410.94 342.075 1410.03 337.129C1408.51 328.913 1409.73 320.572 1412.44 312.736C1413.86 309.05 1415.53 305.464 1417.44 302.001C1419.53 297.845 1422.5 294.585 1423.94 290.037C1425.21 286.047 1421.29 283.19 1417.72 283.81H1417.71Z" fill="#171717"/>
</g>
<g opacity="0.1">
<path d="M1411.98 354.934C1404.38 359.772 1398.89 370.207 1395.2 378.221C1391.01 387.283 1387.8 396.764 1385.62 406.505C1384.63 410.931 1386.92 416.242 1391.74 417.288C1392.51 417.432 1393.29 417.536 1394.07 417.601C1397.68 418.001 1401.75 414.61 1402.52 411.165C1404.41 402.419 1406.99 393.838 1410.24 385.5C1411.79 381.578 1413.4 377.7 1415.03 373.817C1416.73 369.746 1419.25 365.394 1419.9 361.017C1420.55 356.743 1416.35 352.151 1411.98 354.929V354.934Z" fill="#171717"/>
</g>
<g opacity="0.1">
<path d="M1420.11 334.855C1419.06 340.629 1417.78 346.317 1417.81 352.219C1417.83 358.403 1419.26 364.758 1420.96 370.686C1424.22 382.172 1429.46 393.001 1436.45 402.686C1451.27 423.117 1472.51 437.999 1496.77 444.964C1522.2 452.105 1549.92 450.687 1574.91 442.471C1587.51 438.368 1599.5 432.599 1610.56 425.317C1621.34 418.166 1630.35 409.18 1639.01 399.648C1648.59 389.087 1656.37 376.86 1663.07 364.316C1669.73 351.856 1673.72 338.23 1677.99 324.848C1679.12 321.331 1673.87 320.067 1672.57 323.348C1668.2 334.358 1661.97 344.482 1655.44 354.348C1649.09 363.953 1642.38 373.391 1634.23 381.543C1626.11 389.654 1618.45 397.355 1608.96 403.955C1599.62 410.455 1590.04 416.555 1579.5 420.955C1538.1 438.244 1488.04 433.195 1457 398.826C1449.49 390.609 1443.43 381.171 1439.08 370.918C1436.91 365.551 1435.25 359.993 1434.12 354.318C1432.87 348.347 1430.92 342.366 1430.61 336.257C1430.32 330.57 1421.25 328.603 1420.11 334.836L1420.11 334.855Z" fill="#171717"/>
</g>
<g opacity="0.1">
<path d="M1559.13 396.6C1563.99 398.4 1569 395.1 1573.14 392.736C1577.36 390.31 1581.35 387.524 1585.08 384.408C1592.36 378.376 1598.24 370.348 1602.9 362.167C1605.13 358.209 1607.04 354.081 1608.63 349.822C1610.45 344.98 1610.49 339.735 1611.38 334.665C1613.36 323.307 1613.23 311.94 1617.76 301.034C1619.22 297.534 1613.2 294.972 1611.59 298.434C1607.36 307.534 1605.37 317.228 1602.77 326.823C1601.43 331.754 1600.83 336.2 1598.4 340.7C1596.29 344.615 1594.98 348.9 1592.78 352.8C1588.56 360.023 1583.12 366.457 1576.7 371.816C1573.46 374.692 1569.99 377.289 1566.32 379.581C1562.59 381.86 1557.29 383.327 1555.46 387.581C1553.81 391.427 1555.08 395.098 1559.13 396.594V396.6Z" fill="#171717"/>
</g>
</g>
</g>
<g clip-path="url(#clip1_297_2626)">
<mask id="mask1_297_2626" style="mask-type:luminance" maskUnits="userSpaceOnUse" x="0" y="0" width="960" height="960">
<path d="M960 0H0V960H960V0Z" fill="white"/>
</mask>
<g mask="url(#mask1_297_2626)">
<path fill-rule="evenodd" clip-rule="evenodd" d="M480.541 722.403L480.667 712.459L481.268 712.473C497.259 711.509 550.246 707.515 592.884 704.135L592.772 702.808C589.853 693.549 594.406 683.311 601.333 676.524C607.214 670.762 614.596 666.891 621.922 663.051C623.224 662.368 624.525 661.686 625.815 660.994C636.708 655.137 647.126 648.436 656.973 640.953C666.643 633.615 675.798 625.622 684.373 617.03C714.399 586.989 737.933 549.91 755.139 510.907C782.288 449.359 795.235 382.631 807.176 316.431C809.621 302.884 811.002 286.419 800.221 277.872C794.117 273.025 785.752 272.341 777.959 272.299C776.283 272.285 774.607 272.299 772.931 272.327C754.805 272.64 736.791 275.239 719.316 280.064C714.846 281.2 710.506 282.801 706.37 284.841C702.943 286.543 699.908 288.94 697.459 291.879C692.027 298.597 690.923 307.731 690.141 316.348C689.54 322.86 688.993 329.383 688.445 335.908C686.256 361.984 684.065 388.083 678.466 413.62C676.05 424.812 672.839 435.817 668.857 446.552C662.712 462.978 654.528 478.548 643.719 492.178C641.377 495.153 638.9 498.03 636.289 500.809C603.427 535.78 553.61 550.263 505.666 552.022L505.219 551.799H505.205C504.555 553.308 503.577 554.653 502.342 555.737C498.92 558.684 493.99 558.824 489.479 558.81C459.828 558.755 430.169 558.695 400.502 558.628C395.181 558.628 389.735 558.6 384.707 556.855C380.597 555.558 377.102 552.807 374.875 549.117L374.554 549.317C312.894 557.679 255.732 588.655 214.462 635.217C193.444 658.918 176.391 687.59 173.221 719.111C172.662 724.658 172.606 730.243 173.053 735.8C173.815 745.765 176.168 755.544 180.022 764.765C186.307 779.733 196.656 792.707 210.747 800.765C235.313 814.801 265.619 812.05 293.733 808.88C347.018 802.861 400.307 796.841 453.601 790.822C460.584 790.04 468.111 789.006 473.195 784.16C476.533 780.962 478.236 776.73 479.102 772.149C479.785 768.122 480.108 764.042 480.066 759.957C480.229 747.434 480.387 734.916 480.541 722.403ZM791.785 318.167C791.854 317.012 790.974 316.019 789.82 315.95C788.665 315.88 787.672 316.76 787.603 317.915C782.339 405.458 753.785 490.005 704.893 562.812C704.248 563.773 704.503 565.074 705.464 565.719C706.424 566.364 707.726 566.109 708.371 565.148C757.68 491.721 786.477 406.454 791.785 318.167Z" fill="url(#paint21_linear_297_2626)"/>
<path fill-rule="evenodd" clip-rule="evenodd" d="M505.666 552.019C553.61 550.259 603.427 535.776 636.289 500.806C638.895 498.026 641.368 495.149 643.707 492.175L643.47 491.993C640.52 455.32 636.978 418.674 633.441 382.068C629.827 344.678 626.218 307.329 623.247 270.033C620.748 264.237 615.161 258.469 609.575 258.651C571.699 259.975 543.935 261.444 512.512 265.075L511.412 265.243C511.789 267.407 512.013 269.614 512.181 271.793C512.319 273.672 512.413 275.559 512.507 277.447C512.791 283.151 513.075 288.859 514.597 294.348C515.168 291.989 516.131 289.724 517.411 287.657C516.562 287.444 515.93 286.723 515.837 285.844L514.037 268.751C513.916 267.601 514.75 266.57 515.901 266.448C517.052 266.327 518.083 267.162 518.204 268.312L519.431 279.966C522.49 276.753 526.501 274.516 530.749 273.392C536.828 271.784 543.612 272.398 549.083 275.92C554.554 279.443 557.92 285.365 558.971 291.565C559.862 296.817 559.119 302.428 556.437 307.139C559.92 308.475 563.035 310.656 565.49 313.506C568.586 317.102 570.474 321.579 570.888 326.306C571.302 331.032 570.221 335.77 567.797 339.849C565.797 343.214 562.967 345.991 559.594 347.925C564.857 356.164 568.523 366.028 567.295 376.056C566.082 385.96 559.016 395.789 549.112 398.289C550.01 400.589 550.467 403.046 550.452 405.532C550.431 408.991 549.494 412.383 547.737 415.363C545.98 418.343 543.465 420.805 540.448 422.498C538.117 423.807 535.551 424.62 532.909 424.898C533.389 429.737 533.621 435.086 531.666 439.997C530.489 442.953 528.312 445.617 525.642 447.351C523.831 448.527 521.723 449.315 519.509 449.413C519.822 451.656 519.731 453.945 519.229 456.171C518.5 459.405 516.931 462.39 514.68 464.824C512.43 467.259 509.577 469.057 506.41 470.037C504.006 470.781 501.486 471.034 498.998 470.791C498.146 474.625 494.936 477.603 491.864 479.213C489.984 480.199 488.011 480.871 486.172 481.469C485.949 481.542 485.728 481.613 485.509 481.684L485.503 481.686C483.874 482.213 482.367 482.7 480.924 483.34H480.923C475.502 485.743 472.407 489.956 470.894 495.376C469.357 500.881 469.471 507.606 470.6 514.752C470.78 515.895 470 516.968 468.857 517.148C467.714 517.329 466.642 516.548 466.461 515.406C465.29 507.987 465.091 500.581 466.858 494.249C468.65 487.832 472.477 482.501 479.225 479.51C480.884 478.774 482.615 478.215 484.222 477.696C484.442 477.625 484.66 477.555 484.875 477.485C486.709 476.888 488.382 476.308 489.919 475.502C493.028 473.873 495.183 471.13 495.016 468.498C494.974 467.839 495.246 467.198 495.749 466.77C496.252 466.342 496.928 466.176 497.572 466.323C500.087 466.897 502.707 466.797 505.171 466.035C507.634 465.272 509.853 463.873 511.604 461.98C513.354 460.086 514.574 457.765 515.141 455.249C515.709 452.733 515.602 450.113 514.834 447.651C514.605 446.919 514.795 446.12 515.329 445.569C515.863 445.018 516.656 444.803 517.395 445.009C519.333 445.548 521.43 445.091 523.36 443.837C525.299 442.578 526.915 440.603 527.773 438.447C529.584 433.897 529.118 428.697 528.51 423.136C528.445 422.539 528.639 421.943 529.043 421.498C529.125 421.409 529.213 421.328 529.307 421.255C528.172 421.447 527.019 421.54 525.86 421.531C527.617 423.838 528.634 426.624 528.776 429.521C528.919 432.417 528.179 435.289 526.656 437.758C525.133 440.226 522.898 442.174 520.245 443.347C517.592 444.519 514.646 444.859 511.796 444.323C516.294 452.801 508.361 464.801 498.808 464.001H496.769C494.183 468.618 490.298 472.373 485.596 474.801C483.38 475.87 480.965 476.589 478.561 477.303C474.342 478.558 470.159 479.801 467.161 482.915C462.86 487.37 462.454 494.256 463.111 500.415C463.25 501.72 463.425 503.03 463.6 504.343C464.251 509.224 464.906 514.13 463.74 518.864L463.754 519.296C472.678 518.938 481.616 519.162 490.512 519.967C495.652 520.474 501.224 521.405 504.646 525.274C508.78 529.966 508.165 537.048 507.313 543.248C507.026 546.182 506.321 549.06 505.219 551.795L505.666 552.019ZM531.297 420.81C533.785 420.739 536.221 420.066 538.397 418.845C540.769 417.513 542.746 415.578 544.128 413.235C545.509 410.892 546.245 408.225 546.262 405.506C546.271 403.992 546.058 402.492 545.633 401.053C545.652 401.491 545.657 401.93 545.646 402.369C545.565 405.779 544.597 409.11 542.836 412.032C541.076 414.954 538.584 417.367 535.607 419.032C534.241 419.797 532.793 420.392 531.297 420.81ZM544.503 395.286C544.845 394.916 545.314 394.677 545.828 394.625C554.765 393.714 561.979 384.989 563.136 375.546C564.291 366.121 560.477 356.496 554.819 348.309C554.463 347.794 554.356 347.146 554.528 346.544C554.699 345.942 555.131 345.448 555.705 345.197C559.25 343.652 562.22 341.033 564.195 337.708C566.17 334.384 567.052 330.523 566.714 326.671C566.377 322.819 564.838 319.171 562.314 316.241C560.486 314.117 558.207 312.448 555.66 311.346C560.575 314.508 564.154 319.841 564.611 325.701C565.337 335.016 558.088 344.262 548.871 345.77C552.828 348.548 555.959 352.346 557.931 356.76C559.903 361.174 560.643 366.041 560.071 370.842C559.5 375.643 557.639 380.199 554.686 384.027C551.732 387.856 547.797 390.812 543.299 392.584C543.769 393.456 544.171 394.359 544.503 395.286ZM551.268 309.241C551.229 309.162 551.194 309.08 551.165 308.995C550.93 308.323 551.053 307.577 551.491 307.016C554.654 302.963 555.729 297.505 554.84 292.265C553.951 287.026 551.137 282.227 546.814 279.443C542.491 276.66 536.958 276.084 531.821 277.442C531.657 277.486 531.494 277.531 531.332 277.578C539.214 275.981 548.087 279.756 551.79 286.89C555.561 294.155 553.038 304.263 545.938 308.355C547.759 308.364 549.554 308.676 551.268 309.241Z" fill="#171717"/>
<path d="M625.815 661C636.707 655.142 647.125 648.441 656.973 640.959L657.073 641.084C657.073 644.115 657.017 645.511 657.073 648.305C657.366 663.667 659.461 678.22 658.473 691.599C658.012 697.828 648.696 698.582 643.11 699.978C632.873 700.914 614.173 702.45 592.889 704.14L592.777 702.814C589.858 693.554 594.411 683.314 601.338 676.53C608.265 669.746 617.268 665.575 625.815 661Z" fill="#171717"/>
<path d="M496.77 464.005C497.661 462.486 498.441 460.903 499.103 459.271C501.742 452.777 502.664 445.71 503.278 438.727C505.736 411.396 504.033 383.869 501.826 356.51L500.834 356.594L439.859 351.482C428.98 350.56 417.206 349.862 407.989 355.728C401.089 360.141 396.689 367.752 394.582 375.671C392.475 383.59 392.417 391.899 392.515 400.097C392.92 434.23 395.936 468.279 399.4 502.258L399.316 502.272C395.304 503.298 391.073 503.061 387.2 501.592C383.328 500.124 380.003 497.497 377.679 494.068C375.356 490.64 374.147 486.579 374.217 482.438C374.288 478.297 375.635 474.279 378.074 470.932C374.531 471.926 370.745 471.576 367.445 469.948C364.144 468.321 361.562 465.531 360.193 462.115C358.825 458.699 358.767 454.898 360.031 451.442C361.295 447.986 363.792 445.119 367.041 443.392C362.521 443.257 358.168 441.648 354.646 438.812C351.124 435.975 348.625 432.066 347.529 427.678C346.434 423.291 346.801 418.665 348.576 414.506C350.351 410.346 353.436 406.881 357.362 404.636C353.466 402.875 350.166 400.019 347.864 396.416C345.563 392.812 344.36 388.617 344.401 384.342C344.443 380.066 345.728 375.895 348.098 372.337C350.469 368.779 353.824 365.987 357.754 364.303C355.142 358.003 353.187 351.231 353.801 344.443C354.43 337.656 358.047 330.843 364.164 327.866C369.275 325.38 376.064 326.366 379.903 330.324C380.453 331.29 381.094 332.202 381.817 333.047C381.324 332.045 380.679 331.127 379.903 330.324C374.778 321.624 376.426 309.179 384.135 302.49C392.71 295.074 407.221 296.037 414.72 304.543C413.831 301.098 414.108 297.455 415.507 294.183C416.906 290.912 419.349 288.196 422.454 286.459C425.56 284.722 429.153 284.062 432.673 284.582C436.193 285.102 439.442 286.773 441.912 289.334C443.154 285.846 445.326 282.764 448.194 280.423C451.063 278.081 454.517 276.57 458.183 276.052C461.849 275.534 465.587 276.029 468.992 277.484C472.396 278.939 475.338 281.298 477.497 284.306C475.436 279.694 474.316 274.717 474.203 269.666C474.09 264.616 474.987 259.593 476.841 254.894C478.559 250.606 481.282 246.472 485.416 244.405C492.189 241.012 500.862 244.433 505.527 250.411C508.837 254.67 510.527 259.866 511.421 265.242C511.798 267.407 512.021 269.614 512.189 271.792C512.747 279.348 512.58 287.043 514.605 294.347C516.532 286.387 522.928 279.488 530.905 277.672C538.882 275.856 548.027 279.613 551.798 286.89C555.569 294.167 553.041 304.263 545.946 308.355C555.276 308.397 563.892 316.4 564.619 325.701C565.346 335.002 558.097 344.262 548.879 345.77C552.836 348.548 555.967 352.346 557.939 356.76C559.912 361.175 560.651 366.041 560.08 370.842C559.508 375.643 557.647 380.199 554.694 384.028C551.741 387.856 547.806 390.813 543.307 392.584C544.928 395.587 545.738 398.96 545.657 402.372C545.576 405.783 544.607 409.114 542.846 412.037C541.085 414.96 538.593 417.373 535.614 419.039C532.636 420.704 529.275 421.565 525.863 421.535C527.62 423.842 528.637 426.628 528.78 429.524C528.922 432.421 528.183 435.293 526.66 437.761C525.137 440.229 522.902 442.178 520.249 443.35C517.596 444.522 514.65 444.863 511.8 444.327C516.3 452.805 508.364 464.801 498.811 464.005H496.77Z" fill="#171717"/>
<path d="M423.839 456.408C421.306 457.172 419.088 458.737 417.518 460.866C415.947 462.996 415.108 465.577 415.125 468.223L414.678 468.67C412.61 466.602 411.42 463.815 411.354 460.891C411.44 458.071 412.536 455.375 414.443 453.296C416.351 451.217 418.942 449.893 421.744 449.565C422.056 451.938 422.834 454.226 424.035 456.296L423.839 456.408Z" fill="#171717"/>
<path d="M403.31 524.157C423.17 522.704 443.56 519.939 463.755 519.296C472.679 518.938 481.617 519.163 490.513 519.967C495.653 520.467 501.225 521.405 504.647 525.274C508.781 529.966 508.166 537.047 507.314 543.248C507.027 546.182 506.322 549.06 505.22 551.795H505.206C504.555 553.304 503.577 554.649 502.343 555.733C498.921 558.68 493.991 558.82 489.48 558.806C459.813 558.75 430.154 558.689 400.503 558.624C395.182 558.624 389.736 558.596 384.708 556.851C380.598 555.554 377.103 552.803 374.876 549.114C374.352 548.193 373.953 547.207 373.689 546.181C371.943 539.338 376.621 532.159 382.789 528.709C388.489 525.525 395.163 524.785 401.689 524.282L403.31 524.157Z" fill="url(#paint22_linear_297_2626)"/>
<path d="M199 273.482C199.09 274.482 198.983 275.49 198.684 276.448C198.384 277.406 197.899 278.296 197.256 279.067C196.613 279.838 195.824 280.475 194.935 280.94C194.045 281.406 193.073 281.692 192.073 281.782L142.673 286.182C140.656 286.361 138.651 285.732 137.098 284.433C135.546 283.134 134.572 281.271 134.392 279.255L132.392 256.91C132.214 254.891 132.845 252.885 134.147 251.332C135.449 249.778 137.314 248.806 139.333 248.628L188.716 244.215C190.736 244.038 192.744 244.669 194.3 245.97C195.856 247.271 196.832 249.136 197.016 251.156L199 273.482ZM159.965 275.675L176.682 260.775L156.111 254.533L159.965 275.675Z" fill="url(#paint23_linear_297_2626)"/>
<path d="M485.053 369.889C477.841 368.545 470.549 367.672 463.224 367.277C458.532 367.026 452.959 367.417 450.473 371.397C448.965 373.827 449.105 376.886 449.328 379.735C450.8 398.617 453.86 417.342 458.476 435.71C457.138 436.906 455.449 437.637 453.662 437.793C451.874 437.949 450.084 437.522 448.56 436.576" stroke="#171717" stroke-width="4.19" stroke-linecap="round" stroke-linejoin="round"/>
<path d="M433.587 386.5C430.012 381.933 421.311 383.748 419.859 389.349" stroke="#171717" stroke-width="4.19" stroke-linecap="round" stroke-linejoin="round"/>
<path d="M479.229 388.254C476.576 384.274 469.383 385.07 467.665 389.539" stroke="#171717" stroke-width="4.19" stroke-linecap="round" stroke-linejoin="round"/>
<path d="M447.567 466.491C438.657 469.091 428.56 464.215 424.035 456.296C422.834 454.226 422.056 451.938 421.744 449.565C418.942 449.893 416.351 451.217 414.443 453.296C412.536 455.375 411.44 458.071 411.354 460.891C411.419 463.815 412.61 466.602 414.678 468.67C416.552 470.665 419.09 471.906 421.814 472.161" stroke="#171717" stroke-width="4.19" stroke-linecap="round" stroke-linejoin="round"/>
<path d="M415.124 468.223C415.107 465.577 415.946 462.996 417.517 460.866C419.088 458.737 421.306 457.173 423.839 456.408" stroke="#171717" stroke-width="4.19" stroke-linecap="round" stroke-linejoin="round"/>
<path d="M505.667 552.019C553.611 550.259 603.428 535.776 636.29 500.806C638.901 498.026 641.378 495.149 643.72 492.175C654.529 478.544 662.713 462.975 668.858 446.548C672.84 435.813 676.051 424.808 678.467 413.616C685.467 381.69 687.14 348.884 690.142 316.344C690.924 307.727 692.028 298.593 697.46 291.876C699.909 288.936 702.944 286.539 706.371 284.837C710.508 282.797 714.847 281.196 719.317 280.06C736.792 275.235 754.806 272.636 772.932 272.323C774.608 272.295 776.284 272.281 777.96 272.295C785.753 272.337 794.118 273.022 800.222 277.868C811.003 286.415 809.622 302.881 807.177 316.428C795.236 382.628 782.289 449.355 755.14 510.903C737.934 549.91 714.4 586.989 684.374 617.03C675.799 625.622 666.644 633.616 656.974 640.954C647.126 648.438 636.708 655.14 625.815 661C617.268 665.58 608.26 669.742 601.333 676.53C594.406 683.318 589.853 693.554 592.772 702.814" stroke="#171717" stroke-width="4.19" stroke-linecap="round" stroke-linejoin="round"/>
<path d="M374.555 549.309C312.895 557.675 255.733 588.651 214.463 635.209C193.445 658.909 176.392 687.582 173.222 719.103C172.663 724.65 172.607 730.235 173.054 735.792C173.816 745.757 176.169 755.536 180.023 764.757C186.308 779.729 196.657 792.703 210.748 800.757C235.314 814.793 265.62 812.042 293.734 808.872C347.014 802.852 400.303 796.833 453.602 790.814C460.585 790.032 468.112 788.998 473.196 784.152C476.534 780.952 478.237 776.722 479.103 772.141C479.786 768.114 480.109 764.034 480.067 759.949C480.221 747.436 480.379 734.918 480.542 722.395C480.584 719.085 480.626 715.761 480.667 712.451C480.709 709.099 480.751 705.733 480.793 702.382C480.835 699.382 480.709 695.957 478.433 693.974C475.64 691.544 471.352 692.689 467.847 693.89C426.114 708.277 381.784 713.562 337.838 709.39C330.45 708.69 321.721 706.681 319.138 699.74C316.838 693.54 320.814 686.933 324.598 681.514C336.944 663.876 349.29 646.228 361.636 628.57" stroke="#171717" stroke-width="4.19" stroke-linecap="round" stroke-linejoin="round"/>
<path d="M479.3 772.191C509.48 769.538 538.4 766.691 568.514 763.351C581.293 761.926 594.169 760.418 606.334 756.251C609.334 755.218 612.814 753.262 612.674 750.092C612.521 746.643 608.331 745.134 604.923 744.562C603.094 744.24 601.25 743.947 599.407 743.668C577.209 740.272 554.703 739.34 532.3 740.888" stroke="#171717" stroke-width="4.19" stroke-linecap="round" stroke-linejoin="round"/>
<path d="M599.559 742.681C600.286 740.698 599.098 738.533 597.185 737.081C596.488 736.563 595.739 736.119 594.951 735.754C593.409 735.051 591.811 734.476 590.174 734.036C588.443 733.536 586.697 733.087 584.937 732.682C563.765 727.752 540.737 729.12 518.501 730.559" stroke="#171717" stroke-width="4.19" stroke-linecap="round" stroke-linejoin="round"/>
<path d="M585.021 732.305C573.974 713.9 498.265 722 480.765 722.4" stroke="#171717" stroke-width="4.19" stroke-linecap="round" stroke-linejoin="round"/>
<path d="M463.755 519.3C443.56 519.943 423.17 522.708 403.31 524.16L401.69 524.286C395.168 524.786 388.49 525.529 382.79 528.713C376.617 532.163 371.939 539.341 373.69 546.185C373.954 547.211 374.353 548.197 374.877 549.118C377.104 552.807 380.599 555.558 384.709 556.855C389.737 558.6 395.183 558.628 400.504 558.628C430.17 558.695 459.829 558.755 489.481 558.81C493.992 558.824 498.922 558.684 502.344 555.737C503.579 554.653 504.557 553.308 505.207 551.799H505.221C506.323 549.064 507.028 546.186 507.315 543.252C508.167 537.052 508.782 529.97 504.648 525.278C501.226 521.409 495.654 520.478 490.514 519.971C481.618 519.167 472.679 518.942 463.755 519.3Z" stroke="#171717" stroke-width="4.19" stroke-linecap="round" stroke-linejoin="round"/>
<path d="M463.741 518.863C465.221 512.858 463.769 506.573 463.112 500.414C462.455 494.255 462.861 487.37 467.162 482.914C471.869 478.026 479.494 477.747 485.598 474.8C490.299 472.372 494.184 468.617 496.77 464C497.661 462.481 498.441 460.898 499.103 459.266C501.742 452.772 502.664 445.705 503.278 438.722C505.736 411.391 504.033 383.864 501.826 356.505C501.826 356.435 501.812 356.379 501.812 356.305" stroke="#171717" stroke-width="4.19" stroke-linecap="round" stroke-linejoin="round"/>
<path d="M401.7 524.38C401.702 524.346 401.697 524.312 401.686 524.28C400.918 516.947 400.154 509.605 399.396 502.256C395.932 468.277 392.916 434.228 392.511 400.095C392.411 391.895 392.483 383.588 394.578 375.669C396.673 367.75 401.086 360.139 407.985 355.726C417.202 349.86 428.976 350.558 439.855 351.48L500.83 356.592" stroke="#171717" stroke-width="4.19" stroke-linecap="round" stroke-linejoin="round"/>
<path d="M379.899 330.324C374.774 321.624 376.422 309.179 384.131 302.49C392.706 295.074 407.217 296.037 414.716 304.543C413.827 301.098 414.104 297.455 415.503 294.183C416.902 290.912 419.345 288.196 422.451 286.459C425.556 284.722 429.149 284.062 432.669 284.582C436.189 285.102 439.438 286.773 441.908 289.334C443.15 285.846 445.323 282.764 448.191 280.423C451.059 278.081 454.513 276.57 458.179 276.052C461.846 275.534 465.583 276.029 468.988 277.484C472.393 278.939 475.334 281.298 477.493 284.306C475.432 279.694 474.312 274.717 474.199 269.666C474.087 264.616 474.984 259.593 476.837 254.894C478.555 250.606 481.278 246.472 485.412 244.405C492.185 241.012 500.858 244.433 505.523 250.411C508.833 254.67 510.523 259.866 511.416 265.242C511.794 267.407 512.016 269.614 512.185 271.792C512.743 279.348 512.576 287.043 514.601 294.347C516.528 286.387 522.924 279.488 530.901 277.672C538.878 275.856 548.023 279.613 551.794 286.89C555.565 294.167 553.037 304.263 545.942 308.355C555.271 308.397 563.888 316.4 564.615 325.701C565.342 335.002 558.093 344.262 548.875 345.77C552.833 348.548 555.964 352.346 557.936 356.76C559.908 361.175 560.648 366.041 560.076 370.842C559.505 375.643 557.643 380.199 554.69 384.028C551.737 387.856 547.802 390.813 543.303 392.584C544.924 395.587 545.734 398.96 545.653 402.372C545.572 405.783 544.604 409.114 542.843 412.037C541.081 414.96 538.589 417.373 535.611 419.039C532.633 420.704 529.272 421.565 525.859 421.535C527.616 423.842 528.633 426.627 528.775 429.523C528.918 432.42 528.179 435.291 526.656 437.759C525.134 440.227 522.899 442.176 520.247 443.348C517.595 444.521 514.649 444.862 511.799 444.327C516.299 452.805 508.364 464.801 498.811 464.005" stroke="#171717" stroke-width="4.19" stroke-linecap="round" stroke-linejoin="round"/>
<path d="M379.899 330.324C380.675 331.127 381.321 332.045 381.813 333.047C381.09 332.202 380.449 331.291 379.899 330.324Z" stroke="#171717" stroke-width="4.19" stroke-linecap="round" stroke-linejoin="round"/>
<path d="M399.316 502.272C395.303 503.298 391.072 503.061 387.2 501.592C383.327 500.124 380.002 497.497 377.679 494.068C375.355 490.64 374.146 486.579 374.217 482.438C374.287 478.297 375.634 474.279 378.074 470.932C374.53 471.926 370.745 471.576 367.444 469.948C364.144 468.321 361.561 465.531 360.193 462.115C358.824 458.699 358.767 454.898 360.03 451.442C361.294 447.986 363.791 445.119 367.04 443.392C362.52 443.256 358.168 441.648 354.646 438.811C351.124 435.975 348.625 432.065 347.53 427.678C346.434 423.29 346.802 418.665 348.577 414.506C350.352 410.346 353.437 406.881 357.363 404.636C353.466 402.875 350.166 400.019 347.865 396.416C345.563 392.813 344.36 388.617 344.401 384.342C344.443 380.066 345.727 375.895 348.098 372.337C350.469 368.779 353.824 365.988 357.754 364.303C355.142 358.003 353.187 351.231 353.801 344.443C354.43 337.656 358.047 330.843 364.164 327.866C369.275 325.38 376.064 326.366 379.904 330.324" stroke="#171717" stroke-width="4.19" stroke-linecap="round" stroke-linejoin="round"/>
<path d="M109.007 768.155C103.588 766.716 101.772 759.426 101.228 754.44C83.659 595.34 70.279 441.813 48.157 257.254C47.319 250.187 54.973 246.054 61.578 244.964C62.6818 244.785 63.7978 244.692 64.916 244.685C71.899 244.685 80.279 243.285 87.262 241.891C271.612 223.736 453.169 204.184 636.122 193.011C638.975 194.44 641.429 196.554 643.264 199.165C645.099 201.775 646.259 204.8 646.638 207.968" stroke="#171717" stroke-width="4.19" stroke-linecap="round" stroke-linejoin="round"/>
<path d="M140.989 767.68C131.129 768.155 121.199 768.406 111.004 768.406C110.334 768.412 109.667 768.327 109.021 768.155" stroke="#171717" stroke-width="4.19" stroke-linecap="round" stroke-linejoin="round"/>
<path d="M180.233 764.747C180.163 764.747 180.093 764.761 180.023 764.761C176.197 765.138 172.389 765.488 168.599 765.809C159.382 766.609 150.248 767.233 141.045 767.68" stroke="#171717" stroke-width="4.19" stroke-linecap="round" stroke-linejoin="round"/>
<path d="M624.782 733.534C615.858 734.12 606.85 734.707 597.842 735.265" stroke="#171717" stroke-width="4.19" stroke-linecap="round" stroke-linejoin="round"/>
<path d="M658.481 731.313C649.581 731.899 640.464 732.5 631.233 733.113" stroke="#171717" stroke-width="4.19" stroke-linecap="round" stroke-linejoin="round"/>
<path d="M669.124 730.573L668.244 730.698C665.451 730.866 662.629 731.048 659.794 731.229" stroke="#171717" stroke-width="4.19" stroke-linecap="round" stroke-linejoin="round"/>
<path d="M684.43 617.086C685.003 649.696 694.779 681.818 691.986 713.939C690.631 726.118 678.786 729.12 669.165 730.559" stroke="#171717" stroke-width="4.19" stroke-linecap="round" stroke-linejoin="round"/>
<path d="M646.638 207.968C652.881 287.979 662.657 366.188 668.677 446.478" stroke="#171717" stroke-width="4.19" stroke-linecap="round" stroke-linejoin="round"/>
<path d="M595.132 735.391C604.769 734.791 614.712 734.176 624.782 733.534L631.234 733.115C640.27 732.542 649.39 731.941 658.481 731.315L659.794 731.231C662.909 731.008 666.019 730.789 669.123 730.575C669.137 730.575 669.151 730.561 669.165 730.561C677.07 730.002 684.919 729.416 692.642 728.815" stroke="#171717" stroke-width="4.19" stroke-linecap="round" stroke-linejoin="round"/>
<path d="M692.642 728.813C698.969 726.513 700.365 733.492 703.158 739.078C767.402 751.647 828.112 762.82 893.751 779.578C893.751 779.592 892.494 779.746 890.106 780.025C841.826 785.835 305.675 848.64 285.578 846.614C262.678 844.324 176.769 800.597 122.302 775.444C122.26 775.43 122.219 775.402 122.177 775.388C122.177 775.388 120.777 769.802 124.97 769.802C130.265 768.795 135.613 768.087 140.989 767.679C141.003 767.679 141.031 767.665 141.045 767.679C150.36 766.813 160.988 766.213 168.599 765.808C173.499 765.542 177.146 765.375 178.389 765.291" stroke="#171717" stroke-width="4.19" stroke-linecap="round" stroke-linejoin="round"/>
<path d="M61.7876 244.531L61.5226 244.573C41.0756 247.296 40.1826 263.916 40.1826 263.916" stroke="#171717" stroke-width="4.19" stroke-linecap="round" stroke-linejoin="round"/>
<path d="M109.606 768.169C109.411 768.177 109.215 768.172 109.02 768.155C109.02 768.155 109.02 768.169 109.006 768.155C106.352 768.085 95.5291 767.094 94.2441 756.005" stroke="#171717" stroke-width="4.19" stroke-linecap="round" stroke-linejoin="round"/>
<path d="M40.1826 263.916L94.2446 756.005" stroke="#171717" stroke-width="4.19" stroke-linecap="round" stroke-linejoin="round"/>
<path d="M122 776.116L121.93 792.093C121.93 792.093 262.73 868.277 287.384 870.441C314.5 872.83 893.1 796.7 893.1 796.7L893.924 780.137" stroke="#171717" stroke-width="4.19" stroke-linecap="round" stroke-linejoin="round"/>
<path d="M512.523 265.075C543.946 261.444 571.71 259.975 609.586 258.651C615.172 258.469 620.759 264.237 623.258 270.033" stroke="#171717" stroke-width="4.19" stroke-linecap="round" stroke-linejoin="round"/>
<path d="M172.286 735.852C164.074 736.285 157.091 737.681 148.712 739.078C140.332 739.078 131.953 732.095 130.556 722.319C129.156 699.973 94.2448 366.188 88.6558 336.86C87.2558 324.29 87.2558 307.531 101.226 306.135C226.919 290.772 349.819 279.599 474.06 269.572" stroke="#171717" stroke-width="4.19" stroke-linecap="round" stroke-linejoin="round"/>
<path d="M657.07 641.079C657.07 644.11 657.014 645.506 657.07 648.3C657.363 663.662 659.459 678.214 658.471 691.594C658.01 697.823 648.693 698.577 643.107 699.973C632.87 700.909 614.172 702.445 592.888 704.135C550.25 707.515 497.262 711.509 481.271 712.473" stroke="#171717" stroke-width="4.19" stroke-linecap="round" stroke-linejoin="round"/>
<path d="M623.259 270.033C629.139 343.843 637.519 417.862 643.482 491.993" stroke="#171717" stroke-width="4.19" stroke-linecap="round" stroke-linejoin="round"/>
<path d="M706.4 284.851C706.386 284.851 706.386 284.837 706.372 284.837C697.86 281.595 689.917 277.022 682.839 271.29C680.239 269.19 677.56 266.402 677.909 263.09C678.258 259.89 681.415 257.671 684.557 256.973C690.409 255.702 696.386 258.202 701.623 261.079C706.86 263.956 712.112 267.321 718.061 267.964" stroke="#171717" stroke-width="4.19" stroke-linecap="round" stroke-linejoin="round"/>
<path d="M772.9 272.547C772.914 272.477 772.914 272.393 772.928 272.323C776.632 238.04 771.806 203.373 758.879 171.406C758.041 169.353 756.602 166.936 754.379 167.118C752.689 167.244 751.543 168.918 750.943 170.512C749.543 174.282 749.784 178.412 750.049 182.425C750.496 189.38 750.943 196.33 751.39 203.276C752.228 216.418 753.071 229.564 753.918 242.715" stroke="#171717" stroke-width="4.19" stroke-linecap="round" stroke-linejoin="round"/>
<path d="M752.123 211.418C751.923 208.708 751.69 205.985 751.397 203.276C750.307 193.192 748.397 183.165 744.597 173.836C743.438 171.015 741.567 167.9 738.536 167.593C735.198 167.258 732.629 170.526 731.483 173.654C729.668 178.626 729.64 183.919 730.254 189.212C730.645 192.578 731.288 195.93 731.902 199.226C734.747 214.497 736.724 229.916 737.824 245.411" stroke="#171717" stroke-width="4.19" stroke-linecap="round" stroke-linejoin="round"/>
<path d="M729.861 189.254C728.967 185.679 728.004 181.978 725.63 179.171C723.256 176.364 719.024 174.771 715.798 176.531C712.013 178.612 711.552 183.779 711.831 188.081C713.465 213.443 724.731 237.813 723.618 263.203C723.549 264.768 723.381 266.444 722.334 267.603C721.287 268.762 719.876 268.552 718.228 268.064" stroke="#171717" stroke-width="4.19" stroke-linecap="round" stroke-linejoin="round"/>
<path d="M192.076 281.778L142.676 286.178C140.659 286.357 138.654 285.728 137.101 284.429C135.549 283.13 134.575 281.267 134.395 279.251L132.395 256.906C132.217 254.887 132.848 252.881 134.15 251.327C135.452 249.774 137.317 248.802 139.336 248.624L188.719 244.211C190.739 244.034 192.747 244.665 194.303 245.966C195.859 247.267 196.835 249.132 197.019 251.152L199 273.482C199.181 275.5 198.554 277.508 197.256 279.064C195.957 280.619 194.094 281.596 192.076 281.778Z" stroke="#171717" stroke-width="4.19" stroke-linecap="round" stroke-linejoin="round"/>
<path d="M159.967 275.675L176.684 260.773L156.113 254.531L159.967 275.675Z" stroke="#171717" stroke-width="4.19" stroke-linecap="round" stroke-linejoin="round"/>
<path d="M214.184 259.237L331.498 248.064" stroke="#171717" stroke-width="4.19" stroke-linecap="round" stroke-linejoin="round"/>
<path d="M284.838 647.649L306.032 619.552" stroke="#171717" stroke-width="4.19" stroke-linecap="round" stroke-linejoin="round"/>
<path d="M281.387 625.468L304.553 639.269" stroke="#171717" stroke-width="4.19" stroke-linecap="round" stroke-linejoin="round"/>
<path d="M217.308 756.09L240.475 775.314" stroke="#171717" stroke-width="4.19" stroke-linecap="round" stroke-linejoin="round"/>
<path d="M217.308 779.257L238.01 753.625" stroke="#171717" stroke-width="4.19" stroke-linecap="round" stroke-linejoin="round"/>
<path d="M415.459 732.923L439.119 754.611" stroke="#171717" stroke-width="4.19" stroke-linecap="round" stroke-linejoin="round"/>
<path d="M413.979 758.555L436.654 734.402" stroke="#171717" stroke-width="4.19" stroke-linecap="round" stroke-linejoin="round"/>
<path d="M447.99 701.376C467.023 720.185 455.263 789.438 448.976 790.593" stroke="#171717" stroke-width="4.19" stroke-linecap="round" stroke-linejoin="round"/>
<path d="M337.087 782.214L312.933 765.455" stroke="#171717" stroke-width="4.19" stroke-linecap="round" stroke-linejoin="round"/>
<path d="M371.426 638.611L390.157 616.431" stroke="#171717" stroke-width="4.19" stroke-linecap="round" stroke-linejoin="round"/>
<path d="M464.258 610.187L490.382 628.425" stroke="#171717" stroke-width="4.19" stroke-linecap="round" stroke-linejoin="round"/>
<path d="M612.626 633.848L633.327 610.187" stroke="#171717" stroke-width="4.19" stroke-linecap="round" stroke-linejoin="round"/>
<path d="M630.369 541.18L657.479 544.629" stroke="#171717" stroke-width="4.19" stroke-linecap="round" stroke-linejoin="round"/>
<path d="M708.742 441.61L736.346 427.809" stroke="#171717" stroke-width="4.19" stroke-linecap="round" stroke-linejoin="round"/>
<path d="M776.765 378.517L760.992 362.744" stroke="#171717" stroke-width="4.19" stroke-linecap="round" stroke-linejoin="round"/>
<path d="M746.206 330.212L762.965 320.353" stroke="#171717" stroke-width="4.19" stroke-linecap="round" stroke-linejoin="round"/>
<path d="M689.684 324.3C689.684 324.3 725.5 277.633 808.97 304.579" stroke="#171717" stroke-width="4.19" stroke-linecap="round" stroke-linejoin="round"/>
<path d="M732.403 373.589L710.715 358.8" stroke="#171717" stroke-width="4.19" stroke-linecap="round" stroke-linejoin="round"/>
<path d="M710.715 377.531L731.417 356.83" stroke="#171717" stroke-width="4.19" stroke-linecap="round" stroke-linejoin="round"/>
<path d="M697.241 528.363L719.587 496.489" stroke="#171717" stroke-width="4.19" stroke-linecap="round" stroke-linejoin="round"/>
<path d="M696.257 502.403L720.574 522.12" stroke="#171717" stroke-width="4.19" stroke-linecap="round" stroke-linejoin="round"/>
<path d="M565.469 603.614L544.109 580.612" stroke="#171717" stroke-width="4.19" stroke-linecap="round" stroke-linejoin="round"/>
<path d="M563.498 578.64L546.082 604.93" stroke="#171717" stroke-width="4.19" stroke-linecap="round" stroke-linejoin="round"/>
<path d="M407.407 652.907L430.41 675.581" stroke="#171717" stroke-width="4.19" stroke-linecap="round" stroke-linejoin="round"/>
<path d="M406.423 678.539L429.425 652.577" stroke="#171717" stroke-width="4.19" stroke-linecap="round" stroke-linejoin="round"/>
<path d="M804.369 602.63L782.68 586.855" stroke="#171717" stroke-width="4.19" stroke-linecap="round" stroke-linejoin="round"/>
<path d="M783.994 607.886L801.082 582.255" stroke="#171717" stroke-width="4.19" stroke-linecap="round" stroke-linejoin="round"/>
<path d="M826.057 209.94L847.746 187.267" stroke="#171717" stroke-width="4.19" stroke-linecap="round" stroke-linejoin="round"/>
<path d="M845.774 206.982L829.015 193.181" stroke="#171717" stroke-width="4.19" stroke-linecap="round" stroke-linejoin="round"/>
<path d="M497.775 155.72L513.548 129.103" stroke="#171717" stroke-width="4.19" stroke-linecap="round" stroke-linejoin="round"/>
<path d="M474.116 159.663L467.216 64.038" stroke="#171717" stroke-width="4.19" stroke-linecap="round" stroke-linejoin="round"/>
<path d="M449.47 166.564L426.797 144.876" stroke="#171717" stroke-width="4.19" stroke-linecap="round" stroke-linejoin="round"/>
<path d="M651.723 61.286L663.525 75.773L682.148 74.263L672.017 89.963L679.208 107.21L661.145 102.427L646.965 114.595L645.932 95.938L629.979 86.212L647.401 79.464L651.723 61.286Z" stroke="#171717" stroke-width="4.19" stroke-linecap="round" stroke-linejoin="round"/>
<path d="M851.909 480.668L853.437 494.483L865.684 501.057L853.017 506.779L850.549 520.457L841.193 510.178L827.422 512.058L834.307 499.984L828.264 487.468L841.873 490.284L851.909 480.668Z" fill="#171717"/>
<path d="M838.121 63.92C835.498 83.98 835.089 104.851 841.804 123.935C848.519 143.019 863.42 160.109 883.016 165.135C890.439 167.041 898.861 167.015 905.163 162.653C911.465 158.291 914.317 148.64 909.575 142.619C904.153 135.738 892.299 137.731 886.754 144.513C881.209 151.295 880.51 160.782 881.049 169.526C884.117 219.243 918.571 263.226 920.133 313.012C920.483 324.182 919.052 335.673 913.856 345.568C908.66 355.463 899.256 363.56 888.201 365.195C880.81 366.289 872.037 363.561 869.321 356.601C866.605 349.641 874.783 340.434 881.145 344.35" stroke="#171717" stroke-width="4.19" stroke-linecap="round" stroke-linejoin="round"/>
<path fill-rule="evenodd" clip-rule="evenodd" d="M101.226 306.131C225.284 290.968 346.621 279.886 469.213 269.96C469.075 270.304 469.028 270.69 469.094 271.082L469.416 272.993C458.897 268.493 445.403 271.644 438.243 280.66C435.633 279.585 432.825 279.048 429.99 279.09C426.552 279.141 423.179 280.041 420.173 281.71C417.166 283.38 414.619 285.766 412.758 288.658C411.526 290.571 410.62 292.666 410.069 294.857C406.52 292.747 402.49 291.53 398.331 291.34C393.019 291.096 387.767 292.537 383.323 295.457C378.879 298.377 375.472 302.626 373.587 307.598C372.017 311.739 371.571 316.206 372.27 320.548C368.178 320.829 364.194 322.056 360.638 324.146C356.318 326.685 352.805 330.395 350.505 334.846C348.205 339.298 347.211 344.309 347.64 349.302C347.991 353.392 349.284 357.332 351.403 360.819C347.671 362.546 344.39 365.143 341.844 368.406C338.74 372.384 336.864 377.18 336.443 382.208C336.023 387.236 337.078 392.278 339.478 396.716C341.414 400.294 344.156 403.354 347.472 405.664C344.874 408.275 342.871 411.433 341.617 414.922C340.032 419.333 339.707 424.097 340.679 428.682C341.65 433.266 343.88 437.49 347.118 440.878C349.572 443.446 352.531 445.457 355.795 446.794C354.113 448.985 352.94 451.543 352.386 454.281C351.601 458.153 352.095 462.176 353.794 465.743C355.492 469.311 358.303 472.23 361.804 474.063C364.281 475.359 367.008 476.062 369.773 476.136C368.854 479.208 368.531 482.44 368.834 485.654C369.243 489.994 370.781 494.153 373.293 497.716C375.806 501.279 379.207 504.124 383.158 505.967C386.557 507.552 390.262 508.35 393.997 508.31C394.56 510.859 394.867 512.838 394.961 514.388C395.076 516.277 394.86 517.348 394.56 517.99C394.032 519.12 392.935 519.631 389.555 520.478C381.248 522.559 376.971 525.402 371.688 528.915L371.335 529.149C368.251 531.198 365.69 534.474 364.48 537.985C363.606 540.521 363.396 543.351 364.383 545.927C316.73 555.372 269.683 573.063 232.169 604.262C193.891 636.097 166.468 683.328 165.998 733.386C165.987 734.543 166.916 735.49 168.073 735.501C169.23 735.512 170.177 734.583 170.188 733.426C170.644 684.86 197.295 638.715 234.848 607.484C272.4 576.253 319.859 558.691 368.088 549.475C368.825 549.334 369.43 548.81 369.675 548.1C369.92 547.391 369.767 546.605 369.273 546.04C367.782 544.33 367.542 541.961 368.441 539.35C369.346 536.724 371.322 534.188 373.654 532.639L373.967 532.431C379.186 528.962 382.968 526.447 390.574 524.542L390.651 524.523C393.56 523.794 396.859 522.967 398.356 519.764C399.075 518.225 399.278 516.356 399.144 514.134C399.008 511.9 398.518 509.122 397.681 505.642C397.425 504.58 396.403 503.904 395.344 504.058C391.768 504.337 388.181 503.686 384.929 502.17C381.64 500.635 378.809 498.267 376.718 495.301C374.626 492.335 373.346 488.874 373.005 485.26C372.664 481.647 373.274 478.007 374.774 474.702C375.094 473.998 375 473.176 374.53 472.563C374.061 471.949 373.291 471.644 372.529 471.768C369.525 472.259 366.443 471.762 363.747 470.35C361.05 468.939 358.885 466.69 357.577 463.942C356.268 461.194 355.888 458.096 356.492 455.113C357.096 452.13 358.653 449.424 360.928 447.402C361.506 446.888 361.753 446.098 361.573 445.346C361.392 444.594 360.811 444.003 360.063 443.808C356.28 442.825 352.847 440.808 350.147 437.983C347.447 435.158 345.588 431.636 344.778 427.813C343.967 423.99 344.238 420.017 345.56 416.34C346.881 412.662 349.201 409.425 352.26 406.993C352.81 406.555 353.104 405.87 353.043 405.169C352.981 404.468 352.571 403.845 351.952 403.51C348.231 401.498 345.177 398.444 343.164 394.722C341.151 391.001 340.267 386.773 340.619 382.557C340.971 378.341 342.545 374.319 345.148 370.983C347.75 367.647 351.269 365.143 355.273 363.776C355.909 363.558 356.402 363.049 356.599 362.406C356.684 362.128 356.709 361.84 356.678 361.56C357.02 362.482 357.381 363.395 357.756 364.299C353.826 365.984 350.471 368.775 348.1 372.333C345.729 375.891 344.445 380.062 344.403 384.338C344.362 388.613 345.565 392.808 347.866 396.412C350.167 400.015 353.467 402.871 357.364 404.632C353.438 406.877 350.353 410.342 348.578 414.502C346.803 418.661 346.435 423.287 347.531 427.674C348.627 432.062 351.126 435.971 354.648 438.808C358.17 441.644 362.522 443.253 367.043 443.388C363.793 445.115 361.297 447.982 360.033 451.438C358.769 454.894 358.827 458.695 360.195 462.111C361.564 465.527 364.146 468.317 367.447 469.944C370.747 471.572 374.533 471.922 378.076 470.928C375.637 474.275 374.29 478.293 374.219 482.434C374.148 486.575 375.357 490.636 377.681 494.064C380.005 497.493 383.329 500.12 387.202 501.588C391.074 503.057 395.305 503.294 399.318 502.268L399.402 502.254C400.156 509.6 400.919 516.941 401.692 524.278C395.17 524.778 388.492 525.521 382.792 528.705C376.621 532.159 371.943 539.338 373.689 546.181C373.953 547.207 374.352 548.193 374.876 549.114L374.555 549.309C312.895 557.675 255.733 588.651 214.463 635.209C193.445 658.909 176.392 687.582 173.222 719.103C172.663 724.65 172.606 730.235 173.054 735.792L172.286 735.848C165.46 736.208 159.484 737.233 152.849 738.371L152.842 738.372C151.496 738.603 150.124 738.839 148.712 739.074C140.332 739.074 131.953 732.091 130.556 722.315C129.156 699.969 94.2448 366.184 88.6558 336.856C87.2558 324.286 87.2558 307.527 101.226 306.131ZM353.803 344.439C353.306 349.929 354.49 355.409 356.343 360.637C356.329 360.617 356.316 360.596 356.301 360.576C356.29 360.56 356.278 360.544 356.266 360.528C353.718 357.164 352.175 353.148 351.814 348.943C351.454 344.739 352.29 340.518 354.227 336.77C356.164 333.021 359.123 329.897 362.761 327.758C366.399 325.62 370.568 324.555 374.785 324.687C375.449 324.708 376.083 324.413 376.495 323.892C376.906 323.371 377.046 322.685 376.873 322.045C375.712 317.765 375.934 313.229 377.505 309.083C379.077 304.937 381.918 301.394 385.624 298.959C389.329 296.524 393.709 295.322 398.139 295.525C402.568 295.728 406.82 297.326 410.287 300.089C410.893 300.572 411.715 300.681 412.426 300.373C413.136 300.065 413.619 299.39 413.681 298.618C413.9 295.879 414.794 293.236 416.281 290.926C417.768 288.615 419.804 286.708 422.207 285.374C424.609 284.04 427.305 283.321 430.052 283.28C432.8 283.239 435.515 283.879 437.956 285.141C438.901 285.629 440.062 285.333 440.656 284.45C446.723 275.443 460.251 272.478 469.655 277.777C469.437 277.674 469.216 277.575 468.993 277.48C465.589 276.025 461.851 275.53 458.185 276.048C454.519 276.566 451.064 278.077 448.196 280.419C445.328 282.76 443.155 285.842 441.914 289.33C439.443 286.769 436.195 285.098 432.675 284.578C429.155 284.058 425.562 284.718 422.456 286.455C419.351 288.192 416.908 290.908 415.509 294.179C414.109 297.451 413.833 301.094 414.722 304.539C407.222 296.033 392.712 295.07 384.137 302.486C376.428 309.175 374.78 321.619 379.905 330.32C376.065 326.367 369.277 325.376 364.166 327.862C358.049 330.836 354.432 337.652 353.803 344.439ZM477.499 284.302C475.959 282.158 474.022 280.343 471.803 278.95C472.32 279.05 472.867 278.953 473.328 278.657C474.036 278.204 474.404 277.373 474.264 276.544L473.926 274.538C473.692 273.154 473.459 271.77 473.226 270.386C473.181 270.12 473.088 269.875 472.957 269.657L474.06 269.568H474.199C474.272 274.654 475.396 279.67 477.499 284.302ZM261.635 409.734C262.339 409.359 263.194 409.415 263.843 409.879L275.036 417.895L287.986 413.22C288.736 412.949 289.575 413.127 290.15 413.68C290.725 414.233 290.936 415.064 290.695 415.824L286.528 428.946L294.977 439.818C295.466 440.447 295.556 441.3 295.208 442.018C294.86 442.735 294.134 443.193 293.337 443.198L279.569 443.291L271.842 454.686C271.394 455.346 270.611 455.695 269.821 455.585C269.031 455.476 268.371 454.928 268.12 454.171L263.776 441.106L250.551 437.278C249.785 437.056 249.212 436.418 249.071 435.633C248.931 434.848 249.249 434.052 249.891 433.579L260.974 425.41L260.529 411.65C260.503 410.853 260.932 410.11 261.635 409.734ZM264.854 415.757L265.198 426.375C265.22 427.065 264.902 427.721 264.347 428.13L255.794 434.433L265.999 437.388C266.662 437.58 267.187 438.085 267.405 438.739L270.757 448.821L276.72 440.027C277.107 439.457 277.75 439.113 278.44 439.108L289.063 439.037L282.544 430.648C282.12 430.103 281.992 429.385 282.201 428.728L285.416 418.602L275.423 422.21C274.775 422.444 274.053 422.344 273.492 421.942L264.854 415.757ZM302.591 374.559L301.1 367.238L296.196 372.875L288.772 372.03L292.618 378.436L289.521 385.236L296.801 383.559L302.311 388.605L302.966 381.162L309.468 377.482L302.591 374.559Z" fill="#171717"/>
<path d="M620.13 116.631L621.237 126.648L630.117 131.414L620.933 135.563L619.144 145.481L612.359 138.028L602.374 139.391L607.366 130.636L602.984 121.561L612.852 123.603L620.13 116.631Z" fill="#171717"/>
<path d="M786.649 241.031C788.161 219.891 786.153 198.647 780.708 178.164" stroke="#171717" stroke-width="4.19" stroke-linecap="round" stroke-linejoin="round"/>
<path d="M672.559 645.108C695.301 629.195 714.503 608.747 728.959 585.052" stroke="#171717" stroke-width="4.19" stroke-linecap="round" stroke-linejoin="round"/>
<g opacity="0.1">
<path d="M500.388 356.173C491.388 354.873 482.439 353.315 473.365 352.645C463.951 351.95 454.533 352.294 445.12 351.883C436.367 351.501 428.081 349.864 419.293 351.083C411.993 352.097 404.774 354.796 399.377 360.006C393.49 365.689 391.893 373.606 391.077 381.434C390.16 390.267 390.289 399.272 390.237 408.142C390.125 427.055 390.737 445.955 392.075 464.842C393.691 486.443 396.487 507.939 400.45 529.234L410.657 519.027C400.381 517.496 390.122 520.527 383.09 528.492C379.889 532.152 377.655 536.554 376.59 541.298C375.484 545.914 375.256 549.925 370.7 552.325C362.432 556.682 351.295 556.577 342.264 558.564C332.224 560.776 322.35 563.685 312.715 567.269C274.007 581.656 237.841 605.412 211.377 637.309C183.367 671.071 159.461 718.136 176.704 762.34C184.213 781.592 197.784 797.894 217.217 805.796C239.826 814.989 265.304 810.689 288.748 807.88C348.414 800.731 408.282 794.988 468.032 788.58C473.192 788.026 477.641 784.559 477.641 778.97C477.641 774.202 473.225 768.807 468.032 769.361L318.3 785.343C306.154 786.643 294.012 787.934 281.852 789.079C270.517 790.147 259.178 791.661 247.77 791.511C229.182 791.267 212.458 784.589 201.97 768.695C178.745 733.495 195.919 690.064 218.103 659.039C240.541 627.711 270.865 602.873 306 587.046C315.721 582.764 325.752 579.221 336.006 576.446C346.246 573.641 356.658 572.295 367.006 570.076C377.861 567.746 387.458 562.138 390.606 550.876C391.877 546.33 391.932 541.591 395.606 538.182C397.011 536.863 398.706 535.891 400.554 535.344C402.403 534.797 404.353 534.69 406.251 535.032C410.871 535.961 417.519 532.786 416.751 527.032C412.133 493.126 409.404 458.989 408.576 424.779C408.4 416.302 408.369 407.824 408.485 399.343C408.585 392.143 407.964 384.251 409.437 377.164C409.854 374.576 410.768 372.093 412.129 369.852C413.776 367.473 416.645 366.66 419.342 365.997C426.333 364.276 433.71 363.836 440.795 362.489C450.395 360.665 460.702 361.343 470.444 361.514C480.186 361.685 489.875 361.46 499.589 362.07C502.91 362.279 503.756 356.67 500.389 356.177L500.388 356.173Z" fill="#171717"/>
</g>
<g opacity="0.1">
<path d="M507.78 558.477C517.357 564.523 530.737 562.7 541.588 562.818C553.175 562.945 566.146 560.018 577.149 556.502C599.863 549.268 620.953 537.682 639.241 522.391C678.19 489.769 697.415 439.65 705.469 390.718C710.489 360.218 711.735 329.383 712.536 298.531C712.883 285.205 692.029 285.183 691.818 298.531C691.04 347.674 690.148 398.342 672.237 444.8C655.926 487.108 623.492 520.674 581 536.954C569.467 541.442 557.552 544.876 545.4 547.215C539.166 548.377 533.263 549.653 526.9 550.067C520.79 550.467 514.226 550.522 508.52 552.823C506.097 553.799 505.373 556.957 507.781 558.477H507.78Z" fill="#171717"/>
</g>
</g>
</g>
<defs>
<linearGradient id="paint0_linear_297_2626" x1="1484.16" y1="259.822" x2="1484.16" y2="393.195" gradientUnits="userSpaceOnUse">
<stop stop-color="#42E670"/>
<stop offset="1" stop-color="#07AA50"/>
</linearGradient>
<linearGradient id="paint1_linear_297_2626" x1="1548.94" y1="382.7" x2="1548.94" y2="393.061" gradientUnits="userSpaceOnUse">
<stop stop-color="#42E670"/>
<stop offset="1" stop-color="#07AA50"/>
</linearGradient>
<linearGradient id="paint2_linear_297_2626" x1="1487.52" y1="323.14" x2="1487.52" y2="343.441" gradientUnits="userSpaceOnUse">
<stop stop-color="#42E670"/>
<stop offset="1" stop-color="#07AA50"/>
</linearGradient>
<linearGradient id="paint3_linear_297_2626" x1="1486.62" y1="245.175" x2="1486.62" y2="323.81" gradientUnits="userSpaceOnUse">
<stop stop-color="#42E670"/>
<stop offset="1" stop-color="#07AA50"/>
</linearGradient>
<linearGradient id="paint4_linear_297_2626" x1="1409.34" y1="354.696" x2="1409.34" y2="413.713" gradientUnits="userSpaceOnUse">
<stop stop-color="#42E670"/>
<stop offset="1" stop-color="#07AA50"/>
</linearGradient>
<linearGradient id="paint5_linear_297_2626" x1="1397.99" y1="403.679" x2="1397.99" y2="421.019" gradientUnits="userSpaceOnUse">
<stop stop-color="#42E670"/>
<stop offset="1" stop-color="#07AA50"/>
</linearGradient>
<linearGradient id="paint6_linear_297_2626" x1="1621.15" y1="126.844" x2="1621.15" y2="164.197" gradientUnits="userSpaceOnUse">
<stop stop-color="#42E670"/>
<stop offset="1" stop-color="#07AA50"/>
</linearGradient>
<linearGradient id="paint7_linear_297_2626" x1="1649.55" y1="30.0505" x2="1649.55" y2="52.2048" gradientUnits="userSpaceOnUse">
<stop stop-color="#42E670"/>
<stop offset="1" stop-color="#07AA50"/>
</linearGradient>
<linearGradient id="paint8_linear_297_2626" x1="1425.19" y1="454.147" x2="1425.19" y2="470.594" gradientUnits="userSpaceOnUse">
<stop stop-color="#42E670"/>
<stop offset="1" stop-color="#07AA50"/>
</linearGradient>
<linearGradient id="paint9_linear_297_2626" x1="1447.47" y1="492.346" x2="1447.47" y2="507.732" gradientUnits="userSpaceOnUse">
<stop stop-color="#42E670"/>
<stop offset="1" stop-color="#07AA50"/>
</linearGradient>
<linearGradient id="paint10_linear_297_2626" x1="1522.55" y1="472.982" x2="1522.55" y2="491.55" gradientUnits="userSpaceOnUse">
<stop stop-color="#42E670"/>
<stop offset="1" stop-color="#07AA50"/>
</linearGradient>
<linearGradient id="paint11_linear_297_2626" x1="1539.26" y1="557.869" x2="1539.26" y2="579.622" gradientUnits="userSpaceOnUse">
<stop stop-color="#42E670"/>
<stop offset="1" stop-color="#07AA50"/>
</linearGradient>
<linearGradient id="paint12_linear_297_2626" x1="1521.75" y1="625.779" x2="1521.75" y2="643.818" gradientUnits="userSpaceOnUse">
<stop stop-color="#42E670"/>
<stop offset="1" stop-color="#07AA50"/>
</linearGradient>
<linearGradient id="paint13_linear_297_2626" x1="1553.32" y1="692.628" x2="1553.32" y2="711.198" gradientUnits="userSpaceOnUse">
<stop stop-color="#42E670"/>
<stop offset="1" stop-color="#07AA50"/>
</linearGradient>
<linearGradient id="paint14_linear_297_2626" x1="1396.01" y1="558.134" x2="1396.01" y2="578.296" gradientUnits="userSpaceOnUse">
<stop stop-color="#42E670"/>
<stop offset="1" stop-color="#07AA50"/>
</linearGradient>
<linearGradient id="paint15_linear_297_2626" x1="1345.61" y1="593.416" x2="1345.61" y2="606.68" gradientUnits="userSpaceOnUse">
<stop stop-color="#42E670"/>
<stop offset="1" stop-color="#07AA50"/>
</linearGradient>
<linearGradient id="paint16_linear_297_2626" x1="1299.45" y1="629.228" x2="1299.45" y2="641.961" gradientUnits="userSpaceOnUse">
<stop stop-color="#42E670"/>
<stop offset="1" stop-color="#07AA50"/>
</linearGradient>
<linearGradient id="paint17_linear_297_2626" x1="1221.46" y1="606.945" x2="1221.46" y2="639.839" gradientUnits="userSpaceOnUse">
<stop stop-color="#42E670"/>
<stop offset="1" stop-color="#07AA50"/>
</linearGradient>
<linearGradient id="paint18_linear_297_2626" x1="1168.14" y1="558.134" x2="1168.14" y2="578.296" gradientUnits="userSpaceOnUse">
<stop stop-color="#42E670"/>
<stop offset="1" stop-color="#07AA50"/>
</linearGradient>
<linearGradient id="paint19_linear_297_2626" x1="1527.02" y1="735.302" x2="1527.02" y2="751.078" gradientUnits="userSpaceOnUse">
<stop stop-color="#42E670"/>
<stop offset="1" stop-color="#07AA50"/>
</linearGradient>
<linearGradient id="paint20_linear_297_2626" x1="1527.25" y1="805.061" x2="1527.25" y2="824.209" gradientUnits="userSpaceOnUse">
<stop stop-color="#42E670"/>
<stop offset="1" stop-color="#07AA50"/>
</linearGradient>
<linearGradient id="paint21_linear_297_2626" x1="490.824" y1="272.294" x2="490.824" y2="811.44" gradientUnits="userSpaceOnUse">
<stop stop-color="#42E670"/>
<stop offset="1" stop-color="#07AA50"/>
</linearGradient>
<linearGradient id="paint22_linear_297_2626" x1="440.627" y1="519.131" x2="440.627" y2="558.807" gradientUnits="userSpaceOnUse">
<stop stop-color="#42E670"/>
<stop offset="1" stop-color="#07AA50"/>
</linearGradient>
<linearGradient id="paint23_linear_297_2626" x1="165.697" y1="244.186" x2="165.697" y2="286.212" gradientUnits="userSpaceOnUse">
<stop stop-color="#42E670"/>
<stop offset="1" stop-color="#07AA50"/>
</linearGradient>
<clipPath id="clip0_297_2626">
<rect width="960" height="960" fill="white" transform="translate(960)"/>
</clipPath>
<clipPath id="clip1_297_2626">
<rect width="960" height="960" fill="white"/>
</clipPath>
</defs>
</svg>
