<svg width="1920" height="960" viewBox="0 0 1920 960" fill="none" xmlns="http://www.w3.org/2000/svg">
<mask id="mask0_297_2623" style="mask-type:luminance" maskUnits="userSpaceOnUse" x="38" y="150" width="884" height="660">
<path d="M922 150H38V810H922V150Z" fill="white"/>
</mask>
<g mask="url(#mask0_297_2623)">
<path fill-rule="evenodd" clip-rule="evenodd" d="M495.696 387.713C492.409 390.667 488.709 393.994 484.706 398.34C476.272 407.501 475.889 422.701 476.425 431.092H476.435C477.341 431.475 521.549 449.481 543.041 402.835C564.748 355.71 567.516 286.864 549.962 269.31C532.408 251.756 497.759 221.723 435.847 243.44C373.935 265.157 359.611 306.786 359.611 306.786C359.611 306.786 298.277 452.593 141.651 328.307C194.603 427.571 267.08 454.07 326.351 455.307C345.786 455.644 365.185 453.509 384.081 448.955C405.985 443.722 422.047 436.613 428.576 432.991C429.366 432.546 430.106 432.02 430.785 431.42C448.281 416.074 439.052 346.926 435.007 321.674C467.318 322.338 500.817 313.404 515.053 309.074C517.037 318.932 513.011 356.78 509.663 368.886C507.341 377.242 502.373 381.709 495.696 387.713ZM505.146 248.33C504.335 248.16 503.54 248.68 503.371 249.491C503.201 250.302 503.721 251.097 504.532 251.266C524.52 255.443 540.397 272.399 547.356 291.884C554.315 311.368 553.448 332.955 549.397 353.498C549.237 354.31 549.766 355.099 550.579 355.26C551.391 355.42 552.18 354.891 552.341 354.078C556.442 333.275 557.397 311.078 550.181 290.875C542.967 270.674 526.407 252.773 505.146 248.33Z" fill="#171717"/>
<path d="M698.309 491.551C698.309 491.551 764.816 508.644 767.82 567.091C770.569 620.599 760.889 620.452 738.71 641.246C738.709 641.229 738.705 641.213 738.7 641.197C738.435 638.929 729.5 564.244 703.8 569.162L700.282 519.5L698.309 491.551Z" fill="url(#paint0_linear_297_2623)"/>
<path d="M646.979 214.752L817.106 330.565L748.753 425.584L594.9 327.266L646.979 214.752ZM725.14 320.4L738.08 317.583L727.98 309.021L729.295 295.836L718.024 302.806L705.9 297.478L709.052 310.35L700.235 320.236L713.44 321.218L720.126 332.656L725.14 320.4Z" fill="url(#paint1_linear_297_2623)"/>
<path d="M738.08 317.587L725.14 320.404L720.123 332.657L713.437 321.219L700.232 320.237L709.049 310.351L705.897 297.479L718.022 302.81L729.293 295.84L727.978 309.025L738.08 317.587Z" fill="#171717"/>
<path d="M189.601 489C189.601 490.598 190.076 492.159 190.964 493.487C191.852 494.814 193.114 495.849 194.59 496.459C196.066 497.07 197.69 497.229 199.257 496.916C200.823 496.604 202.262 495.834 203.391 494.703C204.519 493.573 205.288 492.134 205.598 490.567C205.909 489 205.748 487.376 205.136 485.901C204.523 484.425 203.487 483.165 202.159 482.278C200.83 481.392 199.268 480.919 197.671 480.92C196.61 480.921 195.56 481.13 194.58 481.536C193.601 481.942 192.711 482.538 191.961 483.288C191.212 484.039 190.618 484.929 190.212 485.909C189.807 486.889 189.599 487.94 189.601 489ZM221.235 497.081C222.833 497.083 224.396 496.61 225.726 495.723C227.056 494.836 228.093 493.574 228.705 492.098C229.318 490.621 229.479 488.996 229.168 487.428C228.857 485.86 228.088 484.42 226.958 483.289C225.828 482.158 224.388 481.388 222.821 481.075C221.253 480.763 219.628 480.922 218.151 481.534C216.674 482.145 215.411 483.181 214.523 484.51C213.635 485.839 213.161 487.402 213.161 489C213.16 490.061 213.368 491.111 213.773 492.091C214.179 493.071 214.773 493.962 215.523 494.712C216.272 495.462 217.162 496.057 218.141 496.463C219.121 496.87 220.171 497.079 221.232 497.079L221.235 497.081ZM243.816 497.081C245.414 497.084 246.978 496.611 248.308 495.725C249.638 494.838 250.676 493.577 251.289 492.1C251.903 490.624 252.064 488.999 251.754 487.431C251.443 485.862 250.674 484.421 249.545 483.29C248.415 482.159 246.975 481.388 245.407 481.075C243.839 480.763 242.214 480.922 240.737 481.533C239.259 482.145 237.997 483.181 237.108 484.51C236.22 485.839 235.746 487.402 235.746 489C235.744 491.141 236.593 493.195 238.106 494.71C239.619 496.225 241.672 497.078 243.813 497.079L243.816 497.081ZM291.374 497.081L612.344 505.868V487.329L291.371 480.918L291.374 497.081ZM697.133 474.921L698.312 491.553L700.284 519.505L698.693 519.613L170.318 510.963L169.729 462.443L291.374 465.319L653.461 473.89L697.133 474.921Z" fill="url(#paint2_linear_297_2623)"/>
<path d="M589.7 701.54L617.082 662.032L677.031 714.009H678.877V745.132C678.877 747.877 677.787 750.508 675.846 752.449C673.905 754.39 671.274 755.48 668.529 755.48H519.256C516.512 755.48 513.88 754.39 511.939 752.449C509.999 750.508 508.908 747.877 508.908 745.132V709.62L552.284 648.701L589.7 701.54Z" fill="#171717"/>
<path d="M657.622 659.724C657.229 664.27 666.851 665.556 678.878 665.448V714.008H677.032L617.083 662.031L589.7 701.539L552.284 648.701L508.908 709.621V583.37C508.908 580.625 509.999 577.993 511.939 576.053C513.88 574.112 516.512 573.022 519.256 573.021H668.53C671.275 573.022 673.906 574.112 675.847 576.053C677.788 577.993 678.878 580.625 678.878 583.37V604.8L678.966 605.281C670.13 607.019 663.166 609.512 663.166 613.057C663.166 616.67 670.137 618.869 678.885 620.214L678.875 620.294V625.419L678.944 625.899C669.037 627.823 660.944 630.7 661.32 635C661.664 639.065 669.4 641.156 678.944 642.177L678.875 642.876V648.701L678.953 649.005C667.626 651.8 658 655.414 657.622 659.724ZM593.893 617.654C593.895 614.087 592.839 610.599 590.858 607.632C588.878 604.664 586.062 602.351 582.766 600.984C579.471 599.618 575.844 599.259 572.345 599.954C568.845 600.649 565.631 602.366 563.107 604.888C560.584 607.41 558.865 610.623 558.168 614.122C557.472 617.621 557.828 621.248 559.193 624.544C560.558 627.84 562.87 630.658 565.836 632.64C568.802 634.622 572.29 635.68 575.857 635.68C578.225 635.681 580.57 635.216 582.758 634.31C584.946 633.405 586.934 632.077 588.609 630.403C590.284 628.729 591.612 626.742 592.519 624.554C593.426 622.367 593.893 620.022 593.893 617.654Z" fill="url(#paint3_linear_297_2623)"/>
<path d="M495.929 442.108L496.066 448.952L496.479 448.942C496.479 448.942 571.665 447.204 653.459 473.88V473.889L291.37 465.318C291.37 465.318 321.728 455.353 326.352 455.353V455.301C345.787 455.638 365.186 453.503 384.082 448.949C405.982 443.716 422.048 436.607 428.582 432.985C429.371 432.54 430.112 432.013 430.791 431.414L476.791 438.964L495.929 442.108Z" fill="url(#paint4_linear_297_2623)"/>
<path d="M479.131 631.428H449.833C445.674 631.428 442.303 634.799 442.303 638.958V643.298C442.303 647.456 445.674 650.828 449.833 650.828H479.131C483.289 650.828 486.661 647.456 486.661 643.298V638.958C486.661 634.799 483.289 631.428 479.131 631.428Z" fill="url(#paint5_linear_297_2623)"/>
<path d="M299.362 594.552L283.87 609.652L287.522 630.986L268.377 620.913L249.222 630.986L252.874 609.652L237.381 594.552L258.794 591.44L268.377 572.039L277.949 591.44L299.362 594.552Z" fill="#171717"/>
<path d="M148.932 236.507L244.579 156.814L260.16 176.058L257.971 177.835L166.172 253.915L148.932 236.507Z" fill="url(#paint6_linear_297_2623)"/>
<path d="M229.311 489C229.31 490.597 228.836 492.158 227.948 493.485C227.061 494.813 225.799 495.847 224.324 496.458C222.848 497.069 221.225 497.228 219.659 496.917C218.092 496.605 216.654 495.836 215.525 494.707C214.395 493.577 213.626 492.139 213.315 490.572C213.003 489.006 213.162 487.383 213.773 485.907C214.384 484.432 215.418 483.17 216.746 482.283C218.073 481.395 219.634 480.921 221.231 480.92C222.292 480.919 223.344 481.128 224.324 481.533C225.305 481.939 226.196 482.534 226.946 483.285C227.697 484.035 228.292 484.926 228.698 485.907C229.104 486.888 229.312 487.939 229.311 489Z" fill="url(#paint7_linear_297_2623)"/>
<path d="M209.341 252.796L215.988 259.777L206.405 260.808L201.82 269.281L197.873 260.484L188.399 258.746L195.547 252.276L194.28 242.723L202.635 247.524L211.324 243.361L209.341 252.796Z" fill="#171717"/>
<path d="M205.748 489C205.747 490.597 205.273 492.158 204.385 493.485C203.497 494.813 202.236 495.847 200.761 496.458C199.285 497.069 197.662 497.228 196.096 496.917C194.529 496.605 193.091 495.836 191.961 494.707C190.832 493.578 190.063 492.139 189.751 490.573C189.439 489.007 189.599 487.383 190.209 485.908C190.82 484.432 191.854 483.171 193.182 482.283C194.509 481.395 196.07 480.921 197.667 480.92C198.728 480.919 199.779 481.128 200.76 481.533C201.741 481.939 202.632 482.534 203.382 483.285C204.133 484.035 204.728 484.926 205.134 485.907C205.54 486.888 205.748 487.939 205.748 489Z" fill="#171717"/>
<path d="M171.679 624.616C214.613 674.089 357.534 667.579 367.244 674.511C368.736 675.581 369.885 677.564 370.671 680.211C373.771 690.638 371.319 711.393 362.384 727.318C359.054 733.588 354.312 738.997 348.531 743.118C333.5 753.29 240.287 762.901 173.181 742.411C135.117 730.787 105.456 709.491 103.198 673.125C96.9538 572.625 170.628 537.283 170.628 537.283L171.679 624.616Z" fill="url(#paint8_linear_297_2623)"/>
<path d="M706.035 600.767L703.797 569.162L700.282 519.503L698.309 491.551L697.131 474.919L653.46 473.888L291.371 465.317L169.726 462.441L170.315 510.961L170.629 537.283L171.68 624.615L171.7 626.117" stroke="#171717" stroke-width="3" stroke-linecap="round" stroke-linejoin="round"/>
<path d="M173.093 742.716L173.888 807.573L719.299 788.163L710.531 664.25" stroke="#171717" stroke-width="3" stroke-linecap="round" stroke-linejoin="round"/>
<path d="M166.172 253.915L221.703 309.976L303.487 229.576L260.16 176.058L244.579 156.814L148.932 236.507L166.172 253.915Z" stroke="#171717" stroke-width="3" stroke-linecap="round" stroke-linejoin="round"/>
<path d="M646.979 214.752L594.904 327.266L748.753 425.584L817.106 330.565L831.921 309.977L659.36 187.998L646.979 214.752Z" stroke="#171717" stroke-width="3" stroke-linecap="round" stroke-linejoin="round"/>
<path d="M476.43 431.093C475.89 422.698 476.273 407.5 484.707 398.34C496.842 385.164 506.199 381.355 509.664 368.886C513.012 356.78 517.038 318.932 515.054 309.074C514.995 308.774 514.927 308.485 514.854 308.24" stroke="#171717" stroke-width="3" stroke-linecap="round" stroke-linejoin="round"/>
<path d="M477.088 437.14C477.088 437.14 476.676 434.764 476.44 431.092" stroke="#171717" stroke-width="3" stroke-linecap="round" stroke-linejoin="round"/>
<path d="M522.133 306.787C522.133 306.787 519.561 307.7 515.054 309.074C500.818 313.404 467.319 322.338 435.008 321.674C432.858 321.635 430.708 321.546 428.577 321.409" stroke="#171717" stroke-width="3" stroke-linecap="round" stroke-linejoin="round"/>
<path d="M141.656 328.307C194.604 427.567 267.081 454.066 326.356 455.307C345.791 455.644 365.19 453.509 384.086 448.955C405.986 443.722 422.052 436.613 428.586 432.991C429.375 432.546 430.116 432.02 430.795 431.42C448.295 416.074 439.062 346.926 435.017 321.674C434.094 315.891 433.436 312.406 433.436 312.406" stroke="#171717" stroke-width="3" stroke-linecap="round" stroke-linejoin="round"/>
<path d="M476.43 431.092H476.44C477.34 431.475 521.554 449.481 543.046 402.835C564.753 355.709 567.532 286.875 549.967 269.31C532.402 251.745 497.767 221.722 435.852 243.44C373.937 265.158 359.616 306.786 359.616 306.786C359.616 306.786 298.282 452.593 141.656 328.307" stroke="#171717" stroke-width="3" stroke-linecap="round" stroke-linejoin="round"/>
<path d="M170.628 537.283C170.628 537.283 96.9538 572.628 103.198 673.125C105.456 709.491 135.117 730.787 173.181 742.411C240.287 762.901 333.5 753.29 348.531 743.118C354.312 738.997 359.054 733.588 362.384 727.318C371.319 711.393 373.773 690.638 370.671 680.211C369.885 677.56 368.736 675.577 367.244 674.511C357.534 667.579 214.613 674.089 171.679 624.616" stroke="#171717" stroke-width="3" stroke-linecap="round" stroke-linejoin="round"/>
<path d="M698.309 491.551C698.309 491.551 764.816 508.644 767.82 567.091C770.569 620.599 760.889 620.452 738.71 641.246C738.709 641.229 738.705 641.213 738.7 641.197C738.435 638.929 729.5 564.244 703.8 569.162" stroke="#171717" stroke-width="3" stroke-linecap="round" stroke-linejoin="round"/>
<path d="M430.786 431.416L476.784 438.966L495.929 442.107L496.066 448.951L496.223 456.461" stroke="#171717" stroke-width="3" stroke-linecap="round" stroke-linejoin="round"/>
<path d="M384.082 448.941V448.951V456.707" stroke="#171717" stroke-width="3" stroke-linecap="round" stroke-linejoin="round"/>
<path d="M291.37 465.317C291.37 465.317 321.728 455.352 326.352 455.352" stroke="#171717" stroke-width="3" stroke-linecap="round" stroke-linejoin="round"/>
<path d="M496.479 448.941C496.479 448.941 571.664 447.203 653.458 473.879" stroke="#171717" stroke-width="3" stroke-linecap="round" stroke-linejoin="round"/>
<path d="M395.981 695.708C400.694 694.922 454.791 686.037 454.791 695.767C454.791 705.928 405.358 709.159 405.358 709.159C405.358 709.159 455.253 706.851 454.791 715.167C454.329 723.483 362.384 727.322 362.384 727.322" stroke="#171717" stroke-width="3" stroke-linecap="round" stroke-linejoin="round"/>
<path d="M395.657 695.766C395.671 695.765 395.684 695.761 395.697 695.756C395.734 695.752 395.77 695.745 395.805 695.736" stroke="#171717" stroke-width="3" stroke-linecap="round" stroke-linejoin="round"/>
<path d="M395.805 695.736C395.77 695.745 395.734 695.752 395.697 695.756" stroke="#171717" stroke-width="3" stroke-linecap="round" stroke-linejoin="round"/>
<path d="M395.805 695.736C395.864 695.735 395.924 695.725 395.981 695.707" stroke="#171717" stroke-width="3" stroke-linecap="round" stroke-linejoin="round"/>
<path d="M370.671 680.214C370.671 680.214 374.352 643.092 384.082 642.631C393.812 642.17 387.342 682.831 387.342 682.831C387.342 682.831 446.014 668.506 446.476 677.283C446.917 685.648 400.331 694.868 395.981 695.712" stroke="#171717" stroke-width="3" stroke-linecap="round" stroke-linejoin="round"/>
<path d="M715.843 642.622C715.813 642.623 715.783 642.626 715.754 642.632C714.282 642.71 694.282 643.832 678.947 642.18C669.403 641.159 661.667 639.068 661.323 635.003C660.95 630.703 669.04 627.826 678.947 625.903C694.066 622.977 713.408 622.303 713.408 622.303C713.408 622.303 693.624 622.489 678.888 620.221C670.14 618.876 663.169 616.677 663.169 613.064C663.169 609.519 670.13 607.026 678.969 605.288C687.951 603.677 697.018 602.588 706.126 602.028C711.626 601.655 715.374 601.518 715.374 601.518" stroke="#171717" stroke-width="3" stroke-linecap="round" stroke-linejoin="round"/>
<path d="M737.845 641.246C737.845 641.246 735.763 660.646 721.845 662.031C719.116 662.306 713.981 662.915 707.745 663.553C699.045 664.446 688.236 665.369 678.88 665.448C666.853 665.556 657.231 664.27 657.624 659.724C657.997 655.414 667.624 651.801 678.958 649.003C694.922 645.075 714.258 642.803 715.758 642.631" stroke="#171717" stroke-width="3" stroke-linecap="round" stroke-linejoin="round"/>
<path d="M170.314 510.961L698.691 519.611" stroke="#171717" stroke-width="3" stroke-linecap="round" stroke-linejoin="round"/>
<path d="M291.37 480.918V497.079L612.341 505.866V487.329L291.37 480.918Z" stroke="#171717" stroke-width="3" stroke-linecap="round" stroke-linejoin="round"/>
<path d="M205.748 489C205.747 490.597 205.273 492.158 204.385 493.485C203.497 494.813 202.236 495.847 200.761 496.458C199.285 497.069 197.662 497.228 196.096 496.917C194.529 496.605 193.091 495.836 191.961 494.707C190.832 493.578 190.063 492.139 189.751 490.573C189.439 489.007 189.599 487.383 190.209 485.908C190.82 484.432 191.854 483.171 193.182 482.283C194.509 481.395 196.07 480.921 197.667 480.92C198.728 480.919 199.779 481.128 200.76 481.533C201.741 481.939 202.632 482.534 203.382 483.285C204.133 484.035 204.728 484.926 205.134 485.907C205.54 486.888 205.748 487.939 205.748 489Z" stroke="#171717" stroke-width="3" stroke-linecap="round" stroke-linejoin="round"/>
<path d="M229.311 489C229.31 490.597 228.836 492.158 227.948 493.485C227.061 494.813 225.799 495.847 224.324 496.458C222.848 497.069 221.225 497.228 219.659 496.917C218.092 496.605 216.654 495.836 215.525 494.707C214.395 493.577 213.626 492.139 213.315 490.572C213.003 489.006 213.162 487.383 213.773 485.907C214.384 484.432 215.418 483.17 216.746 482.283C218.073 481.395 219.634 480.921 221.231 480.92C222.292 480.919 223.344 481.128 224.324 481.533C225.305 481.939 226.196 482.534 226.946 483.285C227.697 484.035 228.292 484.926 228.698 485.907C229.104 486.888 229.312 487.939 229.311 489Z" stroke="#171717" stroke-width="3" stroke-linecap="round" stroke-linejoin="round"/>
<path d="M251.892 489C251.891 490.597 251.417 492.157 250.529 493.484C249.642 494.811 248.38 495.846 246.905 496.456C245.43 497.067 243.807 497.226 242.241 496.914C240.675 496.603 239.236 495.834 238.107 494.705C236.978 493.576 236.209 492.137 235.898 490.572C235.586 489.006 235.745 487.382 236.356 485.907C236.966 484.432 238.001 483.171 239.328 482.283C240.655 481.395 242.216 480.921 243.812 480.92C244.874 480.919 245.925 481.128 246.905 481.533C247.886 481.939 248.777 482.534 249.527 483.285C250.278 484.035 250.873 484.926 251.279 485.907C251.685 486.888 251.893 487.939 251.892 489Z" stroke="#171717" stroke-width="3" stroke-linecap="round" stroke-linejoin="round"/>
<path d="M297.595 544.568H583.466" stroke="#171717" stroke-width="3" stroke-linecap="round" stroke-linejoin="round"/>
<path d="M345.959 597.518L485.492 597.449" stroke="#171717" stroke-width="3" stroke-linecap="round" stroke-linejoin="round"/>
<path d="M401.705 614.051L484 613.58" stroke="#171717" stroke-width="3" stroke-linecap="round" stroke-linejoin="round"/>
<path d="M268.377 572.039L277.949 591.44L299.362 594.552L283.87 609.652L287.522 630.986L268.377 620.913L249.222 630.986L252.874 609.652L237.381 594.552L258.794 591.44L268.377 572.039Z" stroke="#171717" stroke-width="3" stroke-linecap="round" stroke-linejoin="round"/>
<path d="M479.131 631.428H449.833C445.674 631.428 442.303 634.799 442.303 638.958V643.298C442.303 647.456 445.674 650.828 449.833 650.828H479.131C483.289 650.828 486.661 647.456 486.661 643.298V638.958C486.661 634.799 483.289 631.428 479.131 631.428Z" stroke="#171717" stroke-width="3" stroke-linecap="round" stroke-linejoin="round"/>
<path d="M678.878 666.194V745.131C678.878 747.876 677.788 750.508 675.847 752.448C673.906 754.389 671.275 755.479 668.53 755.479H519.256C516.512 755.479 513.88 754.389 511.939 752.448C509.999 750.508 508.908 747.876 508.908 745.131V583.37C508.908 580.625 509.999 577.993 511.939 576.053C513.88 574.112 516.512 573.022 519.256 573.021H668.53C671.275 573.022 673.906 574.112 675.847 576.053C677.788 577.993 678.878 580.625 678.878 583.37V604.8" stroke="#171717" stroke-width="3" stroke-linecap="round" stroke-linejoin="round"/>
<path d="M678.878 620.295V625.42" stroke="#171717" stroke-width="3" stroke-linecap="round" stroke-linejoin="round"/>
<path d="M646.979 214.752L817.107 330.565" stroke="#171717" stroke-width="3" stroke-linecap="round" stroke-linejoin="round"/>
<path d="M663.63 314.248L728.773 358.95" stroke="#171717" stroke-width="3" stroke-linecap="round" stroke-linejoin="round"/>
<path d="M677.032 340.924L698.691 355.248" stroke="#171717" stroke-width="3" stroke-linecap="round" stroke-linejoin="round"/>
<path d="M166.171 253.916L257.97 177.836" stroke="#171717" stroke-width="3" stroke-linecap="round" stroke-linejoin="round"/>
<path d="M228.633 233.397L257.97 209.137" stroke="#171717" stroke-width="3" stroke-linecap="round" stroke-linejoin="round"/>
<path d="M228.633 255.221L269.525 219.533" stroke="#171717" stroke-width="3" stroke-linecap="round" stroke-linejoin="round"/>
<path d="M257.97 249.675L271.95 237.373" stroke="#171717" stroke-width="3" stroke-linecap="round" stroke-linejoin="round"/>
<path d="M496.48 324.988L495.93 333.069" stroke="#171717" stroke-width="3" stroke-linecap="round" stroke-linejoin="round"/>
<path d="M459.2 324.939L458.709 333.127" stroke="#171717" stroke-width="3" stroke-linecap="round" stroke-linejoin="round"/>
<path d="M487.368 348.09C487.368 348.09 488.526 366.106 486.445 368.19C484.364 370.274 476.273 366.344 476.273 366.344" stroke="#171717" stroke-width="3" stroke-linecap="round" stroke-linejoin="round"/>
<path d="M450.177 383.877C450.177 383.877 452.249 393.371 458.257 396.601C464.265 399.831 470.49 394.981 470.49 394.981" stroke="#171717" stroke-width="3" stroke-linecap="round" stroke-linejoin="round"/>
<path d="M729.293 295.84L727.978 309.025L738.08 317.587L725.14 320.404L720.123 332.657L713.437 321.219L700.232 320.237L709.049 310.351L705.897 297.479L718.022 302.81L729.293 295.84Z" stroke="#171717" stroke-width="3" stroke-linecap="round" stroke-linejoin="round"/>
<path d="M211.324 243.361L209.341 252.796L215.988 259.777L206.405 260.808L201.82 269.281L197.873 260.484L188.399 258.746L195.547 252.276L194.28 242.723L202.635 247.524L211.324 243.361Z" stroke="#171717" stroke-width="3" stroke-linecap="round" stroke-linejoin="round"/>
<path d="M669.866 218.257C672.29 218.257 674.255 216.291 674.255 213.868C674.255 211.444 672.29 209.479 669.866 209.479C667.442 209.479 665.477 211.444 665.477 213.868C665.477 216.291 667.442 218.257 669.866 218.257Z" stroke="#171717" stroke-width="3" stroke-linecap="round" stroke-linejoin="round"/>
<path d="M678.878 642.877V648.699" stroke="#171717" stroke-width="3" stroke-linecap="round" stroke-linejoin="round"/>
<path d="M508.908 709.62L552.284 648.699L589.701 701.54L617.083 662.032L677.032 714.009" stroke="#171717" stroke-width="3" stroke-linecap="round" stroke-linejoin="round"/>
<path d="M593.893 617.655C593.893 621.222 592.836 624.709 590.854 627.675C588.872 630.641 586.055 632.953 582.759 634.318C579.464 635.683 575.837 636.041 572.339 635.345C568.84 634.649 565.626 632.931 563.104 630.409C560.582 627.886 558.864 624.672 558.168 621.174C557.472 617.675 557.829 614.049 559.194 610.753C560.559 607.457 562.871 604.641 565.837 602.659C568.803 600.677 572.29 599.619 575.857 599.619C578.226 599.618 580.572 600.084 582.761 600.99C584.949 601.896 586.938 603.224 588.613 604.899C590.288 606.574 591.617 608.563 592.523 610.752C593.429 612.941 593.894 615.286 593.893 617.655Z" stroke="#171717" stroke-width="3" stroke-linecap="round" stroke-linejoin="round"/>
<path d="M100.226 379.045C102.465 390.658 107.026 401.671 110.664 412.923C114.302 424.175 117.064 436.041 115.534 447.768C114.004 459.495 107.469 471.126 96.7342 476.081C85.9992 481.036 71.2092 477.234 66.2902 466.481C61.3712 455.728 70.7522 440.66 82.4642 442.309C88.8212 443.209 94.0222 448.336 96.3942 454.302C98.7662 460.268 98.6942 466.941 97.7402 473.29C96.1912 483.6 92.0002 494.1 83.5642 500.232C77.0282 504.983 68.7822 506.553 61.3262 509.668C54.2092 512.642 47.5382 517.289 43.5992 523.921C39.6602 530.553 38.9042 539.368 42.9842 545.915C47.0642 552.462 56.4322 555.601 63.0722 551.675C69.7122 547.749 70.9042 536.662 64.5642 532.268" stroke="#171717" stroke-width="3" stroke-linecap="round" stroke-linejoin="round"/>
<path d="M838.219 443.98C828.574 457.302 822.248 472.733 819.765 488.991C817.465 504.165 819.186 521.191 829.805 532.268C836.898 539.668 847.911 543.5 857.825 540.899C867.739 538.298 875.738 528.755 875.436 518.51C875.134 508.265 865.615 498.858 855.4 499.71C844.556 500.61 836.808 511.91 836.567 522.787C836.326 533.664 841.806 543.854 848.198 552.66C854.59 561.466 862.098 569.575 866.957 579.312C871.151 587.722 873.217 597.466 871.157 606.635C869.097 615.804 862.457 624.186 853.457 626.876C844.457 629.566 833.494 625.488 829.623 616.925C825.752 608.362 831.007 596.568 840.249 594.867" stroke="#171717" stroke-width="3" stroke-linecap="round" stroke-linejoin="round"/>
<path d="M782.947 605.847C790.618 588.402 791.585 568.742 785.663 550.629" stroke="#171717" stroke-width="3" stroke-linecap="round" stroke-linejoin="round"/>
<path d="M878.747 463.601L898.797 456.082" stroke="#171717" stroke-width="3" stroke-linecap="round" stroke-linejoin="round"/>
<path d="M811.101 377.168C826.193 363.371 837.336 345.802 843.382 326.268" stroke="#171717" stroke-width="3" stroke-linecap="round" stroke-linejoin="round"/>
<path d="M902.583 474.793L920.262 470.666" stroke="#171717" stroke-width="3" stroke-linecap="round" stroke-linejoin="round"/>
<path d="M593.863 232.699L582.428 215.027" stroke="#171717" stroke-width="3" stroke-linecap="round" stroke-linejoin="round"/>
<path d="M580.35 230.618L598.023 216.064" stroke="#171717" stroke-width="3" stroke-linecap="round" stroke-linejoin="round"/>
<path d="M600.08 355.461C595.545 354.435 591.348 352.264 587.89 349.155C584.432 346.046 581.829 342.103 580.328 337.701" stroke="#171717" stroke-width="3" stroke-linecap="round" stroke-linejoin="round"/>
<path d="M374.5 229.469L356.832 232.617" stroke="#171717" stroke-width="3" stroke-linecap="round" stroke-linejoin="round"/>
<path d="M365.417 239.946L363.282 221.24" stroke="#171717" stroke-width="3" stroke-linecap="round" stroke-linejoin="round"/>
<path d="M411.941 166.167L423.376 151.613" stroke="#171717" stroke-width="3" stroke-linecap="round" stroke-linejoin="round"/>
<path d="M423.249 165.257L410.677 152.881" stroke="#171717" stroke-width="3" stroke-linecap="round" stroke-linejoin="round"/>
<path d="M156.04 271.301L141.477 253.637" stroke="#171717" stroke-width="3" stroke-linecap="round" stroke-linejoin="round"/>
<path d="M70.9668 417.74L73.0458 403.186" stroke="#171717" stroke-width="3" stroke-linecap="round" stroke-linejoin="round"/>
<path d="M77.2054 414.62L63.6904 409.42" stroke="#171717" stroke-width="3" stroke-linecap="round" stroke-linejoin="round"/>
<path d="M88.6404 542.487L84.4824 534.17" stroke="#171717" stroke-width="3" stroke-linecap="round" stroke-linejoin="round"/>
<path d="M79.3477 542.582L91.8647 534.33" stroke="#171717" stroke-width="3" stroke-linecap="round" stroke-linejoin="round"/>
<path d="M93.3174 696.065C84.4346 679.177 81.7143 659.722 85.6244 641.045" stroke="#171717" stroke-width="3" stroke-linecap="round" stroke-linejoin="round"/>
<path d="M484.087 456.207L484.425 448.93" stroke="#171717" stroke-width="3" stroke-linecap="round" stroke-linejoin="round"/>
<path d="M468.366 456.547L468.715 448.23" stroke="#171717" stroke-width="3" stroke-linecap="round" stroke-linejoin="round"/>
<path d="M447.286 455.511V446.848" stroke="#171717" stroke-width="3" stroke-linecap="round" stroke-linejoin="round"/>
<path d="M427.535 454.124C428.315 451.07 428.549 447.903 428.228 444.768" stroke="#171717" stroke-width="3" stroke-linecap="round" stroke-linejoin="round"/>
<path d="M410.964 454.478L412 446.16" stroke="#171717" stroke-width="3" stroke-linecap="round" stroke-linejoin="round"/>
<path d="M320.355 750.29C338.245 728.136 347.345 700.168 345.917 671.729" stroke="#171717" stroke-width="3" stroke-linecap="round" stroke-linejoin="round"/>
<path d="M298.553 724.441L294.73 715.719" stroke="#171717" stroke-width="3" stroke-linecap="round" stroke-linejoin="round"/>
<path d="M302.688 687.782C304.728 686.166 307.153 685.107 309.724 684.707" stroke="#171717" stroke-width="3" stroke-linecap="round" stroke-linejoin="round"/>
<path d="M252.427 734.111L259.82 730.877" stroke="#171717" stroke-width="3" stroke-linecap="round" stroke-linejoin="round"/>
<path d="M262.654 700.92L269.203 695.473" stroke="#171717" stroke-width="3" stroke-linecap="round" stroke-linejoin="round"/>
<path d="M245.582 681.831L240.121 675.293" stroke="#171717" stroke-width="3" stroke-linecap="round" stroke-linejoin="round"/>
<path d="M232.687 717.859L228.045 710.48" stroke="#171717" stroke-width="3" stroke-linecap="round" stroke-linejoin="round"/>
<path d="M200.173 733.589L207.561 728.039" stroke="#171717" stroke-width="3" stroke-linecap="round" stroke-linejoin="round"/>
<path d="M203.852 691.007L210.792 687.74L210.382 686.518" stroke="#171717" stroke-width="3" stroke-linecap="round" stroke-linejoin="round"/>
<path d="M210.429 659.754C208.228 663.211 205.189 666.055 201.594 668.022" stroke="#171717" stroke-width="3" stroke-linecap="round" stroke-linejoin="round"/>
<path d="M177.646 709.558C175.407 707.305 173.847 704.467 173.146 701.369" stroke="#171717" stroke-width="3" stroke-linecap="round" stroke-linejoin="round"/>
<path d="M172.199 674.647L168.271 666.223" stroke="#171717" stroke-width="3" stroke-linecap="round" stroke-linejoin="round"/>
<path d="M133.709 690.247L139.729 685.646" stroke="#171717" stroke-width="3" stroke-linecap="round" stroke-linejoin="round"/>
<path d="M152.765 647.478L161.504 642.328" stroke="#171717" stroke-width="3" stroke-linecap="round" stroke-linejoin="round"/>
<path d="M124.545 650L121.818 638.9" stroke="#171717" stroke-width="3" stroke-linecap="round" stroke-linejoin="round"/>
<path d="M145.646 613.492C147.586 609.85 150.289 606.669 153.571 604.166L153.01 602.939" stroke="#171717" stroke-width="3" stroke-linecap="round" stroke-linejoin="round"/>
<path d="M151.125 579.016L143.025 572.393" stroke="#171717" stroke-width="3" stroke-linecap="round" stroke-linejoin="round"/>
<path d="M746.334 589.5L755.112 583.955" stroke="#171717" stroke-width="3" stroke-linecap="round" stroke-linejoin="round"/>
<path d="M745.438 549.755L743 538.232" stroke="#171717" stroke-width="3" stroke-linecap="round" stroke-linejoin="round"/>
<path d="M726.421 554.972L718.121 552.139" stroke="#171717" stroke-width="3" stroke-linecap="round" stroke-linejoin="round"/>
<path d="M751.044 628.753C748.328 614.17 742.558 600.326 734.114 588.131C730.462 582.864 725.865 577.637 719.623 576.184" stroke="#171717" stroke-width="3" stroke-linecap="round" stroke-linejoin="round"/>
<path d="M561.639 465.561L567.531 462.098" stroke="#171717" stroke-width="3" stroke-linecap="round" stroke-linejoin="round"/>
<path d="M533.271 463.122L533.5 464.103C531.317 461.157 529.024 458.299 526.619 455.527" stroke="#171717" stroke-width="3" stroke-linecap="round" stroke-linejoin="round"/>
<path d="M499.463 464.391C500.871 462.771 502.737 461.617 504.815 461.08" stroke="#171717" stroke-width="3" stroke-linecap="round" stroke-linejoin="round"/>
<path d="M368.977 462.783L359.894 457.717" stroke="#171717" stroke-width="3" stroke-linecap="round" stroke-linejoin="round"/>
<path d="M606.413 472.056C604.641 470.541 603.129 468.747 601.936 466.744" stroke="#171717" stroke-width="3" stroke-linecap="round" stroke-linejoin="round"/>
<path d="M722.423 523.428C720.29 523.588 718.15 523.232 716.185 522.389" stroke="#171717" stroke-width="3" stroke-linecap="round" stroke-linejoin="round"/>
<g opacity="0.1">
<path d="M513.4 305.141C507.178 305.779 501.565 308.007 495.56 309.676C489.96 311.232 484.277 312.519 478.579 313.651C467.111 315.83 455.45 316.825 443.779 316.621C437.205 316.57 431.785 323.312 433.779 329.75C438.655 345.546 440.35 362.152 438.766 378.608C437.953 386.615 436.311 394.517 433.866 402.186C431.341 410.302 427.039 417.549 424.251 425.504C422.551 430.358 425.786 436.018 430.303 437.835C435.539 439.941 440.081 437.813 443.357 433.558C448.793 426.499 451.927 416.319 454.539 407.885C457.338 398.616 459.196 389.089 460.084 379.448C461.878 360.805 459.729 341.993 453.777 324.235L443.777 337.364C456.898 336.894 469.942 335.151 482.726 332.158C494.667 329.374 509.069 325.624 518.6 317.704C523.319 313.783 519.611 304.504 513.4 305.141Z" fill="#171717"/>
</g>
<g opacity="0.1">
<path d="M163.33 538.976C150.29 543.089 140.71 557.905 133.33 568.695C125.509 580.276 118.98 592.679 113.86 605.682C108.707 618.601 105.128 632.093 103.2 645.868C101.139 660.438 100.531 675.533 104.632 689.837C112.932 718.797 138.501 733.769 165.521 742.531C195.06 751.97 225.85 756.915 256.859 757.2C274.56 757.35 292.244 756.048 309.733 753.308C318.427 751.975 327.051 750.265 335.606 748.179C344.355 746.041 353.646 744.071 361.452 739.46C369.737 734.567 366.917 718.917 356.2 720.069C348.522 720.894 341.458 723.342 334.011 725.28C326.967 727.113 319.863 728.689 312.698 730.009C299.363 732.437 285.871 733.904 272.326 734.401C244.196 735.541 216.048 732.617 188.753 725.718C167.153 720.218 140.313 713.07 129.175 691.666C118.303 670.773 123.931 642.602 130.428 621.245C136.454 601.447 145.986 582.891 158.57 566.462C163.299 560.306 168.924 554.437 171.345 546.992C172.861 542.331 167.959 537.516 163.33 538.976Z" fill="#171717"/>
</g>
</g>
<g clip-path="url(#clip0_297_2623)">
<mask id="mask1_297_2623" style="mask-type:luminance" maskUnits="userSpaceOnUse" x="960" y="0" width="960" height="960">
<path d="M1920 0H960V960H1920V0Z" fill="white"/>
</mask>
<g mask="url(#mask1_297_2623)">
<path d="M1776.96 178.936C1780.85 178.913 1784.7 179.66 1788.3 181.132C1791.9 182.604 1795.17 184.772 1797.92 187.513C1800.68 190.254 1802.87 193.513 1804.36 197.102C1805.86 200.692 1806.62 204.541 1806.62 208.429C1806.62 212.316 1805.86 216.165 1804.36 219.755C1802.87 223.344 1800.68 226.603 1797.92 229.344C1795.17 232.085 1791.9 234.254 1788.3 235.726C1784.7 237.198 1780.85 237.944 1776.96 237.921H1625.46C1621.58 237.944 1617.72 237.198 1614.12 235.726C1610.53 234.254 1607.26 232.085 1604.5 229.344C1601.74 226.603 1599.55 223.344 1598.06 219.755C1596.57 216.165 1595.8 212.316 1595.8 208.429C1595.8 204.541 1596.57 200.692 1598.06 197.102C1599.55 193.513 1601.74 190.254 1604.5 187.513C1607.26 184.772 1610.53 182.604 1614.12 181.132C1617.72 179.66 1621.58 178.913 1625.46 178.936H1776.96Z" fill="url(#paint9_linear_297_2623)"/>
<path d="M1542.27 179.46C1546.16 179.438 1550.01 180.184 1553.61 181.656C1557.21 183.128 1560.48 185.297 1563.23 188.038C1565.99 190.779 1568.18 194.037 1569.67 197.627C1571.16 201.216 1571.93 205.065 1571.93 208.953C1571.93 212.84 1571.16 216.69 1569.67 220.279C1568.18 223.869 1565.99 227.127 1563.23 229.868C1560.48 232.609 1557.21 234.778 1553.61 236.25C1550.01 237.722 1546.16 238.468 1542.27 238.445H1452.94C1445.15 238.4 1437.7 235.273 1432.2 229.747C1426.71 224.221 1423.62 216.745 1423.62 208.953C1423.62 201.161 1426.71 193.685 1432.2 188.159C1437.7 182.633 1445.15 179.506 1452.94 179.46H1542.27Z" fill="url(#paint10_linear_297_2623)"/>
<path d="M1500.73 337.484C1509.72 361.649 1515.49 386.889 1517.91 412.558C1518.45 418.129 1518.8 423.722 1519.01 429.315C1519.37 439.12 1519.23 449.036 1517.12 458.615C1515.11 467.751 1511.36 476.409 1507.33 484.854C1488.22 524.892 1462.63 561.502 1431.6 593.211C1425.75 625.511 1422.89 664.831 1423.05 697.554L1423.06 697.866C1391.89 698.746 1360.7 698.122 1329.48 698.546L1329.13 698.501C1328.46 704.195 1328.08 709.907 1327.97 715.637C1327.89 720.127 1327.99 724.614 1328.27 729.097C1329.06 741.687 1331.44 754.697 1338.9 764.873C1348.31 777.742 1364.96 784.193 1380.88 783.48C1396.8 782.767 1411.94 775.547 1424.38 765.58C1436.82 755.613 1446.81 742.929 1456.04 729.926C1457.35 728.077 1458.64 726.226 1459.91 724.355C1471.42 707.875 1481.4 690.376 1489.72 672.078C1492.07 666.819 1500.35 665.059 1505.92 666.529C1506.23 666.607 1506.53 666.696 1506.83 666.786C1528.09 672.735 1545.43 690.886 1550.58 712.311C1550.87 713.425 1551.11 714.55 1551.31 715.687C1555.36 738.438 1546.5 761.168 1533.55 780.744C1530.95 784.655 1528.21 788.444 1525.37 792.075C1511.42 809.924 1495.01 825.768 1477.42 840.041C1474.5 842.403 1471.53 844.731 1468.52 846.993C1453.65 858.135 1437.48 867.672 1419.47 871.806C1403.82 875.406 1387.49 874.736 1371.52 872.976C1341.67 869.689 1310.62 861.756 1289.29 840.609C1277.04 828.464 1269.25 813.245 1264.57 796.699C1261.12 784.015 1259.16 770.973 1258.72 757.836C1258.42 750.561 1258.47 743.296 1258.79 736.154C1259.11 729.324 1259.62 722.472 1260.37 715.642C1261.01 709.615 1261.84 703.606 1262.84 697.615C1269.65 657.237 1284.74 618.308 1310.74 586.966C1310.87 587.041 1311.01 587.101 1311.16 587.144C1312.79 587.529 1314.5 587.424 1316.08 586.844C1326.63 583.969 1336.63 579.444 1346.59 574.933C1353.13 571.981 1359.67 569.029 1366.19 566.076C1370.37 564.193 1374.6 562.265 1378.21 559.446C1380.62 557.563 1382.83 554.889 1383.26 552.004L1383.7 552.059C1414.34 519.035 1430.75 475.626 1446.45 433.399C1454.7 411.193 1462.96 388.98 1471.23 366.76C1474.69 357.412 1478.16 348.068 1481.64 338.727C1483.54 333.613 1485.55 328.332 1489.47 324.521C1490.22 323.641 1491.28 323.071 1492.43 322.921C1494.53 322.865 1495.84 325.127 1496.65 327.066C1498.08 330.513 1499.44 333.986 1500.73 337.484Z" fill="#171717"/>
<path d="M1471.22 548.076C1471.03 587.708 1471.03 627.833 1471.22 668.452C1472.14 682.412 1461 695.783 1446.52 696.897C1438.7 697.342 1430.89 697.665 1423.06 697.866L1423.05 697.554C1422.88 664.831 1425.75 625.511 1431.6 593.211C1445.6 578.91 1458.51 563.585 1470.24 547.362L1471.22 548.076Z" fill="url(#paint11_linear_297_2623)"/>
<path d="M1446.44 433.393C1430.74 475.62 1414.33 519.029 1383.69 552.053L1383.25 551.998C1383.39 551.18 1383.36 550.343 1383.17 549.535C1382.42 546.226 1379.04 544.035 1375.67 543.608C1372.31 543.181 1368.93 544.142 1365.69 545.168C1362.24 546.259 1358.81 547.421 1355.42 548.655C1340.44 525.101 1368.9 524.979 1358.66 500.767C1353.23 483 1347.63 464.991 1337.6 449.348L1337.43 448.869C1347.38 445.359 1358.16 443.51 1366.78 437.46C1375.84 431.276 1381.16 420.346 1365.51 420.335C1353.95 421.95 1343.43 428.368 1333.33 433.961C1339.17 426.875 1347.44 420.09 1352.14 412.261C1353.64 400.228 1332.43 410.423 1327.81 413.988C1323.16 417.214 1318.92 420.999 1315.2 425.259C1314.44 420.059 1316.14 413.494 1313.11 408.68C1305.93 405.706 1299.3 415.41 1296.11 420.97C1291.16 429.048 1291.36 440.67 1282.89 446.217C1259.95 463.108 1260.04 500.378 1283.06 517.168L1283.29 517.213C1281.88 523.497 1289.76 530.371 1295.66 523.965L1296.16 524.21C1301.59 539.184 1312.29 551.351 1318.01 566.237C1317.47 566.549 1316.94 566.872 1316.41 567.195C1312.82 569.367 1309.08 571.886 1307.53 575.785C1306.55 578.302 1306.6 581.107 1307.67 583.585C1308.24 585.05 1309.34 586.253 1310.74 586.961C1284.74 618.303 1269.65 657.233 1262.84 697.611C1250.26 695.828 1236.98 699.093 1224.8 694.669C1220.44 692.516 1216.77 689.181 1214.21 685.044C1211.65 680.907 1210.3 676.134 1210.32 671.269C1208.09 545.369 1206.97 418.35 1211.43 292.448C1211.43 279.078 1223.69 269.048 1237.06 267.936C1305.02 266.822 1374.1 266.822 1442.07 267.936C1446.72 267.985 1451.3 269.13 1455.44 271.279C1464.35 275.735 1469.92 284.649 1471.04 294.679C1472.13 318.69 1471.08 342.701 1471.22 366.756C1462.95 388.972 1454.69 411.184 1446.44 433.393ZM1296.49 333.618C1296.64 332.003 1299.7 322.398 1292.93 322.554C1277.92 322.889 1262.9 322.588 1247.88 322.599C1247.41 343.579 1246.94 364.559 1245.9 385.517C1260.54 384.984 1275.18 384.445 1289.83 383.901C1294.23 383.745 1294.03 382.965 1294.12 378.701C1294.18 375.024 1294.3 371.347 1294.43 367.67C1294.7 360.306 1295.08 352.953 1295.58 345.61C1295.86 341.608 1296.16 337.611 1296.49 333.618Z" fill="url(#paint12_linear_297_2623)"/>
<path d="M1365.52 420.335C1381.17 420.346 1375.84 431.276 1366.79 437.46C1358.16 443.51 1347.39 445.36 1337.44 448.869C1337.35 448.902 1337.27 448.925 1337.18 448.958C1326.73 452.858 1316.78 457.972 1306.8 462.93C1285.28 470.952 1282.75 491.275 1289.36 510.918L1289.43 511.096C1285.67 512.555 1283.82 514.851 1283.29 517.213L1283.05 517.168C1260.04 500.377 1259.95 463.108 1282.89 446.217C1291.35 440.668 1291.16 429.048 1296.1 420.97C1299.3 415.41 1305.93 405.706 1313.1 408.68C1316.13 413.494 1314.44 420.056 1315.2 425.259C1318.92 420.997 1323.16 417.211 1327.81 413.984C1332.43 410.418 1353.65 400.224 1352.14 412.257C1347.44 420.09 1339.17 426.875 1333.34 433.957C1343.43 428.368 1353.95 421.95 1365.52 420.335Z" fill="#171717"/>
<path d="M1264.56 796.694L1264.15 796.816C1252.95 798.407 1241.67 799.337 1230.36 799.602C1229.86 798.696 1229.68 797.648 1229.85 796.627C1230.53 784.494 1231.21 772.36 1231.88 760.227C1231.82 759.962 1231.83 759.687 1231.9 759.426C1231.98 759.165 1232.12 758.927 1232.31 758.734C1232.5 758.541 1232.74 758.399 1233 758.321C1233.26 758.243 1233.53 758.232 1233.8 758.288C1242.1 758.143 1250.4 757.991 1258.71 757.831C1259.15 770.968 1261.11 784.01 1264.56 796.694Z" fill="url(#paint13_linear_297_2623)"/>
<path d="M1202.58 161.4C1208.58 174.169 1205.23 188.408 1199.58 200.686C1186.79 228.206 1155.69 248.117 1153.95 280.339C1154.17 283.804 1152.98 286.991 1150.11 288.016C1149.26 288.303 1148.36 288.412 1147.47 288.339L1139.78 288.874L1139.72 288.027C1140.46 280.15 1141.19 272.273 1141.92 264.395C1142.55 257.521 1143.19 250.635 1144.34 243.827C1145.13 239.215 1146.16 234.568 1148.42 230.468C1150.72 226.312 1154.15 222.903 1156.68 218.892C1159.21 214.881 1160.78 209.745 1158.85 205.41C1158.61 204.708 1158.19 204.075 1157.65 203.565C1157.11 203.055 1156.45 202.683 1155.73 202.48C1154.79 202.364 1153.83 202.515 1152.96 202.915C1149.67 204.184 1146.85 206.437 1144.89 209.366C1142.03 213.678 1141.18 219.204 1137.77 223.092C1135.87 225.276 1132.78 226.847 1130.06 225.811C1127.58 224.875 1126.25 222.011 1126.24 219.349C1126.23 216.687 1127.27 214.157 1128.21 211.672C1129.16 209.187 1130.09 206.58 1129.83 203.928C1129.41 199.438 1125.34 195.717 1120.85 195.282C1118.59 195.141 1116.34 195.644 1114.36 196.733C1112.38 197.823 1110.75 199.452 1109.66 201.433C1105.37 209.109 1109.33 220.062 1103.56 226.633C1102.83 223.674 1101.69 220.832 1100.18 218.187C1098.82 216.059 1096.51 214.098 1094.03 214.587C1093.28 214.781 1092.58 215.139 1091.99 215.634C1091.39 216.129 1090.92 216.749 1090.59 217.451C1088.52 221.462 1090.81 226.921 1094.97 228.67C1096.74 229.455 1098.74 229.523 1100.56 228.86C1101.68 228.392 1102.67 227.671 1103.46 226.754C1103.49 226.71 1103.53 226.676 1103.56 226.632C1103.57 226.676 1103.58 226.71 1103.59 226.754C1107.46 239.954 1111.33 253.165 1115.21 266.386C1117.51 274.218 1119.8 282.086 1120.71 290.186V290.198C1118.41 290.354 1116.1 290.521 1113.79 290.677C1111.41 290.844 1109.52 291.189 1108.08 291.111C1106 291 1104.86 290.019 1104.54 286.343C1103.44 263.558 1075.87 256.95 1069.16 234.443C1061.61 213.563 1059.1 189.731 1063.37 167.904C1076.92 101.579 1186.79 92.331 1202.58 161.4Z" fill="url(#paint14_linear_297_2623)"/>
<path d="M1158.86 205.409C1160.78 209.743 1159.2 214.88 1156.68 218.891C1154.17 222.902 1150.72 226.311 1148.43 230.467C1146.17 234.567 1145.13 239.214 1144.34 243.826C1143.19 250.634 1142.56 257.52 1141.92 264.394C1141.19 272.271 1140.46 280.149 1139.73 288.026L1139.78 288.873C1133.43 289.318 1127.08 289.759 1120.72 290.198V290.187C1119.8 282.087 1117.51 274.221 1115.22 266.387C1111.34 253.173 1107.47 239.963 1103.6 226.756C1103.59 226.711 1103.57 226.678 1103.56 226.633C1109.33 220.06 1105.38 209.107 1109.67 201.433C1110.76 199.452 1112.39 197.822 1114.37 196.733C1116.35 195.644 1118.6 195.141 1120.86 195.282C1125.35 195.717 1129.41 199.438 1129.84 203.928C1130.09 206.58 1129.18 209.187 1128.22 211.672C1127.26 214.157 1126.24 216.697 1126.25 219.349C1126.26 222.001 1127.59 224.875 1130.07 225.811C1132.79 226.847 1135.87 225.276 1137.78 223.092C1141.19 219.204 1142.04 213.677 1144.9 209.366C1146.86 206.437 1149.68 204.184 1152.97 202.915C1153.83 202.515 1154.79 202.364 1155.74 202.48C1156.46 202.684 1157.11 203.056 1157.66 203.566C1158.2 204.075 1158.61 204.707 1158.86 205.409Z" fill="url(#paint15_linear_297_2623)"/>
<path d="M1103.56 226.635C1103.53 226.68 1103.49 226.713 1103.46 226.758C1102.67 227.674 1101.68 228.395 1100.56 228.864C1098.74 229.527 1096.74 229.459 1094.97 228.674C1090.81 226.925 1088.52 221.466 1090.59 217.455C1090.92 216.753 1091.39 216.132 1091.99 215.637C1092.58 215.142 1093.28 214.785 1094.03 214.591C1096.51 214.101 1098.82 216.062 1100.18 218.191C1101.69 220.834 1102.83 223.676 1103.56 226.635Z" fill="url(#paint16_linear_297_2623)"/>
<path d="M1331.08 512.957C1349.2 511.675 1313.81 480.935 1315.47 473.147C1321.55 469.21 1328.44 466.697 1335.62 465.793" stroke="#171717" stroke-width="3.343" stroke-linecap="round" stroke-linejoin="round"/>
<path d="M1299.37 493.28C1300.5 491.777 1301.98 490.565 1303.68 489.746C1305.37 488.926 1307.24 488.522 1309.13 488.567" stroke="#171717" stroke-width="3.343" stroke-linecap="round" stroke-linejoin="round"/>
<path d="M1327.73 478.629C1328.85 477.034 1330.52 475.906 1332.42 475.458C1334.32 475.01 1336.31 475.274 1338.03 476.2" stroke="#171717" stroke-width="3.343" stroke-linecap="round" stroke-linejoin="round"/>
<path d="M1325.94 529.714C1320.9 532.8 1314.87 530.605 1312.26 525.335" stroke="#171717" stroke-width="3.343" stroke-linecap="round" stroke-linejoin="round"/>
<path d="M1292.38 510.216C1291.37 510.434 1290.39 510.728 1289.43 511.096C1285.67 512.555 1283.82 514.851 1283.29 517.213C1281.87 523.497 1289.75 530.371 1295.66 523.965C1296.83 522.639 1297.77 521.125 1298.44 519.486" stroke="#171717" stroke-width="3.343" stroke-linecap="round" stroke-linejoin="round"/>
<path d="M1356.2 549.848C1355.92 549.448 1355.67 549.048 1355.42 548.656C1340.45 525.102 1368.9 524.98 1358.66 500.768C1353.23 483.001 1347.63 464.992 1337.6 449.349" stroke="#171717" stroke-width="3.343" stroke-linecap="round" stroke-linejoin="round"/>
<path d="M1283.05 517.168C1260.04 500.378 1259.95 463.108 1282.89 446.217C1291.35 440.669 1291.15 429.048 1296.1 420.97C1299.3 415.41 1305.93 405.706 1313.1 408.68C1316.13 413.494 1314.44 420.056 1315.2 425.259C1318.92 420.997 1323.16 417.21 1327.81 413.984C1332.43 410.419 1353.65 400.224 1352.14 412.257C1347.44 420.09 1339.17 426.875 1333.33 433.957C1343.43 428.364 1353.95 421.946 1365.51 420.331C1381.17 420.342 1375.84 431.272 1366.78 437.456C1358.16 443.506 1347.38 445.356 1337.44 448.865C1337.35 448.898 1337.27 448.921 1337.18 448.954C1326.73 452.854 1316.78 457.968 1306.8 462.926C1285.28 470.948 1282.75 491.271 1289.36 510.914" stroke="#171717" stroke-width="3.343" stroke-linecap="round" stroke-linejoin="round"/>
<path d="M1318.15 566.6C1318.11 566.478 1318.06 566.355 1318.01 566.233C1312.29 551.347 1301.58 539.18 1296.16 524.206" stroke="#171717" stroke-width="3.343" stroke-linecap="round" stroke-linejoin="round"/>
<path d="M1318.01 566.237C1317.47 566.549 1316.94 566.872 1316.41 567.195C1312.82 569.368 1309.07 571.886 1307.53 575.785C1306.54 578.302 1306.59 581.106 1307.67 583.585C1308.24 585.049 1309.33 586.252 1310.73 586.961C1310.87 587.036 1311.01 587.096 1311.16 587.139C1312.79 587.523 1314.5 587.419 1316.07 586.839C1326.62 583.964 1336.63 579.439 1346.59 574.928C1353.13 571.976 1359.66 569.023 1366.19 566.071C1370.37 564.188 1374.6 562.26 1378.21 559.441C1380.62 557.558 1382.82 554.884 1383.26 551.998C1383.39 551.18 1383.37 550.344 1383.18 549.536C1382.42 546.227 1379.05 544.036 1375.68 543.609C1372.31 543.182 1368.94 544.143 1365.7 545.169C1362.24 546.26 1358.82 547.422 1355.42 548.656C1342.43 553.339 1329.9 559.224 1318.01 566.237Z" stroke="#171717" stroke-width="3.343" stroke-linecap="round" stroke-linejoin="round"/>
<path d="M1310.86 586.793L1310.73 586.961C1284.74 618.302 1269.64 657.232 1262.83 697.61C1261.83 703.593 1261.01 709.602 1260.36 715.637C1259.61 722.467 1259.1 729.319 1258.79 736.149C1258.46 743.291 1258.41 750.556 1258.71 757.831C1259.15 770.968 1261.11 784.01 1264.56 796.694C1269.24 813.239 1277.04 828.459 1289.28 840.604C1310.61 861.751 1341.66 869.684 1371.51 872.971C1387.49 874.731 1403.81 875.4 1419.46 871.801C1437.46 867.667 1453.65 858.13 1468.51 846.988C1471.53 844.726 1474.49 842.398 1477.41 840.035C1495 825.763 1511.41 809.919 1525.36 792.07C1528.2 788.438 1530.95 784.65 1533.54 780.739C1546.49 761.163 1555.36 738.433 1551.3 715.682C1551.1 714.545 1550.87 713.42 1550.58 712.306C1545.42 690.88 1528.08 672.73 1506.82 666.78C1506.52 666.691 1506.22 666.602 1505.91 666.524C1500.34 665.053 1492.06 666.814 1489.71 672.073C1481.39 690.371 1471.41 707.87 1459.9 724.35C1458.63 726.222 1457.34 728.071 1456.03 729.921C1446.8 742.921 1436.81 755.592 1424.37 765.575C1411.94 775.558 1396.81 782.755 1380.87 783.475C1364.94 784.195 1348.31 777.737 1338.89 764.868C1331.44 754.695 1329.05 741.682 1328.26 729.091C1327.98 724.612 1327.88 720.125 1327.96 715.632C1328.06 709.905 1328.45 704.193 1329.12 698.496C1332.12 672.882 1340.77 648.254 1354.46 626.396" stroke="#171717" stroke-width="3.343" stroke-linecap="round" stroke-linejoin="round"/>
<path d="M1383.69 552.053C1414.33 519.029 1430.74 475.62 1446.44 433.393C1454.69 411.187 1462.95 388.974 1471.22 366.754C1474.68 357.406 1478.16 348.062 1481.63 338.721C1483.53 333.607 1485.55 328.326 1489.46 324.515C1490.21 323.635 1491.27 323.065 1492.42 322.915C1494.53 322.859 1495.83 325.121 1496.64 327.06C1498.08 330.514 1499.44 333.99 1500.73 337.488C1509.72 361.653 1515.5 386.893 1517.91 412.562C1518.45 418.133 1518.8 423.726 1519.01 429.319C1519.37 439.124 1519.23 449.04 1517.12 458.619C1515.11 467.755 1511.36 476.412 1507.34 484.858C1488.22 524.894 1462.63 561.503 1431.6 593.211C1426.87 598.058 1422 602.786 1416.99 607.395" stroke="#171717" stroke-width="3.343" stroke-linecap="round" stroke-linejoin="round"/>
<path d="M1431.73 592.487C1431.68 592.732 1431.64 592.966 1431.6 593.211C1425.75 625.511 1422.88 664.831 1423.05 697.554" stroke="#171717" stroke-width="3.343" stroke-linecap="round" stroke-linejoin="round"/>
<path d="M1500.29 337.852C1500.43 337.729 1500.59 337.607 1500.73 337.484C1511.47 328.567 1522.91 320.541 1534.95 313.484C1537.67 311.879 1540.41 310.33 1543.19 308.838C1548.56 305.938 1554.16 303.211 1560.18 302.297C1562.02 301.893 1563.94 302.061 1565.68 302.777C1568.09 303.969 1569.29 306.843 1569.23 309.517C1569 312.198 1568.17 314.793 1566.8 317.105C1559.6 330.946 1548.19 342.145 1534.22 349.093L1535.29 347.054" stroke="#171717" stroke-width="3.343" stroke-linecap="round" stroke-linejoin="round"/>
<path d="M1534.71 313.084C1535.65 301.363 1533.42 287.992 1537.88 276.851C1542.33 267.937 1553.48 263.48 1563.04 264.205" stroke="#171717" stroke-width="3.343" stroke-linecap="round" stroke-linejoin="round"/>
<path d="M1532.5 628.865V628.23C1532.49 553.33 1533.11 474.573 1533.56 398.73C1533.65 382.016 1533.73 365.471 1533.8 349.093V348.593" stroke="#171717" stroke-width="3.343" stroke-linecap="round" stroke-linejoin="round"/>
<path d="M1563.04 264.205C1639.27 265.705 1715.04 262.366 1790.8 265.705C1799.71 269.047 1805.28 276.847 1809.74 285.76C1813.08 476.285 1810.85 666.81 1810.85 857.335C1810.85 870.705 1801.94 884.075 1787.45 887.418C1709.46 886.303 1630.35 889.646 1552.36 886.303C1542.33 881.847 1534.53 871.819 1533.42 860.677C1532.32 834.104 1533.41 807.531 1533.54 780.735V780.222" stroke="#171717" stroke-width="3.343" stroke-linecap="round" stroke-linejoin="round"/>
<path d="M1471.22 548.076C1471.03 587.708 1471.03 627.833 1471.22 668.452" stroke="#171717" stroke-width="3.343" stroke-linecap="round" stroke-linejoin="round"/>
<path d="M1263.08 697.643L1262.83 697.61C1250.25 695.827 1236.97 699.092 1224.79 694.668C1220.43 692.515 1216.76 689.18 1214.2 685.043C1211.64 680.906 1210.29 676.133 1210.31 671.268C1208.08 545.368 1206.97 418.349 1211.42 292.447C1211.42 279.077 1223.68 269.047 1237.05 267.935C1305.01 266.821 1374.09 266.821 1442.06 267.935C1446.72 267.984 1451.3 269.129 1455.43 271.278C1464.34 275.734 1469.91 284.648 1471.03 294.678C1472.12 318.689 1471.07 342.7 1471.22 366.755V368.255" stroke="#171717" stroke-width="3.343" stroke-linecap="round" stroke-linejoin="round"/>
<path d="M1471.22 668.452C1472.14 682.412 1461 695.783 1446.52 696.897C1438.71 697.342 1430.89 697.665 1423.06 697.866C1391.89 698.746 1360.7 698.122 1329.48 698.546" stroke="#171717" stroke-width="3.343" stroke-linecap="round" stroke-linejoin="round"/>
<path d="M1328.17 715.637C1365.18 715.837 1401.95 715.837 1438.87 715.637" stroke="#171717" stroke-width="3.343" stroke-linecap="round" stroke-linejoin="round"/>
<path d="M1468.53 846.843C1468.52 846.888 1468.52 846.943 1468.51 846.988C1466.59 860.782 1469.88 875.199 1459.89 885.188C1455.43 889.645 1450.97 890.759 1445.4 891.873C1415.32 894.102 1386.35 891.873 1356.27 894.102C1316.16 895.216 1274.93 894.102 1234.82 892.988C1228.14 891.873 1222.57 890.759 1216.99 886.302C1211.42 881.845 1208.08 874.046 1206.97 867.361C1204.74 825.023 1205.85 782.684 1208.08 740.345C1210.31 713.604 1240.39 714.719 1260.32 715.632" stroke="#171717" stroke-width="3.343" stroke-linecap="round" stroke-linejoin="round"/>
<path d="M1438.87 715.637C1446.67 715.114 1454.39 718.701 1459.75 724.237" stroke="#171717" stroke-width="3.343" stroke-linecap="round" stroke-linejoin="round"/>
<path d="M1776.96 237.921H1625.46C1621.58 237.944 1617.72 237.198 1614.12 235.726C1610.53 234.254 1607.26 232.085 1604.5 229.344C1601.74 226.603 1599.55 223.344 1598.06 219.755C1596.57 216.165 1595.8 212.316 1595.8 208.429C1595.8 204.541 1596.57 200.692 1598.06 197.102C1599.55 193.513 1601.74 190.254 1604.5 187.513C1607.26 184.772 1610.53 182.604 1614.12 181.132C1617.72 179.66 1621.58 178.913 1625.46 178.936H1776.96C1780.85 178.913 1784.7 179.66 1788.3 181.132C1791.9 182.604 1795.17 184.772 1797.92 187.513C1800.68 190.254 1802.87 193.513 1804.36 197.102C1805.86 200.692 1806.62 204.541 1806.62 208.429C1806.62 212.316 1805.86 216.165 1804.36 219.755C1802.87 223.344 1800.68 226.603 1797.92 229.344C1795.17 232.085 1791.9 234.254 1788.3 235.726C1784.7 237.198 1780.85 237.944 1776.96 237.921Z" stroke="#171717" stroke-width="3.343" stroke-linecap="round" stroke-linejoin="round"/>
<path d="M1542.27 238.445H1452.94C1445.15 238.4 1437.7 235.273 1432.2 229.747C1426.71 224.221 1423.62 216.745 1423.62 208.953C1423.62 201.161 1426.71 193.685 1432.2 188.159C1437.7 182.633 1445.15 179.506 1452.94 179.46H1542.27C1546.16 179.438 1550.01 180.184 1553.61 181.656C1557.21 183.128 1560.48 185.297 1563.23 188.038C1565.99 190.779 1568.18 194.037 1569.67 197.627C1571.16 201.216 1571.93 205.065 1571.93 208.953C1571.93 212.84 1571.16 216.69 1569.67 220.279C1568.18 223.869 1565.99 227.127 1563.23 229.868C1560.48 232.609 1557.21 234.778 1553.61 236.25C1550.01 237.722 1546.16 238.468 1542.27 238.445Z" stroke="#171717" stroke-width="3.343" stroke-linecap="round" stroke-linejoin="round"/>
<path d="M1527.72 642.759C1529.14 637.856 1530.74 633.013 1532.5 628.23C1534.41 622.993 1536.53 617.835 1538.84 612.754C1539.89 610.233 1541.21 607.831 1542.78 605.59C1544.55 603.295 1546.65 601.272 1549.01 599.584C1549.56 599.078 1550.26 598.756 1551.01 598.659C1552.33 598.604 1553.32 599.852 1553.83 601.066C1555.04 604.03 1554.75 607.361 1554.41 610.537C1553.79 616.096 1553.07 621.637 1552.05 627.127C1551.11 632.252 1543.54 650.736 1542.86 655.873C1547.24 645.299 1557.38 621.088 1564.85 612.264C1567.07 609.634 1569.76 607.094 1573.13 606.459C1573.75 606.306 1574.4 606.28 1575.03 606.383C1575.66 606.486 1576.26 606.716 1576.8 607.059C1578.53 608.329 1578.55 610.859 1578.28 612.987C1576.18 630.268 1567.16 645.732 1557.5 660.351C1556.51 661.851 1555.5 663.359 1554.49 664.851" stroke="#171717" stroke-width="3.343" stroke-linecap="round" stroke-linejoin="round"/>
<path d="M1527.72 642.759C1527.73 644.381 1527.28 645.975 1526.44 647.359C1526.85 645.823 1527.27 644.285 1527.72 642.759Z" stroke="#171717" stroke-width="3.343" stroke-linecap="round" stroke-linejoin="round"/>
<path d="M1506.92 666.48C1507.26 658.012 1508.78 649.644 1510.29 641.31C1511.52 634.536 1512.76 627.71 1515.31 621.3C1516.88 617.333 1519.07 613.422 1522.56 610.971C1523.18 610.525 1524.03 610.135 1524.68 610.536C1524.97 610.765 1525.2 611.07 1525.34 611.417C1526.78 614.481 1527.03 617.946 1527.18 621.311C1527.41 625.869 1527.51 630.429 1527.51 634.993C1527.51 637.076 1527.87 640.073 1527.72 642.759" stroke="#171717" stroke-width="3.343" stroke-linecap="round" stroke-linejoin="round"/>
<path d="M1551.09 712.183C1564.74 698.067 1574.15 680.529 1584.27 663.705C1590.19 653.878 1596.56 643.728 1597.45 632.285C1597.6 630.458 1597.51 628.408 1596.22 627.116C1594.49 625.4 1591.6 625.916 1589.34 626.816C1585.96 628.158 1582.83 630.085 1580.12 632.509C1576.67 635.584 1573.97 639.384 1571.15 643.027C1566.66 648.832 1561.78 654.392 1557.7 660.486C1556.7 661.986 1555.75 663.517 1554.86 665.099C1555.1 664.776 1555.34 664.453 1555.58 664.13" stroke="#171717" stroke-width="3.343" stroke-linecap="round" stroke-linejoin="round"/>
<path d="M1517.9 412.569L1517.91 412.558C1523.42 408.43 1528.54 403.801 1533.2 398.731" stroke="#171717" stroke-width="3.343" stroke-linecap="round" stroke-linejoin="round"/>
<path d="M1108.08 292.115C1108.22 294.432 1107.79 299.524 1107.49 305.195C1107.2 310.833 1107.05 317.05 1107.69 321.73C1108.25 325.83 1109.43 328.749 1111.67 329.05C1113.62 329.507 1115.69 329.908 1117.83 330.209C1124.86 331.256 1132.61 331.345 1139.25 329.139C1142.43 328.14 1145.37 326.473 1147.86 324.248C1149.05 320.667 1149.82 316.957 1150.14 313.195C1150.54 308.206 1150.64 303.196 1150.42 298.195C1150.33 294.819 1150.2 291.466 1150.19 288.195" stroke="#171717" stroke-width="3.343" stroke-linecap="round" stroke-linejoin="round"/>
<path d="M1139.78 288.873L1147.47 288.338C1148.36 288.411 1149.26 288.301 1150.11 288.015C1152.98 286.99 1154.18 283.803 1153.95 280.338C1155.69 248.116 1186.79 228.205 1199.58 200.685C1205.23 188.407 1208.57 174.168 1202.58 161.399C1186.79 92.331 1076.92 101.579 1063.37 167.906C1059.11 189.733 1061.61 213.565 1069.17 234.445C1075.88 256.951 1103.45 263.558 1104.54 286.345C1104.87 290.022 1106 291.003 1108.09 291.114C1109.52 291.192 1111.42 290.847 1113.8 290.68C1116.11 290.524 1118.41 290.356 1120.72 290.2C1127.07 289.753 1133.42 289.311 1139.78 288.873Z" stroke="#171717" stroke-width="3.343" stroke-linecap="round" stroke-linejoin="round"/>
<path d="M1117.78 330.577C1117.61 333.977 1117.63 337.864 1120.15 340.159C1121.79 341.652 1124.1 342.087 1126.3 342.399C1129.9 342.899 1134.01 343.099 1136.66 340.638C1137.86 339.44 1138.69 337.931 1139.07 336.282C1139.69 333.949 1139.76 331.501 1139.25 329.14" stroke="#171717" stroke-width="3.343" stroke-linecap="round" stroke-linejoin="round"/>
<path d="M1107.35 305.262C1107.39 305.24 1107.45 305.218 1107.49 305.195C1120.91 299.127 1135.7 296.712 1150.36 298.195" stroke="#171717" stroke-width="3.343" stroke-linecap="round" stroke-linejoin="round"/>
<path d="M1107.4 321.908C1107.5 321.852 1107.59 321.787 1107.69 321.731C1120.29 313.878 1135.3 310.843 1149.96 313.184" stroke="#171717" stroke-width="3.343" stroke-linecap="round" stroke-linejoin="round"/>
<path d="M1103.56 226.634C1109.33 220.061 1105.38 209.108 1109.67 201.434C1110.75 199.453 1112.38 197.824 1114.36 196.734C1116.35 195.645 1118.6 195.142 1120.85 195.283C1125.34 195.718 1129.41 199.439 1129.83 203.929C1130.09 206.581 1129.17 209.188 1128.22 211.673C1127.26 214.158 1126.23 216.698 1126.24 219.35C1126.26 222.002 1127.58 224.876 1130.07 225.812C1132.78 226.848 1135.87 225.277 1137.78 223.093C1141.19 219.205 1142.03 213.679 1144.9 209.367C1146.86 206.438 1149.67 204.185 1152.96 202.916C1153.83 202.515 1154.79 202.365 1155.74 202.481C1156.45 202.684 1157.11 203.056 1157.65 203.566C1158.2 204.076 1158.61 204.709 1158.86 205.411C1160.78 209.745 1159.2 214.882 1156.68 218.893C1154.17 222.904 1150.72 226.313 1148.43 230.469C1146.17 234.569 1145.13 239.216 1144.34 243.828C1143.19 250.636 1142.56 257.522 1141.92 264.396C1141.19 272.273 1140.46 280.151 1139.73 288.028" stroke="#171717" stroke-width="3.343" stroke-linecap="round" stroke-linejoin="round"/>
<path d="M1103.56 226.634C1102.83 223.676 1101.7 220.834 1100.18 218.189C1098.82 216.061 1096.52 214.1 1094.03 214.589C1093.28 214.784 1092.59 215.141 1091.99 215.636C1091.4 216.131 1090.92 216.752 1090.59 217.453C1088.52 221.464 1090.81 226.923 1094.97 228.672C1096.74 229.457 1098.74 229.525 1100.56 228.862C1101.68 228.394 1102.67 227.673 1103.46 226.756C1103.49 226.712 1103.53 226.679 1103.56 226.634Z" stroke="#171717" stroke-width="3.343" stroke-linecap="round" stroke-linejoin="round"/>
<path d="M1120.72 290.187C1119.8 282.087 1117.51 274.221 1115.22 266.387C1111.34 253.173 1107.47 239.962 1103.6 226.756C1103.59 226.711 1103.57 226.678 1103.56 226.633" stroke="#171717" stroke-width="3.343" stroke-linecap="round" stroke-linejoin="round"/>
<path d="M1585.33 180.051C1585.32 199.627 1585.31 219.199 1585.29 238.768" stroke="#171717" stroke-width="3.343" stroke-linecap="round" stroke-linejoin="round"/>
<path d="M1292.93 322.555C1277.92 322.89 1262.9 322.589 1247.88 322.6C1247.41 343.58 1246.94 364.56 1245.9 385.518C1260.54 384.984 1275.18 384.446 1289.83 383.902C1294.23 383.746 1294.03 382.966 1294.12 378.702C1294.18 375.025 1294.3 371.348 1294.43 367.671C1294.7 360.307 1295.08 352.953 1295.58 345.611C1295.86 341.611 1296.16 337.614 1296.49 333.622C1296.64 332.001 1299.7 322.401 1292.93 322.555Z" stroke="#171717" stroke-width="3.343" stroke-linecap="round" stroke-linejoin="round"/>
<path d="M1264.15 796.816C1252.95 798.407 1241.67 799.337 1230.36 799.602C1229.86 798.696 1229.68 797.648 1229.85 796.627C1230.53 784.494 1231.21 772.36 1231.88 760.227C1231.82 759.962 1231.83 759.687 1231.9 759.426C1231.98 759.165 1232.12 758.927 1232.31 758.734C1232.5 758.541 1232.74 758.399 1233 758.321C1233.26 758.243 1233.53 758.232 1233.8 758.288C1242.1 758.143 1250.4 757.991 1258.71 757.831H1258.81" stroke="#171717" stroke-width="3.343" stroke-linecap="round" stroke-linejoin="round"/>
<path d="M1129.3 354.12C1129.3 354.12 1128.68 357.381 1127.8 362.903" stroke="#171717" stroke-width="3.343" stroke-linecap="round" stroke-linejoin="round"/>
<path d="M1125.2 381.3C1121.17 413.757 1117.64 466.11 1133.23 485.6C1149.36 505.756 1206.94 500.963 1236.63 496.951" stroke="#171717" stroke-width="3.343" stroke-linecap="round" stroke-linejoin="round" stroke-dasharray="18.58 18.58"/>
<path d="M1245.83 495.6C1251.33 494.738 1254.61 494.111 1254.61 494.111" stroke="#171717" stroke-width="3.343" stroke-linecap="round" stroke-linejoin="round"/>
<path d="M1067.58 268.089C1065.81 272.534 1063.33 276.664 1060.23 280.318" stroke="#171717" stroke-width="3.343" stroke-linecap="round" stroke-linejoin="round"/>
<path d="M1037.36 233.933C1028.14 239.481 1019.17 245.423 1010.45 251.759" stroke="#171717" stroke-width="3.343" stroke-linecap="round" stroke-linejoin="round"/>
<path d="M1040.68 170.1C1034.07 169.312 1027.42 168.878 1020.76 168.8" stroke="#171717" stroke-width="3.343" stroke-linecap="round" stroke-linejoin="round"/>
<path d="M1059.09 119.2C1054.23 110.785 1048.39 102.972 1041.71 95.9238" stroke="#171717" stroke-width="3.343" stroke-linecap="round" stroke-linejoin="round"/>
<path d="M1220 219.118L1235.71 228.063" stroke="#171717" stroke-width="3.343" stroke-linecap="round" stroke-linejoin="round"/>
<path d="M1227.32 172.768C1228.82 173.338 1230.46 173.456 1232.04 173.105C1250.5 170.748 1268.77 166.344 1287.38 165.945" stroke="#171717" stroke-width="3.343" stroke-linecap="round" stroke-linejoin="round"/>
<path d="M1211.36 126.84C1217.19 122.562 1223.32 118.702 1229.7 115.288" stroke="#171717" stroke-width="3.343" stroke-linecap="round" stroke-linejoin="round"/>
<path d="M1169.46 95.8652C1177.84 84.7637 1185.27 72.9723 1191.67 60.6172" stroke="#171717" stroke-width="3.343" stroke-linecap="round" stroke-linejoin="round"/>
<path d="M1111.4 92.2254C1111.48 86.52 1111.05 80.8188 1110.09 75.1934" stroke="#171717" stroke-width="3.343" stroke-linecap="round" stroke-linejoin="round"/>
<path d="M1249.83 825.633C1261.13 825.104 1272.4 824.144 1283.64 822.751" stroke="#171717" stroke-width="3.343" stroke-linecap="round" stroke-linejoin="round"/>
<path d="M1253.74 847.031L1295.46 843.085" stroke="#171717" stroke-width="3.343" stroke-linecap="round" stroke-linejoin="round"/>
<path d="M1323.82 326.958C1340.1 326.172 1356.42 326.817 1372.59 328.885" stroke="#171717" stroke-width="3.343" stroke-linecap="round" stroke-linejoin="round"/>
<path d="M1318.6 345.526C1347.69 348.361 1376.87 349.832 1406.14 349.939" stroke="#171717" stroke-width="3.343" stroke-linecap="round" stroke-linejoin="round"/>
<path d="M1314.9 367.601C1345.32 366.482 1375.79 366.957 1406.16 369.023" stroke="#171717" stroke-width="3.343" stroke-linecap="round" stroke-linejoin="round"/>
<path d="M1274.54 439.059L1270.19 428.11" stroke="#171717" stroke-width="3.343" stroke-linecap="round" stroke-linejoin="round"/>
<path d="M1260.83 451.822C1246.96 443.622 1236.67 430.457 1223.27 421.511" stroke="#171717" stroke-width="3.343" stroke-linecap="round" stroke-linejoin="round"/>
<path d="M1253.72 468.282C1252.81 467.806 1251.8 467.57 1250.77 467.596L1239.48 466.941" stroke="#171717" stroke-width="3.343" stroke-linecap="round" stroke-linejoin="round"/>
<path d="M1704.61 804.265C1685.49 799.884 1666.38 792.711 1652.09 779.265C1637.79 765.819 1629.18 745.083 1634.25 726.124C1636.15 718.987 1639.83 712.468 1643.59 706.111C1654.55 687.585 1666.54 669.684 1679.49 652.491C1700.55 624.545 1725.48 594.562 1722.96 559.664C1719.36 509.606 1660.74 476.182 1658.75 426.035C1657.35 390.769 1684.51 361.646 1709.78 337.006" stroke="#171717" stroke-width="3.343" stroke-linecap="round" stroke-linejoin="round"/>
<path d="M1623.92 389.784L1589.67 346.162" stroke="#171717" stroke-width="3.343" stroke-linecap="round" stroke-linejoin="round"/>
<path d="M1588.1 391.116C1600.75 377.023 1613.41 362.931 1626.06 348.838" stroke="#171717" stroke-width="3.343" stroke-linecap="round" stroke-linejoin="round"/>
<path d="M1668.95 341.014L1711.41 335.051" stroke="#171717" stroke-width="3.343" stroke-linecap="round" stroke-linejoin="round"/>
<path d="M1747.01 720.664C1739.19 708.968 1731.37 697.272 1723.55 685.574" stroke="#171717" stroke-width="3.343" stroke-linecap="round" stroke-linejoin="round"/>
<path d="M1705.07 382.97C1707.49 367.25 1709.91 351.53 1712.33 335.81" stroke="#171717" stroke-width="3.343" stroke-linecap="round" stroke-linejoin="round"/>
<path d="M1753.52 685.154C1737.85 697.726 1724.08 712.493 1712.63 729" stroke="#171717" stroke-width="3.343" stroke-linecap="round" stroke-linejoin="round"/>
<path d="M1615.9 546.75C1614.61 552.825 1615.66 559.664 1619.85 564.25C1621.95 566.44 1624.52 568.12 1627.37 569.16C1647.57 577.017 1668.14 556.46 1657.27 536.54C1646.75 517.255 1619.89 527.99 1615.9 546.75Z" stroke="#171717" stroke-width="3.343" stroke-linecap="round" stroke-linejoin="round"/>
<path d="M1510.48 154.879C1510.52 155.051 1510.73 155.537 1510.53 155.308C1508.76 149.26 1505.45 143.608 1502.91 137.832C1502.16 135.936 1501.27 134.097 1500.25 132.332" stroke="#171717" stroke-width="3.343" stroke-linecap="round" stroke-linejoin="round"/>
<path d="M1495.35 151.301C1501.76 146.185 1508.34 141.299 1515.1 136.645" stroke="#171717" stroke-width="3.343" stroke-linecap="round" stroke-linejoin="round"/>
<path d="M1863.41 297.3C1871.39 290.268 1879.04 282.889 1886.37 275.164" stroke="#171717" stroke-width="3.343" stroke-linecap="round" stroke-linejoin="round"/>
<path d="M1879.96 297.832C1875.64 288.404 1870.71 279.268 1865.19 270.482" stroke="#171717" stroke-width="3.343" stroke-linecap="round" stroke-linejoin="round"/>
<path d="M1854.14 488.1C1850.54 481.382 1846.53 474.896 1842.12 468.678" stroke="#171717" stroke-width="3.343" stroke-linecap="round" stroke-linejoin="round"/>
<path d="M1839.91 486.929L1860.05 467.754" stroke="#171717" stroke-width="3.343" stroke-linecap="round" stroke-linejoin="round"/>
<path d="M1116.62 690.521C1111.69 681.479 1106.36 672.667 1100.65 664.086" stroke="#171717" stroke-width="3.343" stroke-linecap="round" stroke-linejoin="round"/>
<path d="M1096.7 687.765C1105.01 679.554 1113.12 671.148 1121.03 662.547" stroke="#171717" stroke-width="3.343" stroke-linecap="round" stroke-linejoin="round"/>
<path d="M1080.81 505.202L1066.04 499.037L1054.47 510.09L1053.6 491.389L1040.55 480.454L1054.78 475.061L1058.29 457.25L1067.95 472.617L1083.17 472.544L1074.91 487.435L1080.81 505.202Z" stroke="#171717" stroke-width="3.343" stroke-linecap="round" stroke-linejoin="round"/>
<path d="M1880.11 568.12L1890.45 579.284L1873.89 583.261L1864.78 599.618L1859.35 584.565L1843.38 583.495L1856.58 570.227L1855.82 553.212L1869.41 560.053L1884.91 550.605L1880.11 568.12Z" fill="url(#paint17_linear_297_2623)"/>
<path d="M1432.39 166.547L1418.2 170.524L1412.67 184.674L1405.39 172.173L1390.92 171.884L1400.61 160.174L1397.2 145.834L1410.47 151.104L1422.84 142.536L1421.35 157.5L1432.39 166.547Z" fill="url(#paint18_linear_297_2623)"/>
<path d="M1412.67 184.674L1405.39 172.173L1390.92 171.884L1400.61 160.174L1397.2 145.834L1410.47 151.104L1422.84 142.536L1421.35 157.5L1432.39 166.547L1418.2 170.524L1412.67 184.674Z" stroke="#171717" stroke-width="3.343" stroke-linecap="round" stroke-linejoin="round"/>
<path d="M1864.78 599.618L1859.35 584.565L1843.38 583.495L1856.58 570.227L1855.82 553.212L1869.41 560.053L1884.91 550.605L1880.11 568.12L1890.45 579.284L1873.89 583.261L1864.78 599.618Z" stroke="#171717" stroke-width="3.343" stroke-linecap="round" stroke-linejoin="round"/>
<path d="M1477 423.282C1482.87 422.335 1488.84 422.157 1494.76 422.751" stroke="url(#paint19_linear_297_2623)" stroke-width="3.343" stroke-linecap="round" stroke-linejoin="round"/>
<path d="M1485.76 480.468L1489.07 461.623" stroke="url(#paint20_linear_297_2623)" stroke-width="3.343" stroke-linecap="round" stroke-linejoin="round"/>
<path d="M1446.75 508.861C1448.65 501.979 1449.86 494.921 1450.35 487.797" stroke="url(#paint21_linear_297_2623)" stroke-width="3.343" stroke-linecap="round" stroke-linejoin="round"/>
<path d="M1450.22 552.185C1444.14 550.282 1437.71 549.747 1431.4 550.617" stroke="url(#paint22_linear_297_2623)" stroke-width="3.343" stroke-linecap="round" stroke-linejoin="round"/>
<path d="M1401.86 581.222C1402.95 574.413 1403.65 567.546 1403.95 560.656" stroke="url(#paint23_linear_297_2623)" stroke-width="3.343" stroke-linecap="round" stroke-linejoin="round"/>
<path d="M1410.28 627.994C1402.86 625.759 1395.12 624.807 1387.38 625.178" stroke="url(#paint24_linear_297_2623)" stroke-width="3.343" stroke-linecap="round" stroke-linejoin="round"/>
<path d="M1383.39 672.505C1386.23 664.972 1389.07 657.439 1391.92 649.906C1392.05 649.575 1392.21 649.205 1392.56 649.105" stroke="url(#paint25_linear_297_2623)" stroke-width="3.343" stroke-linecap="round" stroke-linejoin="round"/>
<path d="M1366.8 601.044C1369.33 596.771 1370.99 592.034 1371.66 587.112" stroke="url(#paint26_linear_297_2623)" stroke-width="3.343" stroke-linecap="round" stroke-linejoin="round"/>
<path d="M1330.2 618.206C1324.34 615.06 1318.48 611.913 1312.62 608.766" stroke="url(#paint27_linear_297_2623)" stroke-width="3.343" stroke-linecap="round" stroke-linejoin="round"/>
<path d="M1300.9 672.486C1304.36 667.524 1307.34 662.242 1309.8 656.712" stroke="url(#paint28_linear_297_2623)" stroke-width="3.343" stroke-linecap="round" stroke-linejoin="round"/>
<path d="M1310.72 724.807C1305.99 721.001 1301.49 716.913 1297.26 712.565" stroke="url(#paint29_linear_297_2623)" stroke-width="3.343" stroke-linecap="round" stroke-linejoin="round"/>
<path d="M1297.8 753.037L1282.68 742.7C1282.44 742.53 1282.15 742.278 1282.23 741.986C1282.31 741.694 1282.9 741.9 1282.69 742.107" stroke="url(#paint30_linear_297_2623)" stroke-width="3.343" stroke-linecap="round" stroke-linejoin="round"/>
<path d="M1320.91 803.909C1322.77 797.019 1325.02 790.241 1327.65 783.609" stroke="url(#paint31_linear_297_2623)" stroke-width="3.343" stroke-linecap="round" stroke-linejoin="round"/>
<path d="M1348.12 859.155C1352.1 852.682 1355.64 845.958 1358.74 839.024" stroke="url(#paint32_linear_297_2623)" stroke-width="3.343" stroke-linecap="round" stroke-linejoin="round"/>
<path d="M1404.12 821.672C1398.68 815.26 1393.4 808.714 1388.29 802.032" stroke="url(#paint33_linear_297_2623)" stroke-width="3.343" stroke-linecap="round" stroke-linejoin="round"/>
<path d="M1439.72 832.318C1443.25 827.429 1445.26 821.638 1447.24 815.939C1447.83 814.238 1448.41 812.538 1449 810.839" stroke="url(#paint34_linear_297_2623)" stroke-width="3.343" stroke-linecap="round" stroke-linejoin="round"/>
<path d="M1456.39 784.747C1451.31 782.202 1445.9 780.393 1440.31 779.375" stroke="url(#paint35_linear_297_2623)" stroke-width="3.343" stroke-linecap="round" stroke-linejoin="round"/>
<path d="M1496.32 740.408C1490.26 741.98 1484.43 735.249 1478.32 736.583" stroke="url(#paint36_linear_297_2623)" stroke-width="3.343" stroke-linecap="round" stroke-linejoin="round"/>
<path d="M1493.86 794.128C1496.77 786.962 1495.14 778.74 1497.01 771.235" stroke="url(#paint37_linear_297_2623)" stroke-width="3.343" stroke-linecap="round" stroke-linejoin="round"/>
<path d="M1527.87 744.226C1528.41 736.046 1528.95 727.867 1529.49 719.687" stroke="url(#paint38_linear_297_2623)" stroke-width="3.343" stroke-linecap="round" stroke-linejoin="round"/>
<g opacity="0.1">
<path d="M1127.85 112.668C1112.63 114.586 1097.9 120.552 1086.27 130.704C1073.82 141.578 1063.81 154.949 1060.37 171.429C1056.54 189.06 1058.68 207.465 1066.47 223.743C1073.77 239.491 1085.09 252.474 1094.52 266.878C1104.05 281.451 1113.88 301.119 1105.57 318.502C1100.34 329.453 1116.54 336.461 1121 325C1133.66 292.474 1112.71 260.174 1095.34 234.09C1086.47 220.776 1078.87 207.481 1076.89 191.324C1074.93 175.477 1079.97 160.471 1087.23 146.64C1090.7 140.032 1098.32 133.257 1104.55 129.313C1111.97 124.575 1120.16 121.183 1128.75 119.293C1132.41 118.516 1131.67 112.184 1127.85 112.664L1127.85 112.668Z" fill="#171717"/>
</g>
<g opacity="0.1">
<path d="M1425.93 198.936C1422.08 203.16 1421.67 211.163 1423.34 216.428C1425.52 223.288 1429.82 229.888 1435.91 233.837C1450.92 243.565 1470.36 243.275 1487.62 242.792C1497.59 242.512 1507.55 241.921 1517.5 241.247C1526.47 240.639 1535.63 240.423 1544.47 238.696C1552.75 237.078 1561.63 233.566 1567.39 227.122C1572.01 221.958 1573.56 212.179 1571.68 205.697C1570.78 202.609 1565.84 201.46 1564.31 204.734C1563.3 207.224 1561.7 209.431 1559.65 211.162C1558.03 212.422 1555.31 213.617 1553.32 214.889C1548.31 218.103 1542.36 219.063 1536.53 219.677C1521.64 221.248 1506.56 222.077 1491.6 222.665C1477.55 223.218 1463.06 224.443 1449.07 222.355C1443.99 221.596 1438.67 219.433 1434.97 215.761C1433.12 213.796 1431.66 211.493 1430.67 208.978C1429.51 206.124 1430.05 203.568 1429.93 200.594C1429.84 198.673 1427.36 197.363 1425.93 198.936H1425.93Z" fill="#171717"/>
</g>
<g opacity="0.1">
<path d="M1597.89 201.533C1595.39 207.792 1597.13 213.525 1599.59 219.485C1602.7 227.017 1608.28 231.085 1615.75 233.946C1623.06 236.751 1631.49 237.485 1639.24 238.153C1647.8 238.891 1656.4 239.145 1664.99 239.292C1683.08 239.6 1701.19 239.324 1719.29 239.278C1736.71 239.234 1754.51 240.232 1771.89 238.814C1780.55 238.107 1789.78 236.393 1797.13 231.43C1803.39 227.199 1809.88 217.281 1806.32 209.752C1805.34 207.694 1802.63 206.917 1800.57 207.414C1796.99 208.279 1794.64 211.283 1791.41 212.875C1788.6 214.26 1785.97 216.085 1783.07 217.262C1775.61 220.288 1767.14 219.98 1759.27 219.998C1739.61 220.042 1719.95 220.061 1700.3 220.056C1681.55 220.075 1662.73 220.597 1644 219.716C1633.64 219.229 1601.27 220.529 1604.03 203.228C1604.23 202.421 1604.11 201.568 1603.69 200.85C1603.27 200.132 1602.59 199.607 1601.79 199.385C1600.98 199.163 1600.13 199.263 1599.4 199.664C1598.67 200.064 1598.13 200.733 1597.88 201.528L1597.89 201.533Z" fill="#171717"/>
</g>
<g opacity="0.1">
<path d="M1297.55 465.9C1289.26 466.749 1284.65 479.216 1283.41 486.251C1282.55 490.848 1282.54 495.564 1283.37 500.168C1283.9 503.022 1284.97 505.708 1285.73 508.499C1286.09 509.62 1286.36 510.771 1286.52 511.939C1286.62 512.698 1286.61 513.468 1286.47 514.223C1286.13 515.685 1286.72 515.385 1288.25 513.323C1277.98 517.032 1284.37 532.301 1294.07 527.123C1291.8 526.656 1291.32 527.002 1292.65 528.161L1293.53 529.503C1294.59 531.094 1295.59 532.75 1296.61 534.368L1302.79 544.098C1306.79 550.408 1310.41 557.737 1315.66 563.098C1320.38 567.912 1329.89 563.033 1327.45 556.236C1325.51 550.824 1322.13 546.088 1319.12 541.219L1310.04 526.519C1307.4 522.25 1305.02 517.379 1300.73 514.535C1298.65 513.081 1296.19 512.263 1293.66 512.182C1291.12 512.101 1288.62 512.76 1286.45 514.079L1297.81 520.6C1297.93 515.759 1298.94 511.96 1297.61 507.073C1296.3 502.267 1293.94 497.814 1293.52 492.783C1293.2 488.549 1293.78 484.295 1295.24 480.306C1296.65 476.342 1300.07 472.874 1300.27 468.606C1300.27 467.885 1299.98 467.195 1299.47 466.686C1298.96 466.177 1298.27 465.889 1297.55 465.887V465.9Z" fill="#171717"/>
</g>
<g opacity="0.1">
<path d="M1320.73 581.869C1320.8 581.283 1320.8 580.69 1320.72 580.105C1320.7 579.742 1320.64 579.381 1320.55 579.029C1320.45 578.557 1320.46 578.691 1320.57 579.429C1320.95 577.884 1319.85 580.867 1320.02 580.894C1320.13 580.683 1320.24 580.479 1320.36 580.283C1320.68 579.793 1320.5 579.993 1319.84 580.883L1316.36 582.914L1316.63 582.843C1317.91 582.5 1319.09 581.858 1320.07 580.969C1321.05 580.079 1321.8 578.969 1322.27 577.729C1322.74 576.489 1322.9 575.156 1322.75 573.841C1322.59 572.525 1322.13 571.265 1321.39 570.164C1320.66 569.064 1319.67 568.155 1318.51 567.513C1317.35 566.871 1316.06 566.515 1314.73 566.474C1313.41 566.433 1312.09 566.708 1310.9 567.276C1309.7 567.845 1308.66 568.69 1307.86 569.743C1305.22 573.153 1305.72 577.543 1308.51 580.698L1308.67 580.884L1306.64 577.398C1306.78 578.02 1306.97 578.629 1307.22 579.22C1307.48 579.93 1307.78 580.625 1308.12 581.302C1307.8 580.466 1307.77 580.409 1308.01 581.129C1308.65 583.471 1310.16 585.479 1312.24 586.736C1316.2 589.05 1320.35 586.003 1320.73 581.864V581.869Z" fill="#171717"/>
</g>
</g>
</g>
<defs>
<linearGradient id="paint0_linear_297_2623" x1="733.292" y1="491.551" x2="733.292" y2="641.246" gradientUnits="userSpaceOnUse">
<stop stop-color="#4A9FFF"/>
<stop offset="1" stop-color="#2A67F7"/>
</linearGradient>
<linearGradient id="paint1_linear_297_2623" x1="706.003" y1="214.752" x2="706.003" y2="425.584" gradientUnits="userSpaceOnUse">
<stop stop-color="#4A9FFF"/>
<stop offset="1" stop-color="#2A67F7"/>
</linearGradient>
<linearGradient id="paint2_linear_297_2623" x1="435.007" y1="462.443" x2="435.007" y2="519.613" gradientUnits="userSpaceOnUse">
<stop stop-color="#4A9FFF"/>
<stop offset="1" stop-color="#2A67F7"/>
</linearGradient>
<linearGradient id="paint3_linear_297_2623" x1="593.937" y1="573.021" x2="593.937" y2="714.008" gradientUnits="userSpaceOnUse">
<stop stop-color="#4A9FFF"/>
<stop offset="1" stop-color="#2A67F7"/>
</linearGradient>
<linearGradient id="paint4_linear_297_2623" x1="472.415" y1="431.414" x2="472.415" y2="473.889" gradientUnits="userSpaceOnUse">
<stop stop-color="#4A9FFF"/>
<stop offset="1" stop-color="#2A67F7"/>
</linearGradient>
<linearGradient id="paint5_linear_297_2623" x1="464.482" y1="631.428" x2="464.482" y2="650.828" gradientUnits="userSpaceOnUse">
<stop stop-color="#4A9FFF"/>
<stop offset="1" stop-color="#2A67F7"/>
</linearGradient>
<linearGradient id="paint6_linear_297_2623" x1="204.546" y1="156.814" x2="204.546" y2="253.915" gradientUnits="userSpaceOnUse">
<stop stop-color="#4A9FFF"/>
<stop offset="1" stop-color="#2A67F7"/>
</linearGradient>
<linearGradient id="paint7_linear_297_2623" x1="221.235" y1="480.92" x2="221.235" y2="497.072" gradientUnits="userSpaceOnUse">
<stop stop-color="#4A9FFF"/>
<stop offset="1" stop-color="#2A67F7"/>
</linearGradient>
<linearGradient id="paint8_linear_297_2623" x1="237.386" y1="537.283" x2="237.386" y2="754.495" gradientUnits="userSpaceOnUse">
<stop stop-color="#4A9FFF"/>
<stop offset="1" stop-color="#2A67F7"/>
</linearGradient>
<linearGradient id="paint9_linear_297_2623" x1="1701.21" y1="178.936" x2="1701.21" y2="237.922" gradientUnits="userSpaceOnUse">
<stop stop-color="#4A9FFF"/>
<stop offset="1" stop-color="#2A67F7"/>
</linearGradient>
<linearGradient id="paint10_linear_297_2623" x1="1497.78" y1="179.46" x2="1497.78" y2="238.446" gradientUnits="userSpaceOnUse">
<stop stop-color="#4A9FFF"/>
<stop offset="1" stop-color="#2A67F7"/>
</linearGradient>
<linearGradient id="paint11_linear_297_2623" x1="1447.16" y1="547.362" x2="1447.16" y2="697.866" gradientUnits="userSpaceOnUse">
<stop stop-color="#4A9FFF"/>
<stop offset="1" stop-color="#2A67F7"/>
</linearGradient>
<linearGradient id="paint12_linear_297_2623" x1="1339.95" y1="267.101" x2="1339.95" y2="697.611" gradientUnits="userSpaceOnUse">
<stop stop-color="#4A9FFF"/>
<stop offset="1" stop-color="#2A67F7"/>
</linearGradient>
<linearGradient id="paint13_linear_297_2623" x1="1247.17" y1="757.831" x2="1247.17" y2="799.602" gradientUnits="userSpaceOnUse">
<stop stop-color="#4A9FFF"/>
<stop offset="1" stop-color="#2A67F7"/>
</linearGradient>
<linearGradient id="paint14_linear_297_2623" x1="1133.52" y1="113.708" x2="1133.52" y2="291.122" gradientUnits="userSpaceOnUse">
<stop stop-color="#4A9FFF"/>
<stop offset="1" stop-color="#2A67F7"/>
</linearGradient>
<linearGradient id="paint15_linear_297_2623" x1="1131.64" y1="195.259" x2="1131.64" y2="290.198" gradientUnits="userSpaceOnUse">
<stop stop-color="#4A9FFF"/>
<stop offset="1" stop-color="#2A67F7"/>
</linearGradient>
<linearGradient id="paint16_linear_297_2623" x1="1096.69" y1="214.515" x2="1096.69" y2="229.316" gradientUnits="userSpaceOnUse">
<stop stop-color="#4A9FFF"/>
<stop offset="1" stop-color="#2A67F7"/>
</linearGradient>
<linearGradient id="paint17_linear_297_2623" x1="1866.91" y1="550.605" x2="1866.91" y2="599.618" gradientUnits="userSpaceOnUse">
<stop stop-color="#4A9FFF"/>
<stop offset="1" stop-color="#2A67F7"/>
</linearGradient>
<linearGradient id="paint18_linear_297_2623" x1="1411.65" y1="142.536" x2="1411.65" y2="184.674" gradientUnits="userSpaceOnUse">
<stop stop-color="#4A9FFF"/>
<stop offset="1" stop-color="#2A67F7"/>
</linearGradient>
<linearGradient id="paint19_linear_297_2623" x1="1485.88" y1="422.408" x2="1485.88" y2="423.282" gradientUnits="userSpaceOnUse">
<stop stop-color="#4A9FFF"/>
<stop offset="1" stop-color="#2A67F7"/>
</linearGradient>
<linearGradient id="paint20_linear_297_2623" x1="1487.41" y1="461.623" x2="1487.41" y2="480.468" gradientUnits="userSpaceOnUse">
<stop stop-color="#4A9FFF"/>
<stop offset="1" stop-color="#2A67F7"/>
</linearGradient>
<linearGradient id="paint21_linear_297_2623" x1="1448.55" y1="487.797" x2="1448.55" y2="508.861" gradientUnits="userSpaceOnUse">
<stop stop-color="#4A9FFF"/>
<stop offset="1" stop-color="#2A67F7"/>
</linearGradient>
<linearGradient id="paint22_linear_297_2623" x1="1440.81" y1="550.212" x2="1440.81" y2="552.185" gradientUnits="userSpaceOnUse">
<stop stop-color="#4A9FFF"/>
<stop offset="1" stop-color="#2A67F7"/>
</linearGradient>
<linearGradient id="paint23_linear_297_2623" x1="1402.91" y1="560.656" x2="1402.91" y2="581.222" gradientUnits="userSpaceOnUse">
<stop stop-color="#4A9FFF"/>
<stop offset="1" stop-color="#2A67F7"/>
</linearGradient>
<linearGradient id="paint24_linear_297_2623" x1="1398.83" y1="625.1" x2="1398.83" y2="627.994" gradientUnits="userSpaceOnUse">
<stop stop-color="#4A9FFF"/>
<stop offset="1" stop-color="#2A67F7"/>
</linearGradient>
<linearGradient id="paint25_linear_297_2623" x1="1387.97" y1="649.105" x2="1387.97" y2="672.505" gradientUnits="userSpaceOnUse">
<stop stop-color="#4A9FFF"/>
<stop offset="1" stop-color="#2A67F7"/>
</linearGradient>
<linearGradient id="paint26_linear_297_2623" x1="1369.23" y1="587.112" x2="1369.23" y2="601.044" gradientUnits="userSpaceOnUse">
<stop stop-color="#4A9FFF"/>
<stop offset="1" stop-color="#2A67F7"/>
</linearGradient>
<linearGradient id="paint27_linear_297_2623" x1="1321.41" y1="608.766" x2="1321.41" y2="618.206" gradientUnits="userSpaceOnUse">
<stop stop-color="#4A9FFF"/>
<stop offset="1" stop-color="#2A67F7"/>
</linearGradient>
<linearGradient id="paint28_linear_297_2623" x1="1305.35" y1="656.712" x2="1305.35" y2="672.486" gradientUnits="userSpaceOnUse">
<stop stop-color="#4A9FFF"/>
<stop offset="1" stop-color="#2A67F7"/>
</linearGradient>
<linearGradient id="paint29_linear_297_2623" x1="1303.99" y1="712.565" x2="1303.99" y2="724.807" gradientUnits="userSpaceOnUse">
<stop stop-color="#4A9FFF"/>
<stop offset="1" stop-color="#2A67F7"/>
</linearGradient>
<linearGradient id="paint30_linear_297_2623" x1="1290.01" y1="741.841" x2="1290.01" y2="753.037" gradientUnits="userSpaceOnUse">
<stop stop-color="#4A9FFF"/>
<stop offset="1" stop-color="#2A67F7"/>
</linearGradient>
<linearGradient id="paint31_linear_297_2623" x1="1324.28" y1="783.609" x2="1324.28" y2="803.909" gradientUnits="userSpaceOnUse">
<stop stop-color="#4A9FFF"/>
<stop offset="1" stop-color="#2A67F7"/>
</linearGradient>
<linearGradient id="paint32_linear_297_2623" x1="1353.43" y1="839.024" x2="1353.43" y2="859.155" gradientUnits="userSpaceOnUse">
<stop stop-color="#4A9FFF"/>
<stop offset="1" stop-color="#2A67F7"/>
</linearGradient>
<linearGradient id="paint33_linear_297_2623" x1="1396.2" y1="802.032" x2="1396.2" y2="821.672" gradientUnits="userSpaceOnUse">
<stop stop-color="#4A9FFF"/>
<stop offset="1" stop-color="#2A67F7"/>
</linearGradient>
<linearGradient id="paint34_linear_297_2623" x1="1444.36" y1="810.839" x2="1444.36" y2="832.318" gradientUnits="userSpaceOnUse">
<stop stop-color="#4A9FFF"/>
<stop offset="1" stop-color="#2A67F7"/>
</linearGradient>
<linearGradient id="paint35_linear_297_2623" x1="1448.35" y1="779.375" x2="1448.35" y2="784.747" gradientUnits="userSpaceOnUse">
<stop stop-color="#4A9FFF"/>
<stop offset="1" stop-color="#2A67F7"/>
</linearGradient>
<linearGradient id="paint36_linear_297_2623" x1="1487.32" y1="736.407" x2="1487.32" y2="740.648" gradientUnits="userSpaceOnUse">
<stop stop-color="#4A9FFF"/>
<stop offset="1" stop-color="#2A67F7"/>
</linearGradient>
<linearGradient id="paint37_linear_297_2623" x1="1495.43" y1="771.235" x2="1495.43" y2="794.128" gradientUnits="userSpaceOnUse">
<stop stop-color="#4A9FFF"/>
<stop offset="1" stop-color="#2A67F7"/>
</linearGradient>
<linearGradient id="paint38_linear_297_2623" x1="1528.68" y1="719.687" x2="1528.68" y2="744.226" gradientUnits="userSpaceOnUse">
<stop stop-color="#4A9FFF"/>
<stop offset="1" stop-color="#2A67F7"/>
</linearGradient>
<clipPath id="clip0_297_2623">
<rect width="960" height="960" fill="white" transform="translate(960)"/>
</clipPath>
</defs>
</svg>
