<svg width="590" height="355" viewBox="0 0 590 355" fill="none" xmlns="http://www.w3.org/2000/svg">
<rect y="254" width="20" height="20" rx="10" fill="#EDEDED"/>
<rect y="277" width="20" height="40" rx="10" fill="#EDEDED"/>
<rect x="30" y="216" width="20" height="20" rx="10" fill="#D6BEFF"/>
<rect x="30" y="239" width="20" height="40" rx="10" fill="#D6BEFF"/>
<rect x="115" y="292" width="20" height="20" rx="10" fill="#414141"/>
<rect x="115" y="315" width="20" height="40" rx="10" fill="#414141"/>
<rect x="150" y="254" width="20" height="20" rx="10" fill="#EDEDED"/>
<rect x="150" y="277" width="20" height="40" rx="10" fill="#EDEDED"/>
<rect x="60" y="235" width="20" height="20" rx="10" fill="#EDEDED"/>
<rect x="60" y="258" width="20" height="40" rx="10" fill="#EDEDED"/>
<rect x="150" y="65" width="20" height="20" rx="10" fill="#EDEDED"/>
<rect x="150" y="88" width="20" height="40" rx="10" fill="#EDEDED"/>
<rect x="180" y="15" width="20" height="20" rx="10" fill="#D6BEFF"/>
<rect x="180" y="38" width="20" height="40" rx="10" fill="#D6BEFF"/>
<rect x="210" y="53" width="20" height="20" rx="10" fill="#EDEDED"/>
<rect x="210" y="76" width="20" height="40" rx="10" fill="#EDEDED"/>
<rect x="300" y="286" width="20" height="20" rx="10" fill="#D6BEFF"/>
<rect x="300" y="309" width="20" height="40" rx="10" fill="#D6BEFF"/>
<rect x="330" y="226" width="20" height="20" rx="10" fill="#EDEDED"/>
<rect x="330" y="249" width="20" height="40" rx="10" fill="#EDEDED"/>
<rect x="360" y="264" width="20" height="20" rx="10" fill="#EDEDED"/>
<rect x="360" y="287" width="20" height="40" rx="10" fill="#EDEDED"/>
<rect x="210" y="200" width="20" height="20" rx="10" fill="#EDEDED"/>
<rect x="210" y="223" width="20" height="40" rx="10" fill="#EDEDED"/>
<rect x="240" y="167" width="20" height="20" rx="10" fill="#D6BEFF"/>
<rect x="240" y="190" width="20" height="40" rx="10" fill="#D6BEFF"/>
<rect x="270" y="137" width="20" height="20" rx="10" fill="#EDEDED"/>
<rect x="270" y="160" width="20" height="40" rx="10" fill="#EDEDED"/>
<rect x="330" width="20" height="20" rx="10" fill="#D6BEFF"/>
<rect x="330" y="23" width="20" height="40" rx="10" fill="#D6BEFF"/>
<rect x="360" y="40" width="20" height="20" rx="10" fill="#414141"/>
<rect x="360" y="63" width="20" height="40" rx="10" fill="#414141"/>
<rect x="450" y="222" width="20" height="20" rx="10" fill="#EDEDED"/>
<rect x="450" y="245" width="20" height="40" rx="10" fill="#EDEDED"/>
<rect x="480" y="255" width="20" height="20" rx="10" fill="#D6BEFF"/>
<rect x="480" y="278" width="20" height="40" rx="10" fill="#D6BEFF"/>
<rect x="510" y="222" width="20" height="20" rx="10" fill="#EDEDED"/>
<rect x="510" y="245" width="20" height="40" rx="10" fill="#EDEDED"/>
<rect x="570" y="100" width="20" height="20" rx="10" fill="#D6BEFF"/>
<rect x="570" y="123" width="20" height="40" rx="10" fill="#D6BEFF"/>
<rect x="570" y="185" width="20" height="20" rx="10" fill="#EDEDED"/>
<rect x="570" y="208" width="20" height="40" rx="10" fill="#EDEDED"/>
<rect y="81" width="20" height="20" rx="10" fill="#D6BEFF"/>
<rect y="104" width="20" height="40" rx="10" fill="#D6BEFF"/>
<rect x="30" y="129" width="20" height="20" rx="10" fill="#EDEDED"/>
<rect x="30" y="152" width="20" height="40" rx="10" fill="#EDEDED"/>
<rect x="60" y="108" width="20" height="20" rx="10" fill="#EDEDED"/>
<rect x="60" y="131" width="20" height="40" rx="10" fill="#EDEDED"/>
<rect x="420" y="65" width="20" height="20" rx="10" fill="#EDEDED"/>
<rect x="420" y="88" width="20" height="40" rx="10" fill="#EDEDED"/>
<rect x="450" y="113" width="20" height="20" rx="10" fill="#EDEDED"/>
<rect x="450" y="136" width="20" height="40" rx="10" fill="#EDEDED"/>
<rect x="480" y="92" width="20" height="20" rx="10" fill="#EDEDED"/>
<rect x="480" y="115" width="20" height="40" rx="10" fill="#EDEDED"/>
<rect x="540" y="150" width="20" height="20" rx="10" fill="#414141"/>
<rect x="540" y="173" width="20" height="40" rx="10" fill="#414141"/>
<rect x="180" y="94" width="20" height="20" rx="10" fill="#414141"/>
<rect x="180" y="117" width="20" height="40" rx="10" fill="#414141"/>
</svg>
