<svg width="590" height="312" viewBox="0 0 590 312" fill="none" xmlns="http://www.w3.org/2000/svg">
<rect x="60" y="54" width="20" height="150" rx="10" fill="#EDEDED"/>
<rect x="300" y="120" width="20" height="150" rx="10" fill="#EDEDED"/>
<rect x="30" y="122" width="20" height="25" rx="10" fill="#EDEDED"/>
<rect x="300" y="85" width="20" height="25" rx="10" fill="#EDEDED"/>
<rect x="90" y="209" width="20" height="25" rx="10" fill="#EDEDED"/>
<rect x="180" y="45" width="20" height="25" rx="10" fill="#414141"/>
<rect y="107" width="20" height="125" rx="10" fill="#EDEDED"/>
<rect x="240" y="74" width="20" height="150" rx="10" fill="#EDEDED"/>
<rect x="270" y="62" width="20" height="75" rx="10" fill="#EDEDED"/>
<rect x="300" width="20" height="75" rx="10" fill="#D6BEFF"/>
<rect x="330" y="102" width="20" height="50" rx="10" fill="#414141"/>
<rect x="450" y="197" width="20" height="50" rx="10" fill="#EDEDED"/>
<rect x="360" y="135" width="20" height="50" rx="10" fill="#EDEDED"/>
<rect x="210" y="182" width="20" height="75" rx="10" fill="#EDEDED"/>
<rect x="420" y="212" width="20" height="100" rx="10" fill="#D6BEFF"/>
<rect x="450" y="162" width="20" height="25" rx="10" fill="#D6BEFF"/>
<rect x="540" y="85" width="20" height="25" rx="10" fill="#414141"/>
<rect x="420" y="182" width="20" height="20" rx="10" fill="#414141"/>
<rect x="570" y="166" width="20" height="20" rx="10" fill="#EDEDED"/>
<rect x="570" y="196" width="20" height="75" rx="10" fill="#EDEDED"/>
<rect x="360" y="50" width="20" height="75" rx="10" fill="#D6BEFF"/>
<rect x="480" y="89" width="20" height="75" rx="10" fill="#D6BEFF"/>
<rect x="510" y="18" width="20" height="100" rx="10" fill="#D6BEFF"/>
<rect x="90" y="244" width="20" height="50" rx="10" fill="#D6BEFF"/>
<rect x="540" y="120" width="20" height="75" rx="10" fill="#EDEDED"/>
<rect x="390" y="137" width="20" height="75" rx="10" fill="#EDEDED"/>
<rect x="90" y="124" width="20" height="75" rx="10" fill="#414141"/>
<rect x="570" y="81" width="20" height="75" rx="10" fill="#EDEDED"/>
<rect x="180" y="79" width="20" height="75" rx="10" fill="#EDEDED"/>
<rect x="120" y="49" width="20" height="100" rx="10" fill="#EDEDED"/>
<rect x="510" y="128" width="20" height="50" rx="10" fill="#EDEDED"/>
<rect x="30" y="12" width="20" height="100" rx="10" fill="#414141"/>
<rect x="450" y="52" width="20" height="100" rx="10" fill="#EDEDED"/>
<rect x="120" y="159" width="20" height="80" rx="10" fill="#D6BEFF"/>
<rect x="180" y="163" width="20" height="50" rx="10" fill="#EDEDED"/>
<rect x="150" y="79" width="20" height="50" rx="10" fill="#EDEDED"/>
<rect x="210" y="72" width="20" height="100" rx="10" fill="#D6BEFF"/>
<rect x="240" y="34" width="20" height="30" rx="10" fill="#D6BEFF"/>
<rect x="150" y="139" width="20" height="25" rx="10" fill="#D6BEFF"/>
</svg>
