<svg version="1.1" id="Layer_1" xmlns="http://www.w3.org/2000/svg" xmlns:xlink="http://www.w3.org/1999/xlink" x="0px" y="0px"
	 width="100%" viewBox="0 0 2104 2104" enable-background="new 0 0 2104 2104" xml:space="preserve">
<path fill="#EFE4FF" opacity="1.000000" stroke="none" 
	d="
M2.000000,1118.000000 
	C2.000000,1075.958252 2.000000,1033.916382 2.823573,991.258362 
	C4.373217,985.539185 5.176309,980.445862 5.812813,975.331787 
	C9.779958,943.456909 13.065117,911.481323 17.795725,879.720764 
	C25.883287,825.421875 39.702232,772.416809 57.160900,720.429382 
	C76.872475,661.733521 101.579178,605.193787 131.292419,550.774719 
	C177.323486,466.470001 233.917038,390.002930 300.674072,321.128143 
	C322.412659,298.699921 345.308594,277.246643 368.989502,256.875275 
	C441.710663,194.317261 521.344727,142.257965 608.356689,101.536423 
	C654.489014,79.946541 701.758667,61.389046 750.494934,46.773106 
	C815.128662,27.389545 880.964600,13.664283 948.283813,7.652062 
	C955.874634,6.974138 963.472290,6.366063 971.054016,5.599246 
	C972.995544,5.402876 976.134094,5.731421 974.000000,2.000000 
	C1027.375122,2.000000 1080.750244,2.000000 1134.423096,2.731154 
	C1136.106445,4.187372 1137.436523,5.400237 1138.885864,5.564878 
	C1163.569824,8.369053 1188.339600,10.519853 1212.948730,13.859719 
	C1258.391235,20.027040 1303.053833,30.195583 1347.067017,42.922993 
	C1419.448364,63.853703 1488.762817,92.404610 1555.093506,128.221024 
	C1636.312622,172.076660 1710.360596,225.876190 1777.447632,289.145172 
	C1806.739136,316.769623 1834.526978,345.937408 1860.388428,376.885437 
	C1914.566162,441.719421 1960.889160,511.677582 1998.424438,587.414001 
	C2023.998535,639.015930 2045.220825,692.333740 2061.976074,747.444397 
	C2080.356689,807.901794 2093.429688,869.445618 2100.321777,932.276855 
	C2101.116699,939.523010 2101.611816,946.803040 2102.481934,954.039001 
	C2102.670410,955.607483 2103.025391,958.622803 2106.000000,956.000000 
	C2106.000000,1020.708435 2106.000000,1085.416870 2105.243896,1150.518555 
	C2103.770752,1153.025513 2102.675049,1155.090332 2102.394287,1157.260376 
	C2099.377441,1180.582764 2097.344971,1204.067505 2093.398682,1227.227661 
	C2083.239990,1286.846924 2068.542725,1345.327148 2048.394043,1402.457153 
	C2020.964111,1480.232544 1985.078979,1553.800537 1940.386597,1623.052856 
	C1890.737183,1699.986450 1832.709839,1769.960449 1764.273560,1830.923218 
	C1738.253296,1854.102295 1711.555176,1876.674805 1683.796143,1897.716431 
	C1621.844360,1944.676514 1555.018677,1983.686646 1483.945557,2015.270508 
	C1382.503906,2060.349854 1276.744873,2089.406494 1166.149536,2100.333740 
	C1158.568237,2101.083008 1150.965576,2101.625244 1143.393066,2102.447998 
	C1141.572632,2102.645508 1138.373901,2102.212646 1140.000000,2106.000000 
	C1083.958252,2106.000000 1027.916382,2106.000000 971.477661,2105.236816 
	C969.295471,2103.763672 967.559509,2102.634033 965.716431,2102.417969 
	C958.481079,2101.570312 951.213196,2100.996582 943.955261,2100.345947 
	C902.613953,2096.640137 861.877747,2089.287598 821.415283,2080.205078 
	C740.339661,2062.006104 662.660522,2034.181152 588.268982,1997.306763 
	C541.141724,1973.946899 496.129486,1946.953979 452.953247,1916.821899 
	C385.262421,1869.581787 324.134979,1814.979736 269.202637,1753.511597 
	C228.818176,1708.322144 192.657776,1659.845337 160.724823,1608.281128 
	C119.271873,1541.343872 85.626122,1470.693237 59.962116,1396.248779 
	C45.119911,1353.195557 33.184826,1309.343750 24.115091,1264.727417 
	C16.783735,1228.662598 11.257682,1192.307617 7.893372,1155.649048 
	C6.893597,1144.755127 6.450518,1133.810913 5.607519,1122.900879 
	C5.439085,1120.721069 6.512420,1117.172119 2.000000,1118.000000 
M1069.401001,1704.809814 
	C1084.720093,1704.909790 1100.039307,1705.099487 1115.358398,1705.095947 
	C1303.867188,1705.051147 1492.375854,1704.980225 1680.884644,1704.893921 
	C1683.794067,1704.892578 1686.703613,1704.609375 1691.122437,1704.379028 
	C1688.824951,1699.531982 1687.099121,1695.697998 1685.214844,1691.943604 
	C1647.291748,1616.394287 1609.337646,1540.860352 1571.452759,1465.291748 
	C1569.684814,1461.765259 1568.501953,1457.945435 1568.235962,1453.437134 
	C1570.752808,1450.335815 1573.382324,1447.318604 1575.769409,1444.120361 
	C1603.761841,1406.613892 1627.648438,1366.675659 1647.140503,1324.097656 
	C1678.640137,1255.290649 1697.296509,1183.092407 1703.566284,1107.785278 
	C1706.079346,1077.599976 1706.516357,1047.332031 1704.597046,1016.956604 
	C1702.047852,976.614075 1696.393677,936.853333 1686.644409,897.687317 
	C1659.435669,788.381226 1607.119873,692.550415 1530.404785,610.239014 
	C1466.820557,542.016479 1391.744385,489.953949 1305.686646,453.843872 
	C1236.227783,424.698730 1163.753540,408.506622 1088.651489,404.517456 
	C1054.385376,402.697388 1020.105469,403.819397 985.882812,407.517975 
	C944.030823,412.041107 902.975891,420.176239 862.869934,432.779907 
	C751.754028,467.699005 656.550964,527.893188 577.344971,613.366272 
	C537.693359,656.155273 504.356384,703.402649 477.667603,755.223022 
	C425.833496,855.866943 401.675598,962.762390 405.418274,1076.051392 
	C406.875732,1120.167603 412.276215,1163.685181 422.808319,1206.447998 
	C455.910797,1340.851562 524.605896,1453.925781 628.783813,1545.004272 
	C700.014893,1607.278564 781.315430,1651.715454 872.229614,1678.426270 
	C911.319824,1689.911011 951.117371,1697.884033 991.623535,1701.480225 
	C1016.793274,1703.714844 1042.178345,1703.522827 1069.401001,1704.809814 
z"/>
<path fill="#953EF8" opacity="1.000000" stroke="none" 
	d="
M1067.466797,1704.419922 
	C1042.178345,1703.522827 1016.793274,1703.714844 991.623535,1701.480225 
	C951.117371,1697.884033 911.319824,1689.911011 872.229614,1678.426270 
	C781.315430,1651.715454 700.014893,1607.278564 628.783813,1545.004272 
	C524.605896,1453.925781 455.910797,1340.851562 422.808319,1206.447998 
	C412.276215,1163.685181 406.875732,1120.167603 405.418274,1076.051392 
	C401.675598,962.762390 425.833496,855.866943 477.667603,755.223022 
	C504.356384,703.402649 537.693359,656.155273 577.344971,613.366272 
	C656.550964,527.893188 751.754028,467.699005 862.869934,432.779907 
	C902.975891,420.176239 944.030823,412.041107 985.882812,407.517975 
	C1020.105469,403.819397 1054.385376,402.697388 1088.651489,404.517456 
	C1163.753540,408.506622 1236.227783,424.698730 1305.686646,453.843872 
	C1391.744385,489.953949 1466.820557,542.016479 1530.404785,610.239014 
	C1607.119873,692.550415 1659.435669,788.381226 1686.644409,897.687317 
	C1696.393677,936.853333 1702.047852,976.614075 1704.597046,1016.956604 
	C1706.516357,1047.332031 1706.079346,1077.599976 1703.566284,1107.785278 
	C1697.296509,1183.092407 1678.640137,1255.290649 1647.140503,1324.097656 
	C1627.648438,1366.675659 1603.761841,1406.613892 1575.769409,1444.120361 
	C1573.382324,1447.318604 1570.752808,1450.335815 1567.159302,1453.407471 
	C1565.067627,1451.665894 1563.950928,1450.005615 1563.052612,1448.234375 
	C1543.336182,1409.364136 1523.602051,1370.502930 1503.961060,1331.594604 
	C1489.271606,1302.494751 1474.708374,1273.331299 1460.800293,1244.133423 
	C1463.247681,1241.332886 1465.398926,1238.772583 1466.656738,1235.830322 
	C1481.369751,1201.415894 1492.345825,1165.924316 1498.481567,1128.899170 
	C1507.737061,1073.048706 1507.235107,1017.287598 1495.324219,962.081299 
	C1471.859131,853.321533 1415.981323,764.411926 1327.575562,696.672241 
	C1246.184814,634.307739 1153.408447,604.619080 1051.213501,604.571533 
	C1019.246338,604.556641 987.472534,608.403076 956.189392,615.720825 
	C845.115540,641.703247 756.013489,700.912109 689.353210,793.269653 
	C641.496460,859.575073 614.668762,933.944092 607.511536,1015.502625 
	C604.022156,1055.265381 605.663330,1094.757568 612.735291,1133.912109 
	C621.498047,1182.427856 637.564636,1228.505127 661.702271,1271.648438 
	C704.805908,1348.691284 765.046875,1408.457397 842.726990,1450.352295 
	C899.496826,1480.969727 960.157532,1498.170898 1024.654053,1502.591431 
	C1062.145386,1505.161255 1099.160767,1502.973145 1136.003174,1496.341675 
	C1149.408569,1493.928833 1162.677979,1490.761108 1175.937744,1488.661133 
	C1170.713501,1499.404297 1165.513184,1509.399780 1160.416382,1519.447632 
	C1130.992065,1577.453491 1101.580933,1635.466187 1072.212524,1693.500244 
	C1070.423462,1697.035400 1069.039185,1700.775269 1067.466797,1704.419922 
z"/>
<path fill="#5B01BF" opacity="1.000000" stroke="none" 
	d="
M1068.433838,1704.614868 
	C1069.039185,1700.775269 1070.423462,1697.035400 1072.212524,1693.500244 
	C1101.580933,1635.466187 1130.992065,1577.453491 1160.416382,1519.447632 
	C1165.513184,1509.399780 1170.713501,1499.404297 1176.393555,1488.155518 
	C1178.685547,1483.723755 1180.541504,1480.567871 1182.200928,1477.311890 
	C1241.628906,1360.713257 1301.036255,1244.104004 1360.460449,1127.503540 
	C1362.411499,1123.675049 1364.507446,1119.920532 1366.444946,1116.301270 
	C1376.542847,1116.301270 1386.108765,1116.301270 1396.114746,1116.301270 
	C1417.505005,1159.063843 1438.796997,1201.630005 1460.088989,1244.196167 
	C1474.708374,1273.331299 1489.271606,1302.494751 1503.961060,1331.594604 
	C1523.602051,1370.502930 1543.336182,1409.364136 1563.052612,1448.234375 
	C1563.950928,1450.005615 1565.067627,1451.665894 1566.564697,1453.819946 
	C1568.501953,1457.945435 1569.684814,1461.765259 1571.452759,1465.291748 
	C1609.337646,1540.860352 1647.291748,1616.394287 1685.214844,1691.943604 
	C1687.099121,1695.697998 1688.824951,1699.531982 1691.122437,1704.379028 
	C1686.703613,1704.609375 1683.794067,1704.892578 1680.884644,1704.893921 
	C1492.375854,1704.980225 1303.867188,1705.051147 1115.358398,1705.095947 
	C1100.039307,1705.099487 1084.720093,1704.909790 1068.433838,1704.614868 
M1381.952026,1427.184204 
	C1360.614136,1384.952759 1339.276245,1342.721313 1317.221191,1299.070312 
	C1256.219604,1418.903931 1196.183350,1536.841309 1135.677124,1655.701904 
	C1256.567017,1655.701904 1376.131226,1655.701904 1497.340454,1655.701904 
	C1458.699097,1579.213745 1420.638428,1503.875244 1381.952026,1427.184204 
z"/>
<path fill="#EFE4FF" opacity="1.000000" stroke="none" 
	d="
M1460.800293,1244.133423 
	C1438.796997,1201.630005 1417.505005,1159.063843 1396.114746,1116.301270 
	C1386.108765,1116.301270 1376.542847,1116.301270 1366.444946,1116.301270 
	C1364.507446,1119.920532 1362.411499,1123.675049 1360.460449,1127.503540 
	C1301.036255,1244.104004 1241.628906,1360.713257 1182.200928,1477.311890 
	C1180.541504,1480.567871 1178.685547,1483.723755 1176.465332,1487.432129 
	C1162.677979,1490.761108 1149.408569,1493.928833 1136.003174,1496.341675 
	C1099.160767,1502.973145 1062.145386,1505.161255 1024.654053,1502.591431 
	C960.157532,1498.170898 899.496826,1480.969727 842.726990,1450.352295 
	C765.046875,1408.457397 704.805908,1348.691284 661.702271,1271.648438 
	C637.564636,1228.505127 621.498047,1182.427856 612.735291,1133.912109 
	C605.663330,1094.757568 604.022156,1055.265381 607.511536,1015.502625 
	C614.668762,933.944092 641.496460,859.575073 689.353210,793.269653 
	C756.013489,700.912109 845.115540,641.703247 956.189392,615.720825 
	C987.472534,608.403076 1019.246338,604.556641 1051.213501,604.571533 
	C1153.408447,604.619080 1246.184814,634.307739 1327.575562,696.672241 
	C1415.981323,764.411926 1471.859131,853.321533 1495.324219,962.081299 
	C1507.235107,1017.287598 1507.737061,1073.048706 1498.481567,1128.899170 
	C1492.345825,1165.924316 1481.369751,1201.415894 1466.656738,1235.830322 
	C1465.398926,1238.772583 1463.247681,1241.332886 1460.800293,1244.133423 
z"/>
<path fill="#EEE3FF" opacity="1.000000" stroke="none" 
	d="
M1382.264893,1427.860352 
	C1420.638428,1503.875244 1458.699097,1579.213745 1497.340454,1655.701904 
	C1376.131226,1655.701904 1256.567017,1655.701904 1135.677124,1655.701904 
	C1196.183350,1536.841309 1256.219604,1418.903931 1317.221191,1299.070312 
	C1339.276245,1342.721313 1360.614136,1384.952759 1382.264893,1427.860352 
z"/>
</svg>