<svg width="25" height="20" viewBox="0 0 25 20" fill="none" xmlns="http://www.w3.org/2000/svg">
<path id="logo-discord" d="M21.1636 1.5796C19.5701 0.84847 17.8614 0.309808 16.0749 0.00129418C16.0424 -0.00466005 16.0099 0.0102199 15.9931 0.0399805C15.7733 0.430829 15.5299 0.940724 15.3595 1.3415C13.4379 1.05382 11.5262 1.05382 9.64408 1.3415C9.47359 0.931816 9.22134 0.430829 9.0006 0.0399805C8.98384 0.0112128 8.95134 -0.00366709 8.9188 0.00129418C7.13324 0.308822 5.42454 0.847484 3.83014 1.5796C3.81634 1.58555 3.80451 1.59548 3.79666 1.60836C0.555616 6.45041 -0.33224 11.1734 0.103313 15.8379C0.105283 15.8607 0.118094 15.8826 0.135831 15.8964C2.27418 17.4668 4.34553 18.4201 6.37842 19.052C6.41095 19.062 6.44542 19.0501 6.46613 19.0233C6.94701 18.3666 7.37567 17.6741 7.7432 16.946C7.76489 16.9033 7.74419 16.8527 7.69986 16.8359C7.01993 16.5779 6.3725 16.2635 5.74972 15.9064C5.70046 15.8776 5.69651 15.8071 5.74183 15.7734C5.87289 15.6752 6.00398 15.573 6.12912 15.4698C6.15176 15.451 6.18331 15.447 6.20993 15.4589C10.3013 17.3269 14.7308 17.3269 18.7739 15.4589C18.8005 15.446 18.8321 15.45 18.8557 15.4689C18.9809 15.572 19.1119 15.6752 19.244 15.7734C19.2893 15.8071 19.2863 15.8776 19.2371 15.9064C18.6143 16.2704 17.9669 16.5779 17.2859 16.8349C17.2416 16.8517 17.2219 16.9033 17.2436 16.946C17.619 17.6731 18.0477 18.3656 18.5197 19.0223C18.5394 19.0501 18.5749 19.062 18.6074 19.052C20.6501 18.4201 22.7215 17.4668 24.8598 15.8964C24.8786 15.8826 24.8904 15.8617 24.8924 15.8389C25.4136 10.4463 24.0193 5.76196 21.1961 1.60935C21.1892 1.59548 21.1774 1.58555 21.1636 1.5796ZM8.35419 12.9977C7.1224 12.9977 6.10743 11.8669 6.10743 10.478C6.10743 9.08918 7.10271 7.9583 8.35419 7.9583C9.61549 7.9583 10.6206 9.09911 10.6009 10.478C10.6009 11.8669 9.60563 12.9977 8.35419 12.9977ZM16.6612 12.9977C15.4294 12.9977 14.4145 11.8669 14.4145 10.478C14.4145 9.08918 15.4097 7.9583 16.6612 7.9583C17.9225 7.9583 18.9276 9.09911 18.908 10.478C18.908 11.8669 17.9225 12.9977 16.6612 12.9977Z" fill="white"/>
</svg>
