<svg width="568" height="397" viewBox="0 0 568 397" fill="none" xmlns="http://www.w3.org/2000/svg">
<rect x="332.958" y="213.247" width="20" height="20" rx="10" fill="url(#paint0_linear_117_167)" fill-opacity="0.5"/>
<rect x="262.247" y="283.958" width="20" height="20" rx="10" fill="url(#paint1_linear_117_167)" fill-opacity="0.5"/>
<rect x="332.958" y="283.958" width="20" height="20" rx="10" fill="url(#paint2_linear_117_167)" fill-opacity="0.5"/>
<rect x="262.247" y="213.247" width="20" height="20" rx="10" fill="url(#paint3_linear_117_167)" fill-opacity="0.5"/>
<rect x="297.603" y="198.603" width="20" height="20" rx="10" fill="url(#paint4_linear_117_167)" fill-opacity="0.5"/>
<rect x="297.603" y="298.603" width="20" height="20" rx="10" fill="url(#paint5_linear_117_167)" fill-opacity="0.5"/>
<rect x="347.603" y="248.603" width="20" height="20" rx="10" fill="url(#paint6_linear_117_167)" fill-opacity="0.5"/>
<rect x="247.603" y="248.603" width="20" height="20" rx="10" fill="url(#paint7_linear_117_167)" fill-opacity="0.5"/>
<rect x="297.603" y="248.603" width="20" height="20" rx="10" fill="url(#paint8_linear_117_167)" fill-opacity="0.5"/>
<path d="M220.5 308.737C217.739 303.954 219.377 297.838 224.16 295.076C228.943 292.315 235.059 293.954 237.821 298.737C240.582 303.519 238.943 309.635 234.16 312.397C229.377 315.158 223.261 313.519 220.5 308.737Z" fill="url(#paint9_linear_117_167)" fill-opacity="0.5"/>
<path d="M343.942 342.545C341.181 337.762 342.82 331.646 347.603 328.885C352.386 326.123 358.501 327.762 361.263 332.545C364.024 337.328 362.386 343.444 357.603 346.205C352.82 348.967 346.704 347.328 343.942 342.545Z" fill="url(#paint10_linear_117_167)" fill-opacity="0.5"/>
<path d="M376.385 218.737C373.623 213.954 375.262 207.838 380.045 205.076C384.828 202.315 390.944 203.954 393.705 208.737C396.467 213.519 394.828 219.635 390.045 222.397C385.262 225.158 379.146 223.519 376.385 218.737Z" fill="url(#paint11_linear_117_167)" fill-opacity="0.5"/>
<path d="M253.942 186.66C251.181 181.877 252.82 175.761 257.603 173C262.386 170.239 268.501 171.877 271.263 176.66C274.024 181.443 272.386 187.559 267.603 190.321C262.82 193.082 256.704 191.443 253.942 186.66Z" fill="url(#paint12_linear_117_167)" fill-opacity="0.5"/>
<path d="M207.603 258.603C207.603 253.08 212.08 248.603 217.603 248.603C223.125 248.603 227.603 253.08 227.603 258.603C227.603 264.125 223.125 268.603 217.603 268.603C212.08 268.603 207.603 264.125 207.603 258.603Z" fill="url(#paint13_linear_117_167)" fill-opacity="0.5"/>
<path d="M297.603 349.603C297.603 344.08 302.08 339.603 307.603 339.603C313.125 339.603 317.603 344.08 317.603 349.603C317.603 355.125 313.125 359.603 307.603 359.603C302.08 359.603 297.603 355.125 297.603 349.603Z" fill="url(#paint14_linear_117_167)" fill-opacity="0.5"/>
<path d="M387.603 258.603C387.603 253.08 392.08 248.603 397.603 248.603C403.125 248.603 407.603 253.08 407.603 258.603C407.603 264.125 403.125 268.603 397.603 268.603C392.08 268.603 387.603 264.125 387.603 258.603Z" fill="url(#paint15_linear_117_167)" fill-opacity="0.5"/>
<path d="M297.603 169.603C297.603 164.08 302.08 159.603 307.603 159.603C313.125 159.603 317.603 164.08 317.603 169.603C317.603 175.125 313.125 179.603 307.603 179.603C302.08 179.603 297.603 175.125 297.603 169.603Z" fill="url(#paint16_linear_117_167)" fill-opacity="0.5"/>
<path d="M256.736 345.705C251.953 342.944 250.315 336.828 253.076 332.045C255.838 327.262 261.953 325.623 266.736 328.385C271.519 331.146 273.158 337.262 270.397 342.045C267.635 346.828 261.519 348.467 256.736 345.705Z" fill="url(#paint17_linear_117_167)" fill-opacity="0.5"/>
<path d="M380.545 313.263C375.762 310.501 374.123 304.385 376.885 299.603C379.646 294.82 385.762 293.181 390.545 295.942C395.328 298.704 396.967 304.82 394.205 309.603C391.444 314.385 385.328 316.024 380.545 313.263Z" fill="url(#paint18_linear_117_167)" fill-opacity="0.5"/>
<path d="M346.736 189.821C341.953 187.059 340.315 180.943 343.076 176.16C345.838 171.377 351.953 169.739 356.736 172.5C361.519 175.261 363.158 181.377 360.397 186.16C357.635 190.943 351.519 192.582 346.736 189.821Z" fill="url(#paint19_linear_117_167)" fill-opacity="0.5"/>
<path d="M224.66 223.263C219.877 220.501 218.239 214.385 221 209.603C223.761 204.82 229.877 203.181 234.66 205.942C239.443 208.704 241.082 214.82 238.321 219.603C235.559 224.385 229.443 226.024 224.66 223.263Z" fill="url(#paint20_linear_117_167)" fill-opacity="0.5"/>
<rect x="329.958" y="209.247" width="20" height="20" rx="10" fill="#6A6A6A" fill-opacity="0.2"/>
<rect x="259.247" y="279.958" width="20" height="20" rx="10" fill="#EDEDED"/>
<rect x="329.958" y="279.958" width="20" height="20" rx="10" fill="#EDEDED"/>
<rect x="259.247" y="209.247" width="20" height="20" rx="10" fill="#D6BEFF" fill-opacity="0.25"/>
<rect x="294.603" y="194.603" width="20" height="20" rx="10" fill="#EDEDED"/>
<rect x="294.603" y="294.603" width="20" height="20" rx="10" fill="#EDEDED"/>
<rect x="344.603" y="244.603" width="20" height="20" rx="10" fill="#EDEDED"/>
<rect x="244.603" y="244.603" width="20" height="20" rx="10" fill="#D6BEFF" fill-opacity="0.25"/>
<rect x="294.603" y="244.603" width="20" height="20" rx="10" fill="#EDEDED"/>
<path d="M217.5 304.737C214.739 299.954 216.377 293.838 221.16 291.076C225.943 288.315 232.059 289.954 234.821 294.737C237.582 299.519 235.943 305.635 231.16 308.397C226.377 311.158 220.261 309.519 217.5 304.737Z" fill="#D6BEFF" fill-opacity="0.25"/>
<path d="M340.942 338.545C338.181 333.762 339.82 327.646 344.603 324.885C349.386 322.123 355.501 323.762 358.263 328.545C361.024 333.328 359.386 339.444 354.603 342.205C349.82 344.967 343.704 343.328 340.942 338.545Z" fill="#EDEDED"/>
<path d="M373.385 214.737C370.623 209.954 372.262 203.838 377.045 201.076C381.828 198.315 387.944 199.954 390.705 204.737C393.467 209.519 391.828 215.635 387.045 218.397C382.262 221.158 376.146 219.519 373.385 214.737Z" fill="#EDEDED"/>
<path d="M250.942 182.66C248.181 177.877 249.82 171.761 254.603 169C259.386 166.239 265.501 167.877 268.263 172.66C271.024 177.443 269.386 183.559 264.603 186.321C259.82 189.082 253.704 187.443 250.942 182.66Z" fill="#D6BEFF" fill-opacity="0.25"/>
<path d="M204.603 254.603C204.603 249.08 209.08 244.603 214.603 244.603C220.125 244.603 224.603 249.08 224.603 254.603C224.603 260.125 220.125 264.603 214.603 264.603C209.08 264.603 204.603 260.125 204.603 254.603Z" fill="#EDEDED"/>
<path d="M294.603 345.603C294.603 340.08 299.08 335.603 304.603 335.603C310.125 335.603 314.603 340.08 314.603 345.603C314.603 351.125 310.125 355.603 304.603 355.603C299.08 355.603 294.603 351.125 294.603 345.603Z" fill="#EDEDED"/>
<path d="M384.603 254.603C384.603 249.08 389.08 244.603 394.603 244.603C400.125 244.603 404.603 249.08 404.603 254.603C404.603 260.125 400.125 264.603 394.603 264.603C389.08 264.603 384.603 260.125 384.603 254.603Z" fill="#6A6A6A" fill-opacity="0.2"/>
<path d="M294.603 165.603C294.603 160.08 299.08 155.603 304.603 155.603C310.125 155.603 314.603 160.08 314.603 165.603C314.603 171.125 310.125 175.603 304.603 175.603C299.08 175.603 294.603 171.125 294.603 165.603Z" fill="#6A6A6A" fill-opacity="0.2"/>
<path d="M253.736 341.705C248.953 338.944 247.315 332.828 250.076 328.045C252.838 323.262 258.953 321.623 263.736 324.385C268.519 327.146 270.158 333.262 267.397 338.045C264.635 342.828 258.519 344.467 253.736 341.705Z" fill="#EDEDED"/>
<path d="M377.545 309.263C372.762 306.501 371.123 300.385 373.885 295.603C376.646 290.82 382.762 289.181 387.545 291.942C392.328 294.704 393.967 300.82 391.205 305.603C388.444 310.385 382.328 312.024 377.545 309.263Z" fill="#6A6A6A" fill-opacity="0.2"/>
<path d="M343.736 185.821C338.953 183.059 337.315 176.943 340.076 172.16C342.838 167.377 348.953 165.739 353.736 168.5C358.519 171.261 360.158 177.377 357.397 182.16C354.635 186.943 348.519 188.582 343.736 185.821Z" fill="#EDEDED"/>
<path d="M221.66 219.263C216.877 216.501 215.239 210.385 218 205.603C220.761 200.82 226.877 199.181 231.66 201.942C236.443 204.704 238.082 210.82 235.321 215.603C232.559 220.385 226.443 222.024 221.66 219.263Z" fill="#EDEDED"/>
<rect x="161.958" y="164.247" width="20" height="20" rx="10" fill="url(#paint21_linear_117_167)" fill-opacity="0.5"/>
<rect x="91.2471" y="234.958" width="20" height="20" rx="10" fill="url(#paint22_linear_117_167)" fill-opacity="0.5"/>
<rect x="161.958" y="234.958" width="20" height="20" rx="10" fill="url(#paint23_linear_117_167)" fill-opacity="0.5"/>
<rect x="91.2471" y="164.247" width="20" height="20" rx="10" fill="url(#paint24_linear_117_167)" fill-opacity="0.5"/>
<rect x="126.603" y="149.603" width="20" height="20" rx="10" fill="url(#paint25_linear_117_167)" fill-opacity="0.5"/>
<rect x="126.603" y="249.603" width="20" height="20" rx="10" fill="url(#paint26_linear_117_167)" fill-opacity="0.5"/>
<rect x="176.603" y="199.603" width="20" height="20" rx="10" fill="url(#paint27_linear_117_167)" fill-opacity="0.5"/>
<rect x="76.6025" y="199.603" width="20" height="20" rx="10" fill="url(#paint28_linear_117_167)" fill-opacity="0.5"/>
<rect x="126.603" y="199.603" width="20" height="20" rx="10" fill="url(#paint29_linear_117_167)" fill-opacity="0.5"/>
<path d="M49.5 259.737C46.7386 254.954 48.3773 248.838 53.1603 246.076C57.9432 243.315 64.0591 244.954 66.8205 249.737C69.5819 254.519 67.9432 260.635 63.1603 263.397C58.3773 266.158 52.2614 264.519 49.5 259.737Z" fill="url(#paint30_linear_117_167)" fill-opacity="0.5"/>
<path d="M172.942 293.545C170.181 288.762 171.82 282.646 176.603 279.885C181.386 277.123 187.501 278.762 190.263 283.545C193.024 288.328 191.386 294.444 186.603 297.205C181.82 299.967 175.704 298.328 172.942 293.545Z" fill="url(#paint31_linear_117_167)" fill-opacity="0.5"/>
<path d="M205.385 169.737C202.623 164.954 204.262 158.838 209.045 156.076C213.828 153.315 219.944 154.954 222.705 159.737C225.467 164.519 223.828 170.635 219.045 173.397C214.262 176.158 208.146 174.519 205.385 169.737Z" fill="url(#paint32_linear_117_167)" fill-opacity="0.5"/>
<path d="M82.9424 137.66C80.181 132.877 81.8197 126.761 86.6026 124C91.3856 121.239 97.5015 122.877 100.263 127.66C103.024 132.443 101.386 138.559 96.6026 141.321C91.8197 144.082 85.7038 142.443 82.9424 137.66Z" fill="url(#paint33_linear_117_167)" fill-opacity="0.5"/>
<path d="M36.6025 209.603C36.6025 204.08 41.0797 199.603 46.6025 199.603C52.1254 199.603 56.6025 204.08 56.6025 209.603C56.6025 215.125 52.1254 219.603 46.6025 219.603C41.0797 219.603 36.6025 215.125 36.6025 209.603Z" fill="url(#paint34_linear_117_167)" fill-opacity="0.5"/>
<path d="M126.603 300.603C126.603 295.08 131.08 290.603 136.603 290.603C142.125 290.603 146.603 295.08 146.603 300.603C146.603 306.125 142.125 310.603 136.603 310.603C131.08 310.603 126.603 306.125 126.603 300.603Z" fill="url(#paint35_linear_117_167)" fill-opacity="0.5"/>
<path d="M216.603 209.603C216.603 204.08 221.08 199.603 226.603 199.603C232.125 199.603 236.603 204.08 236.603 209.603C236.603 215.125 232.125 219.603 226.603 219.603C221.08 219.603 216.603 215.125 216.603 209.603Z" fill="url(#paint36_linear_117_167)" fill-opacity="0.5"/>
<path d="M126.603 120.603C126.603 115.08 131.08 110.603 136.603 110.603C142.125 110.603 146.603 115.08 146.603 120.603C146.603 126.125 142.125 130.603 136.603 130.603C131.08 130.603 126.603 126.125 126.603 120.603Z" fill="url(#paint37_linear_117_167)" fill-opacity="0.5"/>
<path d="M85.7364 296.705C80.9535 293.944 79.3147 287.828 82.0762 283.045C84.8376 278.262 90.9535 276.623 95.7364 279.385C100.519 282.146 102.158 288.262 99.3967 293.045C96.6353 297.828 90.5194 299.467 85.7364 296.705Z" fill="url(#paint38_linear_117_167)" fill-opacity="0.5"/>
<path d="M209.545 264.263C204.762 261.501 203.123 255.385 205.885 250.603C208.646 245.82 214.762 244.181 219.545 246.942C224.328 249.704 225.967 255.82 223.205 260.603C220.444 265.385 214.328 267.024 209.545 264.263Z" fill="url(#paint39_linear_117_167)" fill-opacity="0.5"/>
<path d="M175.736 140.821C170.953 138.059 169.315 131.943 172.076 127.16C174.838 122.377 180.953 120.739 185.736 123.5C190.519 126.261 192.158 132.377 189.397 137.16C186.635 141.943 180.519 143.582 175.736 140.821Z" fill="url(#paint40_linear_117_167)" fill-opacity="0.5"/>
<path d="M53.6603 174.263C48.8773 171.501 47.2386 165.385 50 160.603C52.7614 155.82 58.8773 154.181 63.6603 156.942C68.4432 159.704 70.0819 165.82 67.3205 170.603C64.5591 175.385 58.4432 177.024 53.6603 174.263Z" fill="url(#paint41_linear_117_167)" fill-opacity="0.5"/>
<rect x="161.958" y="164.247" width="20" height="20" rx="10" fill="#D6BEFF"/>
<rect x="91.2471" y="234.958" width="20" height="20" rx="10" fill="#D6BEFF"/>
<rect x="161.958" y="234.958" width="20" height="20" rx="10" fill="#D6BEFF"/>
<rect x="91.2471" y="164.247" width="20" height="20" rx="10" fill="#D6BEFF"/>
<rect x="126.603" y="149.603" width="20" height="20" rx="10" fill="#D6BEFF"/>
<rect x="126.603" y="249.603" width="20" height="20" rx="10" fill="#D6BEFF"/>
<rect x="176.603" y="199.603" width="20" height="20" rx="10" fill="#D6BEFF"/>
<rect x="76.6025" y="199.603" width="20" height="20" rx="10" fill="#D6BEFF"/>
<rect x="126.603" y="199.603" width="20" height="20" rx="10" fill="#D6BEFF"/>
<path d="M49.5 259.737C46.7386 254.954 48.3773 248.838 53.1603 246.076C57.9432 243.315 64.0591 244.954 66.8205 249.737C69.5819 254.519 67.9432 260.635 63.1603 263.397C58.3773 266.158 52.2614 264.519 49.5 259.737Z" fill="#D6BEFF" fill-opacity="0.4"/>
<path d="M172.942 293.545C170.181 288.762 171.82 282.646 176.603 279.885C181.386 277.123 187.501 278.762 190.263 283.545C193.024 288.328 191.386 294.444 186.603 297.205C181.82 299.967 175.704 298.328 172.942 293.545Z" fill="#D6BEFF" fill-opacity="0.4"/>
<path d="M205.385 169.737C202.623 164.954 204.262 158.838 209.045 156.076C213.828 153.315 219.944 154.954 222.705 159.737C225.467 164.519 223.828 170.635 219.045 173.397C214.262 176.158 208.146 174.519 205.385 169.737Z" fill="#D6BEFF" fill-opacity="0.4"/>
<path d="M82.9424 137.66C80.181 132.877 81.8197 126.761 86.6026 124C91.3856 121.239 97.5015 122.877 100.263 127.66C103.024 132.443 101.386 138.559 96.6026 141.321C91.8197 144.082 85.7038 142.443 82.9424 137.66Z" fill="#D6BEFF" fill-opacity="0.4"/>
<path d="M36.6025 209.603C36.6025 204.08 41.0797 199.603 46.6025 199.603C52.1254 199.603 56.6025 204.08 56.6025 209.603C56.6025 215.125 52.1254 219.603 46.6025 219.603C41.0797 219.603 36.6025 215.125 36.6025 209.603Z" fill="#D6BEFF" fill-opacity="0.4"/>
<path d="M126.603 300.603C126.603 295.08 131.08 290.603 136.603 290.603C142.125 290.603 146.603 295.08 146.603 300.603C146.603 306.125 142.125 310.603 136.603 310.603C131.08 310.603 126.603 306.125 126.603 300.603Z" fill="#D6BEFF" fill-opacity="0.4"/>
<path d="M216.603 209.603C216.603 204.08 221.08 199.603 226.603 199.603C232.125 199.603 236.603 204.08 236.603 209.603C236.603 215.125 232.125 219.603 226.603 219.603C221.08 219.603 216.603 215.125 216.603 209.603Z" fill="#D6BEFF" fill-opacity="0.4"/>
<path d="M126.603 120.603C126.603 115.08 131.08 110.603 136.603 110.603C142.125 110.603 146.603 115.08 146.603 120.603C146.603 126.125 142.125 130.603 136.603 130.603C131.08 130.603 126.603 126.125 126.603 120.603Z" fill="#D6BEFF" fill-opacity="0.4"/>
<path d="M85.7364 296.705C80.9535 293.944 79.3147 287.828 82.0762 283.045C84.8376 278.262 90.9535 276.623 95.7364 279.385C100.519 282.146 102.158 288.262 99.3967 293.045C96.6353 297.828 90.5194 299.467 85.7364 296.705Z" fill="#D6BEFF" fill-opacity="0.4"/>
<path d="M209.545 264.263C204.762 261.501 203.123 255.385 205.885 250.603C208.646 245.82 214.762 244.181 219.545 246.942C224.328 249.704 225.967 255.82 223.205 260.603C220.444 265.385 214.328 267.024 209.545 264.263Z" fill="#D6BEFF" fill-opacity="0.4"/>
<path d="M175.736 140.821C170.953 138.059 169.315 131.943 172.076 127.16C174.838 122.377 180.953 120.739 185.736 123.5C190.519 126.261 192.158 132.377 189.397 137.16C186.635 141.943 180.519 143.582 175.736 140.821Z" fill="#D6BEFF" fill-opacity="0.4"/>
<path d="M53.6603 174.263C48.8773 171.501 47.2386 165.385 50 160.603C52.7614 155.82 58.8773 154.181 63.6603 156.942C68.4432 159.704 70.0819 165.82 67.3205 170.603C64.5591 175.385 58.4432 177.024 53.6603 174.263Z" fill="#D6BEFF" fill-opacity="0.4"/>
<rect x="455.958" y="90.2472" width="20" height="20" rx="10" fill="url(#paint42_linear_117_167)" fill-opacity="0.5"/>
<rect x="385.247" y="160.958" width="20" height="20" rx="10" fill="url(#paint43_linear_117_167)" fill-opacity="0.5"/>
<rect x="455.958" y="160.958" width="20" height="20" rx="10" fill="url(#paint44_linear_117_167)" fill-opacity="0.5"/>
<rect x="385.247" y="90.2472" width="20" height="20" rx="10" fill="url(#paint45_linear_117_167)" fill-opacity="0.5"/>
<rect x="420.603" y="75.6025" width="20" height="20" rx="10" fill="url(#paint46_linear_117_167)" fill-opacity="0.5"/>
<rect x="420.603" y="175.603" width="20" height="20" rx="10" fill="url(#paint47_linear_117_167)" fill-opacity="0.5"/>
<rect x="470.603" y="125.603" width="20" height="20" rx="10" fill="url(#paint48_linear_117_167)" fill-opacity="0.5"/>
<rect x="370.603" y="125.603" width="20" height="20" rx="10" fill="url(#paint49_linear_117_167)" fill-opacity="0.5"/>
<rect x="420.603" y="125.603" width="20" height="20" rx="10" fill="url(#paint50_linear_117_167)" fill-opacity="0.5"/>
<path d="M343.5 185.737C340.739 180.954 342.377 174.838 347.16 172.076C351.943 169.315 358.059 170.954 360.821 175.737C363.582 180.519 361.943 186.635 357.16 189.397C352.377 192.158 346.261 190.519 343.5 185.737Z" fill="url(#paint51_linear_117_167)" fill-opacity="0.5"/>
<path d="M466.942 219.545C464.181 214.762 465.82 208.646 470.603 205.885C475.386 203.123 481.501 204.762 484.263 209.545C487.024 214.328 485.386 220.444 480.603 223.205C475.82 225.966 469.704 224.328 466.942 219.545Z" fill="url(#paint52_linear_117_167)" fill-opacity="0.5"/>
<path d="M499.385 95.7365C496.623 90.9536 498.262 84.8377 503.045 82.0763C507.828 79.3148 513.944 80.9536 516.705 85.7365C519.467 90.5194 517.828 96.6353 513.045 99.3968C508.262 102.158 502.146 100.519 499.385 95.7365Z" fill="url(#paint53_linear_117_167)" fill-opacity="0.5"/>
<path d="M376.942 63.6603C374.181 58.8773 375.82 52.7614 380.603 50C385.386 47.2386 391.501 48.8773 394.263 53.6603C397.024 58.4432 395.386 64.5591 390.603 67.3205C385.82 70.0819 379.704 68.4432 376.942 63.6603Z" fill="url(#paint54_linear_117_167)" fill-opacity="0.5"/>
<path d="M330.603 135.603C330.603 130.08 335.08 125.603 340.603 125.603C346.125 125.603 350.603 130.08 350.603 135.603C350.603 141.125 346.125 145.603 340.603 145.603C335.08 145.603 330.603 141.125 330.603 135.603Z" fill="url(#paint55_linear_117_167)" fill-opacity="0.5"/>
<path d="M420.603 226.603C420.603 221.08 425.08 216.603 430.603 216.603C436.125 216.603 440.603 221.08 440.603 226.603C440.603 232.125 436.125 236.603 430.603 236.603C425.08 236.603 420.603 232.125 420.603 226.603Z" fill="url(#paint56_linear_117_167)" fill-opacity="0.5"/>
<path d="M510.603 135.603C510.603 130.08 515.08 125.603 520.603 125.603C526.125 125.603 530.603 130.08 530.603 135.603C530.603 141.125 526.125 145.603 520.603 145.603C515.08 145.603 510.603 141.125 510.603 135.603Z" fill="url(#paint57_linear_117_167)" fill-opacity="0.5"/>
<path d="M420.603 46.6025C420.603 41.0797 425.08 36.6025 430.603 36.6025C436.125 36.6025 440.603 41.0797 440.603 46.6025C440.603 52.1254 436.125 56.6025 430.603 56.6025C425.08 56.6025 420.603 52.1254 420.603 46.6025Z" fill="url(#paint58_linear_117_167)" fill-opacity="0.5"/>
<path d="M379.736 222.705C374.953 219.944 373.315 213.828 376.076 209.045C378.838 204.262 384.953 202.623 389.736 205.385C394.519 208.146 396.158 214.262 393.397 219.045C390.635 223.828 384.519 225.467 379.736 222.705Z" fill="url(#paint59_linear_117_167)" fill-opacity="0.5"/>
<path d="M503.545 190.263C498.762 187.501 497.123 181.385 499.885 176.603C502.646 171.82 508.762 170.181 513.545 172.942C518.328 175.704 519.967 181.82 517.205 186.603C514.444 191.385 508.328 193.024 503.545 190.263Z" fill="url(#paint60_linear_117_167)" fill-opacity="0.5"/>
<path d="M469.736 66.8205C464.953 64.0591 463.315 57.9432 466.076 53.1603C468.838 48.3773 474.953 46.7386 479.736 49.5C484.519 52.2614 486.158 58.3773 483.397 63.1603C480.635 67.9432 474.519 69.5819 469.736 66.8205Z" fill="url(#paint61_linear_117_167)" fill-opacity="0.5"/>
<path d="M347.66 100.263C342.877 97.5014 341.239 91.3855 344 86.6025C346.761 81.8196 352.877 80.1809 357.66 82.9423C362.443 85.7037 364.082 91.8196 361.321 96.6025C358.559 101.385 352.443 103.024 347.66 100.263Z" fill="url(#paint62_linear_117_167)" fill-opacity="0.5"/>
<rect x="452.958" y="86.2472" width="20" height="20" rx="10" fill="#414141"/>
<rect x="382.247" y="156.958" width="20" height="20" rx="10" fill="#414141"/>
<rect x="452.958" y="156.958" width="20" height="20" rx="10" fill="#414141"/>
<rect x="382.247" y="86.2472" width="20" height="20" rx="10" fill="#414141"/>
<rect x="417.603" y="71.6025" width="20" height="20" rx="10" fill="#414141"/>
<rect x="417.603" y="171.603" width="20" height="20" rx="10" fill="#414141"/>
<rect x="467.603" y="121.603" width="20" height="20" rx="10" fill="#414141"/>
<rect x="367.603" y="121.603" width="20" height="20" rx="10" fill="#414141"/>
<rect x="417.603" y="121.603" width="20" height="20" rx="10" fill="#414141"/>
<path d="M340.5 181.737C337.739 176.954 339.377 170.838 344.16 168.076C348.943 165.315 355.059 166.954 357.821 171.737C360.582 176.519 358.943 182.635 354.16 185.397C349.377 188.158 343.261 186.519 340.5 181.737Z" fill="#6A6A6A" fill-opacity="0.5"/>
<path d="M463.942 215.545C461.181 210.762 462.82 204.646 467.603 201.885C472.386 199.123 478.501 200.762 481.263 205.545C484.024 210.328 482.386 216.444 477.603 219.205C472.82 221.966 466.704 220.328 463.942 215.545Z" fill="#6A6A6A" fill-opacity="0.5"/>
<path d="M496.385 91.7365C493.623 86.9536 495.262 80.8377 500.045 78.0763C504.828 75.3148 510.944 76.9536 513.705 81.7365C516.467 86.5194 514.828 92.6353 510.045 95.3968C505.262 98.1582 499.146 96.5194 496.385 91.7365Z" fill="#6A6A6A" fill-opacity="0.5"/>
<path d="M373.942 59.6603C371.181 54.8773 372.82 48.7614 377.603 46C382.386 43.2386 388.501 44.8773 391.263 49.6603C394.024 54.4432 392.386 60.5591 387.603 63.3205C382.82 66.0819 376.704 64.4432 373.942 59.6603Z" fill="#6A6A6A" fill-opacity="0.5"/>
<path d="M327.603 131.603C327.603 126.08 332.08 121.603 337.603 121.603C343.125 121.603 347.603 126.08 347.603 131.603C347.603 137.125 343.125 141.603 337.603 141.603C332.08 141.603 327.603 137.125 327.603 131.603Z" fill="#6A6A6A" fill-opacity="0.5"/>
<path d="M417.603 222.603C417.603 217.08 422.08 212.603 427.603 212.603C433.125 212.603 437.603 217.08 437.603 222.603C437.603 228.125 433.125 232.603 427.603 232.603C422.08 232.603 417.603 228.125 417.603 222.603Z" fill="#6A6A6A" fill-opacity="0.5"/>
<path d="M507.603 131.603C507.603 126.08 512.08 121.603 517.603 121.603C523.125 121.603 527.603 126.08 527.603 131.603C527.603 137.125 523.125 141.603 517.603 141.603C512.08 141.603 507.603 137.125 507.603 131.603Z" fill="#6A6A6A" fill-opacity="0.5"/>
<path d="M417.603 42.6025C417.603 37.0797 422.08 32.6025 427.603 32.6025C433.125 32.6025 437.603 37.0797 437.603 42.6025C437.603 48.1254 433.125 52.6025 427.603 52.6025C422.08 52.6025 417.603 48.1254 417.603 42.6025Z" fill="#6A6A6A" fill-opacity="0.5"/>
<path d="M376.736 218.705C371.953 215.944 370.315 209.828 373.076 205.045C375.838 200.262 381.953 198.623 386.736 201.385C391.519 204.146 393.158 210.262 390.397 215.045C387.635 219.828 381.519 221.467 376.736 218.705Z" fill="#6A6A6A" fill-opacity="0.5"/>
<path d="M500.545 186.263C495.762 183.501 494.123 177.385 496.885 172.603C499.646 167.82 505.762 166.181 510.545 168.942C515.328 171.704 516.967 177.82 514.205 182.603C511.444 187.385 505.328 189.024 500.545 186.263Z" fill="#6A6A6A" fill-opacity="0.5"/>
<path d="M466.736 62.8205C461.953 60.0591 460.315 53.9432 463.076 49.1603C465.838 44.3773 471.953 42.7386 476.736 45.5C481.519 48.2614 483.158 54.3773 480.397 59.1603C477.635 63.9432 471.519 65.5819 466.736 62.8205Z" fill="#6A6A6A" fill-opacity="0.5"/>
<path d="M344.66 96.2628C339.877 93.5014 338.239 87.3855 341 82.6025C343.761 77.8196 349.877 76.1809 354.66 78.9423C359.443 81.7037 361.082 87.8196 358.321 92.6025C355.559 97.3855 349.443 99.0242 344.66 96.2628Z" fill="#6A6A6A" fill-opacity="0.5"/>
<defs>
<linearGradient id="paint0_linear_117_167" x1="347.599" y1="224.557" x2="335.923" y2="213.284" gradientUnits="userSpaceOnUse">
<stop stop-color="#EDEDED"/>
<stop offset="1" stop-color="#EDEDED" stop-opacity="0"/>
</linearGradient>
<linearGradient id="paint1_linear_117_167" x1="276.888" y1="295.268" x2="265.212" y2="283.994" gradientUnits="userSpaceOnUse">
<stop stop-color="#EDEDED"/>
<stop offset="1" stop-color="#EDEDED" stop-opacity="0"/>
</linearGradient>
<linearGradient id="paint2_linear_117_167" x1="347.599" y1="295.268" x2="335.923" y2="283.994" gradientUnits="userSpaceOnUse">
<stop stop-color="#EDEDED"/>
<stop offset="1" stop-color="#EDEDED" stop-opacity="0"/>
</linearGradient>
<linearGradient id="paint3_linear_117_167" x1="276.888" y1="224.557" x2="265.212" y2="213.284" gradientUnits="userSpaceOnUse">
<stop stop-color="#EDEDED"/>
<stop offset="1" stop-color="#EDEDED" stop-opacity="0"/>
</linearGradient>
<linearGradient id="paint4_linear_117_167" x1="312.244" y1="209.913" x2="300.567" y2="198.639" gradientUnits="userSpaceOnUse">
<stop stop-color="#EDEDED"/>
<stop offset="1" stop-color="#EDEDED" stop-opacity="0"/>
</linearGradient>
<linearGradient id="paint5_linear_117_167" x1="312.244" y1="309.913" x2="300.567" y2="298.639" gradientUnits="userSpaceOnUse">
<stop stop-color="#EDEDED"/>
<stop offset="1" stop-color="#EDEDED" stop-opacity="0"/>
</linearGradient>
<linearGradient id="paint6_linear_117_167" x1="362.244" y1="259.913" x2="350.567" y2="248.639" gradientUnits="userSpaceOnUse">
<stop stop-color="#EDEDED"/>
<stop offset="1" stop-color="#EDEDED" stop-opacity="0"/>
</linearGradient>
<linearGradient id="paint7_linear_117_167" x1="262.244" y1="259.913" x2="250.567" y2="248.639" gradientUnits="userSpaceOnUse">
<stop stop-color="#EDEDED"/>
<stop offset="1" stop-color="#EDEDED" stop-opacity="0"/>
</linearGradient>
<linearGradient id="paint8_linear_117_167" x1="312.244" y1="259.913" x2="300.567" y2="248.639" gradientUnits="userSpaceOnUse">
<stop stop-color="#EDEDED"/>
<stop offset="1" stop-color="#EDEDED" stop-opacity="0"/>
</linearGradient>
<linearGradient id="paint9_linear_117_167" x1="233.835" y1="302.551" x2="218.086" y2="298.626" gradientUnits="userSpaceOnUse">
<stop stop-color="#EDEDED"/>
<stop offset="1" stop-color="#EDEDED" stop-opacity="0"/>
</linearGradient>
<linearGradient id="paint10_linear_117_167" x1="357.277" y1="336.359" x2="341.528" y2="332.434" gradientUnits="userSpaceOnUse">
<stop stop-color="#EDEDED"/>
<stop offset="1" stop-color="#EDEDED" stop-opacity="0"/>
</linearGradient>
<linearGradient id="paint11_linear_117_167" x1="389.719" y1="212.551" x2="373.971" y2="208.626" gradientUnits="userSpaceOnUse">
<stop stop-color="#EDEDED"/>
<stop offset="1" stop-color="#EDEDED" stop-opacity="0"/>
</linearGradient>
<linearGradient id="paint12_linear_117_167" x1="267.277" y1="180.474" x2="251.528" y2="176.549" gradientUnits="userSpaceOnUse">
<stop stop-color="#EDEDED"/>
<stop offset="1" stop-color="#EDEDED" stop-opacity="0"/>
</linearGradient>
<linearGradient id="paint13_linear_117_167" x1="222.244" y1="259.913" x2="210.567" y2="248.639" gradientUnits="userSpaceOnUse">
<stop stop-color="#EDEDED"/>
<stop offset="1" stop-color="#EDEDED" stop-opacity="0"/>
</linearGradient>
<linearGradient id="paint14_linear_117_167" x1="312.244" y1="350.913" x2="300.567" y2="339.639" gradientUnits="userSpaceOnUse">
<stop stop-color="#EDEDED"/>
<stop offset="1" stop-color="#EDEDED" stop-opacity="0"/>
</linearGradient>
<linearGradient id="paint15_linear_117_167" x1="402.244" y1="259.913" x2="390.567" y2="248.639" gradientUnits="userSpaceOnUse">
<stop stop-color="#EDEDED"/>
<stop offset="1" stop-color="#EDEDED" stop-opacity="0"/>
</linearGradient>
<linearGradient id="paint16_linear_117_167" x1="312.244" y1="170.913" x2="300.567" y2="159.639" gradientUnits="userSpaceOnUse">
<stop stop-color="#EDEDED"/>
<stop offset="1" stop-color="#EDEDED" stop-opacity="0"/>
</linearGradient>
<linearGradient id="paint17_linear_117_167" x1="265.192" y1="333.681" x2="249.59" y2="338.156" gradientUnits="userSpaceOnUse">
<stop stop-color="#EDEDED"/>
<stop offset="1" stop-color="#EDEDED" stop-opacity="0"/>
</linearGradient>
<linearGradient id="paint18_linear_117_167" x1="389" y1="301.238" x2="373.399" y2="305.714" gradientUnits="userSpaceOnUse">
<stop stop-color="#EDEDED"/>
<stop offset="1" stop-color="#EDEDED" stop-opacity="0"/>
</linearGradient>
<linearGradient id="paint19_linear_117_167" x1="355.192" y1="177.796" x2="339.59" y2="182.271" gradientUnits="userSpaceOnUse">
<stop stop-color="#EDEDED"/>
<stop offset="1" stop-color="#EDEDED" stop-opacity="0"/>
</linearGradient>
<linearGradient id="paint20_linear_117_167" x1="233.115" y1="211.238" x2="217.514" y2="215.714" gradientUnits="userSpaceOnUse">
<stop stop-color="#EDEDED"/>
<stop offset="1" stop-color="#EDEDED" stop-opacity="0"/>
</linearGradient>
<linearGradient id="paint21_linear_117_167" x1="176.599" y1="175.557" x2="164.923" y2="164.284" gradientUnits="userSpaceOnUse">
<stop stop-color="#EDEDED"/>
<stop offset="1" stop-color="#EDEDED" stop-opacity="0"/>
</linearGradient>
<linearGradient id="paint22_linear_117_167" x1="105.888" y1="246.268" x2="94.2119" y2="234.994" gradientUnits="userSpaceOnUse">
<stop stop-color="#EDEDED"/>
<stop offset="1" stop-color="#EDEDED" stop-opacity="0"/>
</linearGradient>
<linearGradient id="paint23_linear_117_167" x1="176.599" y1="246.268" x2="164.923" y2="234.994" gradientUnits="userSpaceOnUse">
<stop stop-color="#EDEDED"/>
<stop offset="1" stop-color="#EDEDED" stop-opacity="0"/>
</linearGradient>
<linearGradient id="paint24_linear_117_167" x1="105.888" y1="175.557" x2="94.2119" y2="164.284" gradientUnits="userSpaceOnUse">
<stop stop-color="#EDEDED"/>
<stop offset="1" stop-color="#EDEDED" stop-opacity="0"/>
</linearGradient>
<linearGradient id="paint25_linear_117_167" x1="141.244" y1="160.913" x2="129.567" y2="149.639" gradientUnits="userSpaceOnUse">
<stop stop-color="#EDEDED"/>
<stop offset="1" stop-color="#EDEDED" stop-opacity="0"/>
</linearGradient>
<linearGradient id="paint26_linear_117_167" x1="141.244" y1="260.913" x2="129.567" y2="249.639" gradientUnits="userSpaceOnUse">
<stop stop-color="#EDEDED"/>
<stop offset="1" stop-color="#EDEDED" stop-opacity="0"/>
</linearGradient>
<linearGradient id="paint27_linear_117_167" x1="191.244" y1="210.913" x2="179.567" y2="199.639" gradientUnits="userSpaceOnUse">
<stop stop-color="#EDEDED"/>
<stop offset="1" stop-color="#EDEDED" stop-opacity="0"/>
</linearGradient>
<linearGradient id="paint28_linear_117_167" x1="91.2435" y1="210.913" x2="79.5673" y2="199.639" gradientUnits="userSpaceOnUse">
<stop stop-color="#EDEDED"/>
<stop offset="1" stop-color="#EDEDED" stop-opacity="0"/>
</linearGradient>
<linearGradient id="paint29_linear_117_167" x1="141.244" y1="210.913" x2="129.567" y2="199.639" gradientUnits="userSpaceOnUse">
<stop stop-color="#EDEDED"/>
<stop offset="1" stop-color="#EDEDED" stop-opacity="0"/>
</linearGradient>
<linearGradient id="paint30_linear_117_167" x1="62.8346" y1="253.551" x2="47.0859" y2="249.626" gradientUnits="userSpaceOnUse">
<stop stop-color="#EDEDED"/>
<stop offset="1" stop-color="#EDEDED" stop-opacity="0"/>
</linearGradient>
<linearGradient id="paint31_linear_117_167" x1="186.277" y1="287.359" x2="170.528" y2="283.434" gradientUnits="userSpaceOnUse">
<stop stop-color="#EDEDED"/>
<stop offset="1" stop-color="#EDEDED" stop-opacity="0"/>
</linearGradient>
<linearGradient id="paint32_linear_117_167" x1="218.719" y1="163.551" x2="202.971" y2="159.626" gradientUnits="userSpaceOnUse">
<stop stop-color="#EDEDED"/>
<stop offset="1" stop-color="#EDEDED" stop-opacity="0"/>
</linearGradient>
<linearGradient id="paint33_linear_117_167" x1="96.277" y1="131.474" x2="80.5283" y2="127.549" gradientUnits="userSpaceOnUse">
<stop stop-color="#EDEDED"/>
<stop offset="1" stop-color="#EDEDED" stop-opacity="0"/>
</linearGradient>
<linearGradient id="paint34_linear_117_167" x1="51.2435" y1="210.913" x2="39.5673" y2="199.639" gradientUnits="userSpaceOnUse">
<stop stop-color="#EDEDED"/>
<stop offset="1" stop-color="#EDEDED" stop-opacity="0"/>
</linearGradient>
<linearGradient id="paint35_linear_117_167" x1="141.244" y1="301.913" x2="129.567" y2="290.639" gradientUnits="userSpaceOnUse">
<stop stop-color="#EDEDED"/>
<stop offset="1" stop-color="#EDEDED" stop-opacity="0"/>
</linearGradient>
<linearGradient id="paint36_linear_117_167" x1="231.244" y1="210.913" x2="219.567" y2="199.639" gradientUnits="userSpaceOnUse">
<stop stop-color="#EDEDED"/>
<stop offset="1" stop-color="#EDEDED" stop-opacity="0"/>
</linearGradient>
<linearGradient id="paint37_linear_117_167" x1="141.244" y1="121.913" x2="129.567" y2="110.639" gradientUnits="userSpaceOnUse">
<stop stop-color="#EDEDED"/>
<stop offset="1" stop-color="#EDEDED" stop-opacity="0"/>
</linearGradient>
<linearGradient id="paint38_linear_117_167" x1="94.1916" y1="284.681" x2="78.5903" y2="289.156" gradientUnits="userSpaceOnUse">
<stop stop-color="#EDEDED"/>
<stop offset="1" stop-color="#EDEDED" stop-opacity="0"/>
</linearGradient>
<linearGradient id="paint39_linear_117_167" x1="218" y1="252.238" x2="202.399" y2="256.714" gradientUnits="userSpaceOnUse">
<stop stop-color="#EDEDED"/>
<stop offset="1" stop-color="#EDEDED" stop-opacity="0"/>
</linearGradient>
<linearGradient id="paint40_linear_117_167" x1="184.192" y1="128.796" x2="168.59" y2="133.271" gradientUnits="userSpaceOnUse">
<stop stop-color="#EDEDED"/>
<stop offset="1" stop-color="#EDEDED" stop-opacity="0"/>
</linearGradient>
<linearGradient id="paint41_linear_117_167" x1="62.1154" y1="162.238" x2="46.5141" y2="166.714" gradientUnits="userSpaceOnUse">
<stop stop-color="#EDEDED"/>
<stop offset="1" stop-color="#EDEDED" stop-opacity="0"/>
</linearGradient>
<linearGradient id="paint42_linear_117_167" x1="470.599" y1="101.557" x2="458.923" y2="90.2838" gradientUnits="userSpaceOnUse">
<stop stop-color="#EDEDED"/>
<stop offset="1" stop-color="#EDEDED" stop-opacity="0"/>
</linearGradient>
<linearGradient id="paint43_linear_117_167" x1="399.888" y1="172.268" x2="388.212" y2="160.994" gradientUnits="userSpaceOnUse">
<stop stop-color="#EDEDED"/>
<stop offset="1" stop-color="#EDEDED" stop-opacity="0"/>
</linearGradient>
<linearGradient id="paint44_linear_117_167" x1="470.599" y1="172.268" x2="458.923" y2="160.994" gradientUnits="userSpaceOnUse">
<stop stop-color="#EDEDED"/>
<stop offset="1" stop-color="#EDEDED" stop-opacity="0"/>
</linearGradient>
<linearGradient id="paint45_linear_117_167" x1="399.888" y1="101.557" x2="388.212" y2="90.2838" gradientUnits="userSpaceOnUse">
<stop stop-color="#EDEDED"/>
<stop offset="1" stop-color="#EDEDED" stop-opacity="0"/>
</linearGradient>
<linearGradient id="paint46_linear_117_167" x1="435.244" y1="86.9127" x2="423.567" y2="75.6391" gradientUnits="userSpaceOnUse">
<stop stop-color="#EDEDED"/>
<stop offset="1" stop-color="#EDEDED" stop-opacity="0"/>
</linearGradient>
<linearGradient id="paint47_linear_117_167" x1="435.244" y1="186.913" x2="423.567" y2="175.639" gradientUnits="userSpaceOnUse">
<stop stop-color="#EDEDED"/>
<stop offset="1" stop-color="#EDEDED" stop-opacity="0"/>
</linearGradient>
<linearGradient id="paint48_linear_117_167" x1="485.244" y1="136.913" x2="473.567" y2="125.639" gradientUnits="userSpaceOnUse">
<stop stop-color="#EDEDED"/>
<stop offset="1" stop-color="#EDEDED" stop-opacity="0"/>
</linearGradient>
<linearGradient id="paint49_linear_117_167" x1="385.244" y1="136.913" x2="373.567" y2="125.639" gradientUnits="userSpaceOnUse">
<stop stop-color="#EDEDED"/>
<stop offset="1" stop-color="#EDEDED" stop-opacity="0"/>
</linearGradient>
<linearGradient id="paint50_linear_117_167" x1="435.244" y1="136.913" x2="423.567" y2="125.639" gradientUnits="userSpaceOnUse">
<stop stop-color="#EDEDED"/>
<stop offset="1" stop-color="#EDEDED" stop-opacity="0"/>
</linearGradient>
<linearGradient id="paint51_linear_117_167" x1="356.835" y1="179.551" x2="341.086" y2="175.626" gradientUnits="userSpaceOnUse">
<stop stop-color="#EDEDED"/>
<stop offset="1" stop-color="#EDEDED" stop-opacity="0"/>
</linearGradient>
<linearGradient id="paint52_linear_117_167" x1="480.277" y1="213.359" x2="464.528" y2="209.434" gradientUnits="userSpaceOnUse">
<stop stop-color="#EDEDED"/>
<stop offset="1" stop-color="#EDEDED" stop-opacity="0"/>
</linearGradient>
<linearGradient id="paint53_linear_117_167" x1="512.719" y1="89.5507" x2="496.971" y2="85.6256" gradientUnits="userSpaceOnUse">
<stop stop-color="#EDEDED"/>
<stop offset="1" stop-color="#EDEDED" stop-opacity="0"/>
</linearGradient>
<linearGradient id="paint54_linear_117_167" x1="390.277" y1="57.4744" x2="374.528" y2="53.5493" gradientUnits="userSpaceOnUse">
<stop stop-color="#EDEDED"/>
<stop offset="1" stop-color="#EDEDED" stop-opacity="0"/>
</linearGradient>
<linearGradient id="paint55_linear_117_167" x1="345.244" y1="136.913" x2="333.567" y2="125.639" gradientUnits="userSpaceOnUse">
<stop stop-color="#EDEDED"/>
<stop offset="1" stop-color="#EDEDED" stop-opacity="0"/>
</linearGradient>
<linearGradient id="paint56_linear_117_167" x1="435.244" y1="227.913" x2="423.567" y2="216.639" gradientUnits="userSpaceOnUse">
<stop stop-color="#EDEDED"/>
<stop offset="1" stop-color="#EDEDED" stop-opacity="0"/>
</linearGradient>
<linearGradient id="paint57_linear_117_167" x1="525.244" y1="136.913" x2="513.567" y2="125.639" gradientUnits="userSpaceOnUse">
<stop stop-color="#EDEDED"/>
<stop offset="1" stop-color="#EDEDED" stop-opacity="0"/>
</linearGradient>
<linearGradient id="paint58_linear_117_167" x1="435.244" y1="47.9127" x2="423.567" y2="36.6391" gradientUnits="userSpaceOnUse">
<stop stop-color="#EDEDED"/>
<stop offset="1" stop-color="#EDEDED" stop-opacity="0"/>
</linearGradient>
<linearGradient id="paint59_linear_117_167" x1="388.192" y1="210.681" x2="372.59" y2="215.156" gradientUnits="userSpaceOnUse">
<stop stop-color="#EDEDED"/>
<stop offset="1" stop-color="#EDEDED" stop-opacity="0"/>
</linearGradient>
<linearGradient id="paint60_linear_117_167" x1="512" y1="178.238" x2="496.399" y2="182.714" gradientUnits="userSpaceOnUse">
<stop stop-color="#EDEDED"/>
<stop offset="1" stop-color="#EDEDED" stop-opacity="0"/>
</linearGradient>
<linearGradient id="paint61_linear_117_167" x1="478.192" y1="54.7961" x2="462.59" y2="59.2712" gradientUnits="userSpaceOnUse">
<stop stop-color="#EDEDED"/>
<stop offset="1" stop-color="#EDEDED" stop-opacity="0"/>
</linearGradient>
<linearGradient id="paint62_linear_117_167" x1="356.115" y1="88.2384" x2="340.514" y2="92.7135" gradientUnits="userSpaceOnUse">
<stop stop-color="#EDEDED"/>
<stop offset="1" stop-color="#EDEDED" stop-opacity="0"/>
</linearGradient>
</defs>
</svg>
